<?xml version="1.0" encoding="utf-8"?>
<!-- Generator: Adobe Illustrator 27.8.0, SVG Export Plug-In . SVG Version: 6.00 Build 0)  -->
<svg version="1.1" id="Layer_1" xmlns="http://www.w3.org/2000/svg" xmlns:xlink="http://www.w3.org/1999/xlink" x="0px" y="0px"
	 viewBox="0 0 197.2 197.2" style="enable-background:new 0 0 197.2 197.2;" xml:space="preserve">
<style type="text/css">
	.st0{fill:#b00bc5;}
	.st1{fill:#fff;}
	.st2{fill:none;stroke:#b00bc5;stroke-miterlimit:10;}
</style>
<g>
	<circle class="st0" cx="98.6" cy="98.6" r="98.6"/>
</g>
<path class="st2" d="M223.9,260.7h-1484.1c-12.7,0-23-10.3-23-23v-362.4c0-12.7,10.3-23,23-23H223.9c12.7,0,23,10.3,23,23v362.4
	C246.9,250.4,236.6,260.7,223.9,260.7z"/>
<g id="PPmVtj.tif_00000016754496778901995710000011304087320375873670_">
	<g>
		<path class="st1" d="M133.4,56.1c-3.9-0.5-7.9-1-11.8-1.5c-3.6-0.4-5.8-2.7-5.4-5.6c0.4-3.1,3.1-4.7,6.7-4.2
			c8.1,1.1,16.2,2,24.3,3.1c3.7,0.5,5.2,2.8,4.7,6.5c-1,7.7-1.8,15.4-2.8,23.1c-0.1,0.9-0.2,1.8-0.4,2.7c-0.6,2.5-2.9,4.1-5.4,3.8
			c-2.4-0.3-4.2-2.3-4.2-4.9c0-3.6,0.7-7.2,1.1-10.8c0.1-1,0.3-2,0.1-3c-0.9-0.1-1.4,0.6-2,1.1c-12.3,9.5-24.7,19.1-37,28.6
			c-4.1,3.2-7,2.6-9.6-1.8c-1.4-2.3-2.9-4.6-4.1-7c-0.9-1.7-1.6-1.6-3-0.5c-9.3,7.3-18.6,14.5-28,21.8c-0.9,0.7-1.8,1.4-2.7,2.1
			c-2.7,1.8-5.9,1.4-7.6-0.9c-1.8-2.4-1.5-5.4,1.2-7.5c4.5-3.6,9.1-7.1,13.7-10.6c7.5-5.8,15.1-11.7,22.6-17.5
			c4.2-3.2,7.1-2.6,9.8,1.9c1.5,2.4,2.9,4.9,4.3,7.4c0.6,1,1.1,1.3,2.1,0.5c11-8.5,21.9-17,32.9-25.6c0.2-0.2,0.5-0.3,0.7-0.4
			C133.6,56.5,133.5,56.3,133.4,56.1z"/>
		<path class="st1" d="M130.2,122.9c0-9,0-17.9,0-26.9c0-2.7,0.1-2.7,2.8-2.7c4.3,0,8.5,0,12.8,0c1.5,0,2.2,0.5,2.2,2.1
			c0,18.4,0,36.7,0,55.1c0,1.5-0.6,2-2,2c-4.6,0-9.1-0.1-13.7,0c-1.8,0-2.1-1-2.1-2.5C130.2,141,130.2,131.9,130.2,122.9z"/>
		<path class="st1" d="M121.8,128.2c0,7.2-0.1,14.4,0,21.6c0,2-0.6,2.8-2.7,2.7c-4.3-0.1-8.5-0.1-12.8,0c-1.6,0-2.2-0.6-2.2-2.3
			c0-14.7,0-29.5,0-44.2c0-1.6,0.5-2.1,2.1-2.1c4.4,0.1,8.8,0.1,13.2,0c2-0.1,2.4,0.8,2.4,2.6C121.7,113.7,121.8,121,121.8,128.2z"
			/>
		<path class="st1" d="M76.9,131.6c0-5.8,0-11.7,0-17.5c0-2.7,0.2-2.9,2.9-2.9c4.2,0,8.4,0,12.6,0c1.5,0,2.2,0.5,2.2,2.1
			c0,12.3,0,24.6,0,37c0,1.6-0.6,2.2-2.1,2.1c-4.4,0-8.8-0.1-13.3,0c-1.8,0-2.3-0.8-2.3-2.5C76.9,143.9,76.9,137.8,76.9,131.6
			C76.9,131.6,76.9,131.6,76.9,131.6z"/>
		<path class="st1" d="M68.8,135.5c0,4.8-0.1,9.5,0,14.3c0,1.9-0.5,2.7-2.5,2.7c-4.3-0.1-8.7-0.1-13,0c-1.7,0-2.3-0.6-2.2-2.3
			c0-9.7,0-19.4,0-29c0-1.6,0.5-2.3,2.2-2.3c4.5,0.1,9,0.1,13.4,0c1.6,0,2.2,0.6,2.1,2.1C68.8,125.8,68.8,130.7,68.8,135.5z"/>
	</g>
</g>
</svg>
