<?xml version="1.0" encoding="UTF-8"?>
<svg id="Layer_1" data-name="Layer 1" xmlns="http://www.w3.org/2000/svg" viewBox="0 0 197.2 197.2">
  <defs>
    <style>
      .cls-1 {
        fill: #fff;
      }

      .cls-1, .cls-2 {
        stroke-width: 0px;
      }

      .cls-2 {
        fill: #b00bc5;
      }
    </style>
  </defs>
  <circle class="cls-2" cx="98.6" cy="98.6" r="98.6"/>
  <g id="x74QSz.tif">
    <g>
      <path class="cls-1" d="m98.71,46.18c15.57,0,31.14,0,46.71,0,2.7,0,4.92.86,6.35,3.28.62,1.04.92,2.18.92,3.39,0,22.53,0,45.06,0,67.59,0,3.46-2.36,6.04-5.77,6.35-3.4.31-6.81.12-10.22.12-28.13.02-56.26,0-84.38,0-.97,0-1.94-.03-2.89-.24-2.94-.64-4.91-3.18-4.92-6.36-.01-8.61,0-17.22,0-25.83,0-13.78,0-27.55,0-41.33,0-2.7,1.09-4.78,3.43-6.16,1.25-.74,2.66-.81,4.06-.81,15.57,0,31.14,0,46.71,0Zm-.14,63.67c13.99,0,27.98,0,41.97,0,1.51,0,1.52,0,1.52-1.56,0-16.68,0-33.36,0-50.04,0-1.44,0-1.45-1.42-1.45-27.98,0-55.96,0-83.94,0-1.57,0-1.57,0-1.57,1.61,0,16.61,0,33.22,0,49.83,0,1.61,0,1.61,1.58,1.61,13.95,0,27.91,0,41.86,0Zm2.59,8.8c-.01-1.48-1.11-2.58-2.57-2.58-1.5,0-2.58,1.13-2.56,2.69.02,1.56,1,2.53,2.56,2.52,1.6,0,2.59-1.02,2.57-2.63Z"/>
      <path class="cls-1" d="m98.6,151.02c-13.02,0-26.05,0-39.07,0-1.76,0-1.88-.14-1.57-1.84,1.12-6.11,5.61-9.7,12.28-9.75,4.52-.04,9.04-.04,13.56.01,1.1.01,1.45-.34,1.39-1.42-.08-1.57.01-3.16-.03-4.73-.03-.87.26-1.22,1.16-1.22,8.18.02,16.36.02,24.54,0,.9,0,1.19.35,1.16,1.22-.05,1.58.05,3.16-.03,4.73-.05,1.08.28,1.44,1.39,1.42,4.3-.06,8.61-.03,12.92-.02,1.43,0,2.87.04,4.28.36,4.68,1.07,8.27,5.16,8.74,9.92.12,1.17-.04,1.32-1.44,1.32-13.09,0-26.19,0-39.28,0Z"/>
      <path class="cls-1" d="m120.51,83.72c0-6.1,0-12.2,0-18.3,0-1.45.01-1.45,1.43-1.46,3.37,0,6.74,0,10.12,0,1.63,0,1.63,0,1.63,1.59,0,10.19,0,20.38,0,30.57,0,2.01-.03,4.02,0,6.03.02.94-.28,1.35-1.3,1.34-3.55-.04-7.1-.04-10.66,0-.93,0-1.25-.32-1.25-1.26.03-6.17.02-12.34.01-18.51Z"/>
      <path class="cls-1" d="m114.59,88.53c0,4.48,0,8.97,0,13.45,0,1.43-.04,1.48-1.42,1.49-3.48,0-6.96-.02-10.44.02-.98.01-1.33-.34-1.33-1.31.02-9.11.02-18.23,0-27.34,0-.94.29-1.35,1.3-1.34,3.55.04,7.1.04,10.66,0,.93,0,1.25.32,1.25,1.26-.03,4.59-.02,9.18-.01,13.78Z"/>
      <path class="cls-1" d="m82.62,93.35c0-2.9.03-5.81-.02-8.71-.01-.93.31-1.26,1.24-1.25,3.55.03,7.1.04,10.64,0,1-.01,1.31.38,1.31,1.33-.02,5.84-.02,11.68,0,17.53,0,.92-.34,1.26-1.27,1.25-3.58-.04-7.17-.03-10.75,0-.89,0-1.19-.34-1.18-1.21.04-2.97.01-5.95.01-8.92Z"/>
      <path class="cls-1" d="m70.14,103.48c-1.79,0-3.59-.03-5.38.01-.95.03-1.26-.37-1.25-1.28.03-2.65.03-5.31,0-7.96,0-.86.32-1.21,1.21-1.2,3.59.03,7.17.03,10.76,0,.85,0,1.24.24,1.22,1.16-.04,2.73-.03,5.45,0,8.18,0,.78-.29,1.1-1.07,1.09-1.83-.02-3.66,0-5.49,0h0Z"/>
    </g>
  </g>
</svg>