<?xml version="1.0" encoding="utf-8"?>
<!-- Generator: Adobe Illustrator 27.8.0, SVG Export Plug-In . SVG Version: 6.00 Build 0)  -->
<svg version="1.1" id="Layer_1" xmlns="http://www.w3.org/2000/svg" xmlns:xlink="http://www.w3.org/1999/xlink" x="0px" y="0px"
	 viewBox="0 0 197.2 197.2" style="enable-background:new 0 0 197.2 197.2;" xml:space="preserve">
<style type="text/css">
	.st0{fill:#a801bd;}
	.st1{fill:#fff;}
</style>
<circle class="st0" cx="98.6" cy="98.6" r="98.6"/>
<g id="XwYnFd.tif_00000036243313778081237360000012430490730051220397_">
	<g>
		<path class="st1" d="M44,88c1.2-6.6,3.3-12.9,6.9-18.7c14.4-22.9,46.2-28.2,67.2-11.1c1.5,1.2,1.8,2,0.2,3.5
			c-2.3,2.1-4.5,4.3-6.6,6.6c-1.1,1.2-2,1.3-3.4,0.3c-19.1-14-45.5-3.5-49.9,19.8c-3.3,17.2,9.2,34.4,26.5,36.7
			c20.1,2.6,36.8-12.5,36.1-32.8c-0.1-1.6-0.3-3.1-0.6-4.6c-0.5-1.8-0.2-3,1.2-4.3c2.6-2.4,5.1-4.9,7.5-7.5c1.4-1.4,1.9-1.1,2.5,0.6
			c5.5,14,4.6,27.5-2.8,40.5c-1,1.7-0.7,2.5,0.6,3.7c6.6,6.5,12.8,13.3,19.7,19.5c6.2,5.6,5.5,14.2-2.4,17.4c-1.7,0-3.4,0-5.1,0
			c-2-0.7-3.7-2-5.2-3.6c-6.8-6.9-13.7-13.6-20.4-20.5c-1-1.1-1.8-1.1-3.1-0.4c-8.4,4.9-17.4,7.2-27.1,6.3
			c-15.5-1.5-27.3-8.9-35.5-22.1c-3.3-5.3-5-11.2-6.2-17.3C44,95.9,44,91.9,44,88z"/>
		<path class="st1" d="M84.8,100.3c0-6.7,0-12.8,0-18.9c0-1.8,0-3.6,0-5.3c-0.1-2.2,0.9-3.9,2.9-4.8c2.1-1,3.9-0.3,5.4,1.2
			c2.7,2.6,5.3,5.3,8,8c2,2,2,2,4.1-0.1c7.4-7.4,14.7-14.8,22.2-22.1c1.4-1.4,1.5-2.3,0-3.6c-1.8-1.5-3.3-3.3-5-4.9
			c-0.3-0.3-0.9-0.7-0.6-1.2c0.2-0.4,0.8-0.3,1.2-0.3c6.5,0,13.1,0,19.6,0c1.4,0,1.8,0.7,1.8,2c0,6.3,0,12.6,0,19
			c0,0.5,0.2,1.3-0.5,1.5c-0.6,0.2-1-0.4-1.4-0.8c-1.7-1.6-3.4-3.2-5-5c-1.2-1.4-2-1.2-3.2,0c-8.7,8.8-17.5,17.6-26.3,26.4
			c-0.6,0.6-1.2,1.2-1.9,1.7c-2.1,1.5-4.3,1.5-6.2-0.3c-1.7-1.6-3.2-3.4-5-5.2c-0.8,0.9-0.5,1.7-0.5,2.4c0,7,0,14.1,0,21.1
			c0,3.8-2.1,5.9-5.4,5.7c-1.4-0.1-2.4-0.8-3.3-1.7c-2.8-2.8-5.7-5.6-8.4-8.5c-1.1-1.2-1.8-1.1-2.9,0.1c-1.3,1.5-2.8,2.8-4.2,4.2
			c-0.9,1-1.6,1-2.4-0.1c-0.1-0.1-0.2-0.2-0.3-0.3c-4.4-5.7-4.4-6.1,0.6-11.1c1.4-1.4,2.8-2.9,4.2-4.2c2.2-2,4.4-2.1,6.7-0.1
			C80.9,96.5,82.6,98.2,84.8,100.3z"/>
	</g>
</g>
</svg>
