<?xml version="1.0" encoding="utf-8"?>
<!-- Generator: Adobe Illustrator 27.8.0, SVG Export Plug-In . SVG Version: 6.00 Build 0)  -->
<svg version="1.1" id="Layer_1" xmlns="http://www.w3.org/2000/svg" xmlns:xlink="http://www.w3.org/1999/xlink" x="0px" y="0px"
	 viewBox="0 0 80 80" style="enable-background:new 0 0 80 80;" xml:space="preserve">
<style type="text/css">
	.st0{fill:url(#SVGID_1_);}
	.st1{fill:url(#SVGID_00000099655259486058688970000008092148576586168215_);}
	.st2{fill:url(#SVGID_00000121960378997641834520000007469117073695424154_);}
	.st3{fill:url(#SVGID_00000033327172128765283620000016421175815959524286_);}
	.st4{fill:url(#SVGID_00000065034655919574375640000011463561783898195877_);}
	.st5{fill:url(#SVGID_00000093880361823090513420000013372135158629965443_);}
	.st6{fill:url(#SVGID_00000150821350375708729380000006470303628627720616_);}
	.st7{fill:url(#SVGID_00000079444535445984497970000012029084287183621534_);}
	.st8{fill:url(#SVGID_00000122702208439489914320000017359186081264858535_);}
	.st9{fill:url(#SVGID_00000098182256864283541400000000144875774637139128_);}
	.st10{fill:url(#SVGID_00000005987595055812171870000016125060862267461808_);}
	.st11{fill:url(#SVGID_00000067954870095347381300000000144410451843893669_);}
	.st12{fill:url(#SVGID_00000063601882121542618700000006209710505328926349_);}
	.st13{fill:url(#SVGID_00000167376399593896353140000011523128214827812763_);}
	.st14{fill:url(#SVGID_00000112604229679488280370000007516613946885084033_);}
	.st15{fill:url(#SVGID_00000105422559091063668990000012629477156411679638_);}
	.st16{fill:url(#SVGID_00000164501033964012521470000010352870563140138682_);}
	.st17{fill:url(#SVGID_00000108301032289210589100000010992299215850684834_);}
	.st18{fill:url(#SVGID_00000160192649328946783190000001720696227491593612_);}
	.st19{fill:url(#SVGID_00000178919599676948556870000005020912794483399563_);}
	.st20{fill:url(#SVGID_00000034061104623041269950000008498179118330408877_);}
	.st21{fill:url(#SVGID_00000183208416367745577230000006842276434059247759_);}
	.st22{fill:url(#SVGID_00000047041665570787589330000015319887111012788883_);}
	.st23{fill:url(#SVGID_00000174585783104607088110000017419329233085466538_);}
	.st24{fill:url(#SVGID_00000095317162767309451470000017876763437304401328_);}
	.st25{fill:url(#SVGID_00000152946903988246291570000001555185246199461819_);}
	.st26{fill:url(#SVGID_00000180363110890952679490000002745996011619000478_);}
	.st27{fill:url(#SVGID_00000102527796103780205820000000535695088022762912_);}
	.st28{fill:url(#SVGID_00000023252299316369716910000005055898267143868568_);}
	.st29{fill:url(#SVGID_00000120545990318374084320000010514456272773127585_);}
	.st30{fill:url(#SVGID_00000047058354158645952730000004698264607291110832_);}
	.st31{fill:url(#SVGID_00000138568902272200603780000007425418007271915450_);}
	.st32{fill:url(#SVGID_00000141422215006012853460000006039371822488341898_);}
	.st33{fill:url(#SVGID_00000129917757191117135970000004616065505777326744_);}
	.st34{fill:url(#SVGID_00000052076545156261636470000000074859678315103637_);}
	.st35{fill:url(#SVGID_00000116211509639203333210000000729173617297689527_);}
	.st36{fill:url(#SVGID_00000031908173335625306000000000035982856262327729_);}
	.st37{fill:url(#SVGID_00000033359641439214636560000013333314981345956519_);}
	.st38{fill:url(#SVGID_00000096768449494759702390000013243780764530987173_);}
	.st39{fill:url(#SVGID_00000054230970325889839170000007019391818191667640_);}
	.st40{fill:url(#SVGID_00000161611812229478528570000011449431812539671467_);}
	.st41{fill:url(#SVGID_00000120543423554019766280000013469230819446636680_);}
	.st42{fill:url(#SVGID_00000106129913573216949370000015800096676805839034_);}
	.st43{fill:url(#SVGID_00000151522789947510762760000011604339179074268557_);}
	.st44{fill:url(#SVGID_00000142135512235847601230000018124526355774790330_);}
	.st45{fill:url(#SVGID_00000057129161103270063090000000559502364971605394_);}
</style>
<g id="spXcLD.tif_00000176002542992337327770000010965595813870437518_">
	<g>
		
			<linearGradient id="SVGID_1_" gradientUnits="userSpaceOnUse" x1="5.8587" y1="22.9567" x2="69.2638" y2="59.9666" gradientTransform="matrix(0.7071 -0.7071 0.7071 0.7071 -16.5685 40)">
			<stop  offset="0" style="stop-color:#b00bc5"/>
			<stop  offset="1" style="stop-color:#453E1B"/>
		</linearGradient>
		<path class="st0" d="M22.8,27.5c0.4,2.6-0.1,5.1-0.1,7.7c0,1.6-0.2,3.3-0.2,4.9c0,4,3,7.2,6.9,7.6c3.9,0.3,7.4-2.3,8.2-6.2
			c0.3-1.5,0.2-3,0.3-4.5c0-0.9,0.4-1.3,1.3-1.3c6.5-0.6,12.9-1.4,19.4-2c2.2-0.2,3.8,1,4.2,3.1c0.5,3.2-0.2,4.9-2.6,5.5
			c-0.8,0.2-1,0.5-0.9,1.3c0.2,1.2,0.3,2.4,0.4,3.6c0.3,2.9-1.3,4.8-4.2,5.1c-1.3,0.1-1.9,0.4-2,1.8c-0.4,3.4-3.2,5.8-6.7,6
			c-3.8,0.2-7.6,0.4-11.4,0.6c-0.8,0-1.5,0.1-2.1,0.8c-0.5,0.7-1.1,0.4-1.6-0.1c-5.3-5.3-10.6-10.6-15.9-15.9
			c-0.5-0.5-0.6-1.1-0.5-1.7c0.3-5.2,2-9.8,5.3-13.8c0.1-0.2,0.2-0.4,0.3-0.6C21.6,28.8,22.2,28.2,22.8,27.5z"/>
		
			<linearGradient id="SVGID_00000121999784857981439280000016128185854691216309_" gradientUnits="userSpaceOnUse" x1="12.5387" y1="11.5125" x2="75.9438" y2="48.5224" gradientTransform="matrix(0.7071 -0.7071 0.7071 0.7071 -16.5685 40)">
			<stop  offset="0" style="stop-color:#b00bc5"/>
			<stop  offset="1" style="stop-color:#453E1B"/>
		</linearGradient>
		<path style="fill:url(#SVGID_00000121999784857981439280000016128185854691216309_);" d="M29.9,20.4c3.2-2.3,6.7-4,10.7-4.8
			c2.7-0.6,4.8-0.2,6.8,2.1c3.6,4,7.6,7.7,11.4,11.5c0.3,0.3,0.8,0.5,0.6,0.9c-0.2,0.4-0.7,0.2-1.1,0.3c-6.2,0.7-12.4,1.3-18.6,2
			c-1.4,0.2-1.8-0.3-1.6-1.6c0.1-0.6,0.1-1.3,0.1-1.9c0-1.1-0.4-1.9-1.6-1.9c-1.1,0-1.5,0.8-1.6,1.8c-0.2,3.5-0.3,7-0.5,10.6
			c-0.1,1.7-0.6,3.1-2,4.1c-1.5,1-3,1.3-4.6,0.4c-1.6-0.8-2.5-2.2-2.4-3.9c0.2-4.9,0.4-9.8,0.7-14.8c0-0.6,0.3-1.2,0.5-1.8
			C27.9,22.5,28.9,21.4,29.9,20.4z"/>
		
			<linearGradient id="SVGID_00000077292327985452192620000005714917344004993712_" gradientUnits="userSpaceOnUse" x1="-0.4611" y1="33.7836" x2="62.944" y2="70.7935" gradientTransform="matrix(0.7071 -0.7071 0.7071 0.7071 -16.5685 40)">
			<stop  offset="0" style="stop-color:#b00bc5"/>
			<stop  offset="1" style="stop-color:#453E1B"/>
		</linearGradient>
		<path style="fill:url(#SVGID_00000077292327985452192620000005714917344004993712_);" d="M5.5,54.8c2.2-2.2,4.4-4.5,6.6-6.8
			c0.8-0.8,1.3-0.3,1.9,0.3c3.4,3.4,6.8,6.8,10.2,10.2c1.8,1.8,3.6,3.6,5.4,5.5c2,2,2,4.1-0.1,6.1c-1.5,1.5-3,2.9-4.4,4.4
			C18.7,67.9,12.1,61.3,5.5,54.8z M26.2,66c-0.7-0.6-1.5-0.6-2.1,0.1c-0.6,0.7-0.6,1.5,0.1,2.2c0.6,0.6,1.4,0.6,2-0.1
			C26.9,67.4,26.9,66.7,26.2,66z"/>
		
			<linearGradient id="SVGID_00000039833857339357895660000016657731908784518293_" gradientUnits="userSpaceOnUse" x1="14.8399" y1="7.57" x2="78.245" y2="44.5799" gradientTransform="matrix(0.7071 -0.7071 0.7071 0.7071 -16.5685 40)">
			<stop  offset="0" style="stop-color:#b00bc5"/>
			<stop  offset="1" style="stop-color:#453E1B"/>
		</linearGradient>
		<path style="fill:url(#SVGID_00000039833857339357895660000016657731908784518293_);" d="M64.6,15.5c2.9,2.9,5.8,5.8,8.7,8.7
			c1,0.9,0.9,1.5,0,2.4c-1.1,1-2.2,2.2-3.3,3.2c-2.1,2.1-4.1,2.1-6.2,0c-3-2.9-5.9-5.9-8.9-8.9c-2.2-2.2-4.4-4.5-6.7-6.7
			c-0.8-0.8-0.9-1.4,0-2.2c1.9-1.8,3.7-3.6,5.5-5.5c0.8-0.8,1.3-0.8,2.1,0C58.7,9.5,61.7,12.5,64.6,15.5z M68.1,26.3
			c0.6-0.7,0.6-1.5-0.1-2.1c-0.7-0.6-1.6-0.6-2.2,0.1c-0.6,0.6-0.6,1.4,0.1,2.1C66.6,27,67.3,27,68.1,26.3z"/>
	</g>
</g>
</svg>
