<?xml version="1.0" encoding="UTF-8"?>
<svg id="Layer_1" data-name="Layer 1" xmlns="http://www.w3.org/2000/svg" version="1.1" viewBox="0 0 161 60">
  <defs>
    <style>
      .cls-1 {
        fill: #fff;
      }

      .cls-1, .cls-2 {
        stroke-width: 0px;
      }

      .cls-2 {
        fill: #b00bc5;
      }
    </style>
  </defs>
  <g id="Mask_Group_184" data-name="Mask Group 184">
    <g id="Group_6735" data-name="Group 6735">
      <g id="Group_6734" data-name="Group 6734">
        <path id="Path_22648" data-name="Path 22648" class="cls-2" d="M8.7,54.5c-.3-.1-.6-.2-.9-.2-3.6-.8-6.1-4-6.1-7.7V13.4c0-4.1,3.2-7.5,7.3-7.8.4,0,.8,0,1.2,0h32.7c3.6,0,6.7,2.3,7.7,5.7.2.8.3,1.6.3,2.4,0,8.2,0,16.4,0,24.6,0,.5,0,.5-.5.4-3-.7-6.1-1.6-9-2.7-2.2-.8-4.5-1.5-6.7-2.3-.3-.1-.3-.2-.2-.5,1.7-3,3-6.2,3.8-9.5,0-.4,0-.4-.3-.4-2.9,0-5.9,0-8.8,0-.3,0-.5,0-.4-.4,0-.9,0-1.8,0-2.7,0-.4.1-.4.4-.4,3.7,0,7.3,0,11,0,.4,0,.6,0,.5-.5s.2-.9,0-1.2c-.2-.2-.8,0-1.2,0-3.4,0-6.8,0-10.2,0-.3,0-.4,0-.4-.4,0-1.7,0-3.3,0-5,0-.3,0-.5-.4-.4-1.4,0-2.8,0-4.2,0-.7,0-1,.3-1,1v4.1c0,.6,0,.6-.6.6-3.7,0-7.3,0-11,0-.4,0-.5,0-.5.5,0,.4,0,.7,0,1.1,0,.3,0,.4.4.4,1.3,0,2.7,0,4,0,2.4,0,4.8,0,7.2,0,.3,0,.5,0,.4.4,0,1,0,2,0,2.9,0,.4-.1.4-.4.4-3,0-5.9,0-8.9,0-.4,0-.6,0-.5.5,0,.4,0,.8,0,1.2,0,.2,0,.3.3.3.1,0,.2,0,.3,0h18.1c.5,0,.5,0,.4.5-.6,2-1.4,3.9-2.4,5.8-.1.3-.3.3-.6.2-2.8-1-5.7-1.7-8.7-2.3-1.9-.4-3.9-.6-5.8-.5-2.4,0-4.7.8-6.5,2.3-4.5,3.9-4.1,10.4,1,13.5,2.1,1.2,4.6,1.8,7,1.6,3.6-.2,7.2-1.5,10.1-3.7,1.8-1.3,3.4-2.8,4.9-4.6.2-.2.3-.3.6-.2,4.7,2.3,9.5,4.3,14.3,6.3,1.4.6,2.9,1.2,4.3,1.8.2,0,.3.3.3.5-.1,3.9-3,7.1-6.9,7.6,0,0-.2,0-.3,0H8.7Z"/>
        <path id="Path_22649" data-name="Path 22649" class="cls-1" d="M110.4,24.4c.8-.7,1.9-1.2,2.9-1.4,4.2-.9,7.3,1.4,8.3,5.1.9,3,.4,6.2-1.5,8.8-1.4,2.2-3.9,3.5-6.5,3.4-1.1.1-2.1,0-3.2-.2-.3,0-.2.1-.2.3v2c0,1,0,1.9,0,2.9,0,.4-.1.5-.5.5-1.4,0-2.7,0-4.1,0-.4,0-.5,0-.5-.5,0-6.4,0-12.8,0-19.2,0-.6,0-1.2,0-1.8,0-1,.4-1.4,1.4-1.4,1.1,0,2.3,0,3.4,0,.3,0,.3.1.3.4,0,.4,0,.7,0,1.1h0M110.3,31.7c0,1.2,0,2.4,0,3.6,0,1.5,1.1,2.8,2.6,2.8,1,0,1.9-.5,2.4-1.4.4-.7.6-1.4.8-2.2.4-1.7.5-3.4.2-5.1-.1-1.2-.6-2.4-1.4-3.3-.6-.8-1.7-1-2.5-.6-.7.4-1.4.9-1.9,1.5-.2.2-.3.5-.3.8,0,1.3,0,2.6,0,3.9"/>
        <path id="Path_22650" data-name="Path 22650" class="cls-1" d="M81.3,39.8c-.8,0-1.5,0-2.3,0-.3,0-.5-.1-.6-.4-.8-1.8-1.7-3.5-2.5-5.3,0-.2-.3-.4-.5-.3-2.6,0-5.2,0-7.8,0-.2,0-.5.1-.5.3-.8,1.8-1.7,3.6-2.5,5.4,0,.2-.3.4-.5.3-1,0-1.9,0-2.9,0-.3,0-.4,0-.3-.4,3.4-6.9,6.7-13.9,10.1-20.9.7-1.5.7-1.5,2.4-1.5.3,0,.5.1.6.4,1.8,4,3.6,7.9,5.5,11.9,1.5,3.3,3.1,6.6,4.6,10q.2.5-.3.5h-2.3M71.5,24.6c0,.2-.1.3-.2.3-1,2.1-2,4.3-3,6.4-.2.3,0,.4.3.4,1.9,0,3.9,0,5.8,0,.3,0,.4,0,.3-.4-.7-1.5-1.4-3-2.1-4.5-.3-.7-.7-1.4-1-2.2"/>
        <path id="Path_22651" data-name="Path 22651" class="cls-1" d="M151.1,33.1c1-2.1,1.9-4.3,2.8-6.4.5-1.2,1.1-2.3,1.6-3.5,0-.2.3-.4.5-.3,1,0,1.9,0,2.9,0,.4,0,.4,0,.3.4-2.1,4.6-4.2,9.2-6.2,13.9-.8,1.7-1.5,3.5-2.4,5.2-.6,1.4-1.8,2.6-3.3,3-.5.1-1,.2-1.5.2-1,0-1.9,0-2.9,0-.3,0-.4,0-.4-.3,0-.8,0-1.5-.1-2.3,0-.3,0-.4.4-.4,1.1,0,2.2-.1,3.3-.4,1.1-.2,2-1.1,2.3-2.3.2-.7.1-1.4-.2-2-2.6-4.8-5.1-9.7-7.6-14.5-.2-.4-.2-.4.3-.4,1.6,0,3.1,0,4.7,0,.3,0,.5.1.6.4,1.6,3.2,3.2,6.4,4.9,9.6,0,0,0,.2.2.3"/>
        <path id="Path_22652" data-name="Path 22652" class="cls-2" d="M15.1,43.1c-1.9,0-3.8-.5-5.5-1.5-1.4-.8-2.2-2.2-2.3-3.8,0-1.4.5-2.8,1.6-3.7,1-.9,2.3-1.5,3.7-1.7,2.4-.5,4.9-.4,7.3.3,2.6.8,5.1,1.8,7.5,3,.2,0,.3.2.1.4-2.2,2.9-5.2,5.2-8.6,6.5-1.2.4-2.5.6-3.8.6"/>
        <path id="Path_22653" data-name="Path 22653" class="cls-1" d="M133.8,38.8c-.4.3-.9.6-1.4.9-1.7.9-3.7.9-5.4.2-1.5-.6-2.5-2-2.4-3.6-.1-2,.9-3.8,2.7-4.7,1.9-1,4-1.9,6.2-2.4.3,0,.5-.2.5-.6,0-.5,0-1.1,0-1.6,0-.8-.3-1.6-.8-2.2-.4-.3-.8-.5-1.3-.4-1.7,0-3.4.7-4.8,1.8-.3.2-.5.2-.6-.1-.2-.4-.4-.7-.7-1.1-.1-.2-.2-.3,0-.5,2.2-1.2,4.6-1.7,7.1-1.5,1.2,0,2.4.3,3.5.8,1.5.7,2.5,2.3,2.5,4,0,4,0,8,0,11.9,0,.3,0,.4-.4.4-1.4,0-2.9,0-4.3,0-.3,0-.4,0-.4-.4,0-.3,0-.5,0-.9M133.7,33.9c0-.7,0-1.4,0-2.1,0-.5,0-.6-.5-.3-1,.5-2,1.2-2.9,1.9-.6.5-.9,1.2-.9,2,0,.4.1.8.3,1.2.1.8.9,1.3,1.6,1.1.1,0,.3,0,.4-.1.6-.2,1.2-.6,1.7-1,.2-.1.3-.3.3-.5,0-.7,0-1.4,0-2.2"/>
        <path id="Path_22654" data-name="Path 22654" class="cls-1" d="M91.3,28.7c0,3.6,0,7.2,0,10.8,0,.4-.1.5-.5.5-1.4,0-2.8,0-4.2,0-.3,0-.4-.1-.4-.4,0-7,0-14.1,0-21.1,0-.8.2-1,1-1.1,1.3,0,2.5,0,3.8,0,.4,0,.3.2.3.4v10.9"/>
        <path id="Path_22655" data-name="Path 22655" class="cls-1" d="M100.8,31.2c0,2.8,0,5.5,0,8.3,0,.3,0,.4-.4.4-1.4,0-2.9,0-4.3,0-.3,0-.4,0-.4-.4,0-5.3,0-10.6,0-15.9,0-.7.3-1,.9-1,1.3,0,2.6,0,3.9,0,.3,0,.3.2.3.4v8.3"/>
        <path id="Path_22656" data-name="Path 22656" class="cls-1" d="M98.2,15.6c1.3-.1,2.4.8,2.6,2.1,0,.6-.2,1.2-.6,1.6-1.1,1-2.8,1-3.9,0,0,0,0,0,0-.1-.7-.9-.5-2.3.4-3,.2-.1.4-.2.6-.3.3-.1.7-.2,1-.2"/>
      </g>
    </g>
  </g>
</svg>