<?xml version="1.0" encoding="utf-8"?>
<!-- Generator: Adobe Illustrator 27.8.0, SVG Export Plug-In . SVG Version: 6.00 Build 0)  -->
<svg version="1.1" id="Layer_1" xmlns="http://www.w3.org/2000/svg" xmlns:xlink="http://www.w3.org/1999/xlink" x="0px" y="0px"
	 viewBox="0 0 50 50" style="enable-background:new 0 0 50 50;" xml:space="preserve">
<style type="text/css">
	.st0{fill:#F29600;}
	.st1{fill:#FFB818;}
	.st2{fill:#95BF46;}
	.st3{fill:#5E8E3E;}
</style>
<g id="_x38_Jq9EZ.tif_00000140732595615918656280000003734787249886929843_">
	<g>
		<path class="st0" d="M22.9,50c-1.5-0.3-3.1-0.3-4.6-0.8c-6.3-1.8-11.7-5.2-16.1-10c-0.3-0.3-0.7-0.7-0.3-1.1
			c0.4-0.5,0.8-0.1,1.1,0.2c3.9,2.7,8,4.8,12.5,6.2c2.2,0.7,4.4,0.9,6.7,1.2c7.2,0.8,13.9-1.1,20.3-4.2c0.2-0.1,0.3-0.2,0.5-0.2
			c0.4-0.1,0.8-0.2,1.1,0.2c0.3,0.4,0.1,0.8-0.2,1.1c-0.6,0.5-1.1,1.1-1.8,1.6c-4.3,3.5-9.3,5.3-14.8,5.8c-0.3,0-0.5,0.1-0.8,0.1
			C25.3,50,24.1,50,22.9,50z"/>
		<path d="M38.1,17.7c0,2.2,0,4.4,0,6.5c0,2.1,0.5,4,1.8,5.8c1.5,2.1,1.5,2.1-0.5,3.8c-1.2,1-2.4,2-3.5,3c-0.8,0.7-1.5,0.6-2.2-0.1
			c-1-0.9-1.9-2-2.7-3.1c-0.4-0.6-0.7-0.7-1.2-0.1c-2.8,2.9-6.4,4.3-10.4,4.1c-5.4-0.2-8.9-3.8-9.6-9c-0.8-6,4.1-11.3,8.9-12.5
			c3.1-0.8,6.3-1.3,9.6-1.4c0.8,0,1-0.3,1-1c-0.1-0.8,0-1.6,0-2.4c0-2.2-1.6-3.9-3.8-4c-3.2-0.2-5,1-6.1,4c-0.3,0.8-0.9,1.1-1.7,1.1
			c-1.8-0.1-3.5-0.3-5.3-0.5c-1-0.1-1.4-0.8-1.2-1.9C11.7,7,13.2,4.7,15.6,3C21.1-0.9,28.5-1,34,2.7c2.6,1.8,4,4.4,4.1,7.5
			C38.2,12.7,38.1,15.2,38.1,17.7z M29.1,22.8c0-0.9,0-1.6,0-2.2c0-0.6-0.2-0.8-0.8-0.8c-1,0-2.1,0.1-3.1,0.2
			c-3.8,0.3-6.3,3.4-5.9,7.1c0.2,1.7,0.9,3.1,2.7,3.7c1.7,0.6,3.2,0.2,4.5-1.1C28.5,27.7,29.3,25.3,29.1,22.8z"/>
		<path class="st0" d="M43.1,39.5C42,39.5,41,39.6,40,39.7c-0.2,0-0.6,0.1-0.7-0.2c-0.1-0.3,0.2-0.4,0.4-0.6
			c2.2-1.2,4.6-1.8,7.1-1.4c1,0.2,1.4,0.6,1.4,1.7c0,2.7-1.1,4.9-3.1,6.8c-0.2,0.2-0.4,0.5-0.7,0.2c-0.3-0.2-0.1-0.5,0-0.7
			c0.6-1.4,1.1-2.8,1.4-4.3c0.2-1.1-0.1-1.6-1.3-1.6C44,39.5,43.5,39.5,43.1,39.5z"/>
	</g>
</g>
</svg>
