<?xml version="1.0" encoding="utf-8"?>
<!-- Generator: Adobe Illustrator 27.8.0, SVG Export Plug-In . SVG Version: 6.00 Build 0)  -->
<svg version="1.1" id="Layer_1" xmlns="http://www.w3.org/2000/svg" xmlns:xlink="http://www.w3.org/1999/xlink" x="0px" y="0px"
	 viewBox="0 0 80 80" style="enable-background:new 0 0 80 80;" xml:space="preserve">
<style type="text/css">
	.st0{fill:url(#SVGID_1_);}
	.st1{fill:url(#SVGID_00000122707664250143997510000004995266988844052410_);}
	.st2{fill:url(#SVGID_00000146489658672751380990000016901375803039516329_);}
	.st3{fill:url(#SVGID_00000045592999049463283250000004485026807144108723_);}
	.st4{fill:url(#SVGID_00000175293130713738780830000011857610567879939762_);}
	.st5{fill:url(#SVGID_00000044142372729967499550000007147662908984968884_);}
	.st6{fill:url(#SVGID_00000183963972735489659770000009336656587046542980_);}
	.st7{fill:url(#SVGID_00000116214371635207366870000016082344398475022467_);}
</style>
<g id="AIPJS6.tif_00000065777678588980046070000006406256555258398641_">
	<g>
		<linearGradient id="SVGID_1_" gradientUnits="userSpaceOnUse" x1="11.2845" y1="7.1331" x2="72.9955" y2="65.5648">
			<stop  offset="0" style="stop-color:#a801bd"/>
			<stop  offset="1" style="stop-color:#453E1B"/>
		</linearGradient>
		<path class="st0" d="M42.3,7.2c2.5,0.7,5,1.2,7.2,2.5c3.5,2.1,5.2,5.1,5.7,9.1c0.2,1.8,0.2,3.7,0.2,5.5c0,4.6,0.1,9.1,0,13.7
			c-0.1,2.9,0.8,5.4,2.6,7.7c1.4,1.7,1.3,2.3-0.4,3.7c-1.6,1.4-3.2,2.8-4.8,4.2c-1.5,1.3-2.2,1.3-3.8,0c-0.9-0.8-1.7-1.7-2.4-2.6
			c-1.4-1.9-1.4-1.9-3.1-0.3C38.6,54.9,33,55.8,27,54.3c-3.7-1-6.2-3.5-7.4-7.1c-2.1-6.1-0.4-12.8,4.5-16.7
			c2.9-2.3,6.4-3.4,10.1-4.1c2.6-0.5,5.3-0.7,8-1c0.6-0.1,1.1-0.1,1.1-0.9c0-1.4,0.1-2.8-0.1-4.2c-0.6-3.1-3.5-4.7-6.9-3.9
			c-2.5,0.6-4.2,2-5,4.5c-0.6,1.9-0.9,2-2.9,1.8c-2.1-0.2-4.2-0.5-6.3-0.8c-1.6-0.2-2-0.9-1.7-2.5C21.7,13.5,25.5,10,31,8.2
			c1.3-0.4,2.7-0.7,4.1-1C37.5,7.2,39.9,7.2,42.3,7.2z M43.3,35.7c0-0.7,0-1.5,0-2.2c0-0.9-0.3-1.3-1.3-1.3c-1.4,0-2.8,0.1-4.2,0.4
			c-4.9,1-7.4,4.7-6.4,9.6c0.6,3.1,3.2,4.7,6.2,3.8c1.6-0.5,2.9-1.5,3.8-2.9C42.9,41,43.4,38.5,43.3,35.7z"/>
		
			<linearGradient id="SVGID_00000031897069877986073970000013045016069209030807_" gradientUnits="userSpaceOnUse" x1="-3.2126" y1="22.4438" x2="58.4984" y2="80.8755">
			<stop  offset="0" style="stop-color:#a801bd"/>
			<stop  offset="1" style="stop-color:#453E1B"/>
		</linearGradient>
		<path style="fill:url(#SVGID_00000031897069877986073970000013045016069209030807_);" d="M7.2,56.6c1-0.9,2-0.8,3.1-0.2
			c4.7,2.6,9.3,5.1,14.3,7c8.2,3.1,16.6,3,25,1.1c4-0.9,7.8-2.2,11.5-3.8c0.6-0.2,1.1-0.5,1.7-0.6c0.9-0.2,1.6,0.2,2.1,0.9
			c0.5,0.8,0.4,1.6-0.2,2.2c-0.6,0.6-1.2,1.1-1.9,1.5c-8.4,5.4-17.6,8.3-27.6,7.8c-5.7-0.3-11-2.3-15.9-5.2
			C15.3,65.1,11.6,62.1,8,59c-0.3-0.2-0.5-0.6-0.8-0.9C7.2,57.6,7.2,57.1,7.2,56.6z"/>
		
			<linearGradient id="SVGID_00000174586578476705073110000009501409550975943586_" gradientUnits="userSpaceOnUse" x1="11.9475" y1="6.4329" x2="73.6585" y2="64.8646">
			<stop  offset="0" style="stop-color:#a801bd"/>
			<stop  offset="1" style="stop-color:#453E1B"/>
		</linearGradient>
		<path style="fill:url(#SVGID_00000174586578476705073110000009501409550975943586_);" d="M64.9,58.1c-1.4,0-2.7,0.2-4.1,0.4
			c-0.8,0.1-1.6,0-1.9-0.9c-0.3-0.8,0.1-1.4,0.7-1.9c1.1-0.9,2.4-1.5,3.7-1.9c2.5-0.6,5-0.8,7.6-0.2c1.2,0.3,1.9,1.1,1.9,2.3
			c0,4-1.2,7.5-4,10.3c-0.7,0.7-1.4,1.2-2.4,0.6c-0.9-0.6-0.7-1.5-0.4-2.3c0.5-1.4,1-2.8,1.4-4.2c0.6-2.1,0.3-2.3-1.8-2.3
			C65.4,58.1,65.1,58.1,64.9,58.1z"/>
	</g>
</g>
</svg>
