<?xml version="1.0" encoding="UTF-8"?>
<svg id="Layer_1" data-name="Layer 1" xmlns="http://www.w3.org/2000/svg" xmlns:xlink="http://www.w3.org/1999/xlink" version="1.1" viewBox="0 0 196 60">
  <defs>
    <style>
      .cls-1 {
        clip-path: url(#clippath);
      }

      .cls-2 {
        fill: none;
      }

      .cls-2, .cls-3, .cls-4 {
        stroke-width: 0px;
      }

      .cls-3 {
        fill: #b00bc5;
      }

      .cls-4 {
        fill: #b00bc5;
      }
    </style>
    <clipPath id="clippath">
      <rect class="cls-2" y="0" width="196" height="60"/>
    </clipPath>
  </defs>
  <g class="cls-1">
    <g id="Mask_Group_182" data-name="Mask Group 182">
      <g id="Group_6739" data-name="Group 6739">
        <g id="Group_6738" data-name="Group 6738">
          <path id="Path_22663" data-name="Path 22663" class="cls-4" d="M49.5,48.3c-.4-.1-.7-.1-1.1-.1-5.1-.4-10.1-1.5-14.8-3.5-4.4-1.8-8.6-4.3-12.2-7.4-.4-.4-.8-.7-1.2-1.1,0,0-.2-.2-.2-.2-.2-.2-.2-.6,0-.8.2-.2.4-.2.6,0,.2,0,.5.2.7.3,5.7,3.2,11.8,5.5,18.2,6.8,3.2.7,6.4,1.1,9.6,1.3,3.1.2,6.2.1,9.3-.2,6.4-.6,12.7-2.1,18.6-4.6.3-.1.5-.2.8-.2.4,0,.7.2.8.5.2.3,0,.7-.2,1-.1.1-.3.3-.4.4-3.3,2.3-7,4.2-10.8,5.4-3.3,1.1-6.7,1.8-10.1,2.2-.9.1-1.8.2-2.7.2,0,0-.2,0-.3,0h-4.4Z"/>
          <path id="Path_22664" data-name="Path 22664" class="cls-3" d="M193.8,13.1c-.5,1.3-1.1,2.6-1.6,4-2.4,6.2-4.8,12.5-7.3,18.7-.4,1.1-1,2.2-1.7,3.2-.9,1.3-2.4,2-3.9,2.1-1,0-1.9,0-2.9-.3-.6-.2-.8-.4-.8-1v-1.2c0-.7.2-.9.9-.8.5,0,1.1.1,1.6.1,1.2,0,2.4-.7,2.9-1.8.5-1.1.9-2.2,1.3-3.3,0-.2,0-.4,0-.5-2.5-6.2-5-12.5-7.6-18.7,0,0,0-.1,0-.2-.3-.8-.1-1.1.7-1.1h2.2c.7,0,.9.1,1.1.8,1.6,4.6,3.3,9.1,4.9,13.7.2.6.4,1.2.7,1.9l2.5-7.3c.9-2.7,1.9-5.5,2.8-8.2.2-.7.4-.8,1.1-.8.7,0,1.4,0,2.2,0,.3,0,.6,0,.8.3v.5Z"/>
          <path id="Path_22665" data-name="Path 22665" class="cls-3" d="M28.3,15.4c.7-2.2,2.7-3.6,5-3.5,2.5,0,3.9,1.4,4.8,3.5.2-.4.4-.7.6-1.1,1.7-2.6,5.2-3.2,7.7-1.5.5.4,1,.8,1.4,1.3.6.9.8,2,.8,3,0,1,0,2.1,0,3.1v11.7c0,.7-.2.9-.9.9h-3.3c-.7,0-.9-.2-.9-.9,0-4.2,0-8.4,0-12.6,0-.3,0-.7,0-1-.2-1.2-1.3-1.9-2.4-1.7-.2,0-.4,0-.6.2-1,.4-1.6,1.3-1.7,2.4,0,.7-.1,1.4-.1,2.2v10.5c0,.8-.2,1-1,1h-3.3c-.6,0-.8-.2-.8-.8,0-3.6,0-7.2,0-10.9,0-1,0-2-.2-3-.2-.9-.9-1.5-1.8-1.6-1-.2-1.9.3-2.3,1.2-.4.8-.5,1.6-.5,2.5,0,3.8,0,7.6,0,11.5,0,.8-.2,1-1,1h-3.3c-.6,0-.8-.2-.8-.8V13.2c0-.6.2-.9.9-.9,1.1,0,2.1,0,3.2,0,.4,0,.8.2.8.6,0,0,0,.1,0,.2,0,.8,0,1.5,0,2.3h0"/>
          <path id="Path_22666" data-name="Path 22666" class="cls-3" d="M19,21.6c0,1.5,0,2.8,0,4.2,0,1.1.3,2.2,1,3.1.2.2.3.4.5.7.2.3.2.7-.1.9,0,0,0,0,0,0-.9.8-1.8,1.6-2.7,2.3-.3.3-.8.4-1.1,0,0,0,0,0,0,0-.7-.6-1.3-1.3-1.8-2.1-.1-.2-.2-.2-.4,0-.9,1-2.1,1.8-3.3,2.2-1.4.4-2.8.5-4.3.1-1.9-.4-3.3-1.8-3.8-3.6-.7-2.1-.3-4.4,1.1-6.2,1-1.2,2.4-2.1,4-2.5,1.6-.4,3.2-.6,4.9-.7.9,0,.9,0,.9-.9,0-.4,0-.9,0-1.3-.1-1.1-1-2-2.1-2-1.6-.3-3.1.7-3.4,2.3-.1.5-.4.7-.9.6-1.1-.1-2.2-.2-3.2-.4-.4,0-.7-.3-.7-.6,0,0,0-.2,0-.3.4-2.2,1.8-4,3.9-4.8,2.6-1.1,5.5-1.2,8.1-.2,2.2.7,3.7,2.7,3.7,5,0,1.5,0,3,0,4.2M13.7,24.2c0-.3,0-.7,0-1,0-.2,0-.3-.3-.3-.7,0-1.5,0-2.2.2-1.9.2-3.3,1.9-3.1,3.8,0,.1,0,.3,0,.4,0,1.2,1.2,2.2,2.4,2.1.3,0,.7-.1,1-.3.8-.5,1.5-1.2,1.8-2.1.3-.9.4-1.8.4-2.8"/>
          <path id="Path_22667" data-name="Path 22667" class="cls-3" d="M68.3,21.7c0,1.5,0,2.8,0,4.1,0,1.1.3,2.2,1,3.1.2.2.3.4.5.7.2.3.2.7,0,.9,0,0,0,0,0,0-.9.8-1.8,1.6-2.7,2.3-.3.3-.8.4-1.1,0,0,0,0,0,0,0-.7-.6-1.3-1.2-1.7-2-.2-.3-.3-.3-.5,0-.9,1-2,1.7-3.2,2.1-1.4.4-2.9.5-4.3.2-1.8-.4-3.3-1.8-3.7-3.6-.7-2.1-.3-4.4,1-6.2,1-1.3,2.4-2.2,4-2.5,1.6-.4,3.3-.6,4.9-.7.8,0,.8,0,.8-.9,0-.4,0-.9,0-1.3,0-1.1-1-2-2.1-2.1-1.6-.3-3.1.7-3.5,2.3-.1.5-.4.7-.9.6-1.1-.1-2.2-.2-3.2-.4-.4,0-.7-.3-.7-.7,0,0,0-.2,0-.2.4-2.2,1.9-4,4-4.8,2.5-1,5.3-1.1,7.8-.3,2.4.6,4,2.8,3.9,5.2,0,1.5,0,2.9,0,4.2M63,24.2c0-.3,0-.6,0-.9,0-.4-.1-.4-.4-.4-.7,0-1.4.1-2,.2-1.9.2-3.3,1.9-3.2,3.8,0,.2,0,.3,0,.5.1,1.2,1.2,2.1,2.5,2,.3,0,.5-.1.8-.2.9-.4,1.6-1.2,1.9-2.2.3-.9.4-1.8.4-2.8"/>
          <path id="Path_22668" data-name="Path 22668" class="cls-3" d="M138.1,14.4c1-.9,2.1-1.6,3.4-2.1,2.6-1.1,5.5-.8,7.8.7,1.5,1,2.6,2.5,3,4.3,1.2,3.4,1,7.1-.3,10.4-1,2.6-3.2,4.4-5.9,5-2.6.5-5.4-.2-7.4-1.9l-.2-.2c-.1.1,0,.3,0,.4,0,2.9,0,5.7,0,8.6,0,.7-.2.9-.9.9h-2.2c-.6,0-.8-.2-.8-.8V13.3c0-.8.2-1,1-1s1,0,1.6,0c.4,0,.8.2.9.7,0,0,0,0,0,0,0,.2,0,.4,0,.6,0,.2,0,.4,0,.7M138.4,22.2v5.2c0,.2,0,.3.1.4,1.6,1.2,3.7,1.8,5.7,1.8,1.9,0,3.5-1.3,4.1-3.1.4-1.1.6-2.2.6-3.3.1-1.7,0-3.4-.6-5-.5-1.7-2-2.9-3.7-3.2-2.2-.3-4.4.3-6.1,1.6-.2.1-.2.3-.2.4,0,1.7,0,3.5,0,5.2"/>
          <path id="Path_22669" data-name="Path 22669" class="cls-3" d="M113.6,15.7c.3-.5.5-.9.8-1.4,1.2-2.1,3.1-2.7,5.6-2.3,2.1.3,3.6,2,3.9,4,.2,1.1.3,2.3.3,3.4,0,4.2,0,8.4,0,12.6,0,.6-.2.8-.8.8h-3.5c-.6,0-.8-.2-.8-.8v-11.7c0-.7,0-1.4-.3-2.1-.2-.8-.8-1.4-1.6-1.6-.9-.2-1.8.1-2.3.8-.5.7-.8,1.5-.9,2.3-.1.7-.1,1.4-.1,2.2v9.9c0,.8-.2,1-1,1h-3.3c-.6,0-.8-.2-.8-.8,0-6.3,0-12.6,0-18.9,0-.4.2-.8.6-.8,0,0,.1,0,.2,0,1.1,0,2.2,0,3.3,0,.4,0,.7.2.8.6,0,0,0,.1,0,.2v2.6"/>
          <path id="Path_22670" data-name="Path 22670" class="cls-3" d="M105.9,22.6c0,2.4-.5,4.8-1.8,6.9-2.2,3.8-7.1,5-10.9,2.8-1.3-.8-2.4-1.9-3.1-3.3-.8-1.6-1.2-3.3-1.3-5.1-.2-2.5.2-4.9,1.2-7.2,1-2.4,3.1-4.1,5.6-4.6,3.8-.8,7.6,1.2,9.1,4.7.8,1.8,1.2,3.8,1.2,5.8M100.3,22.7c0-.7,0-1.4,0-2.1,0-1-.2-2.1-.6-3.1-.3-.9-1.1-1.6-2.1-1.7-1-.2-2.1.4-2.5,1.4-.3.7-.5,1.4-.6,2.1-.2,2-.2,4.1,0,6.1,0,.9.3,1.8.7,2.6.6,1.2,2,1.6,3.1,1.1.4-.2.8-.5,1-.9.2-.4.4-.8.5-1.3.3-1.4.5-2.8.4-4.2"/>
          <path id="Path_22671" data-name="Path 22671" class="cls-3" d="M168.5,30.5c-.9.8-2,1.4-3.1,1.8-1.8.8-3.8.9-5.6.4-2.4-.6-4-2.8-4-5.3-.2-3.2,2.1-6,5.3-6.5,2.3-.4,4.6-.2,6.8.4.4.1.4.1.4-.3,0-1.1,0-2.3-.1-3.4-.1-1.4-1.3-2.5-2.6-2.6-1.9-.2-3.9,0-5.7.4-.6.2-1.3.3-1.9.5-.5.1-.8,0-.8-.5,0-.5,0-1,0-1.6,0-.4.3-.7.7-.8,1.3-.5,2.7-.9,4-1.1,1.5-.2,2.9-.3,4.4-.2.9,0,1.8.3,2.6.6,1.7.7,3,2.3,3.1,4.1,0,.5,0,.9,0,1.4v13.6c0,.7-.2.9-.9.9h-1.5c-.4,0-.8-.2-.9-.7,0,0,0,0,0-.1,0-.4-.1-.7-.2-1.1M168.3,25.9c0-.6,0-1.2,0-1.8,0-.2,0-.3-.3-.3-1.7-.4-3.4-.5-5.2-.4-2.1.3-3.3,1.5-3.2,3.6,0,1.5,1,2.7,2.5,2.8,0,0,0,0,0,0,2.1.2,4.3-.5,5.9-1.9.1,0,.2-.2.1-.4v-1.7"/>
          <path id="Path_22672" data-name="Path 22672" class="cls-3" d="M80,16.4h-6.3c-.6,0-.9-.2-.9-.9v-2.5c0-.6.2-.8.8-.8h12.1c.6,0,.8.2.8.8,0,.7,0,1.4,0,2.1,0,.5-.3,1-.6,1.4-1,1.4-2,2.8-2.9,4.2-1.2,1.7-2.4,3.4-3.5,5,0,.1-.1.2-.2.4.7,0,1.4,0,2.1,0,1.7.1,3.3.6,4.8,1.3.5.2.9.8.8,1.4,0,.8,0,1.6,0,2.5s-.4,1.1-1.2.7c-4-2-8.7-2-12.6,0-.6.3-1.1,0-1.1-.5,0-1.1,0-2.3,0-3.4,0-.5.3-1,.6-1.5,2.3-3.3,4.7-6.7,7-10,0-.1.2-.2.3-.4"/>
          <path id="Path_22673" data-name="Path 22673" class="cls-4" d="M77.6,36.3c-1.6,0-3.2.2-4.8.4-.2,0-.5,0-.6-.2s0-.5.3-.7c1.1-.7,2.3-1.3,3.6-1.6,2.2-.5,4.4-.6,6.6-.1,1.3.3,1.6.6,1.5,1.9,0,3.5-1.6,6.8-4.1,9.3-.1.2-.3.3-.5.4-.2,0-.3,0-.5,0-.1-.1-.2-.3,0-.4.1-.4.3-.7.4-1,.7-1.7,1.2-3.4,1.6-5.2.1-.5.1-1,0-1.5,0-.3-.3-.6-.6-.8-.4-.2-.9-.3-1.4-.3-.5,0-1,0-1.6,0"/>
        </g>
      </g>
    </g>
  </g>
</svg>