<?xml version="1.0" encoding="UTF-8"?>
<svg id="Layer_1" data-name="Layer 1" xmlns="http://www.w3.org/2000/svg" xmlns:xlink="http://www.w3.org/1999/xlink" version="1.1" viewBox="0 0 146 60">
  <defs>
    <style>
      .cls-1 {
        clip-path: url(#clippath);
      }

      .cls-2 {
        fill: none;
      }

      .cls-2, .cls-3 {
        stroke-width: 0px;
      }

      .cls-3 {
        fill: #a801bd;
      }
    </style>
    <clipPath id="clippath">
      <rect class="cls-2" y="0" width="146" height="60"/>
    </clipPath>
  </defs>
  <g class="cls-1">
    <g id="Group_6721" data-name="Group 6721">
      <g id="Group_6741" data-name="Group 6741">
        <g id="Group_6740" data-name="Group 6740">
          <path id="Path_22674" data-name="Path 22674" class="cls-3" d="M41.1,15.6c-.5,1.3-1,2.7-1.5,4-.9,2.4-1.8,4.9-2.7,7.3,0,.5-.5.8-1,.7,0,0,0,0,0,0-.9,0-1.8,0-2.7,0-.3,0-.6-.1-.7-.4-1.3-3.6-2.6-7.1-3.9-10.7,0-.3-.2-.6-.4-.8v.6c0,3.6,0,7.2,0,10.8,0,.5-.2.6-.6.6-1.1,0-2.2,0-3.3,0-.3,0-.5,0-.5-.4,0-5.3,0-10.7,0-16,0-.4.1-.5.5-.5,2,0,4.1,0,6.1,0,.4,0,.5.2.6.5,1.2,3.3,2.4,6.5,3.5,9.8,0,.1,0,.2.2.4.4-1.1.8-2.1,1.2-3.1.9-2.4,1.7-4.8,2.6-7.2,0-.3.3-.4.6-.4,2,0,4,0,6,0,.4,0,.5,0,.5.5,0,5.3,0,10.7,0,16,0,.4-.1.4-.5.4-1.1,0-2.3,0-3.4,0-.4,0-.5-.1-.5-.5,0-3.5,0-7,0-10.6v-.8h-.1"/>
          <path id="Path_22675" data-name="Path 22675" class="cls-3" d="M129.3,17c0,3.4,0,6.7,0,10,0,.5,0,.6-.6.6-1.2,0-2.3,0-3.5,0-.3,0-.4,0-.4-.4,0-5.3,0-10.7,0-16,0-.3,0-.5.4-.4,1.6,0,3.2,0,4.8,0,.4,0,.5.2.7.4,2,3,4,6.1,6.1,9.1.2.2.3.4.5.7,0-.2.1-.4,0-.6,0-3,0-6,0-9.1,0-.5.1-.6.6-.6,1.1,0,2.3,0,3.4,0,.4,0,.4,0,.4.4,0,5.3,0,10.7,0,16,0,.3,0,.4-.4.4-1.5,0-3.1,0-4.6,0-.3,0-.5-.2-.7-.4-2.1-3.2-4.3-6.4-6.4-9.7,0-.2-.3-.4-.5-.5"/>
          <path id="Path_22676" data-name="Path 22676" class="cls-3" d="M83.1,27.6c-1.2,0-2.4,0-3.7,0-1.2.2-2.4-.4-3.1-1.4-1.1-1.5-2.4-2.8-3.6-4.2-.6-.3-1.2-.4-1.8-.3-.2.1-.1.3-.1.5,0,1.6,0,3.3,0,4.9,0,.4,0,.5-.5.5-1.2,0-2.4,0-3.5,0-.3,0-.4,0-.4-.4,0-5.3,0-10.7,0-16,0-.4,0-.4.5-.4,3.4,0,6.8-.1,10.3.1,2,0,3.8,1.2,4.6,3.1.9,1.9.6,4.1-.7,5.7-.7.9-1.7,1.5-2.8,1.8-.4.1-.5.2-.2.6,1.7,1.8,3.3,3.6,4.9,5.4,0,0,.1.2.3.3M73.6,18c.8,0,1.7,0,2.5,0,.9,0,1.5-.8,1.5-1.7,0-.9-.8-1.6-1.7-1.6-1.6-.2-3.1,0-4.7,0-.4,0-.4.1-.4.5,0,.9,0,1.7,0,2.6,0,.4.1.5.5.5.7,0,1.4,0,2.3,0"/>
          <path id="Path_22677" data-name="Path 22677" class="cls-3" d="M94.7,49.2c-.2.1-.4.1-.6.1-1.4,0-2.8,0-4.2,0-.4,0-.7-.1-1-.4-1.5-1.7-3-3.4-4.4-5.1-.6-.3-1.2-.4-1.9-.3-.2.1,0,.3,0,.5,0,1.6,0,3.2,0,4.8,0,.4,0,.5-.5.5-1.2,0-2.4,0-3.5,0-.4,0-.4-.1-.4-.5,0-5.3,0-10.6,0-15.9,0-.4.1-.5.5-.5,3.3,0,6.5,0,9.8,0,2.6,0,4.8,1.5,5.4,4.1.7,2.8-.9,5.6-3.6,6.4-.7.2-.8.2-.2.8,1.5,1.7,3,3.3,4.5,5,.1.1.2.3.4.4M85.3,39.7h0c.8,0,1.6,0,2.4,0,.9,0,1.6-.7,1.6-1.6,0,0,0,0,0-.1,0-1-.8-1.7-1.8-1.7,0,0-.1,0-.2,0-1.5,0-3,0-4.4,0-.3,0-.4.1-.4.4,0,.9,0,1.7,0,2.6,0,.4.1.4.5.4.8,0,1.5,0,2.3,0"/>
          <path id="Path_22678" data-name="Path 22678" class="cls-3" d="M49.1,19.1c0-2.6,0-5.3,0-7.9,0-.4,0-.5.5-.5,4.4,0,8.9,0,13.3,0,.4,0,.5.1.5.5,0,.9,0,1.9,0,2.8,0,.4-.1.5-.5.5-2.9,0-5.7,0-8.6,0-.5,0-.8.1-.7.7,0,.5,0,1,0,1.5,0,.5.1.6.6.6,2.8,0,5.6,0,8.4,0,.5,0,.7,0,.6.6,0,.8,0,1.7,0,2.5,0,.5-.1.7-.7.7-2.8,0-5.6,0-8.3,0-.5,0-.6,0-.6.6,0,.5,0,1.1,0,1.7,0,.4.1.5.5.5,2.9,0,5.8,0,8.7,0,.5,0,.6.1.6.6,0,.9,0,1.8,0,2.7,0,.4-.1.5-.5.5-4.4,0-8.8,0-13.2,0-.5,0-.5-.2-.5-.6,0-2.6,0-5.2,0-7.9"/>
          <path id="Path_22679" data-name="Path 22679" class="cls-3" d="M96.2,40.9c0-2.6,0-5.2,0-7.9,0-.4.1-.5.5-.5,4.4,0,8.8,0,13.2,0,.5,0,.6.1.6.6,0,.9,0,1.8,0,2.6,0,.5-.1.6-.6.6-2.9,0-5.7,0-8.6,0-.5,0-.7.1-.6.6,0,.6,0,1.1,0,1.7,0,.4.1.5.5.5,2.8,0,5.6,0,8.4,0,.6,0,.7.2.7.7,0,.9,0,1.7,0,2.6,0,.4,0,.5-.5.5-2.8,0-5.6,0-8.4,0-.5,0-.6.1-.6.6,0,.5,0,1.1,0,1.6,0,.5.2.6.6.6,2.8,0,5.7,0,8.5,0,.6,0,.7.2.7.7,0,.9,0,1.8,0,2.7,0,.3,0,.4-.4.4-4.5,0-8.9,0-13.4,0-.4,0-.4-.2-.4-.5,0-2.6,0-5.3,0-7.9"/>
          <path id="Path_22680" data-name="Path 22680" class="cls-3" d="M23.8,40.9c0-2.6,0-5.2,0-7.9,0-.4.1-.5.5-.5,4.4,0,8.8,0,13.2,0,.4,0,.6,0,.5.5,0,.9,0,1.8,0,2.7,0,.4-.1.5-.5.5-2.9,0-5.8,0-8.7,0-.5,0-.6.1-.6.6,0,.5,0,1.1,0,1.6,0,.5.2.5.6.5,2.8,0,5.6,0,8.3,0,.5,0,.6,0,.6.6,0,.9,0,1.8,0,2.7,0,.4,0,.5-.5.5-2.8,0-5.6,0-8.4,0-.5,0-.6.1-.6.6,0,.6,0,1.1,0,1.7,0,.4.1.5.5.5,2.9,0,5.7,0,8.6,0,.5,0,.7.1.7.7,0,.9,0,1.7,0,2.6,0,.5-.2.6-.6.6-4.3,0-8.7,0-13,0-.5,0-.6,0-.6-.6,0-2.6,0-5.2,0-7.8"/>
          <path id="Path_22681" data-name="Path 22681" class="cls-3" d="M2.2,27.6c1.1-2.6,2.2-5,3.3-7.5,1.3-3,2.7-6,4-9,0-.2.3-.4.5-.4,1.7,0,3.3,0,5,0,.2,0,.5.1.6.3,2.4,5.4,4.7,10.7,7.1,16.1.2.4.1.4-.3.4-1.4,0-2.8,0-4.2,0-.3,0-.5-.1-.6-.4-.4-.9-.8-1.8-1.1-2.7,0-.2-.3-.4-.5-.4-2.4,0-4.7,0-7.1,0-.3,0-.5.1-.6.4-.3.9-.7,1.8-1.1,2.6,0,.2-.1.4-.4.4-1.5,0-3,0-4.6,0M12.5,14.7l-2.3,5.4c0,.2,0,.3.2.3,1.4,0,2.7,0,4.1,0,.3,0,.3,0,.2-.3-.7-1.8-1.5-3.5-2.3-5.4"/>
          <path id="Path_22682" data-name="Path 22682" class="cls-3" d="M103.3,27.6c.5-1.2,1-2.3,1.5-3.4,1.9-4.3,3.8-8.5,5.7-12.8.1-.4.5-.7,1-.7,1.5,0,3.1,0,4.6,0,.3,0,.6.1.7.4,2.4,5.4,4.8,10.9,7.2,16.3,0,0,0,.1,0,.2-1.3,0-2.6,0-3.9,0-.7.2-1.3-.2-1.5-.9,0,0,0,0,0,0-.2-.7-.6-1.4-.8-2,0-.3-.3-.4-.6-.4-2.4,0-4.7,0-7.1,0-.2,0-.5.1-.5.4-.4.9-.8,1.8-1.1,2.7,0,.2-.2.3-.4.3-1.5,0-3,0-4.6,0M113.6,14.7l-2.4,5.8h4.5c.3,0,.3-.1.2-.3-.3-.8-.7-1.6-1-2.4-.4-1-.8-1.9-1.3-3.1"/>
          <path id="Path_22683" data-name="Path 22683" class="cls-3" d="M127.6,32.6c-.5,1.2-1.1,2.3-1.6,3.5-.1.3-.4.2-.6.2-2.2,0-4.5,0-6.7,0-.2,0-.4,0-.6,0-.7,0-1.3.7-1.2,1.4,0,0,0,0,0,0,0,.7.7,1.3,1.5,1.2,1.4,0,2.8,0,4.2,0,.9,0,1.9.2,2.8.5,1.4.5,2.3,1.7,2.6,3.1.5,2-.2,4.1-1.7,5.4-1.1.9-2.5,1.3-3.9,1.3-2.9,0-5.9,0-8.8,0-.4,0-.5-.1-.5-.5,0-.9,0-1.8,0-2.7,0-.5.2-.6.6-.6,2.7,0,5.5,0,8.2,0,.3,0,.7,0,1-.1.6-.2.9-.8.8-1.4,0-.6-.4-1-1-1.2-.3,0-.6-.1-.8-.1-1.5,0-3,0-4.5,0-2.2-.1-3.9-1.2-4.5-3.3-.9-2.7.5-5.6,3.2-6.6.4-.1.8-.2,1.2-.3.6,0,1.2-.1,1.8-.1,2.7,0,5.5,0,8.2,0,.2,0,.4,0,.6,0"/>
          <path id="Path_22684" data-name="Path 22684" class="cls-3" d="M144.3,32.5c-.5,1.2-1.1,2.4-1.6,3.5-.1.3-.4.2-.6.2h-7c-.6,0-1.3.3-1.5.9-.3.7,0,1.5.7,1.8.2,0,.4.1.6.1,1.4,0,2.8,0,4.2,0,.9,0,1.9.2,2.8.5,2,.8,3.1,2.9,2.7,5-.3,3.2-2.8,4.8-5.6,4.9-3,0-6,0-9,0-.3,0-.5,0-.5-.4,0-.9,0-1.9,0-2.8,0-.4.1-.6.6-.6,2.8,0,5.6,0,8.3,0,.5,0,1,0,1.3-.4.5-.5.5-1.4,0-1.9-.2-.2-.4-.3-.6-.3-.3,0-.6-.1-1-.1-1.5,0-2.9,0-4.4,0-1.8,0-3.4-.9-4.2-2.4-1.4-2.5-.5-5.7,2-7.1.3-.2.7-.3,1.1-.4.7-.2,1.4-.3,2.2-.3h9.2c0,0,.1,0,.2,0"/>
          <path id="Path_22685" data-name="Path 22685" class="cls-3" d="M39,32.5c1.7,0,3.3,0,4.9,0,.6,0,1.1.2,1.4.7,1.1,1.4,2.3,2.7,3.5,4.1.3.3.4.3.7,0,1.3-1.5,2.5-3,3.8-4.4.1-.2.4-.3.6-.3,1.7,0,3.4,0,5.2,0,0,.3-.2.4-.4.6-2.1,2.4-4.3,4.8-6.4,7.2-.3.3-.3.5,0,.9,2.3,2.5,4.5,5.1,6.8,7.6.2.1.3.3.3.5h-1.1c-1.4,0-2.7,0-4.1,0-.3,0-.6-.1-.8-.4-1.3-1.5-2.6-3-3.9-4.5-.3-.4-.5-.4-.8,0-1.3,1.5-2.6,3-3.8,4.5-.2.3-.6.4-.9.4-1.7,0-3.3,0-5.1,0,.7-.8,1.4-1.6,2-2.3,1.7-2,3.5-3.9,5.2-5.9.3-.3.1-.5,0-.7-2.2-2.4-4.3-4.9-6.5-7.3-.2-.2-.3-.4-.5-.6"/>
          <path id="Path_22686" data-name="Path 22686" class="cls-3" d="M60.2,40.8c0-2.6,0-5.2,0-7.9,0-.4.1-.5.5-.5,3.3,0,6.5,0,9.8,0,2.5,0,4.8,1.6,5.4,4.1.9,3-.8,6.1-3.8,7-.5.2-1.1.2-1.7.2-1.7,0-3.5,0-5.2,0-.4,0-.5.1-.5.5,0,1.5,0,3,0,4.5,0,.4-.1.5-.5.5-1.2,0-2.4,0-3.5,0-.4,0-.5-.1-.5-.5,0-2.7,0-5.3,0-8M67.4,40h0c.8,0,1.6,0,2.3,0,.7,0,1.3-.3,1.6-.9.5-.9.2-2.1-.7-2.6-.3-.2-.7-.3-1.1-.2-1.5,0-3,0-4.5,0-.3,0-.4.1-.4.4,0,1,0,1.9,0,2.9,0,.4.1.4.5.4.8,0,1.6,0,2.3,0"/>
          <path id="Path_22687" data-name="Path 22687" class="cls-3" d="M102,14.7c-1.1,0-2.2,0-3.3.2-1.7.4-2.8,1.9-2.8,3.6-.2,1.3,0,2.7.9,3.8.9,1,2.2,1.5,3.5,1.5.7,0,1.5,0,2.2,0,.3,0,.4,0,.2.3-.5,1.1-1,2.1-1.5,3.2,0,.1-.1.3-.3.3-1.9.2-3.9-.2-5.6-1-1.8-.9-3-2.5-3.5-4.5-.7-2.5-.5-5.1.6-7.5,1.1-2.1,3.1-3.5,5.4-3.7,2.4-.2,4.7-.3,7.1-.2.2,0,.3,0,.3.3,0,1.1,0,2.2,0,3.4,0,.3-.2.3-.4.3h-2.8"/>
          <path id="Path_22688" data-name="Path 22688" class="cls-3" d="M84.5,19.1c0-2.6,0-5.2,0-7.8,0-.5.1-.6.6-.6,1.2,0,2.3,0,3.5,0,.3,0,.5,0,.5.4,0,5.3,0,10.7,0,16,0,.3-.1.4-.4.4-1.2,0-2.4,0-3.5,0-.4,0-.5-.1-.5-.5,0-2.7,0-5.3,0-8"/>
        </g>
      </g>
    </g>
  </g>
</svg>