<?xml version="1.0" encoding="UTF-8"?>
<svg id="Layer_1" data-name="Layer 1" xmlns="http://www.w3.org/2000/svg" xmlns:xlink="http://www.w3.org/1999/xlink" version="1.1" viewBox="0 0 88 60">
  <defs>
    <style>
      .cls-1 {
        clip-path: url(#clippath);
      }

      .cls-2 {
        fill: none;
      }

      .cls-2, .cls-3, .cls-4 {
        stroke-width: 0px;
      }

      .cls-3 {
        fill: #a801bd;
      }

      .cls-5 {
        clip-path: url(#clippath-1);
      }

      .cls-4 {
        fill: #a801bd;
      }
    </style>
    <clipPath id="clippath">
      <rect class="cls-2" y="0" width="88" height="60"/>
    </clipPath>
    <clipPath id="clippath-1">
      <rect class="cls-2" x="1.5" y="2.8" width="84.9" height="54.3"/>
    </clipPath>
  </defs>
  <g class="cls-1">
    <g id="Mask_Group_181" data-name="Mask Group 181">
      <g id="Group_6737" data-name="Group 6737">
        <g class="cls-5">
          <g id="Group_6736" data-name="Group 6736">
            <path id="Path_22657" data-name="Path 22657" class="cls-4" d="M44,2.8c11.8,0,23.6,0,35.3,0,1.1,0,2.2,0,3.2.3,2.1.5,3.6,2.2,3.8,4.4,0,.8.1,1.6.1,2.3,0,13.4,0,26.9,0,40.3,0,.9,0,1.8-.2,2.7-.5,2.6-2.4,4.1-5.3,4.2-.6,0-1.1,0-1.7,0-23.6,0-47.1,0-70.7,0-1,0-2.1,0-3.1-.3-2.1-.5-3.7-2.3-3.9-4.5,0-.8-.1-1.6-.1-2.3,0-13.4,0-26.7,0-40.1,0-.9,0-1.8.2-2.7.4-2.6,2.7-4.4,5.3-4.4.8,0,1.6,0,2.4,0h34.7M44,4.6c-11.6,0-23.1,0-34.7,0-.8,0-1.7,0-2.5,0-1.8,0-3.3,1.4-3.4,3.2,0,.6-.1,1.2-.1,1.8,0,13.6,0,27.1,0,40.7,0,.7,0,1.4.1,2,.1,1.4,1.2,2.6,2.7,2.8.9.1,1.8.2,2.7.2,23.4,0,46.7,0,70.1,0,.6,0,1.3,0,1.9,0,1.9.1,3.6-1.3,3.7-3.3,0,0,0,0,0-.1,0-.4,0-.8,0-1.1V9.2c0-.6,0-1.1-.1-1.7-.2-1.4-1.2-2.5-2.5-2.7-.9-.1-1.8-.2-2.7-.2-11.7,0-23.5,0-35.2,0"/>
            <path id="Path_22658" data-name="Path 22658" class="cls-4" d="M29.6,24.8c-3.3,2.5-2.7,6.7.6,8.4-.6,1.8-1.6,3.5-3,4.9-.7.7-1.8.9-2.7.5-1.6-.8-3.4-.8-4.9,0-.9.4-1.9.2-2.5-.5-3-3.1-4.6-6.8-3.6-11.1.4-2.2,2.2-3.8,4.4-4,.9,0,1.7,0,2.5.4.9.4,2,.4,3,0,1.9-1,4.3-.6,5.8.9.2.2.4.4.5.6"/>
            <path id="Path_22659" data-name="Path 22659" class="cls-3" d="M36.6,32v6.6h-2.9v-19.4c2.4,0,4.7,0,7.1,0,.5,0,1,0,1.5.1,3.5.7,5.7,4.1,4.9,7.6-.6,2.8-3,4.9-5.9,5-1.5,0-3,0-4.6,0M36.7,29.5c1,0,2,0,3,0,.5,0,1,0,1.4,0,1.6-.1,2.9-1.4,3.1-3,.3-2.1-.4-3.6-2.1-4.2-1.7-.6-3.6-.3-5.4-.4v7.7Z"/>
            <path id="Path_22660" data-name="Path 22660" class="cls-3" d="M57.2,30.2c.3-2-.3-3.1-1.6-3.5-1.7-.6-3.5.2-4.2,1.9h-2.6c0-1.1.5-2.1,1.3-2.9,2.5-2,6-2.1,8.6-.3.9.6,1.4,1.6,1.4,2.7,0,3.5,0,6.9,0,10.4h-2.7v-2.3c-.3.3-.4.5-.5.6-1.8,2.2-5.1,2.6-7.4.7-.2-.1-.3-.3-.5-.4-1.4-1.6-1.3-4.1.3-5.5.2-.2.5-.4.7-.5,1-.4,2-.7,3.1-.8,1.3-.2,2.6-.2,4-.3M57.1,32.2c-1.5.1-3,.2-4.4.5-1,.1-1.7,1-1.7,2,.1,1,.9,1.8,2,1.9,2.4.3,4.7-1.3,4.1-4.4"/>
            <path id="Path_22661" data-name="Path 22661" class="cls-3" d="M68.2,35.8c1.1-3.5,2.2-6.9,3.2-10.4.2-.7.5-1,1.3-.9.7,0,1.4,0,2.1,0-.6,1.7-1.2,3.4-1.8,5-1.2,3.3-2.3,6.6-3.5,9.9-.2.5-.3.9-.5,1.3-1.2,2.6-3.2,3.6-6.1,3.1v-2.3c.3,0,.7,0,1,0,1.5,0,2.6-1.4,2.5-2.9,0-.2,0-.5-.1-.7-1.5-4.2-3-8.4-4.6-12.7,0-.2-.2-.5-.3-.8,1,0,1.9,0,2.8,0,.2,0,.4.4.5.6,1,3.3,2.1,6.6,3.1,9.9,0,.3.2.5.3.8h.2"/>
            <path id="Path_22662" data-name="Path 22662" class="cls-4" d="M25.7,17.8c.3,2.3-1.3,4.4-3.6,4.7-.1,0-.3,0-.4,0-.5-2,1.6-4.6,4-4.8"/>
          </g>
        </g>
      </g>
    </g>
  </g>
</svg>