<?xml version="1.0" encoding="utf-8"?>
<!-- Generator: Adobe Illustrator 27.8.0, SVG Export Plug-In . SVG Version: 6.00 Build 0)  -->
<svg version="1.1" id="Layer_1" xmlns="http://www.w3.org/2000/svg" xmlns:xlink="http://www.w3.org/1999/xlink" x="0px" y="0px"
	 viewBox="0 0 80 80" style="enable-background:new 0 0 80 80;" xml:space="preserve">
<style type="text/css">
	.st0{fill:url(#SVGID_1_);}
	.st1{fill:url(#SVGID_00000164483541561366890500000003611259127369646255_);}
	.st2{fill:url(#SVGID_00000025402033816961439850000017352586142829032858_);}
	.st3{fill:url(#SVGID_00000156580995706438467680000010290544526188271532_);}
	.st4{fill:url(#SVGID_00000027572152223975650730000001175976863140275880_);}
	.st5{fill:url(#SVGID_00000081645172032127105230000003245842590226944903_);}
	.st6{fill:url(#SVGID_00000111177933281252544120000006438637787481722264_);}
	.st7{fill:url(#SVGID_00000073697656649346342340000014033118462885830035_);}
	.st8{fill:url(#SVGID_00000005236068530511900640000004092718382321550726_);}
	.st9{fill:url(#SVGID_00000101088513114116654750000015341816701960272545_);}
	.st10{fill:url(#SVGID_00000110471443979891833780000012455464571534371976_);}
	.st11{fill:url(#SVGID_00000036230486556422691820000001817950066099474107_);}
	.st12{fill:url(#SVGID_00000124884119093116551520000001878580015310175147_);}
	.st13{fill:url(#SVGID_00000112621920655631923920000008999522530206677640_);}
</style>
<g id="zLtrcl.tif">
	<g>
		<linearGradient id="SVGID_1_" gradientUnits="userSpaceOnUse" x1="4.4812" y1="28.2325" x2="62.8302" y2="81.8717">
			<stop  offset="0" style="stop-color:#b00bc5"/>
			<stop  offset="1" style="stop-color:#453E1B"/>
		</linearGradient>
		<path class="st0" d="M25.9,75.1c-1.6-0.9-2.2-2.3-2.3-4.2c0-5.2,1.2-9.9,5.1-13.6c1.1-1.1,2.5-2,3.9-2.7c1.7-0.9,1.8-1.4,0.5-3
			C28.5,46,31.4,38,38.5,36.9c3.8-0.6,7,0.8,9.1,4c2.1,3.2,2,6.6-0.1,9.9c-0.3,0.4-0.6,0.8-0.9,1.2c-0.9,1.2-0.8,1.8,0.5,2.5
			c7.2,3.7,9.4,9.9,9.1,17.5c-0.1,1.5-1,2.4-2.2,3.1C44.6,75.1,35.3,75.1,25.9,75.1z"/>
		
			<linearGradient id="SVGID_00000091007954454188347760000013468477385765017535_" gradientUnits="userSpaceOnUse" x1="-2.8906" y1="36.2515" x2="55.469" y2="89.9005">
			<stop  offset="0" style="stop-color:#b00bc5"/>
			<stop  offset="1" style="stop-color:#453E1B"/>
		</linearGradient>
		<path style="fill:url(#SVGID_00000091007954454188347760000013468477385765017535_);" d="M3,62.9c0.8-3.3,1.8-6.6,4.3-9.1
			c1.3-1.4,2.8-2.5,4.5-3.4c1.8-0.9,1.9-1.4,0.6-3c-4.1-5.1-2.1-12.6,3.8-14.5c4-1.3,8.2,0.1,10.5,3.5c2.3,3.3,2.1,7.7-0.5,10.9
			c-1.4,1.8-1.3,2.2,0.6,3.2c0,0,0.1,0,0.1,0.1c3.3,1.7,3.3,1.7,0.6,3.9c-4.4,3.7-6.4,8.6-6.7,14.2c-0.1,2.2-0.1,2.3-2.3,2.3
			c-3.7,0-7.4-0.1-11.1,0C5.4,71,4,70.4,3,68.7C3,66.8,3,64.9,3,62.9z"/>
		
			<linearGradient id="SVGID_00000080180359292029015290000014349377468178423725_" gradientUnits="userSpaceOnUse" x1="19.1738" y1="12.2498" x2="77.5334" y2="65.8987">
			<stop  offset="0" style="stop-color:#b00bc5"/>
			<stop  offset="1" style="stop-color:#453E1B"/>
		</linearGradient>
		<path style="fill:url(#SVGID_00000080180359292029015290000014349377468178423725_);" d="M67,71c-2,0-4.1,0-6.1,0
			c-1.2,0-1.7-0.3-1.7-1.6c-0.2-6.6-2.7-12.1-8.2-16c-0.8-0.6-0.7-1,0-1.5c0.8-0.5,1.6-1,2.5-1.5c1.6-0.9,1.7-1.4,0.6-2.8
			c-2.7-3.3-3.1-7.3-1.2-10.6c2.6-4.4,8.3-5.8,12.7-3.1c4.3,2.6,5.5,8.5,2.7,12.7c-0.3,0.4-0.6,0.8-0.9,1.2
			c-0.9,1.2-0.8,1.8,0.5,2.5c7.2,3.7,9.5,9.9,9.1,17.5c-0.1,1.9-1.5,3.1-3.4,3.2C71.4,71,69.2,70.9,67,71C67,71,67,71,67,71z"/>
		
			<linearGradient id="SVGID_00000127024897842554339750000017353180408468650652_" gradientUnits="userSpaceOnUse" x1="25.1887" y1="5.7067" x2="83.5483" y2="59.3556">
			<stop  offset="0" style="stop-color:#b00bc5"/>
			<stop  offset="1" style="stop-color:#453E1B"/>
		</linearGradient>
		<path style="fill:url(#SVGID_00000127024897842554339750000017353180408468650652_);" d="M30.9,27c0.4-1.4,0.8-2.8,1.4-4.2
			c0.6-1.5,0.1-2.7-1.2-3.5c-1-0.7-1.9-1.4-2.8-2.1c-1-0.8-1.6-1.8-1.1-3.1c0.4-1.3,1.4-1.8,2.7-1.8c1.2,0,2.3,0,3.5,0
			c1.5,0,2.5-0.6,2.9-2.1C36.6,9.2,37,8,37.4,6.9c0.4-1.2,1.2-2,2.6-2c1.3,0,2.1,0.8,2.5,1.9c0.4,1.1,0.8,2.3,1.1,3.5
			c0.4,1.6,1.5,2.2,3,2.2c1.2,0,2.4,0,3.7,0c1.2,0,2.1,0.6,2.5,1.7c0.4,1.1,0.1,2.1-0.8,2.9c-1.1,0.8-2.2,1.6-3.3,2.5
			c-1.1,0.8-1.5,1.8-1,3.2c0.4,1.2,0.8,2.4,1.2,3.6c0.3,1.1,0.2,2.3-0.8,3c-1.1,0.8-2.2,0.7-3.3-0.1c-1-0.7-2-1.4-3-2.1
			c-1.2-0.9-2.3-0.9-3.5,0c-1.1,0.8-2.2,1.6-3.4,2.4C34,30,33,30,32.1,29.4C31.3,28.9,30.9,28.1,30.9,27z"/>
	</g>
</g>
</svg>
