<?xml version="1.0" encoding="utf-8"?>
<!-- Generator: Adobe Illustrator 27.8.0, SVG Export Plug-In . SVG Version: 6.00 Build 0)  -->
<svg version="1.1" id="Layer_1" xmlns="http://www.w3.org/2000/svg" xmlns:xlink="http://www.w3.org/1999/xlink" x="0px" y="0px"
	 viewBox="0 0 197.2 197.2" style="enable-background:new 0 0 197.2 197.2;" xml:space="preserve">
<style type="text/css">
	.st0{fill:#a801bd;}
	.st1{fill:#fff;}
</style>
<circle class="st0" cx="98.6" cy="98.6" r="98.6"/>
<g id="dI1pA3.tif_00000007407553148533046840000016407517862670060184_">
	<g>
		<path class="st1" d="M68.6,139.6c-1.8-1.4-2.3-3.3-2.2-5.5c0.3-6.3-0.7-12.6,1-18.8c1.6-5.9,4.7-10.9,9.2-15.1
			c1.2-1.2,2-1.1,3.3,0c11.1,9.7,25.9,9.7,37.1,0c1.3-1.1,2.1-1.2,3.3,0c6.5,6.2,10,13.7,10.2,22.7c0.1,3.7-0.1,7.5,0,11.2
			c0.1,2.2-0.5,4.1-2.2,5.5C108.5,139.6,88.6,139.6,68.6,139.6z"/>
		<path class="st1" d="M38.8,119.2c1.1-3.6,2.3-7.1,4.6-10c0.9-1.2,1.6-1.6,2.9-0.3c3.2,3.1,7,5.2,11.5,6c1.5,0.3,1.9,1,1.7,2.6
			c-0.8,7.4-1.3,14.8,0.2,22.2c-6.6,0-13.1,0-19.7,0c-1.1,0-1.3-0.2-1.3-1.3C38.8,132,38.8,125.6,38.8,119.2z"/>
		<path class="st1" d="M137.3,139.6c1.6-7.3,0.9-14.7,0.2-22c-0.2-1.6,0-2.5,1.7-2.8c4.4-0.9,8.3-2.9,11.5-6
			c1.2-1.2,1.9-0.8,2.8,0.3c2.9,3.9,4.7,8.2,4.8,13.1c0.1,4-0.1,8,0.1,11.9c0.1,2.2-0.5,4.1-2.2,5.5
			C149.9,139.6,143.6,139.6,137.3,139.6z"/>
		<path class="st1" d="M118.6,76c0.5,6.4-0.6,12.3-5,17.4c-5.2,5.9-14.2,8.3-21.8,5.5c-7.9-2.8-13.2-10.1-13.3-18.3
			c0-2.9,0-5.8,0-8.7c0.1-11.3,8.8-20,20-20c11.4,0,20.1,8.7,20.2,20.1C118.6,73.4,118.6,74.7,118.6,76z"/>
		<path class="st1" d="M46.6,89.8c0-9.6,4.5-15.9,12.7-17.7c3.2-0.7,6.4-0.4,9.5,0.9c1.4,0.6,2.1,1.4,2.1,3
			c-0.2,5.3,0.4,10.6,2.6,15.5c0.5,1,0,1.7-0.7,2.4c-4.1,3.5-7.3,7.7-9.7,12.5c-0.9,1.8-2.2,1.7-3.8,1.4c-7.3-1.5-12.6-8-12.7-15.4
			C46.6,91.4,46.6,90.6,46.6,89.8z"/>
		<path class="st1" d="M150.4,89.8c0,9.5-4.2,15.6-12,17.7c-2.3,0.6-3.8,0.3-5-2.1c-2.2-4.4-5.2-8.3-9-11.5
			c-0.9-0.8-1.4-1.5-0.8-2.8c2.2-4.7,2.7-9.7,2.5-14.8c-0.1-2,0.8-3,2.6-3.6c10.4-3.9,21.6,3.6,21.7,14.8
			C150.5,88.3,150.4,89.1,150.4,89.8z"/>
	</g>
</g>
</svg>
