<?xml version="1.0" encoding="UTF-8"?>
<svg id="Layer_1" data-name="Layer 1" xmlns="http://www.w3.org/2000/svg" xmlns:xlink="http://www.w3.org/1999/xlink" version="1.1" viewBox="0 0 216 60">
  <defs>
    <style>
      .cls-1 {
        clip-path: url(#clippath);
      }

      .cls-2 {
        fill: none;
      }

      .cls-2, .cls-3, .cls-4 {
        stroke-width: 0px;
      }

      .cls-3 {
        fill: #b00bc5;
      }

      .cls-5 {
        clip-path: url(#clippath-1);
      }

      .cls-4 {
        fill: #b00bc5;
      }
    </style>
    <clipPath id="clippath">
      <rect class="cls-2" y="0" width="216" height="60"/>
    </clipPath>
    <clipPath id="clippath-1">
      <rect class="cls-2" x="1.6" y="6.3" width="212.8" height="47.4"/>
    </clipPath>
  </defs>
  <g class="cls-1">
    <g id="Mask_Group_179" data-name="Mask Group 179">
      <g id="Group_6727" data-name="Group 6727">
        <g class="cls-5">
          <g id="Group_6726" data-name="Group 6726">
            <path id="Path_22577" data-name="Path 22577" class="cls-3" d="M1.6,21.4c.1-.6.3-1.1.4-1.7,1.1-3.6,4.5-6.1,8.3-6.1,1.5,0,3,.5,4.2,1.5,0-.1,0-.2,0-.3,0-.4.4-.7.8-.7,0,0,0,0,0,0,1.5,0,2.9,0,4.4,0,.4,0,.8.3.8.7,0,0,0,0,0,0,0,.1,0,.2,0,.4v15c0,.1,0,.2,0,.4,0,.4-.4.7-.8.7-1.4,0-2.9,0-4.3,0-.6,0-.8-.3-.9-1,0,0,0,0-.1,0-1.4,1.2-3.2,1.7-5.1,1.4-3.8-.5-6.9-3.4-7.6-7.2,0-.1,0-.3-.1-.4v-2.7M7.6,22.7c0,1.9,1.6,3.4,3.6,3.4,1.9,0,3.4-1.6,3.4-3.6,0-1.9-1.6-3.4-3.5-3.4-1.9,0-3.4,1.5-3.4,3.4,0,0,0,0,0,.1"/>
            <path id="Path_22578" data-name="Path 22578" class="cls-4" d="M152.6,53.7c-.3,0-.7-.1-1-.3-1.5-.4-2.6-1.6-2.8-3.1,0-.2,0-.3,0-.5,0-.2,0-.3.2-.2h.2c.3,0,.6,0,.9,0,.3.1.2.5.3.8.2.7.8,1.3,1.6,1.6,1,.4,2.2.4,3.2,0,.7-.3,1.2-.9,1.2-1.7,0-.6-.2-1.2-.8-1.5-.7-.4-1.5-.7-2.4-.9-.7-.2-1.4-.4-2.1-.7-1.3-.5-2.1-1.8-1.9-3.2.2-1.3,1.1-2.3,2.4-2.6,1.3-.4,2.7-.4,4,.2,1.1.5,1.8,1.5,1.9,2.7,0,.3,0,.5-.4.4,0,0-.1,0-.2,0-.3,0-.5,0-.8,0-.3-.1-.2-.5-.3-.7-.2-.5-.6-.9-1.2-1.2-1-.4-2.1-.4-3.1,0-.6.2-1,.8-1,1.4,0,.6.3,1.2.8,1.5.6.4,1.3.6,2.1.8.8.2,1.6.5,2.4.8,1.1.4,1.9,1.5,1.9,2.7,0,1.4-.8,2.7-2,3.2-.5.2-1,.4-1.6.4,0,0-.2,0-.2,0h-1.3Z"/>
            <path id="Path_22579" data-name="Path 22579" class="cls-4" d="M137.4,53.7c-.2-.1-.4-.2-.7-.2-1.4-.5-2.2-2-1.8-3.4.3-.8.9-1.4,1.6-1.7,1.2-.4,2.6-.4,3.8,0,.5.1.5.1.4-.4,0-.9-.5-1.7-1.4-1.9-1-.3-2.1,0-2.7,1,0,.3-.4.5-.7.4,0,0-.2,0-.2,0-.8,0-.8,0-.5-.8.3-.8,1-1.4,1.8-1.7,1-.4,2-.4,3,0,1.3.4,2.1,1.6,2,2.9,0,1.5,0,3,0,4.5,0,.4,0,.7.2,1.1.1.2,0,.3-.2.3-.3,0-.7,0-1,0-.3,0-.4-.1-.4-.4,0-.2,0-.4,0-.7-.6.7-1.5,1.2-2.4,1.3h-1ZM138.7,49.3c-.6,0-1.1,0-1.6.3-.5.2-.8.7-.8,1.3,0,.6.3,1.1.8,1.3,1.3.6,2.9,0,3.5-1.3.1-.3.2-.6.2-.9,0-.2,0-.4-.3-.4-.6-.2-1.2-.3-1.9-.3"/>
            <path id="Path_22580" data-name="Path 22580" class="cls-4" d="M163.2,53.7c-.3-.1-.5-.2-.8-.2-2-.6-3.3-2.6-3.1-4.7,0-1.7,1.1-3.3,2.7-3.9,1.6-.7,3.5-.4,4.8.8,1.4,1.3,1.8,3.2,1.2,5-.4,1.7-1.9,2.9-3.6,3,0,0-.1,0-.1,0h-1.1ZM166.8,49c0-.1,0-.3,0-.5-.2-1.7-1.6-2.9-3.3-2.7-1.2.1-2.2,1-2.6,2.1-.1.6-.2,1.1-.1,1.7.1,1.6,1.6,2.8,3.2,2.7.1,0,.2,0,.3,0,1.6-.3,2.6-1.7,2.5-3.3"/>
            <path id="Path_22581" data-name="Path 22581" class="cls-4" d="M198.7,53.7c-.2-.2-.5-.1-.7-.2-1.6-.4-2.8-1.7-3-3.4-.6-2.4.8-4.8,3.2-5.5,1-.3,2.1-.2,3.1.3,1.6.6,2.6,2.2,2.5,3.9.2,1.8-.7,3.5-2.3,4.3-.5.2-1.1.4-1.7.5h-1.1ZM199.4,52.4c1.4,0,2.6-.9,2.9-2.2.2-.6.2-1.2,0-1.8-.2-1.6-1.8-2.8-3.4-2.5-1.2.2-2.2,1-2.5,2.2-.1.4-.1.9-.1,1.4,0,1.6,1.3,2.9,3,2.9,0,0,0,0,0,0"/>
            <path id="Path_22582" data-name="Path 22582" class="cls-4" d="M128.9,53.7c-.1-.2-.4-.1-.5-.2-1.2-.2-2.1-1.1-2.4-2.2-.1-.6,0-.6.5-.6.1,0,.2,0,.3,0,.4,0,.6,0,.6.5.1.5.5.9,1,1.1.8.3,1.6.3,2.4,0,.5-.1.8-.5.9-1,0-.5-.3-1-.8-1.1-.7-.2-1.3-.4-2.1-.5-.5,0-1-.2-1.4-.4-1.2-.5-1.6-1.9-1.1-3.1.1-.3.3-.5.5-.7,1.5-1.1,3.5-1.1,5,0,.5.4.8.9.9,1.6,0,.2,0,.4-.3.3,0,0-.2,0-.3,0-.4,0-.7,0-.9-.5-.2-.4-.5-.6-.9-.7-.7-.2-1.5-.2-2.2,0-.6.1-.9.7-.8,1.3,0,.3.3.6.7.7.7.3,1.4.4,2.1.5.5,0,.9.2,1.4.4.8.2,1.4.9,1.4,1.8.1.9-.3,1.7-1,2.3-.5.4-1.1.6-1.7.7,0,0-.2,0-.2,0h-1.3Z"/>
            <path id="Path_22583" data-name="Path 22583" class="cls-4" d="M176.3,53.7c0-.1-.2-.1-.3-.1-1.1-.3-2-1.3-2-2.4-.1-1.3,0-2.5,0-3.8,0-.8,0-1.5,0-2.3,0-.3,0-.4.4-.4,1,0,1,0,1,1v4.5c0,1.2.4,1.9,1.3,2.1,1.1.3,2.2,0,2.8-1,.3-.6.5-1.2.5-1.9,0-1.4,0-2.8,0-4.2,0-.3,0-.4.4-.4,1,0,1,0,1,1,0,2.4,0,4.9,0,7.3,0,.4-.1.5-.5.5-.9,0-.9,0-.9-.9,0,0,0-.1,0-.3-.6.7-1.4,1.2-2.3,1.3h-1.2Z"/>
            <path id="Path_22584" data-name="Path 22584" class="cls-4" d="M187,53.7c0,0,0,0-.1,0-1.2-.2-2-1.3-2-2.5,0-1.6,0-3.1,0-4.7,0-.3,0-.4-.4-.4s-.7,0-1,0c-.2,0-.4,0-.3-.3,0,0,0,0,0,0q0-.9.9-.9t.8-.8c0-.5,0-1,0-1.5,0-.3,0-.3.3-.3,1.3,0,1-.2,1,1,0,.4,0,.7,0,1.1q0,.6.6.6c.7,0,1.4,0,2.1,0,.3,0,.4,0,.4.4,0,1.1.1.9-.9.9-.6,0-1.3,0-1.9,0-.2,0-.3,0-.3.3,0,1.6,0,3.1,0,4.7,0,1,.5,1.4,1.4,1.4.5,0,1,0,1.5-.2.3-.1.4,0,.4.3,0,1,0,1-1,1.2-.1,0-.2,0-.3,0h-1.3Z"/>
            <path id="Path_22585" data-name="Path 22585" class="cls-3" d="M62.5,16c.1,0,.2-.1.2-.2,1-1.3,2.5-2.1,4.1-2.2,1,0,2,0,3,.3,2,.6,3.6,2.3,4,4.4.2.9.3,1.8.3,2.7,0,3.1,0,6.3,0,9.4,0,.7-.3,1-1,1h-4c-.7,0-1-.3-1-1,0-2.8,0-5.6,0-8.3,0-.4,0-.7,0-1.1-.3-1.4-1.7-2.3-3.1-2-1.4.1-2.4,1.3-2.4,2.7,0,1.7,0,3.4,0,5.1v3.7c0,.7-.3.9-.9.9-1.4,0-2.8,0-4.2,0-.6,0-.9-.3-.9-.9V7.9c0-.7.3-.9,1-.9,1.3,0,2.7,0,4,0,.8,0,1,.2,1,1v8Z"/>
            <path id="Path_22586" data-name="Path 22586" class="cls-3" d="M75.6,22.8c0-4.5,3.2-8.3,7.6-9,3.6-.8,7.4.6,9.6,3.5,2.9,3.8,2.3,9.3-1.5,12.3-4.2,3.4-10.4,2.8-13.8-1.4-.5-.6-.9-1.2-1.2-1.9-.5-1.1-.8-2.3-.7-3.5M85.1,26.2c1.9,0,3.6-1.5,3.6-3.5,0-1.9-1.5-3.6-3.5-3.6-1.9,0-3.6,1.5-3.6,3.5,0,0,0,0,0,0,0,1.9,1.5,3.5,3.4,3.5,0,0,0,0,0,0"/>
            <path id="Path_22587" data-name="Path 22587" class="cls-3" d="M168.4,16.1c.8-1.3,2.1-2.1,3.6-2.4,1.5-.3,3-.2,4.4.4,1.9.8,3.2,2.6,3.4,4.6.2.9.2,1.8.2,2.6v8.8c0,.9-.2,1.1-1.2,1.1h-3.9c-.7,0-1-.3-1-1,0-2.9,0-5.8,0-8.8,0-1.1-.6-2.1-1.6-2.5-1.4-.6-3,0-3.7,1.3-.2.4-.3.8-.3,1.3,0,2.8,0,5.7,0,8.5s-.2,1.1-1.1,1.1h-3.9c-.7,0-1-.3-1-1v-15.2c0-.7.3-1,1-1,1.4,0,2.7,0,4.1,0,.7,0,1,.3,1,1v1"/>
            <path id="Path_22588" data-name="Path 22588" class="cls-3" d="M139.9,24.3c.2,1.2,1.2,2.2,2.4,2.5,1.4.4,2.8,0,3.9-1,.8-.7,1-.7,1.9-.1.8.5,1.6,1.1,2.5,1.6.4.2.6.6.4,1,0,.1-.1.2-.2.3-1.1,1.4-2.6,2.3-4.2,2.7-2.5.8-5.2.7-7.6-.4-3.4-1.5-5.4-5-5.1-8.7,0-1.8.6-3.6,1.7-5.1,1.5-2.1,3.9-3.4,6.6-3.5,1.7-.2,3.4.1,4.9.9,2.6,1.3,4.4,3.9,4.5,6.9,0,.6,0,1.3,0,1.9,0,.5-.3,1-.9,1,0,0-.2,0-.2,0h-10.5ZM142.9,20.5c.8,0,1.7,0,2.5,0,.3,0,.4,0,.3-.3-.4-1.2-1.5-2-2.7-1.9-1.3,0-2.4.8-2.8,2,0,.3,0,.3.2.3h2.5"/>
            <path id="Path_22589" data-name="Path 22589" class="cls-3" d="M193.1,24.3c-1.7,0-3.4,0-5.2,0-.3,0-.4,0-.3.4.4,1.2,1.5,2.1,2.8,2.2,1.3.2,2.5-.2,3.5-1.1.7-.7,1-.7,1.8-.2.8.5,1.7,1.1,2.5,1.7.4.2.6.6.4,1,0,.1-.1.2-.2.3-1,1.3-2.3,2.2-3.9,2.6-2.7,1-5.6.8-8.2-.4-2.9-1.3-4.8-4.2-4.9-7.3-.3-2.8.7-5.5,2.7-7.5,1.4-1.4,3.3-2.2,5.2-2.3,2.1-.3,4.3.2,6.1,1.4,2.3,1.5,3.7,4.1,3.7,6.9,0,.5,0,1.1,0,1.6,0,.5-.4.9-.9.9,0,0,0,0-.1,0h-5.1M190.5,20.5c.8,0,1.7,0,2.5,0,.3,0,.4,0,.3-.4-.4-1.2-1.5-1.9-2.7-1.9-1.3,0-2.4.8-2.8,2,0,.2,0,.3.2.3.9,0,1.7,0,2.6,0"/>
            <path id="Path_22590" data-name="Path 22590" class="cls-3" d="M39.5,20.1c0,1.4,0,2.8,0,4.2.1,3.7-2.6,6.8-6.3,7.3-2.1.4-4.3.2-6.3-.6-2.3-.9-3.9-2.9-4.3-5.3,0-.4,0-.9,0-1.3,0-3.1,0-6.2,0-9.3,0-.8.3-1,1-1h3.9c.8,0,1,.3,1,1v8.4c0,.2,0,.4,0,.6,0,1.4,1.2,2.4,2.6,2.3.4,0,.7-.1,1-.3.7-.3,1.1-.9,1.2-1.7,0-.3,0-.7,0-1,0-2.8,0-5.6,0-8.5,0-.7.3-1,1-1,1.4,0,2.7,0,4.1,0,.7,0,1,.3,1,1v5.1"/>
            <path id="Path_22591" data-name="Path 22591" class="cls-3" d="M125.5,26.1h6.5c.8,0,1,.2,1,1v3.1c0,.8-.3,1-1,1h-13.7c-.8,0-1.1-.3-1.1-1,0-.9,0-1.7,0-2.6,0-.4.1-.8.5-1.2,2.1-2.2,4.2-4.5,6.4-6.7.1-.2.3-.3.5-.5-.2,0-.4,0-.5,0h-5.4c-.8,0-1.1-.3-1.1-1.1v-3c0-.7.3-1,1-1,4.3,0,8.7,0,13,0,.7,0,1,.3,1,1,0,.8,0,1.7,0,2.5,0,.5-.2,1-.5,1.3-2.1,2.2-4.2,4.5-6.2,6.7-.1.1-.3.3-.4.5"/>
            <path id="Path_22592" data-name="Path 22592" class="cls-3" d="M43.2,23.1c0-1.2,0-2.4,0-3.7,0-.3,0-.4-.4-.4-.4,0-.9,0-1.3,0-.5,0-.9-.3-.9-.7,0,0,0-.1,0-.2h0c0-2.5-.1-2.1,1.4-3.7,1.1-1.2,2.3-2.4,3.3-3.7.9-1.1,2.1-1.1,3.3-1,.4,0,.6.4.6.9,0,1,0,2,0,3.1,0,.3,0,.4.4.4,1.1,0,2.2,0,3.3,0,.7,0,1,.3,1,1,0,1,0,2,0,3,0,.7-.3,1-1,1-1.1,0-2.2,0-3.3,0-.2,0-.3,0-.3.3,0,1.8,0,3.6,0,5.4,0,.7.4,1.3,1.1,1.4.2,0,.4,0,.5,0,.4-.1.9-.3,1.2-.5.4-.3,1-.3,1.3.2,0,0,0,.1.1.2.5.7,1,1.5,1.5,2.2.4.5.3,1.2-.1,1.6,0,0,0,0-.1,0-1.1.9-2.4,1.5-3.9,1.7-1.6.3-3.3.1-4.9-.5-1.7-.7-2.8-2.4-2.9-4.3,0-1.2,0-2.4,0-3.6h0"/>
            <path id="Path_22593" data-name="Path 22593" class="cls-3" d="M202.2,23c0-1.2,0-2.4,0-3.5,0-.3,0-.4-.4-.4-.5,0-.9,0-1.4,0-.4,0-.8-.3-.8-.7,0-.6,0-1.2,0-1.9,0-.4.2-.8.5-1.1,1.4-1.6,2.8-3.1,4.2-4.7.5-.7,1.4-1,2.2-1,.2,0,.5,0,.7,0,.4,0,.8.3.9.7,0,0,0,.1,0,.2,0,1,0,2.1,0,3.1,0,.3,0,.4.4.4,1.1,0,2.2,0,3.2,0,.7,0,1,.3,1,1,0,1,0,2,0,3,0,.7-.3,1-1,1-1.1,0-2.2,0-3.3,0-.3,0-.3,0-.3.3,0,1.8,0,3.5,0,5.3,0,1.2.7,1.7,1.9,1.4.4-.1.8-.3,1.1-.5.4-.3,1-.2,1.3.2,0,0,0,0,0,.1.5.8,1.1,1.6,1.6,2.4.4.5.3,1.1-.2,1.5,0,0,0,0,0,0-1.1.9-2.4,1.5-3.8,1.7-1.5.3-3,.2-4.5-.3-2.1-.7-3.5-2.6-3.5-4.8,0-1.1,0-2.3,0-3.4h0Z"/>
            <path id="Path_22594" data-name="Path 22594" class="cls-3" d="M102.2,16c.2-.2.5-.4.8-.6.8-.9,1.9-1.4,3-1.5.5,0,.9,0,1.4.2.6.2,1,.8.8,1.5-.2,1.3-.3,2.6-.5,3.9-.2,1.2-.8,1.6-2,1.3-.5-.1-.9-.2-1.4-.3-.9-.2-1.8.4-2,1.4,0,.1,0,.3,0,.4,0,1.7,0,3.5,0,5.2v2.9c0,.5-.2.9-.7.9,0,0-.2,0-.2,0-1.4,0-2.8,0-4.2,0-.6,0-.9-.3-.9-.9,0-1.5,0-3.1,0-4.6v-10.5c0-.9.2-1.1,1.1-1.1.9,0,1.9,0,2.8,0,.7,0,1.3.4,1.5,1,.2.3.3.7.4.9"/>
            <path id="Path_22595" data-name="Path 22595" class="cls-3" d="M115.5,22.7v7.5c0,.8-.3,1.1-1.1,1.1h-3.9c-.7,0-1-.3-1-1v-15.1c0-.8.3-1,1-1h4c.7,0,1,.3,1,1,0,2.5,0,5.1,0,7.6"/>
            <path id="Path_22596" data-name="Path 22596" class="cls-3" d="M152.8,27.9c0-2.1,1.7-3.8,3.8-3.8,0,0,0,0,0,0,2.1,0,3.9,1.7,3.9,3.8,0,2.1-1.7,3.9-3.8,3.9-2.1,0-3.9-1.7-3.9-3.8h0"/>
            <path id="Path_22597" data-name="Path 22597" class="cls-4" d="M101.3,41.2q.9,0,1.1.8c1.3,3.6,2.7,7.3,4,10.9.2.5.2.6-.4.6q-1,0-1.3-.9c-.3-.8-.6-1.6-.8-2.3,0-.2-.2-.3-.4-.3-1.5,0-2.9,0-4.4,0-.3,0-.4.1-.4.3-.3,1-.7,1.9-1,2.9,0,.3-.2.4-.5.4-.2,0-.4,0-.6,0-.6,0-.6,0-.4-.6.5-1.4,1.1-2.9,1.6-4.3.8-2.3,1.7-4.5,2.5-6.8.2-.4.3-.7.8-.6,0,0,.2,0,.3,0M103.2,48.5l-2-5.5-2,5.5h4Z"/>
            <path id="Path_22598" data-name="Path 22598" class="cls-4" d="M115.8,51.7c.4-1.3.9-2.5,1.3-3.7.7-2.1,1.5-4.2,2.2-6.4,0-.3.2-.5.6-.4.3,0,.6,0,.9,0,.4,0,.4.1.3.4-.6,1.7-1.2,3.4-1.8,5.1-.8,2.1-1.5,4.3-2.3,6.4,0,.3-.2.4-.5.4-.4,0-.7,0-1.1,0-.3,0-.4-.1-.5-.4-.9-2.5-1.8-5-2.7-7.6-.5-1.3-.9-2.6-1.4-3.9-.2-.4-.1-.4.3-.4q1.3,0,1.7,1.2c1,3,2,5.9,3.1,8.9,0,.1,0,.2.1.4"/>
            <path id="Path_22599" data-name="Path 22599" class="cls-3" d="M109.1,9.6c0-1.9,1.6-3.3,3.5-3.2,1.8,0,3.2,1.5,3.2,3.3,0,1.9-1.6,3.3-3.5,3.2-1.8,0-3.2-1.5-3.2-3.3"/>
            <path id="Path_22600" data-name="Path 22600" class="cls-4" d="M207,45.9c.9-1.1,2.3-1.5,3.7-1.2,1.2.2,2.1,1.2,2.2,2.5,0,.9,0,1.9,0,2.8,0,1.1,0,2.1,0,3.2,0,.3-.1.4-.4.4-1.1,0-.9.1-.9-.9,0-1.5,0-3,0-4.5,0-.3,0-.6-.1-.9-.2-.7-.7-1.1-1.4-1.2-1.3-.3-2.7.6-3,1.9,0,0,0,.2,0,.3,0,.4,0,.7,0,1.1,0,1.3,0,2.6,0,3.9,0,.3,0,.5-.4.4-1.1,0-1,.2-1-1,0-2.4,0-4.9,0-7.3,0-.4.1-.5.5-.5.9,0,.9,0,.9.9v.3"/>
            <path id="Path_22601" data-name="Path 22601" class="cls-4" d="M171.6,47.4c0,1.9,0,3.8,0,5.6,0,.4-.1.5-.5.5-.9,0-.9,0-.9-.9,0-3.6,0-7.3,0-10.9,0-.4.1-.5.5-.5.9,0,.9,0,.9.9v5.3"/>
            <path id="Path_22602" data-name="Path 22602" class="cls-4" d="M193,49.1c0,1.3,0,2.6,0,3.9,0,.3,0,.5-.4.5-.9,0-.9,0-.9-.9,0-2.5,0-4.9,0-7.4,0-.4.1-.5.5-.5.9,0,.9,0,.9.9v3.5"/>
            <path id="Path_22603" data-name="Path 22603" class="cls-4" d="M122.8,49.1c0-1.3,0-2.7,0-4,0-.3,0-.4.4-.4,1,0,1,0,1,1,0,2.4,0,4.9,0,7.3,0,.4,0,.5-.5.5-.9,0-.9,0-.9-.9v-3.5"/>
            <path id="Path_22604" data-name="Path 22604" class="cls-4" d="M192.3,41.2q.9,0,.9.9t-.9.9-.9-.9c0-.9,0-.9,1-.9"/>
            <path id="Path_22605" data-name="Path 22605" class="cls-4" d="M124.4,42.2q0,.9-.9.9t-.9-.9c0-.9,0-.9.9-.9h0q.9,0,.9.9"/>
          </g>
        </g>
      </g>
    </g>
  </g>
</svg>