<?xml version="1.0" encoding="UTF-8"?>
<svg id="Layer_1" data-name="Layer 1" xmlns="http://www.w3.org/2000/svg" xmlns:xlink="http://www.w3.org/1999/xlink" version="1.1" viewBox="0 0 97 60">
  <defs>
    <style>
      .cls-1 {
        clip-path: url(#clippath);
      }

      .cls-2 {
        fill: none;
      }

      .cls-2, .cls-3 {
        stroke-width: 0px;
      }

      .cls-3 {
        fill: #a801bd;
      }

      .cls-4 {
        clip-path: url(#clippath-1);
      }
    </style>
    <clipPath id="clippath">
      <rect class="cls-2" y="0" width="97" height="60"/>
    </clipPath>
    <clipPath id="clippath-1">
      <rect class="cls-2" x="1" y="13.5" width="94.7" height="33"/>
    </clipPath>
  </defs>
  <g class="cls-1">
    <g id="Mask_Group_178" data-name="Mask Group 178">
      <g id="Group_6743" data-name="Group 6743">
        <g class="cls-4">
          <g id="Group_6742" data-name="Group 6742">
            <path id="Path_22689" data-name="Path 22689" class="cls-3" d="M95.7,21.4c-.4,1.7-.8,3.4-1.2,5.1-1,4.2-2,8.3-3,12.5-.3,1.2-.8,2.3-1.4,3.4-1.3,2.4-3.8,3.9-6.5,4.1-1.1.1-2.2,0-3.2.1-.3,0-.6,0-1,0,.3-1.2.6-2.4.9-3.6,0-.4.3-.3.6-.3.9,0,1.8,0,2.7-.1,1.6-.3,2.8-1.6,2.9-3.2-.2,0-.4,0-.6,0-1.4.1-2.9.1-4.3,0-2.8-.4-4.1-2.3-3.9-5.3.3-2.4.8-4.8,1.4-7.1.4-1.7.8-3.3,1.2-5,0-.3.3-.5.6-.5,0,0,0,0,0,0,1.4,0,2.9,0,4.4,0-.3,1.1-.5,2.2-.7,3.2-.6,2.5-1.2,4.9-1.8,7.4-.1.5-.2,1.1-.2,1.6,0,.8.5,1.4,1.3,1.6,1.1.3,2.3.2,3.4-.1.2,0,.3-.4.4-.6.7-2.7,1.3-5.4,1.9-8.1.4-1.5.7-3.1,1.1-4.6,0-.3.1-.5.5-.5,1.4,0,2.8,0,4.2,0,0,0,.2,0,.3,0"/>
            <path id="Path_22690" data-name="Path 22690" class="cls-3" d="M11.7,13.5l-2,8.5c.3,0,.5-.1.6-.2,3-1.3,6.4.1,7.7,3.1.2.5.3,1,.4,1.6,1.1,5.9-2.7,11.6-8.6,12.8-2.8.5-5.8.2-8.5-.8-.4-.1-.4-.3-.3-.7,1.8-7.6,3.7-15.3,5.5-22.9,0-.3.3-.6.6-.6,1.5-.2,2.9-.4,4.5-.7M6.5,35.3c1.2.3,2.4.2,3.5-.2,2.9-1.6,4.3-4.9,3.5-8.1-.1-.7-.6-1.2-1.3-1.4-1-.3-2.2-.2-3.1.4-.3.2-.5.4-.5.8-.4,1.7-.8,3.5-1.2,5.2-.3,1.1-.5,2.2-.8,3.4"/>
            <path id="Path_22691" data-name="Path 22691" class="cls-3" d="M39,45.3c.2-.9.4-1.7.6-2.5,1.7-7,3.3-13.9,5-20.9,0-.3.2-.5.6-.5,2.1,0,4.2,0,6.4,0,4.3,0,6.9,2.9,6.8,7.4,0,2.6-.9,5.2-2.6,7.2-2.1,2.4-5.3,3.7-8.5,3.5-.5,0-.9,0-1.4-.1-.4,0-.6,0-.6.4-.4,1.7-.8,3.3-1.2,5,0,.3-.3.6-.6.6,0,0,0,0,0,0-1.4,0-2.8,0-4.3,0M53.5,29.1c0-.6-.1-1.2-.3-1.7-.2-1.1-1.1-1.9-2.2-1.9-.7,0-1.4,0-2.1,0-.1,0-.4.2-.4.4-.2.7-.4,1.4-.5,2.1-.6,2.3-1.1,4.7-1.7,7,0,.3,0,.5.3.5,2.5.5,5-.8,6.1-3,.5-1,.8-2.1.8-3.3"/>
            <path id="Path_22692" data-name="Path 22692" class="cls-3" d="M75.8,39.4c-1.5,0-2.9,0-4.4,0-.2,0-.3-.2-.4-.3-.2-.4-.3-.8-.5-1.3-.2.1-.3.2-.5.3-1.5,1.2-3.5,1.6-5.3,1.3-2-.3-3.7-1.7-4.3-3.6-1.7-5.3.7-11.1,5.7-13.6,1.1-.5,2.3-.8,3.6-.8,2.5,0,5,0,7.5,0,0,0,.2,0,.3,0-.2.7-.3,1.4-.5,2.1-.6,2.6-1.2,5.2-1.8,7.8-.6,2.5-.5,5.1.4,7.5,0,.2.1.4.2.8M71.7,25.4c-1.3-.2-2.5,0-3.7.4-2.8,1.8-4,5.2-2.9,8.4.3.7.9,1.1,1.6,1.2,1.1.2,2.3-.3,3.1-1.1.1-.1.2-.3.2-.5.4-2,.8-4.1,1.2-6.1.1-.7.3-1.5.5-2.3"/>
            <path id="Path_22693" data-name="Path 22693" class="cls-3" d="M38.4,35c-.3,1.3-.6,2.5-.9,3.8,0,.2-.2.3-.4.3-1.6.4-3.2.4-4.9,0-2.7-.5-4-2.5-3.7-5.4.3-2.2.7-4.5,1.3-6.7.7-3.3,1.6-6.6,2.3-9.9,0-.4.3-.6.7-.6,1.4-.2,2.7-.4,4.1-.6.2,0,.3,0,.5,0l-1.3,5.2h5.6c-.3,1.4-.6,2.6-1,3.8,0,.1-.3.2-.5.2-1.5,0-3,0-4.6,0-.4,0-.6.1-.7.5-.5,2.1-1,4.2-1.5,6.2,0,.1,0,.2,0,.4-.3,2,.5,2.9,2.6,2.9.8,0,1.5-.2,2.4-.3"/>
            <path id="Path_22694" data-name="Path 22694" class="cls-3" d="M28.2,21.3c-.5,1.9-.9,3.7-1.3,5.5-1,4-1.9,8-2.9,12,0,.4-.3.6-.7.6,0,0,0,0-.1,0-1.2,0-2.4,0-3.6,0-.2,0-.4,0-.6,0,.2-.8.4-1.6.6-2.4,1.2-5,2.4-10,3.6-15,.1-.6.3-.8.9-.7,1.3,0,2.7,0,4.1,0"/>
            <path id="Path_22695" data-name="Path 22695" class="cls-3" d="M24,19.1c.2-1,.4-1.9.7-2.8,0-.1.2-.2.3-.3,1.5,0,3,0,4.6,0-.2,1-.5,1.9-.7,2.9,0,.1-.2.2-.3.2-1.5,0-3,0-4.6,0"/>
          </g>
        </g>
      </g>
    </g>
  </g>
</svg>