<?xml version="1.0" encoding="UTF-8"?>
<svg id="Layer_1" data-name="Layer 1" xmlns="http://www.w3.org/2000/svg" xmlns:xlink="http://www.w3.org/1999/xlink" version="1.1" viewBox="0 0 197 60">
  <defs>
    <style>
      .cls-1 {
        clip-path: url(#clippath);
      }

      .cls-2 {
        fill: none;
      }

      .cls-2, .cls-3 {
        stroke-width: 0px;
      }

      .cls-3 {
        fill: #a801bd;
      }

      .cls-4 {
        clip-path: url(#clippath-1);
      }
    </style>
    <clipPath id="clippath">
      <rect class="cls-2" y="0" width="197" height="60"/>
    </clipPath>
    <clipPath id="clippath-1">
      <rect class="cls-2" y="17" width="193.7" height="26"/>
    </clipPath>
  </defs>
  <g class="cls-1">
    <g id="Mask_Group_183" data-name="Mask Group 183">
      <g id="Group_6747" data-name="Group 6747">
        <g class="cls-4">
          <g id="Group_6746" data-name="Group 6746">
            <path id="Path_22705" data-name="Path 22705" class="cls-3" d="M15.4,30.5c.3.2.7.3,1,.5,2,.8,3.4,2.8,3.3,5,.1,2.4-1.3,4.6-3.5,5.4-1.2.5-2.4.8-3.7.9-4.1.1-8.3,0-12.5,0v-3.3h2.5v-16.3H0v-3.4c.2,0,.5,0,.7,0,3.3,0,6.5-.1,9.8,0,1.6,0,3.1.4,4.6.9,2,.7,3.4,2.7,3.4,4.9.2,2.1-.9,4.2-2.8,5.1,0,0-.2.1-.2.2,0,0,0,0,0,.1M6.4,32.1v6.9c2,0,3.9,0,5.8,0,1,0,1.9-.4,2.7-.9,1-.6,1.5-1.8,1.2-2.9-.2-1.3-1.2-2.3-2.5-2.5-2.3-.3-4.7-.4-7.1-.6M6.3,29.1c2-.1,4-.1,5.9-.4,1.4-.1,2.6-1.3,2.6-2.7.2-1.4-.7-2.7-2.1-3-2.1-.6-4.2-.3-6.4-.4v6.4Z"/>
            <path id="Path_22706" data-name="Path 22706" class="cls-3" d="M88.6,39h2.4v-10.2h-2.2v-3.3h5.7c0,.5,0,1.1.1,1.9,1.2-1.4,2.8-2.3,4.6-2.5,4.1-.5,7.8,1.8,7.6,6.6,0,2.4,0,4.9,0,7.4h2.5v3.4h-8.6v-3.3h2.7v-2.3c0-1.4,0-2.8,0-4.2.1-4.2-3.1-4.9-5.9-3.6-1.8.8-2.9,2.6-2.9,4.5v5.6h2.6v3.4h-8.6v-3.4Z"/>
            <path id="Path_22707" data-name="Path 22707" class="cls-3" d="M179.3,35.2c.4,4.4,7.1,6.4,11.8,2.4l2.4,2.2c-1.2,1.3-2.6,2.2-4.3,2.6-3.6,1.1-7.1,1-10.3-1.3-3.9-3-4.7-8.7-1.7-12.6,1.6-2.1,4.1-3.4,6.8-3.5,5-.3,9.3,3.4,9.7,8.4,0,.6,0,1.2,0,1.8h-14.4ZM189.6,32.2c0-2.2-2.6-4.1-4.9-4.1-2.6,0-5.1,1.9-5.2,4.1h10.1Z"/>
            <path id="Path_22708" data-name="Path 22708" class="cls-3" d="M171.9,35.2h-14.4c.3,1.7,1.4,3.2,3,3.9,3.2,1.3,6.2.6,8.9-1.6l2.3,2.4c-1.2,1.2-2.6,2.1-4.2,2.5-3.6,1-7.1,1-10.2-1.3-3.9-3.1-4.6-8.8-1.5-12.7,3.1-3.9,8.8-4.6,12.7-1.5,2.5,2,3.8,5.1,3.4,8.3M167.9,32.2c-.5-2.5-2.7-4.2-5.3-4.1-2.5.1-4.8,1.9-4.9,4.1h10.2Z"/>
            <path id="Path_22709" data-name="Path 22709" class="cls-3" d="M56.9,32.5c.4-2.4-.8-4-3.1-4.2-1.9-.2-3.1.2-5.9,2-.3-.4-.6-.8-1-1.3-.3-.4-.7-.8-1.1-1.2,2.3-2.2,5.4-3.2,8.5-2.8,2.4.3,4.4,1.1,5.5,3.4.5,1,.7,2.1.7,3.2.1,2.4,0,4.8,0,7.4h2.4v3.4h-5.9c0-.5,0-.9,0-1.4-.1,0-.2,0-.3.1-2.5,2.1-6,2.5-8.9,1.1-1.9-.7-3.1-2.5-3-4.5-.1-2,1-3.8,2.7-4.6,2.4-1.2,5.2-1.6,7.9-.9.5,0,1,.2,1.6.3M51.6,39.9v.2c1.3-.4,2.5-.7,3.6-1.2.9-.4,1.6-1.3,1.8-2.3.2-.7,0-1.2-.8-1.3-1.4-.2-2.9-.3-4.3-.4-.9,0-1.8.4-2.6.8-1,.6-1.3,1.9-.6,2.9.3.4.7.7,1.2.9.6.2,1.2.2,1.7.3"/>
            <path id="Path_22710" data-name="Path 22710" class="cls-3" d="M114.3,28.8h-4.4v-3.3h4.3v-6.2h3.5v6.1h8.2v3.4h-8.1c0,2.8-.2,5.4,0,8,.2,2.3,2.6,3.4,5.2,2.6,1.3-.5,2.5-1.1,3.6-1.9l2.2,2.1c-2.6,3.4-8.5,4.4-12,2-1.5-1-2.5-2.7-2.6-4.5-.1-2.3,0-4.6,0-6.9v-1.4"/>
            <path id="Path_22711" data-name="Path 22711" class="cls-3" d="M24.1,25.5h6.2c0,.8,0,1.6.1,2.6,2.2-2.8,4.9-3.7,8.1-2.9,2,.5,3.6,2.2,3.8,4.3-.9.3-1.9.6-2.8.8-.2,0-.4,0-.5-.3-1.5-2-3.3-2.3-5.5-1-1.7.9-2.9,2.7-3,4.7-.1,1.7,0,3.5,0,5.3h5.8v3.4h-12.9v-3.3h3.6v-10.2h-2.8v-3.4Z"/>
            <path id="Path_22712" data-name="Path 22712" class="cls-3" d="M151.4,29.4l-3.2.9c0-.1-.2-.2-.3-.3-.6-1.5-2.2-2.2-3.7-1.7-2.8.5-4.8,3-4.8,5.8,0,1.6,0,3.1,0,4.8h5.8v3.4h-13v-3.3h3.6v-10.1h-2.8v-3.3h6.3v2.6c2.4-3,5.2-3.9,8.5-2.8,1.9.6,3.2,2.2,3.5,4.1"/>
            <path id="Path_22713" data-name="Path 22713" class="cls-3" d="M67.3,42.4v-3.3h7v-10.2h-5.2v-3.3h8.8v13.5h6.5v3.4h-17Z"/>
            <rect id="Rectangle_2939" data-name="Rectangle 2939" class="cls-3" x="73.9" y="17" width="3.8" height="5.1"/>
          </g>
        </g>
      </g>
    </g>
  </g>
</svg>