<?xml version="1.0" encoding="utf-8"?>
<!-- Generator: Adobe Illustrator 27.8.0, SVG Export Plug-In . SVG Version: 6.00 Build 0)  -->
<svg version="1.1" id="Layer_1" xmlns="http://www.w3.org/2000/svg" xmlns:xlink="http://www.w3.org/1999/xlink" x="0px" y="0px"
	 viewBox="0 0 80 80" style="enable-background:new 0 0 80 80;" xml:space="preserve">
<style type="text/css">
	.st0{fill:url(#SVGID_1_);}
	.st1{fill:url(#SVGID_00000132769571454761556150000005944362754617091761_);}
	.st2{fill:url(#SVGID_00000036955702012526159520000000028455917577392014_);}
	.st3{fill:url(#SVGID_00000034086794239991374340000004054204250416822403_);}
	.st4{fill:url(#SVGID_00000049185176627871703660000014324079546114134695_);}
	.st5{fill:url(#SVGID_00000060006175513260104570000003437035155014615718_);}
	.st6{fill:url(#SVGID_00000140697834470916414330000004998051275997236613_);}
	.st7{fill:url(#SVGID_00000142893554111951503920000002649795528276880547_);}
	.st8{fill:url(#SVGID_00000145739001099923826680000001168735576411698346_);}
	.st9{fill:url(#SVGID_00000134949616095077696790000005764091902811649456_);}
	.st10{fill:url(#SVGID_00000070811290296074240950000016386041080503480206_);}
	.st11{fill:url(#SVGID_00000122699118332214100020000010268389626346070941_);}
</style>
<g id="igz7ap.tif_00000074405581800438110300000000195405598628002721_">
	<g>
		<linearGradient id="SVGID_1_" gradientUnits="userSpaceOnUse" x1="20.0106" y1="4.0414" x2="51.9404" y2="64.3887">
			<stop  offset="0" style="stop-color:#a801bd"/>
			<stop  offset="1" style="stop-color:#453E1B"/>
		</linearGradient>
		<path class="st0" d="M17.6,74.9L17.6,74.9c-2.1,0-3.8-1.7-3.8-3.8V7.8c1.6-3.6,5.9-3.4,7.2-0.7c0.7,1.5,1.6,1.7,3,1.7
			c12.4,0,24.9,0,37.3,0c4.2,0,5.9,2.7,4.1,6.5c-1.8,3.7-3.6,7.3-5.5,11c-0.5,1-0.5,1.9,0,3c1.8,3.5,3.6,7.1,5.3,10.6
			c2,4.1,0.4,6.6-4.1,6.6c-12.3,0-24.7,0-37,0c-2.6,0-2.6,0-2.6,2.6c0,11.1,0,9.6,0,20.7c0,2.2-0.6,3.8-2.4,4.8
			C18.7,74.8,18.2,74.9,17.6,74.9z"/>
	</g>
</g>
</svg>
