<?xml version="1.0" encoding="utf-8"?>
<!-- Generator: Adobe Illustrator 27.8.0, SVG Export Plug-In . SVG Version: 6.00 Build 0)  -->
<svg version="1.1" id="Layer_1" xmlns="http://www.w3.org/2000/svg" xmlns:xlink="http://www.w3.org/1999/xlink" x="0px" y="0px"
	 viewBox="0 0 197.2 197.2" style="enable-background:new 0 0 197.2 197.2;" xml:space="preserve">
<style type="text/css">
	.st0{fill:#b00bc5;}
	.st1{fill:#fff;}
	.st2{fill:none;stroke:#b00bc5;stroke-miterlimit:10;}
</style>
<g>
	<circle class="st0" cx="98.6" cy="98.6" r="98.6"/>
</g>
<g id="RxPsny.tif_00000110450961491876211110000003770070643350304429_">
	<g>
		<path class="st1" d="M78,140.1c-0.7-0.1-1.1-0.6-1.4-0.9c-6.2-6.1-12.4-12.3-18.6-18.4c-1-1-0.9-1.7,0-2.7
			c18.4-18.4,36.8-36.8,55.2-55.2c1.1-1.1,1.8-1,2.8,0.1c6.1,6.1,12.1,12.1,18.3,18.1c1.2,1.2,1.1,1.9,0,3.1
			C116,102.4,97.7,120.7,79.5,139C79,139.4,78.6,140,78,140.1z"/>
		<path class="st1" d="M133.5,112.3c-0.1,0.6-0.6,0.9-0.9,1.3c-2.8,2.9-5.6,5.8-8.5,8.6c-1,1-1.1,1.7,0,2.8c3.5,3.5,3.5,3.5,7,0
			c2.2-2.2,4.4-4.3,6.5-6.5c0.9-1,1.6-1.2,2.7-0.1c2.3,2.5,4.7,4.9,7.2,7.3c1,1,1.1,1.6,0,2.7c-6.3,6.2-12.7,12.4-18.9,18.7
			c-1.2,1.2-2,1.1-3.1-0.1c-6.8-6.9-13.6-13.7-20.5-20.5c-1.2-1.1-1.4-1.9-0.1-3.1c6.2-6.1,12.4-12.2,18.6-18.4
			c1.3-1.3,2.1-1.2,3.3,0c1.9,2.1,3.9,4,5.9,6C133,111.4,133.5,111.7,133.5,112.3z"/>
		<path class="st1" d="M93.6,72.3c-0.2,0.3-0.5,0.7-0.8,1c-6.4,6.5-12.9,12.9-19.3,19.4c-0.9,0.9-1.5,0.8-2.3-0.1
			C64,85.5,56.9,78.5,49.8,71.4c-1-0.9-0.9-1.6,0-2.5c6.4-6.4,12.8-12.8,19.2-19.2c0.8-0.8,1.5-1,2.4-0.1c2.3,2.5,4.7,4.9,7.2,7.3
			c1.1,1,0.9,1.8-0.1,2.7c-2.9,2.8-5.6,5.7-8.5,8.6c-1,1-1.1,1.6-0.1,2.7c3.6,3.7,3.6,3.8,7.3,0.1c2.1-2.1,4.3-4.2,6.4-6.3
			c0.9-1,1.6-1.2,2.7-0.1c2.1,2.2,4.3,4.2,6.4,6.3C93,71.2,93.4,71.6,93.6,72.3z"/>
		<path class="st1" d="M140.8,77.2c-0.6-0.1-0.9-0.5-1.3-0.9c-6.2-6.2-12.4-12.4-18.7-18.6c-0.9-0.9-1-1.6,0-2.5
			c2.4-2.3,4.7-4.6,6.9-6.9c1.1-1.1,1.9-1.2,3.1,0c6,6.1,12.1,12.2,18.2,18.2c1.1,1.1,1.3,1.9,0.1,3c-2.4,2.2-4.6,4.6-7,6.9
			C141.7,76.7,141.4,77.2,140.8,77.2z"/>
		<path class="st1" d="M48.3,149.8c-1.3,0.1-1-0.8-0.8-1.5c0.5-2.1,1-4.2,1.5-6.4c1.1-4.7,2.2-9.4,3.4-14.1c0.5-1.9,0.7-2,2.1-0.6
			c5.2,5.2,10.4,10.4,15.6,15.6c0.8,0.8,1.4,1.5-0.3,1.9c-7,1.7-14,3.4-21.1,5C48.6,149.8,48.5,149.8,48.3,149.8z"/>
	</g>
</g>
<path class="st2" d="M1192.1,260.7H-292c-12.7,0-23-10.3-23-23v-362.4c0-12.7,10.3-23,23-23h1484.1c12.7,0,23,10.3,23,23v362.4
	C1215.1,250.4,1204.8,260.7,1192.1,260.7z"/>
</svg>
