<?xml version="1.0" encoding="utf-8"?>
<!-- Generator: Adobe Illustrator 27.8.0, SVG Export Plug-In . SVG Version: 6.00 Build 0)  -->
<svg version="1.1" id="Layer_1" xmlns="http://www.w3.org/2000/svg" xmlns:xlink="http://www.w3.org/1999/xlink" x="0px" y="0px"
	 viewBox="0 0 197.2 197.2" style="enable-background:new 0 0 197.2 197.2;" xml:space="preserve">
<style type="text/css">
	.st0{fill:#a801bd;}
	.st1{fill:#fff;}
	.st2{fill:none;stroke:#a801bd;stroke-miterlimit:10;}
</style>
<g>
	<circle class="st0" cx="98.6" cy="98.6" r="98.6"/>
</g>
<path class="st2" d="M689.9,260.7H-794.2c-12.7,0-23-10.3-23-23v-362.4c0-12.7,10.3-23,23-23H689.9c12.7,0,23,10.3,23,23v362.4
	C712.9,250.4,702.6,260.7,689.9,260.7z"/>
<g id="KmSm3W.tif">
	<g>
		<path class="st1" d="M156.7,119.7c-1.5,5.3-3.6,10.2-8,13.8c-5.5,4.6-11.7,6.5-18.9,5.5c-2.2-0.3-2.7-1.1-1.8-3.2
			c1.4-3.4,2-7.1,2-10.8c0-9.2,0-18.4,0-27.6c0-3.1-0.6-5.9-2.2-8.5c-1-1.5-0.8-2.3,1.2-2.3c5.9,0,11.7-0.1,17.6,0.1
			c5.2,0.2,8.4,3.3,10.1,8.1C156.7,103,156.7,111.3,156.7,119.7z"/>
		<path class="st1" d="M102.5,46.5c6.4,1.9,11,5.7,13,12.2c2.8,9.1-2.2,18.7-11.1,21.8c-8.9,3-18.5-1.4-22.1-10.1
			c-3.5-8.6,0.4-18.5,9-22.5c1.1-0.5,2.3-0.9,3.5-1.4C97.4,46.5,99.9,46.5,102.5,46.5z"/>
		<path class="st1" d="M124.9,111.8c0,4.4,0,8.9,0,13.3c-0.2,14.4-11.8,25.7-26.4,25.7c-14.4,0-25.9-11.4-26-25.7
			c-0.1-9.1,0-18.3,0-27.4c0-6.4,4-10.9,10.5-11c10.5-0.2,21-0.2,31.5,0c6.5,0.1,10.4,4.6,10.4,11.1
			C124.9,102.4,124.9,107.1,124.9,111.8C124.9,111.8,124.9,111.8,124.9,111.8z"/>
		<path class="st1" d="M40.5,108c0-3.9,0-7.1,0-10.3c0.1-6.4,4.1-10.8,10.6-11.1c5.7-0.2,11.4,0,17.1-0.1c2,0,2.4,0.7,1.3,2.4
			c-1.7,2.6-2.2,5.5-2.2,8.5c0,9,0.1,18.1,0,27.1c0,3.9,0.6,7.8,2.1,11.4c0.9,2,0.2,2.6-1.8,3.1c-11.5,2.4-23.9-6.1-26.5-18.3
			C40.1,116.2,40.7,111.7,40.5,108z"/>
		<path class="st1" d="M61,81.3c-8.2,0-14.6-6.4-14.6-14.6c0-8.3,6.6-15,14.7-14.9c8,0.1,14.9,7.1,14.8,15
			C75.7,75,69.2,81.3,61,81.3z"/>
		<path class="st1" d="M150.9,66.8c0,8.2-6.4,14.6-14.6,14.6c-8.3,0-15-6.7-14.8-14.7c0.1-7.9,6.8-14.6,14.8-14.7
			C144.3,51.8,150.9,58.5,150.9,66.8z"/>
	</g>
</g>
</svg>
