<?xml version="1.0" encoding="utf-8"?>
<!-- Generator: Adobe Illustrator 27.8.0, SVG Export Plug-In . SVG Version: 6.00 Build 0)  -->
<svg version="1.1" id="Layer_1" xmlns="http://www.w3.org/2000/svg" xmlns:xlink="http://www.w3.org/1999/xlink" x="0px" y="0px"
	 viewBox="0 0 80 80" style="enable-background:new 0 0 80 80;" xml:space="preserve">
<style type="text/css">
	.st0{fill:url(#SVGID_1_);}
	.st1{fill:url(#SVGID_00000089567375668423798580000010843753759480876431_);}
	.st2{fill:url(#SVGID_00000072260626625355959120000017338822758002604719_);}
	.st3{fill:url(#SVGID_00000162353633052201359440000003492753054243904385_);}
	.st4{fill:url(#SVGID_00000176022119274426954930000001921359414894653831_);}
	.st5{fill:url(#SVGID_00000021804406888811840750000013439628113760118914_);}
	.st6{fill:url(#SVGID_00000075841146063732464880000011148628230915593856_);}
	.st7{fill:url(#SVGID_00000053524738497372229210000002944773329262446269_);}
	.st8{fill:url(#SVGID_00000036949260267526429810000001691348334408353957_);}
	.st9{fill:url(#SVGID_00000089563821405497518860000006946281253625478802_);}
	.st10{fill:url(#SVGID_00000026872676625801283230000009356484701462857102_);}
	.st11{fill:url(#SVGID_00000119819945615375472980000007951360991146706607_);}
	.st12{fill:url(#SVGID_00000019673978176940205170000009702558858986232204_);}
	.st13{fill:url(#SVGID_00000137824810550711387530000009025191228852961452_);}
	.st14{fill:url(#SVGID_00000035497518422562914940000017360969946565842836_);}
	.st15{fill:url(#SVGID_00000047776988870734926420000014910331113162538156_);}
	.st16{fill:url(#SVGID_00000039135741040546515470000015581839734472333236_);}
	.st17{fill:url(#SVGID_00000067197276966362221740000011505764764170195588_);}
	.st18{fill:url(#SVGID_00000019675562130714355810000013995814023324889524_);}
	.st19{fill:url(#SVGID_00000013161540838208531380000017414968953855842225_);}
	.st20{fill:url(#SVGID_00000047765958012903728430000000946662821196496812_);}
	.st21{fill:url(#SVGID_00000129171997788047660130000007932116150710703489_);}
	.st22{fill:url(#SVGID_00000167383331207734277570000018288519125904125573_);}
	.st23{fill:url(#SVGID_00000057124067231443923940000009937668888817531323_);}
	.st24{fill:url(#SVGID_00000088134545841070026050000002553049242246598566_);}
	.st25{fill:url(#SVGID_00000120549799453121229010000004247349833311690140_);}
	.st26{fill:url(#SVGID_00000137854966279551175020000005273947533794585516_);}
	.st27{fill:url(#SVGID_00000041272166695772004200000014244965234660558991_);}
	.st28{fill:url(#SVGID_00000062177564371198266650000008603005286596489095_);}
	.st29{fill:url(#SVGID_00000078040892290812985350000010159299731368463264_);}
	.st30{fill:url(#SVGID_00000049910052357404714440000011244918229617366665_);}
	.st31{fill:url(#SVGID_00000105387993442923352440000000258955618400407699_);}
	.st32{fill:url(#SVGID_00000052805027746670315590000005221689064875925915_);}
	.st33{fill:url(#SVGID_00000010273655362641456790000007133482479394811831_);}
	.st34{fill:url(#SVGID_00000096042106604405587170000000134556389463460482_);}
	.st35{fill:url(#SVGID_00000031176198014790786220000017472060943826167978_);}
	.st36{fill:url(#SVGID_00000137110034480161728070000002278886491367500695_);}
	.st37{fill:url(#SVGID_00000094588136186375250150000007672199512970049471_);}
	.st38{fill:url(#SVGID_00000080927566632700302480000013629048875967470004_);}
	.st39{fill:url(#SVGID_00000182529637813396702330000011188272955194127547_);}
	.st40{fill:url(#SVGID_00000017479847410130607500000012625162772564302476_);}
	.st41{fill:url(#SVGID_00000048501295109319437450000001736521003769383611_);}
	.st42{fill:url(#SVGID_00000161623576985853368420000014616897829349573030_);}
	.st43{fill:url(#SVGID_00000183208203127190897830000002632020441099179677_);}
	.st44{fill:url(#SVGID_00000164505356867242297260000010646930428648731813_);}
	.st45{fill:url(#SVGID_00000126314463860932966400000003523386099988933023_);}
</style>
<g id="TvIEO4.tif_00000060028047070877345900000005761471309714081183_">
	<g>
		<linearGradient id="SVGID_1_" gradientUnits="userSpaceOnUse" x1="7.5002" y1="22.9913" x2="56.4857" y2="81.0741">
			<stop  offset="0" style="stop-color:#a801bd"/>
			<stop  offset="1" style="stop-color:#453E1B"/>
		</linearGradient>
		<path class="st0" d="M27.2,73.3c-1.5-0.8-2-2.1-2-3.8c0-4.7,1.1-8.9,4.6-12.3c1-1,2.2-1.8,3.5-2.4c1.6-0.8,1.6-1.3,0.4-2.7
			c-4.1-5.1-1.5-12.4,4.9-13.4c3.5-0.5,6.3,0.7,8.2,3.6c1.9,2.9,1.8,6-0.1,9c-0.2,0.4-0.6,0.7-0.8,1.1c-0.8,1.1-0.8,1.7,0.5,2.3
			c6.5,3.3,8.6,9,8.3,15.9c-0.1,1.3-0.9,2.2-2,2.8C44.2,73.3,35.7,73.3,27.2,73.3z"/>
		
			<linearGradient id="SVGID_00000031190808901165210520000006186322636998780586_" gradientUnits="userSpaceOnUse" x1="-1.5744" y1="30.6446" x2="47.4111" y2="88.7274">
			<stop  offset="0" style="stop-color:#a801bd"/>
			<stop  offset="1" style="stop-color:#453E1B"/>
		</linearGradient>
		<path style="fill:url(#SVGID_00000031190808901165210520000006186322636998780586_);" d="M6.5,62.3c0.7-3,1.6-6,3.9-8.3
			c1.2-1.2,2.5-2.3,4.1-3c1.6-0.8,1.7-1.3,0.5-2.7c-3.7-4.6-1.9-11.4,3.5-13.2c3.6-1.2,7.4,0.1,9.5,3.2c2.1,3,1.9,6.9-0.5,9.9
			c-1.3,1.6-1.2,2,0.6,2.9c0,0,0.1,0,0.1,0.1c3,1.5,2.9,1.5,0.5,3.6c-3.9,3.4-5.8,7.8-6.1,12.9c-0.1,2-0.1,2-2.1,2
			c-3.4,0-6.7-0.1-10.1,0c-1.7,0-3-0.5-3.9-2C6.5,65.8,6.5,64,6.5,62.3z"/>
		
			<linearGradient id="SVGID_00000062179924879418758570000014416122113483148981_" gradientUnits="userSpaceOnUse" x1="23.9627" y1="9.1073" x2="72.9482" y2="67.1901">
			<stop  offset="0" style="stop-color:#a801bd"/>
			<stop  offset="1" style="stop-color:#453E1B"/>
		</linearGradient>
		<path style="fill:url(#SVGID_00000062179924879418758570000014416122113483148981_);" d="M64.4,69.6c-1.8,0-3.7-0.1-5.5,0
			c-1.2,0-1.6-0.4-1.6-1.6c-0.1-4.5-1.6-8.6-4.6-12c-0.8-0.9-1.8-1.7-2.8-2.4c-0.7-0.5-0.7-0.9,0-1.3c0.7-0.4,1.3-0.8,2-1.2
			c1.8-0.9,1.9-1.3,0.6-2.9c-3.8-4.6-1.8-11.4,3.7-13.1c3.5-1.1,7.3,0.2,9.4,3.3c2,2.9,1.8,6.9-0.5,9.8c-1.4,1.7-1.3,2,0.6,2.9
			c5.2,2.8,7.5,7.4,7.8,13.1c0.3,4.2-0.4,5.7-5.3,5.4C66.9,69.5,65.7,69.6,64.4,69.6z"/>
		
			<linearGradient id="SVGID_00000060030539643716329170000010757373726816603287_" gradientUnits="userSpaceOnUse" x1="27.2526" y1="6.3327" x2="76.2381" y2="64.4155">
			<stop  offset="0" style="stop-color:#a801bd"/>
			<stop  offset="1" style="stop-color:#453E1B"/>
		</linearGradient>
		<path style="fill:url(#SVGID_00000060030539643716329170000010757373726816603287_);" d="M30.2,16.5c0-1.1-0.7-1.7-1.1-2.5
			c-0.9-1.4-0.8-1.6,0.5-3c0.9-1,1.8-1.3,3-0.4c0.8,0.6,1.5,1.4,2.7,1.2c1.4-0.3,2-1.2,2.2-2.6c0.3-2.2,0.6-2.4,2.2-2.4
			c2.1,0,2.4,0.2,2.8,2.3c0.2,0.9,0.2,1.8,1.2,2.4c1.2,0.7,2.1,0.4,3.2-0.3c2-1.5,3-1.2,4.4,0.9c0.6,0.9,0,1.6-0.4,2.2
			c-0.7,1-1.4,1.9-0.8,3.3c0.4,0.8,0.8,1.3,1.7,1.4c0.3,0,0.6,0.1,1,0.2c1.9,0.4,2.8,2.3,1.9,4c-0.5,0.9-1.4,0.8-2.2,1
			c-1.9,0.3-2.7,1.2-2.7,2.7c0,0.8,0.6,1.4,1,2.1c1,1.6,1,1.8-0.3,3.1c-1.5,1.5-1.5,1.5-3.4,0.3c-0.6-0.4-1.1-0.9-1.9-1
			c-1.3,0-2.3,0.9-2.6,2.3c-0.5,2.8-0.7,2.9-3.4,2.7c-0.8-0.1-1.3-0.4-1.4-1.2c-0.1-0.7-0.2-1.4-0.4-2c-0.4-1.5-2.2-2.2-3.5-1.4
			c-0.3,0.2-0.6,0.4-0.9,0.6c-1.8,1.2-1.9,1.2-3.4-0.3c-1.3-1.3-1.3-1.5-0.3-3.1c0.4-0.6,0.9-1.1,1-1.9c0.2-1.5-0.7-2.5-2.5-2.8
			c-2.4-0.4-3-1.4-2.4-3.7c0.2-0.9,0.9-1,1.7-1.2c1.2-0.3,2.7-0.1,3.1-1.8C30.1,17,30.2,16.6,30.2,16.5z M39.9,26.6
			c3,0,5.2-2.2,5.2-5.2c0-2.9-2.3-5.2-5.2-5.2c-2.9,0-5.2,2.3-5.2,5.1C34.7,24.4,36.9,26.6,39.9,26.6z"/>
	</g>
</g>
</svg>
