<?xml version="1.0" encoding="utf-8"?>
<!-- Generator: Adobe Illustrator 27.8.0, SVG Export Plug-In . SVG Version: 6.00 Build 0)  -->
<svg version="1.1" id="Layer_1" xmlns="http://www.w3.org/2000/svg" xmlns:xlink="http://www.w3.org/1999/xlink" x="0px" y="0px"
	 viewBox="0 0 80 80" style="enable-background:new 0 0 80 80;" xml:space="preserve">
<style type="text/css">
	.st0{fill:url(#SVGID_1_);}
	.st1{fill:url(#SVGID_00000155138963806065548170000017309414962876783520_);}
	.st2{fill:url(#SVGID_00000034081291124765667010000005767722593370675856_);}
	.st3{fill:url(#SVGID_00000125586780414504963050000013523214954896523654_);}
	.st4{fill:url(#SVGID_00000127015152421668739100000002619277060294531724_);}
	.st5{fill:url(#SVGID_00000014626806374875683770000014416435614953647539_);}
	.st6{fill:url(#SVGID_00000026842370773003147080000012166690771829765769_);}
	.st7{fill:url(#SVGID_00000062873118139942133570000008213029428792998329_);}
	.st8{fill:url(#SVGID_00000087376704292957113330000006272271736182248870_);}
	.st9{fill:url(#SVGID_00000040539419730280778550000001095906737385707452_);}
	.st10{fill:url(#SVGID_00000114795153726935989290000013898433026509243543_);}
	.st11{fill:url(#SVGID_00000004541378686141116920000013263886323926769584_);}
	.st12{fill:url(#SVGID_00000124143272993480459320000000642874436855975309_);}
	.st13{fill:url(#SVGID_00000047057103413366215430000004562572146512419494_);}
</style>
<g id="DytrCD.tif">
	<g>
		<linearGradient id="SVGID_1_" gradientUnits="userSpaceOnUse" x1="6.1193" y1="19.4528" x2="51.9496" y2="75.6495">
			<stop  offset="0" style="stop-color:#a801bd"/>
			<stop  offset="1" style="stop-color:#453E1B"/>
		</linearGradient>
		<path class="st0" d="M16.1,45.3C15.3,41,16,36.9,18,33.1c2.6-5,7-7.6,12.3-8.8c1.3-0.3,2.1,0.4,2.3,1.9c0.1,1.3,0.3,2.6,0.7,3.8
			c1,3.6,3.2,6.1,6.7,7.5c2.2,0.8,2.5,1.4,1.9,3.7c-0.8,3.2-0.1,5.9,2.5,8.1c1.1,1,1.7,2,1.9,3.5c0.4,3.1,2.1,5.7,3.3,8.4
			c1.3,3.1,1.3,3.2-1.2,5.5c-2.7,2.5-5.3,4.9-8,7.4c-1.8,1.6-3.4,1.2-4.3-1c-0.7-1.8-1.3-3.7-2-5.5c-0.5-1.2-0.2-2,1-2.5
			c0.7-0.3,1.4-0.7,2.1-1.1c0.7-0.4,1.2-0.8,0.8-1.7c-0.4-0.8-1.1-0.7-1.8-0.4c-3,1.3-6,2.6-9,4c-3.9,1.7-4.5,1.5-5.6-2.6
			c-0.6-2.2-1.2-4.3-1.8-6.5c-0.3-1.2-1-1.6-2.2-1.4c-0.9,0.1-1.8,0.2-2.7,0.2c-1.5,0-2.1-0.9-1.6-2.3c0.7-2.2,1.5-4.3,2.3-6.5
			C16,46.4,16.2,45.9,16.1,45.3z"/>
		
			<linearGradient id="SVGID_00000088112706223866235810000014707483869579946170_" gradientUnits="userSpaceOnUse" x1="32.4052" y1="-1.9843" x2="78.2355" y2="54.2124">
			<stop  offset="0" style="stop-color:#a801bd"/>
			<stop  offset="1" style="stop-color:#453E1B"/>
		</linearGradient>
		<path style="fill:url(#SVGID_00000088112706223866235810000014707483869579946170_);" d="M58.8,7.3c-0.1,0.3-0.1,0.6-0.3,0.8
			c-0.7,1.4-0.5,2.4,0.8,3.4c1.1,0.8,1.8,0.7,2.8,0.2c1.8-0.9,1.9-0.9,2.8,0.9c0.1,0.2,0.2,0.4,0.3,0.5c1.4,2.9,1.4,2.9-1.3,4.6
			c-0.5,0.3-0.9,0.7-0.7,1.3c0.4,0.9-0.3,2.2,1.1,2.9c2.7,1.2,2.7,1.3,1.8,4.1c0,0.1-0.1,0.3-0.2,0.4c-0.8,2.4-0.9,2.5-3.2,1.5
			c-1.7-0.7-2.1,0.7-3,1.4c-0.9,0.7-0.5,1.4-0.1,2.1c1.1,2.3,1.1,2.3-1.2,3.4c-0.2,0.1-0.4,0.2-0.7,0.3c-2.7,1.3-2.7,1.6-3.9-1.2
			c-0.6-1.4-1.8-0.8-2.8-0.9c-0.9-0.1-1.4,0.4-1.6,1.2c-0.1,0.3-0.2,0.7-0.3,1c-0.3,1.3-1,1.5-2.2,1.1c-0.9-0.4-1.8-0.7-2.7-0.9
			c-1.3-0.3-1.6-1.1-1-2.2c0.6-1.3,0.7-2.3-0.7-3.4c-1.1-0.9-1.9-0.7-2.9-0.2c-1.9,0.9-1.9,0.9-2.8-1c-0.1-0.2-0.2-0.4-0.3-0.5
			c-1.4-2.9-1.4-2.9,1.2-4.6c0.6-0.4,0.9-0.9,0.7-1.5c-0.3-0.9,0.3-2.1-1.1-2.7c-2.7-1.2-2.7-1.3-1.7-4.1c0-0.1,0.1-0.3,0.2-0.4
			c0.8-2.3,0.8-2.4,3.1-1.6c0.9,0.3,1.7,0.4,2.4-0.5c0.7-0.9,1.7-1.6,0.8-3.1c-1.2-2.1-1.1-2.1,1-3.2c0.2-0.1,0.4-0.2,0.7-0.3
			c2.7-1.3,2.7-1.3,4.1,1.3c0.3,0.6,0.6,1.1,1.4,0.8c1-0.3,2.3,0.5,3-1.1c1.1-2.7,1.2-2.7,4-1.7c0.7,0.2,1.3,0.4,2,0.7
			C58.7,6.4,59,6.7,58.8,7.3z M56.5,20.7c0-3.2-2.5-5.8-5.7-5.8c-3.1,0-5.6,2.6-5.7,5.7c0,3.3,2.4,5.8,5.7,5.8
			C54.1,26.4,56.5,24,56.5,20.7z"/>
		
			<linearGradient id="SVGID_00000002374085257162422990000014497465834725157776_" gradientUnits="userSpaceOnUse" x1="21.5143" y1="6.8976" x2="67.3446" y2="63.0942">
			<stop  offset="0" style="stop-color:#a801bd"/>
			<stop  offset="1" style="stop-color:#453E1B"/>
		</linearGradient>
		<path style="fill:url(#SVGID_00000002374085257162422990000014497465834725157776_);" d="M59,44.4c0.3,1.5-0.3,2-1.6,2.4
			c-1.2,0.3-2.3,1.4-2.5,2.8c-0.1,1.2-0.6,1.7-1.8,1.6c-0.6,0-1.2,0-1.8,0c-0.5,0-0.9-0.2-1-0.7c-0.4-2.2-1.7-3.3-3.8-3.6
			c-0.7-0.1-0.8-0.6-0.9-1.2c-0.1-0.8-0.1-1.6,0-2.4c0.1-1.1,1.3-0.6,1.9-1c1.1-0.7,2.3-1.6,2.4-3c0.1-1.4,0.7-1.6,1.9-1.7
			c1.5-0.1,2.7-0.1,2.9,2c0.1,1,1.4,2.3,2.4,2.3C58.9,42.2,59.3,43,59,44.4z M52.3,46.4c1.1,0,1.8-0.8,1.8-1.9
			c0-1.1-0.7-1.8-1.8-1.8c-1.2,0-1.8,0.8-1.9,1.9C50.3,45.6,51.2,46.4,52.3,46.4z"/>
	</g>
</g>
</svg>
