<?xml version="1.0" encoding="utf-8"?>
<!-- Generator: Adobe Illustrator 27.8.0, SVG Export Plug-In . SVG Version: 6.00 Build 0)  -->
<svg version="1.1" id="Layer_1" xmlns="http://www.w3.org/2000/svg" xmlns:xlink="http://www.w3.org/1999/xlink" x="0px" y="0px"
	 viewBox="0 0 197.2 197.2" style="enable-background:new 0 0 197.2 197.2;" xml:space="preserve">
<style type="text/css">
	.st0{fill:#b00bc5;}
	.st1{fill:#fff;}
</style>
<circle class="st0" cx="98.6" cy="98.6" r="98.6"/>
<g id="bGBH4q.tif">
	<g>
		<path class="st1" d="M151.2,55.6c0,2.1,0,4.2,0,6.3c0,3-0.7,3.6-3.7,3.6c-2.2,0-4.3,0-6.5,0c-1.4,0-2,0.6-1.9,1.9
			c0,2.3,0.1,4.6,0,6.9c0,2.4-0.9,3.2-3.3,3.2c-2.3,0-4.6,0.1-6.9,0c-1.4,0-1.9,0.6-2,1.9c0,2.4-0.2,4.9-0.3,7.3
			c-0.1,2.4-0.9,3.2-3.3,3.2c-2.2,0-4.3,0.1-6.5,0c-1.5,0-2.1,0.6-2.1,2c0,2.3,0,4.6,0,6.9c0,2.1-0.7,3.8-2.3,5.4
			c-3.4,3.3-6.7,6.7-10.1,10.1c-1,1-1.3,2-1,3.4c3.5,17.7-9.6,33.8-27.5,33.5c-11.6-0.2-20.2-5.9-25.1-16.4
			c-4.8-10.2-3.4-20.2,3.7-28.9c6.9-8.6,16.1-11.7,26.9-9.9c1.8,0.3,2.9-0.1,4.2-1.3c15.4-15.4,30.8-30.8,46.2-46.3
			c1.7-1.7,3.6-2.5,5.9-2.5c4.1,0,8.2-0.1,12.3,0c2.8,0,3.5,0.8,3.4,3.5C151.3,51.4,151.3,53.5,151.2,55.6
			C151.3,55.6,151.2,55.6,151.2,55.6z M60,130.1c0,4.2,3.5,7.7,7.5,7.6c3.9-0.1,7.4-3.6,7.5-7.5c0-4-3.7-7.4-7.9-7.4
			C62.9,122.9,59.9,125.9,60,130.1z"/>
	</g>
</g>
</svg>
