<?xml version="1.0" encoding="UTF-8"?>
<svg id="Layer_1" data-name="Layer 1" xmlns="http://www.w3.org/2000/svg" viewBox="0 0 197.2 197.2">
  <defs>
    <style>
      .cls-1 {
        fill: #fff;
      }

      .cls-1, .cls-2 {
        stroke-width: 0px;
      }

      .cls-2 {
        fill: #a801bd;
      }
    </style>
  </defs>
  <circle class="cls-2" cx="98.6" cy="98.6" r="98.6"/>
  <g id="XNpaXR.tif">
    <g>
      <path class="cls-1" d="m94.93,155.69c-11.11.09-21.02-.44-30.87-1.91-5.6-.84-11.15-1.95-16.44-4.09-2.36-.96-2.43-.99-2.31-3.58.36-7.38,2.59-14.15,6.94-20.14,1.88-2.58,4.32-4.63,7.16-6.14,5.5-2.91,11.27-5.23,17.03-7.57.86-.35,1.11-.03,1.28.75,1.47,6.54,3.33,12.96,5.69,19.23,2.35,6.24,5.4,12.15,8.76,17.9.06.1.13.2.19.3,1,1.51,1.56,1.52,2.57-.05,1.5-2.33,2.73-4.82,4.03-7.27,4.96-9.34,8.05-19.34,10.48-29.58.4-1.67.4-1.67,1.98-1.03,4.99,2.02,9.95,4.11,14.81,6.43,5.86,2.8,9.86,7.28,12.41,13.18,1.9,4.4,3.04,8.99,3.43,13.76.19,2.38-.1,2.89-2.3,3.78-5.29,2.12-10.83,3.27-16.43,4.11-6.19.93-12.41,1.41-18.66,1.73-3.64.19-7.28.13-9.76.19Z"/>
      <path class="cls-1" d="m93.63,58.87c3.97.08,7.76.9,11.33,2.7,2.71,1.36,4.48,3.46,5.11,6.46.11.5.22,1,.6,1.4,2.32,2.41,2.87,5.47,3.19,8.62.16,1.57.28,3.15.03,4.73-.12.74.09,1.34.67,1.91.95.94,1.13,2.22,1.22,3.51.37,5.14-1.59,9.43-4.9,13.2-.51.58-.85,1.2-1.1,1.93-1.94,5.65-5.34,10.04-10.99,12.38-6.59,2.73-13.18-.37-17.15-5-1.83-2.13-3.15-4.55-4.03-7.21-.32-.96-.85-1.74-1.5-2.52-3.41-4.05-5.27-8.61-4.42-14.01.11-.71.27-1.47.79-1.95,1.06-.98,1.06-2.23,1.1-3.49.08-2.64-.19-5.3.36-7.93,1.7-8.21,7.9-13.7,16.37-14.48,1.1-.1,2.2-.32,3.31-.24Z"/>
      <path class="cls-1" d="m122.58,97.95c-1.83,0-3.33-.04-4.84.01-1.01.04-1.25-.2-.82-1.21,1.47-3.47,2.04-7.06,1.1-10.78-.11-.42-.15-.92-.41-1.23-1.2-1.45-1.01-3.13-1.02-4.83-.02-4.33-.89-8.41-3.61-11.93-.16-.21-.31-.48-.36-.74-.89-4.24-3.74-6.82-7.45-8.51-5.37-2.45-11.05-2.93-16.85-2.03-1.45.23-1.53.19-1.11-1.27,1.8-6.19,5.94-10.15,11.88-12.32,8-2.93,15.53-1.87,22.41,3.09,4.15,2.99,6.2,7.29,6.86,12.3.45,3.39.12,6.8.44,10.19.52,5.43,1.96,10.42,6.14,14.25,1.62,1.48,3.44,2.68,5.39,3.66.72.36.93.73.51,1.47-2.96,5.09-6.95,8.82-13.01,9.75-1.85.28-3.72.06-5.25.12Z"/>
      <path class="cls-1" d="m151.9,129.41q.05,2.58-2.35,3.55c-1.88.76-3.82,1.28-5.76,1.84-.9.26-1.27-.03-1.57-.86-1.43-4.07-3.49-7.79-6.34-11.06-2.22-2.55-4.97-4.4-7.91-5.99-1.78-.95-3.62-1.79-5.46-2.61-.81-.36-1.1-.68-.56-1.57,2.08-3.44,3.3-7.18,3.47-11.22.04-1.02.47-1.1,1.29-.75,3.99,1.74,7.98,3.49,11.99,5.18,3.5,1.47,6.03,3.96,8.03,7.13,2.88,4.57,5.08,11.38,5.17,16.35Z"/>
      <path class="cls-1" d="m93.71,131.34c3.63.04,3.11-.49,3.95,3.18,1,4.35.95,4.36-1.26,8.34-.73,1.32-1.46,2.63-2.19,3.95-.38.69-.7.76-1.13,0-1.42-2.47-2.75-4.99-3.99-7.56-.23-.48-.3-.96-.17-1.49.39-1.66.77-3.32,1.11-4.98.2-1.01.69-1.54,1.78-1.44.63.06,1.27.01,1.9.01Z"/>
      <path class="cls-1" d="m93.68,122.1c1.11,0,2.21-.03,3.32,0,1.17.04,1.51.44,1.31,1.55-.29,1.63-.63,3.25-.92,4.89-.18,1.01-.69,1.52-1.77,1.48-1.34-.05-2.69-.03-4.03,0-.93.02-1.48-.34-1.64-1.31-.29-1.71-.63-3.42-.97-5.12-.22-1.06.28-1.48,1.26-1.49,1.15-.01,2.29,0,3.44,0Z"/>
    </g>
  </g>
</svg>