<?xml version="1.0" encoding="utf-8"?>
<!-- Generator: Adobe Illustrator 27.8.0, SVG Export Plug-In . SVG Version: 6.00 Build 0)  -->
<svg version="1.1" id="Layer_1" xmlns="http://www.w3.org/2000/svg" xmlns:xlink="http://www.w3.org/1999/xlink" x="0px" y="0px"
	 viewBox="0 0 197.2 197.2" style="enable-background:new 0 0 197.2 197.2;" xml:space="preserve">
<style type="text/css">
	.st0{fill:#a801bd;}
	.st1{fill:#fff;}
</style>
<circle class="st0" cx="98.6" cy="98.6" r="98.6"/>
<g id="vnhiPH.tif_00000036973887042725100010000001024488029631562636_">
	<g>
		<path class="st1" d="M96.7,73.4c1,0.7,1.9,0.5,2.7,0.5c7.4,0,14.8,0,22.2,0c9.2,0.1,14.6,5.5,14.6,14.6c0,3.8,0,7.7,0,11.5
			c0,1.5-0.3,2.7-2.1,2.6c-0.2,0-0.3,0-0.5,0.1c-2.8,1.4-5.3,3.3-8.8,1c-1.6-1.1-3.6,0.7-4.4,2.7c-0.8,2.1,0,4.2,1.8,5.5
			c0.6,0.4,1.9,0.3,1.6,1.5c-0.2,1.1-1.1,1.7-2.1,1.9c-1.9,0.5-3.9,0.9-5.8,1.5c-2.1,0.6-2.9-0.1-2.9-2.2c0.1-5.2,0-10.5,0-15.7
			c0-1.8,0-3.7,0-5.5c0-5.1-0.8-5.8-5.8-5.8c-15.2,0-30.5,0-45.7,0c-4.5,0-5.4,0.9-5.4,5.4c0,10.1,0,20.1,0,30.2
			c0,4.2,1,5.1,5.2,5.1c14.1,0,28.3,0,42.4,0c2,0,3.4,0.4,4.6,2.2c1.6,2.2,3.5,4.2,5.4,6.2c1.3,1.3,1.4,2.6,0.8,4.1
			c-0.6,1.5-1.9,1.1-3,1.1c-17.9,0-35.8,0-53.7,0c-2.7,0-5.5-0.1-8-1.5c-5-2.7-7.3-7.1-7.3-12.7c0-13.1-0.1-26.1,0-39.2
			c0.1-9.2,5.6-14.5,14.8-14.5c7.3,0,14.6,0,22,0c0.8,0,1.7,0.2,2.5-0.3c0-1.1-0.9-1.5-1.5-2.1C74.2,65.2,68,59,61.8,52.7
			c-0.5-0.5-1-0.9-1.4-1.4c-1.8-2.1-1.8-4.5,0-6.3c1.8-1.7,4.2-1.7,6.3,0.1c0.5,0.4,1,0.9,1.4,1.4c6.5,6.5,13,12.9,19.4,19.4
			c1.6,1.6,2.5,1.8,4.2,0.1c6.7-6.9,13.6-13.7,20.4-20.5c2-2,3.9-2.3,5.8-1.1c2.6,1.7,2.9,4.7,0.4,7.2c-6.5,6.6-13.1,13.1-19.6,19.6
			C98,71.9,97.4,72.6,96.7,73.4z M120.2,95.1c0,2.5,1.8,4.5,4.2,4.6c2.4,0.1,4.4-1.9,4.5-4.3c0.1-2.5-2-4.8-4.4-4.8
			C122.2,90.6,120.3,92.6,120.2,95.1z"/>
		<path class="st1" d="M121.5,144.8c0.2-1.7,0.5-4,0.9-6.3c0.3-2,0-3.7-1.6-5.1c-1.7-1.5-3.2-3.1-4.7-4.8c-1.8-2.2-1.1-4.4,1.7-5.1
			c1.9-0.5,3.7-0.9,5.6-1c3.2-0.1,5.2-1.7,6.3-4.6c0.6-1.5,1.4-2.8,2.2-4.2c1.7-3,4.1-3,5.8,0c1.3,2.2,2.5,4.5,3.7,6.8
			c0.6,1.1,1.3,1.8,2.7,2c2.5,0.4,5.1,0.9,7.6,1.4c2.9,0.6,3.7,2.9,1.7,5.2c-1.6,1.8-3.2,3.6-4.9,5.3c-1.5,1.4-2,2.9-1.5,4.9
			c0.4,1.9,0.7,3.9,0.8,5.9c0.3,3.9-1.5,5.1-5,3.5c-2.2-1-4.4-2.1-6.5-3.2c-1.2-0.6-2.3-0.6-3.5,0c-2.2,1.1-4.5,2.2-6.8,3.2
			C123.1,149.7,121.4,148.5,121.5,144.8z"/>
	</g>
</g>
</svg>
