<?xml version="1.0" encoding="utf-8"?>
<!-- Generator: Adobe Illustrator 27.8.0, SVG Export Plug-In . SVG Version: 6.00 Build 0)  -->
<svg version="1.1" id="Layer_1" xmlns="http://www.w3.org/2000/svg" xmlns:xlink="http://www.w3.org/1999/xlink" x="0px" y="0px"
	 viewBox="0 0 197.2 197.2" style="enable-background:new 0 0 197.2 197.2;" xml:space="preserve">
<style type="text/css">
	.st0{fill:#a801bd;}
	.st1{fill:#fff;}
	.st2{fill:none;stroke:#a801bd;stroke-miterlimit:10;}
</style>
<g>
	<circle class="st0" cx="98.6" cy="98.6" r="98.6"/>
</g>
<path class="st2" d="M1192.1,260.7H-292c-12.7,0-23-10.3-23-23v-362.4c0-12.7,10.3-23,23-23h1484.1c12.7,0,23,10.3,23,23v362.4
	C1215.1,250.4,1204.8,260.7,1192.1,260.7z"/>
<g id="_x33_d2nls.tif_00000083058874827625650690000006679417481433879995_">
	<g>
		<path class="st1" d="M98.7,61.6c-16.9,0.1-31.7,13.2-34,29.6c-1.5,10.5,1.1,19.8,7.6,28.1c3.1,4,3,6.7-0.5,10.3
			c-1.3,1.3-2.5,2.6-3.8,3.8c-2.6,2.4-5.4,2.5-8.1,0.1c-2-1.7-3.7-3.8-5.1-6c-1.3-2.2-1.4-4.7,0.4-6.5c3.2-3.3,3.2-6.5,1.5-10.7
			c-1.3-3.3-2.8-5-6.2-5.6c-4.7-0.9-6.2-3-6.2-7.9c0-0.5,0-0.9,0-1.4c0-6.3,1.2-7.9,7.2-9.2c2.7-0.6,4.2-1.6,4.8-4.4
			c0.4-1.9,1.3-3.7,2.2-5.4c0.6-1.3,0.5-2.2-0.3-3.3c-1-1.4-2-2.8-2.9-4.3c-1.2-2.3-1.1-4.5,0.6-6.6c1.3-1.6,2.7-3.2,4.2-4.8
			c2-2.1,4.8-2.8,7.2-1.2c3.9,2.7,7.3,2.7,11.1-0.2c2.1-1.6,4.9-2.4,7.5-3c1.8-0.4,2.7-1.4,3-3.2c0.2-1.3,0.6-2.7,1-3.9
			c0.9-2.8,2.9-4.3,5.9-4.4c1.9-0.1,3.8-0.1,5.7,0c3.1,0.1,5.5,1.6,5.9,4.6c0.6,4.9,3.1,7.3,7.8,8.3c2.9,0.6,5.6,2.4,8,4.1
			c1.5,1.1,2.7,1.1,4.1,0.2c0.8-0.5,1.7-0.9,2.6-1.3c3.8-1.8,6-1.4,8.8,1.7c0.9,1,1.8,2.1,2.6,3.1c2.6,3.1,2.9,5.9,0.2,9
			c-2.5,2.9-2.5,5.4-1.3,9.1c1.4,4,3.3,6.2,7.5,6.6c0.6,0,1.2,0.3,1.7,0.6c4.6,2.5,3.6,6.9,3.5,10.8c0,3.4-1.6,5.9-4.7,6.3
			c-4.8,0.6-6.7,3.2-8.3,7.5c-1.4,3.7-1.3,6.3,1.2,9.3c2.5,3.1,2.2,5.8-0.4,8.8c-1.1,1.3-2.2,2.5-3.3,3.7c-2.5,2.5-6,2.6-8.4-0.1
			c-1.7-1.8-3.2-3.8-4.6-5.9c-1.7-2.6-1.4-5.4,0.9-8.1c4.1-5,7.1-10.6,8-17c2.3-17.9-6.3-36.2-28.8-40.6
			C102.3,61.8,100.3,61.6,98.7,61.6z"/>
		<path class="st1" d="M98.6,128.6c-5,0-10.1,0-15.1,0c-1.6,0-3.2-0.1-4.1-1.8c-0.8-1.6-0.5-3,0.8-4.3c1-1,0.3-1.7-0.5-2.4
			c-7.7-6.6-11.3-15-11.1-25.1c0.3-16.4,15-30.5,31.3-29.3c15.7,1.1,27.6,10.9,29.1,28.4c0.9,10.5-3.1,18.9-10.8,25.8
			c-1.2,1.1-1.8,1.8-0.4,3.2c1,1,1,2.3,0.4,3.6c-0.7,1.4-1.9,1.9-3.4,1.9C109.5,128.6,104,128.6,98.6,128.6z M94.5,104.6
			C94.5,104.6,94.5,104.6,94.5,104.6c0,1.5,0,3,0,4.5c0.1,3.1,1.7,5.1,4.2,5.1c2.5,0,4.2-2,4.3-5.1c0-3.2,0-6.5,0-9.7
			c0-1.5,0.6-2.2,2.2-2.2c1.8,0,3.6,0,5.4,0c4.2-0.1,7-2.8,7.6-6.9c0.5-3.5-2.2-7.2-5.8-8.1c-3.5-0.9-7.3,1-8.9,4.5
			c-0.3,0.6-0.3,1.5-1,1.7c-2.2,0.7-4.5,0.3-6.7,0.3c-1.5-0.1-1.4-1.6-1.9-2.5c-1.7-3.3-5.5-4.9-9-3.8c-3.5,1.1-5.9,4.5-5.5,7.9
			c0.4,3.9,3.3,6.8,7.1,7c2,0.1,3.9,0.1,5.9,0.1c1.5,0,2.2,0.6,2.2,2.2C94.5,101.2,94.5,102.9,94.5,104.6z"/>
		<path class="st1" d="M98.9,142c4.7,0,9.5,0,14.2,0c2,0,2.3,0.5,1.3,2.3c-1.1,2-2.8,3.4-4.9,4c-1.1,0.3-1.8,0.8-2.3,1.9
			c-1.6,3.5-4.4,5.5-8.3,5.5c-3.9,0-6.7-2-8.4-5.5c-0.4-1-1-1.5-2.1-1.8c-2.1-0.6-3.8-1.9-4.9-3.7c-1.3-2-0.9-2.7,1.4-2.7
			C89.6,141.9,94.3,142,98.9,142z"/>
		<path class="st1" d="M98.6,138.5c-4.9,0-9.8,0-14.7,0c-1,0-2,0-2.9-0.4c-1.4-0.6-2.1-1.7-2.1-3.2c0-1.4,0.8-2.4,2.1-2.9
			c0.9-0.4,1.8-0.4,2.7-0.4c10,0,20,0,30,0c0.6,0,1.2,0,1.8,0.1c1.8,0.4,3,1.4,3,3.4c0,2-1.3,3-3.1,3.3c-1.2,0.2-2.4,0.1-3.6,0.1
			C107.5,138.5,103.1,138.5,98.6,138.5z"/>
		<path class="st1" d="M87.2,92.9c-2,0-3.6-1.7-3.6-3.6c0-1.9,1.8-3.6,3.7-3.5c1.9,0.1,3.5,1.7,3.4,3.7C90.6,91.6,89.1,93,87.2,92.9
			z"/>
		<path class="st1" d="M114.3,89.4c0.1,2-1.5,3.6-3.5,3.6c-2,0-3.6-1.6-3.6-3.5c0-1.8,1.6-3.4,3.5-3.5
			C112.5,85.8,114.2,87.4,114.3,89.4z"/>
	</g>
</g>
</svg>
