<?xml version="1.0" encoding="UTF-8"?>
<svg id="Layer_1" data-name="Layer 1" xmlns="http://www.w3.org/2000/svg" xmlns:xlink="http://www.w3.org/1999/xlink" viewBox="0 0 80 80">
  <defs>
    <style>
      .cls-1 {
        fill: url(#linear-gradient);
      }

      .cls-1, .cls-2, .cls-3 {
        stroke-width: 0px;
      }

      .cls-2 {
        fill: url(#linear-gradient-2);
      }

      .cls-3 {
        fill: url(#linear-gradient-3);
      }
    </style>
    <linearGradient id="linear-gradient" x1="11.28" y1="7.13" x2="73" y2="65.56" gradientUnits="userSpaceOnUse">
      <stop offset="0" stop-color="#b00bc5"/>
      <stop offset="1" stop-color="#453e1b"/>
    </linearGradient>
    <linearGradient id="linear-gradient-2" x1="-3.21" y1="22.44" x2="58.5" y2="80.88" xlink:href="#linear-gradient"/>
    <linearGradient id="linear-gradient-3" x1="11.95" y1="6.43" x2="73.66" y2="64.86" xlink:href="#linear-gradient"/>
  </defs>
  <g id="AIPJS6.tif">
    <g>
      <path class="cls-1" d="m42.29,7.21c2.46.67,4.97,1.18,7.21,2.51,3.47,2.06,5.24,5.12,5.66,9.07.19,1.83.22,3.66.22,5.49,0,4.57.08,9.13-.03,13.69-.07,2.92.76,5.43,2.58,7.7,1.37,1.71,1.26,2.32-.39,3.73-1.62,1.38-3.23,2.79-4.85,4.18-1.53,1.31-2.22,1.29-3.78,0-.93-.77-1.68-1.69-2.4-2.65-1.43-1.9-1.42-1.9-3.12-.34-4.74,4.35-10.33,5.24-16.34,3.69-3.7-.95-6.18-3.5-7.44-7.15-2.11-6.12-.36-12.84,4.47-16.7,2.93-2.34,6.44-3.43,10.1-4.07,2.65-.47,5.32-.7,7.99-.97.59-.06,1.13-.13,1.13-.9,0-1.41.14-2.83-.15-4.21-.63-3.09-3.53-4.73-6.93-3.93-2.46.58-4.19,1.99-4.96,4.48-.57,1.86-.9,2.05-2.88,1.83-2.12-.24-4.23-.5-6.34-.79-1.57-.21-2.05-.91-1.69-2.48,1.33-5.85,5.13-9.37,10.68-11.16,1.33-.43,2.73-.67,4.09-1,2.39,0,4.78,0,7.17,0Zm1.01,28.54c0-.73-.03-1.45,0-2.18.05-.93-.35-1.3-1.28-1.28-1.41.04-2.82.1-4.2.39-4.91,1.04-7.36,4.71-6.45,9.65.57,3.08,3.2,4.72,6.2,3.84,1.62-.47,2.86-1.46,3.79-2.87,1.51-2.3,2.07-4.84,1.93-7.55Z"/>
      <path class="cls-2" d="m7.21,56.62c1-.92,2-.82,3.15-.18,4.65,2.6,9.33,5.14,14.33,7.05,8.23,3.13,16.58,3.04,25.03,1.1,3.96-.91,7.79-2.2,11.54-3.75.55-.23,1.11-.48,1.68-.59.87-.17,1.6.17,2.08.93.5.79.39,1.59-.22,2.23-.56.58-1.2,1.1-1.87,1.53-8.4,5.41-17.56,8.26-27.6,7.8-5.74-.26-10.98-2.27-15.9-5.17-4.13-2.43-7.83-5.45-11.46-8.56-.29-.25-.51-.57-.76-.86,0-.51,0-1.02,0-1.54Z"/>
      <path class="cls-3" d="m64.86,58.15c-1.37-.03-2.71.24-4.06.44-.84.12-1.56-.05-1.91-.88-.33-.79.06-1.42.65-1.91,1.1-.9,2.36-1.53,3.74-1.87,2.51-.62,5.03-.79,7.58-.16,1.25.31,1.92,1.06,1.93,2.35.03,3.96-1.18,7.45-3.99,10.32-.66.67-1.39,1.23-2.36.6-.89-.59-.72-1.45-.44-2.3.46-1.42,1-2.81,1.39-4.25.56-2.07.33-2.33-1.76-2.32-.26,0-.51,0-.77,0Z"/>
    </g>
  </g>
</svg>