<?xml version="1.0" encoding="utf-8"?>
<!-- Generator: Adobe Illustrator 27.8.0, SVG Export Plug-In . SVG Version: 6.00 Build 0)  -->
<svg version="1.1" id="Layer_1" xmlns="http://www.w3.org/2000/svg" xmlns:xlink="http://www.w3.org/1999/xlink" x="0px" y="0px"
	 viewBox="0 0 80 80" style="enable-background:new 0 0 80 80;" xml:space="preserve">
<style type="text/css">
	.st0{fill:url(#SVGID_1_);}
	.st1{fill:url(#SVGID_00000038370920403654425240000012612557464748917684_);}
	.st2{fill:url(#SVGID_00000112614564339340469670000005714791037197682075_);}
	.st3{fill:url(#SVGID_00000120539155923260833110000002624760840168354235_);}
	.st4{fill:url(#SVGID_00000089539834679860705700000017594897955263899052_);}
	.st5{fill:url(#SVGID_00000181073569496816623240000003903942670733174917_);}
	.st6{fill:url(#SVGID_00000085214900753622022970000011516874299814183861_);}
	.st7{fill:url(#SVGID_00000012440483620235756960000013023217754859398019_);}
	.st8{fill:url(#SVGID_00000101814161218943455510000009544421328587686564_);}
	.st9{fill:url(#SVGID_00000164494698798727891090000015557501960142435212_);}
	.st10{fill:url(#SVGID_00000108300932184785438550000014751166274253215881_);}
	.st11{fill:url(#SVGID_00000093864752055539697530000000920264019821057941_);}
	.st12{fill:url(#SVGID_00000013911661343393432430000004684334754820055705_);}
	.st13{fill:url(#SVGID_00000088095227169235628020000000360081696656284806_);}
	.st14{fill:url(#SVGID_00000042695081635752520120000004058202375600717470_);}
	.st15{fill:url(#SVGID_00000170972571137239018830000015242356130947218833_);}
	.st16{fill:url(#SVGID_00000150822588725797440880000008306910853917423536_);}
	.st17{fill:url(#SVGID_00000067925919382384020020000018075033513420142772_);}
	.st18{fill:url(#SVGID_00000092453351766613080820000011412850757070833824_);}
	.st19{fill:url(#SVGID_00000144331151116105843970000013249300841719130303_);}
	.st20{fill:url(#SVGID_00000065062285061173804410000002107022903938259887_);}
	.st21{fill:url(#SVGID_00000018231377750084810960000002963643118257518766_);}
	.st22{fill:url(#SVGID_00000078039574703942468270000009133777479261881778_);}
	.st23{fill:url(#SVGID_00000181766480076709802800000003373093049027132550_);}
	.st24{fill:url(#SVGID_00000135673460917168283350000010921677032362756771_);}
	.st25{fill:url(#SVGID_00000088103940314602118100000003503167519157642163_);}
	.st26{fill:url(#SVGID_00000020389038795694985090000000648228164264138405_);}
	.st27{fill:url(#SVGID_00000148658204697357661400000011671623265584983475_);}
	.st28{fill:url(#SVGID_00000005257357356707383200000001378277853578014654_);}
	.st29{fill:url(#SVGID_00000115486683298523607390000000505082803008001675_);}
	.st30{fill:url(#SVGID_00000018226109689735223070000012702675387228529315_);}
	.st31{fill:url(#SVGID_00000090981086091937929800000002967678515695342481_);}
	.st32{fill:url(#SVGID_00000159437774827335898040000013163177734442069664_);}
	.st33{fill:url(#SVGID_00000082348232522172241120000007999336971355583888_);}
	.st34{fill:url(#SVGID_00000119091421716494898410000006980382930355694271_);}
	.st35{fill:url(#SVGID_00000097480558449594243180000005257789094519871153_);}
	.st36{fill:url(#SVGID_00000111905093248057734910000010515280419236936078_);}
	.st37{fill:url(#SVGID_00000158751475908800199160000003723913090343575228_);}
	.st38{fill:url(#SVGID_00000170261081891082788280000004049430843543443367_);}
	.st39{fill:url(#SVGID_00000003082247929002649960000002209889183677073541_);}
	.st40{fill:url(#SVGID_00000065766920004936636880000007445094041007914923_);}
	.st41{fill:url(#SVGID_00000183228403040630449980000016981219957969295286_);}
	.st42{fill:url(#SVGID_00000073696115612059735790000003692179263479648703_);}
	.st43{fill:url(#SVGID_00000017491282800714956360000012451851469892317313_);}
	.st44{fill:url(#SVGID_00000060015527182277860190000009585706510842507403_);}
	.st45{fill:url(#SVGID_00000093173513105974584580000011775267966953035910_);}
</style>
<g id="_x33_LYIUw.tif_00000124121504185581923750000011980478837202630274_">
	<g>
		<linearGradient id="SVGID_1_" gradientUnits="userSpaceOnUse" x1="14.2017" y1="17.4131" x2="64.1751" y2="73.5713">
			<stop  offset="0" style="stop-color:#a801bd"/>
			<stop  offset="1" style="stop-color:#453E1B"/>
		</linearGradient>
		<path class="st0" d="M51.7,7.6c0.8,0,1.5-0.1,2.3-0.1c2.9,1.8,3.1,4,0.7,6.4c-0.9,0.9-1.8,1.8-2.7,2.7c-1.2,1.2-2.3,2.3-3.5,3.5
			c0.7,0.5,1.2,0.4,1.8,0.4c4,0,8.1,0,12.1,0c0.9,0,1.7,0,2.6,0.2c2.6,0.7,4.5,2.1,5.8,4c1.2,1.7,1.7,3.8,1.7,5.9v30.9
			c0,2.5-0.7,5-2.1,7c-1.9,2.6-4.4,3.9-7.8,3.9c-15.1,0-30.1,0.1-45.2,0c-5.5,0-9.8-4.3-9.9-9.8C7.5,51.8,7.5,41,7.6,30.2
			c0-5.4,4.4-9.7,9.7-9.7c4.1,0,8.3,0,12.4,0c0.5,0,1.1,0.2,1.6-0.2c0-0.7-0.7-0.9-1-1.4c-0.8-1.2-1.7-2.4-2.9-3.2
			c-4.5-3.1-4.9-5.9-1.3-8.1c0.8,0,1.5,0.1,2.3,0.1c3.3,2.7,6,5.9,9.1,8.8c1.4,1.4,3.7,1.4,5.2,0C45.7,13.5,48.4,10.3,51.7,7.6z
			 M33.5,27.2c-4.1,0-8.3,0-12.4,0c-4.3,0-6.7,2.5-6.7,6.8c0,6.1,0,12.1,0,18.2c0,4.3,2.5,7,6.8,7c8.3,0,16.6,0,24.9,0
			c4.1,0,6.7-2.6,6.7-6.8c0-6.2,0-12.3,0-18.5c0-4.3-2.4-6.7-6.8-6.7C41.8,27.2,37.7,27.2,33.5,27.2z M65.7,33.5
			c0-1.7-1.5-3.1-3.1-3c-1.6,0.1-3,1.5-3,3.1c0,1.7,1.5,3.1,3.2,3C64.4,36.5,65.7,35.1,65.7,33.5z M65.7,46.4c0-1.6-1.3-3-2.9-3
			c-1.7,0-3.1,1.3-3.2,3c0,1.6,1.4,3,3,3.1C64.2,49.6,65.7,48.1,65.7,46.4z M62.8,62.3c1.7,0,3-1.3,3-3c0-1.7-1.3-3-3.1-3
			c-1.7,0-3,1.3-3,3C59.6,61,61,62.4,62.8,62.3z"/>
	</g>
</g>
</svg>
