<?xml version="1.0" encoding="utf-8"?>
<!-- Generator: Adobe Illustrator 27.8.0, SVG Export Plug-In . SVG Version: 6.00 Build 0)  -->
<svg version="1.1" id="Layer_1" xmlns="http://www.w3.org/2000/svg" xmlns:xlink="http://www.w3.org/1999/xlink" x="0px" y="0px"
	 viewBox="0 0 80 80" style="enable-background:new 0 0 80 80;" xml:space="preserve">
<style type="text/css">
	.st0{fill:url(#SVGID_1_);}
	.st1{fill:url(#SVGID_00000142887829386072572340000000453432100885195427_);}
	.st2{fill:url(#SVGID_00000113340610559133214970000009187637208585604748_);}
	.st3{fill:url(#SVGID_00000110436130048830341510000014203481452374015660_);}
	.st4{fill:url(#SVGID_00000179616436473120076790000003182342304920444066_);}
	.st5{fill:url(#SVGID_00000129195959796146230270000015050430895845809811_);}
	.st6{fill:url(#SVGID_00000155128624407872551190000011317029111965560710_);}
	.st7{fill:url(#SVGID_00000083778264269337233040000000491117737859732906_);}
	.st8{fill:url(#SVGID_00000010286335653086213160000012024878856807132073_);}
	.st9{fill:url(#SVGID_00000132769813421185827530000014977872411141449385_);}
	.st10{fill:url(#SVGID_00000031902443528464912520000008306796215557130392_);}
	.st11{fill:url(#SVGID_00000075135069099276398430000012432135405681855164_);}
	.st12{fill:url(#SVGID_00000144310178963621471520000004568030682955548077_);}
	.st13{fill:url(#SVGID_00000021114710631343655510000001594755785324603010_);}
	.st14{fill:url(#SVGID_00000010269560601505532080000010063566542065765521_);}
	.st15{fill:url(#SVGID_00000077284012913366227000000002036344439381705106_);}
	.st16{fill:url(#SVGID_00000062174456936179667640000005407575644085596087_);}
	.st17{fill:url(#SVGID_00000063612979495398006600000012727063183999489962_);}
	.st18{fill:url(#SVGID_00000098912066132106342880000011894650321758241207_);}
	.st19{fill:url(#SVGID_00000017496880896722351180000015135943236578486700_);}
	.st20{fill:url(#SVGID_00000169524921721400172270000008837936785758209181_);}
	.st21{fill:url(#SVGID_00000036934547921044128920000014269228240153299372_);}
	.st22{fill:url(#SVGID_00000100355677477438769530000017312142718055905946_);}
	.st23{fill:url(#SVGID_00000029036681560031418100000001260209445065457840_);}
	.st24{fill:url(#SVGID_00000165228710033009846620000014103987483413574844_);}
	.st25{fill:url(#SVGID_00000174588291379653876120000007391684566890320808_);}
	.st26{fill:url(#SVGID_00000003821766943032652890000008470775440850188455_);}
	.st27{fill:url(#SVGID_00000110457395725922647840000001668456872201835668_);}
	.st28{fill:url(#SVGID_00000092441219779467594460000000421613459573178759_);}
	.st29{fill:url(#SVGID_00000001655577172028872900000008601724214262822071_);}
	.st30{fill:url(#SVGID_00000075143122800129506970000012732258484095045767_);}
	.st31{fill:url(#SVGID_00000133508982987619222850000000189306571749248410_);}
	.st32{fill:url(#SVGID_00000013898250094498849250000008324833834569786543_);}
	.st33{fill:url(#SVGID_00000079477915556081364960000008406023751979945100_);}
	.st34{fill:url(#SVGID_00000176732889111841093660000010376758009356459946_);}
	.st35{fill:url(#SVGID_00000068654050212051661030000011813156810844769934_);}
	.st36{fill:url(#SVGID_00000036236773751464462230000003420504342696023483_);}
	.st37{fill:url(#SVGID_00000133497923886989429880000011467185652970565507_);}
	.st38{fill:url(#SVGID_00000049189082845063748030000001647580104105040517_);}
	.st39{fill:url(#SVGID_00000029755280091356683230000007227687433451914671_);}
	.st40{fill:url(#SVGID_00000047748817276380747320000005205551014899783841_);}
	.st41{fill:url(#SVGID_00000136406168789421310730000018064361049154252930_);}
	.st42{fill:url(#SVGID_00000010289395833187887450000012300062467888423571_);}
	.st43{fill:url(#SVGID_00000018940246269119773230000017179337156558825124_);}
	.st44{fill:url(#SVGID_00000139268158544153881090000017293446929331710128_);}
	.st45{fill:url(#SVGID_00000075130947545951153380000011685922765201434038_);}
</style>
<g id="xVXasY.tif_00000076573346588638554500000016796436444381578123_">
	<g>
		<linearGradient id="SVGID_1_" gradientUnits="userSpaceOnUse" x1="22.3319" y1="7.91" x2="72.5835" y2="61.2577">
			<stop  offset="0" style="stop-color:#b00bc5"/>
			<stop  offset="1" style="stop-color:#453E1B"/>
		</linearGradient>
		<path class="st0" d="M40,7.5c4.4,1,8.1,3,10.6,6.8c3.6,5.3,4.2,11,1.3,16.8c-2.9,5.7-7.8,8.9-14.2,9c-8.8,0.1-15.7-6-16.6-14.8
			C20.1,16.9,25.8,9.3,34,7.7c0.2,0,0.4-0.1,0.6-0.2C36.4,7.5,38.2,7.5,40,7.5z"/>
		
			<linearGradient id="SVGID_00000065762699598421325690000009264534540697703297_" gradientUnits="userSpaceOnUse" x1="3.4702" y1="25.677" x2="53.7218" y2="79.0248">
			<stop  offset="0" style="stop-color:#b00bc5"/>
			<stop  offset="1" style="stop-color:#453E1B"/>
		</linearGradient>
		<path style="fill:url(#SVGID_00000065762699598421325690000009264534540697703297_);" d="M7.5,54.2c0.6-1.8,2-3,3.6-3.9
			c7.6-4.4,15.7-7.1,24.5-7.6c7.2-0.4,14,1.3,20.6,4c0.9,0.3,1.7,0.6,2.6,1.3c-0.4,0.4-0.9,0.3-1.3,0.3c-4.3,0-8.6,0-12.9,0
			c-3.4,0-6.1,2-6.8,5c-0.2,0.7-0.2,1.5-0.2,2.3c0,3.4,0,6.8,0,10.3c0,1.1-0.3,1.5-1.5,1.5c-8.8,0-17.7,0-26.5,0
			c-0.8,0-1.5-0.1-2-0.8C7.5,62.3,7.5,58.2,7.5,54.2z"/>
		
			<linearGradient id="SVGID_00000106110704639092193660000018287972871167389085_" gradientUnits="userSpaceOnUse" x1="13.8679" y1="15.8827" x2="64.1196" y2="69.2304">
			<stop  offset="0" style="stop-color:#b00bc5"/>
			<stop  offset="1" style="stop-color:#453E1B"/>
		</linearGradient>
		<path style="fill:url(#SVGID_00000106110704639092193660000018287972871167389085_);" d="M72.5,61.6c0,3,0,5.9,0,8.9
			c0,1.9-0.9,2.4-2.6,1.6c-1.5-0.7-3-1.4-4.4-2.2c-0.7-0.4-1.1-0.5-1.6,0.4c-0.7,1.5-2.1,2.2-3.7,2.2c-5.4,0-10.7,0-16.1,0
			c-2.5,0-4.2-1.7-4.2-4.3c0-4.4,0-8.8,0-13.2c0-2.6,1.6-4.4,4.2-4.4c5.4-0.1,10.7-0.1,16.1,0c1.7,0,3,0.8,3.8,2.3
			c0.4,0.7,0.7,0.8,1.4,0.4c1.4-0.8,2.9-1.4,4.3-2.2c2-1,2.9-0.5,2.9,1.8C72.5,55.9,72.5,58.8,72.5,61.6z"/>
	</g>
</g>
</svg>
