<?xml version="1.0" encoding="utf-8"?>
<!-- Generator: Adobe Illustrator 27.8.0, SVG Export Plug-In . SVG Version: 6.00 Build 0)  -->
<svg version="1.1" id="Layer_1" xmlns="http://www.w3.org/2000/svg" xmlns:xlink="http://www.w3.org/1999/xlink" x="0px" y="0px"
	 viewBox="0 0 197.2 197.2" style="enable-background:new 0 0 197.2 197.2;" xml:space="preserve">
<style type="text/css">
	.st0{fill:#b00bc5;}
	.st1{fill:#fff;}
</style>
<circle class="st0" cx="98.6" cy="98.6" r="98.6"/>
<g id="TBGAbs.tif_00000150073333413219047400000006104851599260751020_">
	<g>
		<path class="st1" d="M42.5,135.1c0-25.2,0-50.4,0-75.6c0-1.5,0.3-1.8,1.8-1.8c25.2,0.1,50.5,0,75.7,0c3.3,1.3,4.4,3.8,4.4,7.1
			c-0.1,5.3,0,10.6,0,15.9c0,0.8-0.4,1.8,0.4,2.2c0.8,0.5,1.4-0.5,2-0.9c7.5-5.2,14.9-10.4,22.4-15.6c1.2-0.8,2.4-1.7,3.9-0.8
			c1.5,0.8,1.6,2.2,1.7,3.7c0,0.5,0,0.9,0,1.4c0,18.6,0,37.2,0,55.7c0,0.9,0,1.9-0.2,2.8c-0.5,2.4-2.3,3.2-4.4,2.1
			c-0.7-0.4-1.3-0.9-2-1.3c-7.2-5-14.4-10.1-21.6-15.1c-0.6-0.4-1.1-1.2-1.8-0.8c-0.7,0.4-0.4,1.3-0.4,2c0,5.5,0,10.9,0,16.4
			c0,4.9-2.1,6.9-7,6.9c-22.6,0-45.3,0-67.9,0C46.1,139.5,43.7,138.3,42.5,135.1z M63.7,98.4c4.4,0,8,0,11.6,0c3.4,0,3.4,0,3.4,3.5
			c0,3.4,0,6.8,0,10.2c0.1,7.2-1,6.3,6.5,6.4c2.2,0,2.9-0.8,2.9-2.9c-0.1-4.4,0-8.9,0-13.3c0-3.8,0-3.8,3.8-3.9c3.5,0,7.1,0,11.1,0
			c-6.5-6.6-12.6-12.7-18.8-18.9c-0.7-0.7-1.3-0.3-1.9,0.2C76.3,85.8,70.2,91.8,63.7,98.4z"/>
	</g>
</g>
</svg>
