<?xml version="1.0" encoding="UTF-8"?>
<svg id="Layer_1" data-name="Layer 1" xmlns="http://www.w3.org/2000/svg" viewBox="0 0 197.2 197.2">
  <defs>
    <style>
      .cls-1 {
        fill: #fff;
      }

      .cls-1, .cls-2 {
        stroke-width: 0px;
      }

      .cls-2 {
        fill: #a801bd;
      }
    </style>
  </defs>
  <circle class="cls-2" cx="98.6" cy="98.6" r="98.6"/>
  <g id="_8tgcUi.tif" data-name="8tgcUi.tif">
    <g>
      <path class="cls-1" d="m32.38,62.22c2.36-6.04,6.76-8.56,13.26-8.49,18.07.18,36.14.06,54.21.07,8.28,0,12.79,4.5,12.79,12.73,0,14.28.01,28.57,0,42.85,0,7.53-3.89,12.01-11.43,12.54-5.57.39-11.18.21-16.77.16-2-.02-3.63.53-5.24,1.71-8.28,6.02-16.61,11.98-24.96,17.9-.99.7-2,2.27-3.23,1.57-1.16-.66-.52-2.38-.53-3.63-.06-4.82-.12-9.64.02-14.45.07-2.41-.85-3.17-3.17-3.1-2.13.07-4.34,0-6.41-.49-4.39-1.03-7.04-4.07-8.53-8.22v-51.14Zm57.02,39.16q4.26.01,4.27-3.32.01-4.73-3.36-4.74-5.02-.02-5.03,4.32,0,3.72,4.12,3.74Zm-35.09-8.05q-4.26,0-4.27,3.32-.01,4.73,3.65,4.73,4.4,0,4.4-3.99t-3.78-4.07Zm13.35,3.91q0,4.15,3.98,4.15,4.12,0,4.12-4.05,0-4.01-4.16-4.01-3.93,0-3.93,3.92Z"/>
      <path class="cls-1" d="m137.9,72.35c5.85,0,11.7-.04,17.55.02,5.68.06,9.33,3.73,9.34,9.43.04,11.7.03,23.4,0,35.1-.02,5.8-3.74,9.5-9.5,9.56-5.56.07-4.98-.81-5,5.17-.01,3.01.02,6.02-.02,9.03-.01.91.43,2.11-.46,2.65-.99.6-1.69-.54-2.41-1.06-6.59-4.68-13.18-9.37-19.71-14.14-1.61-1.17-3.24-1.74-5.24-1.69-4.04.11-8.09.04-12.13.02-.85,0-1.72-.09-2.55-.25-.45-.09-1.09-.19-1.11-.86-.01-.51.47-.66.85-.85,6.78-3.46,9.22-9.13,9.05-16.55-.25-10.75,0-21.51-.11-32.26-.03-2.6.78-3.45,3.39-3.38,6.02.17,12.04.05,18.06.06Zm-4.88,10.56c-4.2,0-7.47,1.68-9.12,4.76-.69,1.29-1.49,2.8-.74,4.15.8,1.43,2.5.56,3.79.74,1.48.21,1.79-.93,2.34-1.92.88-1.58,2.35-2.28,4.12-2.02,1.4.2,2.73.77,3.17,2.29.5,1.68-.69,2.72-1.72,3.76-.67.67-1.41,1.26-2.09,1.92-2.18,2.16-3.34,4.74-3.3,7.86.02,1.39.58,2.25,1.99,1.99,1.4-.26,3.65,1.17,4-1.41.38-2.79,1.92-4.67,3.87-6.46,3.53-3.24,4.45-6.68,2.94-10.39-1.36-3.35-4.74-5.27-9.26-5.26Zm-.12,32.25c.68-.1,2.63.8,2.67-2.01.03-2.38-1.35-2.41-2.99-2.31-1.5.09-3.37-.58-3.43,2.14-.05,2.41,1.35,2.37,3.75,2.18Z"/>
    </g>
  </g>
</svg>