<?xml version="1.0" encoding="utf-8"?>
<!-- Generator: Adobe Illustrator 27.8.0, SVG Export Plug-In . SVG Version: 6.00 Build 0)  -->
<svg version="1.1" id="Layer_1" xmlns="http://www.w3.org/2000/svg" xmlns:xlink="http://www.w3.org/1999/xlink" x="0px" y="0px"
	 viewBox="0 0 197.2 197.2" style="enable-background:new 0 0 197.2 197.2;" xml:space="preserve">
<style type="text/css">
	.st0{fill:#a801bd;}
	.st1{fill:#fff;}
</style>
<circle class="st0" cx="98.6" cy="98.6" r="98.6"/>
<g id="RHXBks.tif">
	<g>
		<path class="st1" d="M167.6,102.6c-1.3,7.9-4.4,14.7-10.3,19.8c-1.2,1-0.9,2.2-0.6,3.4c1.3,5.2,2.7,10.3,4,15.5
			c0.2,0.8,0.8,1.9,0.2,2.5c-0.8,0.7-1.6-0.3-2.3-0.7c-6.1-3.4-12.3-6.8-18.3-10.4c-2.2-1.3-4.4-1.7-6.8-1.7c-9.2,0-17.5-2.8-24.5-9
			c-1.7-1.5-2.1-2.5-0.2-4.4c10.9-11,14.2-24.1,9.8-39c-0.5-1.7-0.4-2.6,1.4-3.3c14.9-5.6,34-1.4,43.2,12.8
			c2.2,3.4,3.1,7.3,4.4,11.1C167.4,100.4,167.5,101.5,167.6,102.6z M149.8,92.2c0-5.9-3.8-9.7-9.8-10.1c-5.2-0.4-10.8,3.4-11.5,8.3
			c-0.3,1.9-1.3,4.7,1.6,5.2c2.6,0.5,2.6-2.2,3-4.1c0.6-2.7,2.4-4.3,5-4.7c2.5-0.4,4.8,0.1,6.2,2.4c1.4,2.3,1.1,4.8-0.5,6.9
			c-1.1,1.5-2.5,2.7-3.8,4c-2.6,2.5-3.7,5.6-3.6,9.2c0,1.5,0.4,2.7,2.2,2.7c1.6,0,2.5-1.1,2.4-2.6c-0.1-3.8,1.9-6.3,4.6-8.6
			C148.4,98.5,150.1,95.6,149.8,92.2z M141.7,120.4c-0.2-1.9-1.4-3.2-3.3-3.1c-2.1,0.1-3,1.7-2.9,3.6c0.1,1.9,1.3,3.1,3.2,3
			C140.7,123.9,141.8,122.6,141.7,120.4z"/>
		<path class="st1" d="M73,53.2c14.6,0.4,27.2,5.2,36.3,17.1c12.2,16.1,7.8,38-9.7,49.5c-9,5.9-19,8.3-29.7,7.9
			c-1.5-0.1-2.8,0.2-4,1c-8.5,4.8-17,9.6-25.6,14.4c-0.7,0.4-1.6,1.4-2.4,0.7c-0.7-0.6-0.1-1.7,0.1-2.5c1.7-6.9,3.5-13.8,5.3-20.7
			c0.4-1.5,0.4-2.6-0.9-3.8c-19.1-16.3-17-44.8,8-58.2C57.4,54.9,64.9,53.1,73,53.2z M72.9,96.5c3.5,0,6.4-2.9,6.4-6.4
			c0-3.3-3.1-6.4-6.5-6.3c-3.4,0-6.4,3-6.4,6.4C66.4,93.6,69.4,96.5,72.9,96.5z M55.1,83.7c-3.4-0.1-6.3,2.8-6.3,6.4
			c-0.1,3.5,2.7,6.4,6.2,6.4c3.5,0.1,6.2-2.6,6.2-6.3C61.2,86.6,58.5,83.7,55.1,83.7z M97.1,89.8c-0.1-3.4-3.3-6.3-6.6-6.2
			c-3.4,0.2-6.3,3.4-6.1,6.7c0.2,3.6,3.1,6.3,6.6,6.1C94.5,96.3,97.2,93.3,97.1,89.8z"/>
	</g>
</g>
</svg>
