<?xml version="1.0" encoding="utf-8"?>
<!-- Generator: Adobe Illustrator 27.8.0, SVG Export Plug-In . SVG Version: 6.00 Build 0)  -->
<svg version="1.1" id="Layer_1" xmlns="http://www.w3.org/2000/svg" xmlns:xlink="http://www.w3.org/1999/xlink" x="0px" y="0px"
	 viewBox="0 0 80 80" style="enable-background:new 0 0 80 80;" xml:space="preserve">
<style type="text/css">
	.st0{fill:url(#SVGID_1_);}
	.st1{fill:url(#SVGID_00000164493596362642148250000013171982771528965776_);}
	.st2{fill:url(#SVGID_00000100366693765891177980000007347584346064465842_);}
	.st3{fill:url(#SVGID_00000131331511623043225930000006504331334297544379_);}
	.st4{fill:url(#SVGID_00000006682906087952621770000014308297530020738750_);}
	.st5{fill:url(#SVGID_00000145770007084709521290000012296390165337894316_);}
	.st6{fill:url(#SVGID_00000163767439662994555500000000577123308802586548_);}
	.st7{fill:url(#SVGID_00000096745957302288038130000009962245901841038002_);}
	.st8{fill:url(#SVGID_00000003065899949533834840000010556019716892113575_);}
	.st9{fill:url(#SVGID_00000077287627803586359590000013851683077078304153_);}
	.st10{fill:url(#SVGID_00000081605317973256466730000000300122936464517807_);}
	.st11{fill:url(#SVGID_00000079471325418337808700000013057254848681759641_);}
</style>
<g id="avV6GD.tif">
	<g>
		<linearGradient id="SVGID_1_" gradientUnits="userSpaceOnUse" x1="5.3806" y1="20.8864" x2="60.1284" y2="80.7441">
			<stop  offset="0" style="stop-color:#a801bd"/>
			<stop  offset="1" style="stop-color:#453E1B"/>
		</linearGradient>
		<path class="st0" d="M29.7,71.4c-7.4,0-14.8,0-22.2,0c-0.3,0-0.7,0-1,0c-2.2-0.3-3.2-2.3-2-4.2c1.6-2.7,3.3-5.4,4.9-8
			c5.7-9.4,11.4-18.8,17.2-28.1c0.3-0.6,0.5-1.1,0.5-1.8c0-5.2,0-10.4,0-15.5c0-0.6,0-1.2,0.1-1.8c0.2-1.2,1-1.9,2.1-2.1
			c0.4-0.1,0.9-0.1,1.3-0.1c2.9,0,5.9,0,8.8,0c2.3,0,3.3,1,3.3,3.3c0,3,0,6.1,0,9.1c0,2.2-1,3.1-3.2,3.1c-2,0-4,0-6,0
			c-0.7,0-1.1,0.2-1,1c0,0,0,0.1,0,0.1c-0.3,2.7,0.5,4.9,1.9,7.2c6.9,11,13.6,22.2,20.3,33.3c0.2,0.3,0.4,0.6,0.5,1
			c0.7,1.5-0.2,3.3-1.8,3.6c-0.5,0.1-1.1,0.1-1.6,0.1C44.4,71.4,37.1,71.4,29.7,71.4z"/>
		
			<linearGradient id="SVGID_00000037677561273785273460000001486093784696591295_" gradientUnits="userSpaceOnUse" x1="17.4824" y1="9.8176" x2="72.2303" y2="69.6753">
			<stop  offset="0" style="stop-color:#a801bd"/>
			<stop  offset="1" style="stop-color:#453E1B"/>
		</linearGradient>
		<path style="fill:url(#SVGID_00000037677561273785273460000001486093784696591295_);" d="M67.8,71.3c-1.8,0-3.6,0-5.4,0
			c-1.5,0-2.5-0.5-3.3-1.8c-5.2-8.5-10.3-17.1-15.6-25.6c-0.8-1.3-0.8-2.5,0.1-3.8c1.4-1.9,2.7-3.9,4.1-5.9c1.4-1.9,3.4-1.9,4.8,0
			C60.2,45.1,67.8,56.1,75.4,67c0.7,1,0.8,1.9,0.3,3c-0.5,1.1-1.4,1.3-2.5,1.3C71.4,71.2,69.6,71.3,67.8,71.3z"/>
	</g>
</g>
</svg>
