<?xml version="1.0" encoding="utf-8"?>
<!-- Generator: Adobe Illustrator 27.8.0, SVG Export Plug-In . SVG Version: 6.00 Build 0)  -->
<svg version="1.1" id="Layer_1" xmlns="http://www.w3.org/2000/svg" xmlns:xlink="http://www.w3.org/1999/xlink" x="0px" y="0px"
	 viewBox="0 0 197.2 197.2" style="enable-background:new 0 0 197.2 197.2;" xml:space="preserve">
<style type="text/css">
	.st0{fill:#b00bc5;}
	.st1{fill:#fff;}
	.st2{fill:none;stroke:#b00bc5;stroke-miterlimit:10;}
</style>
<g>
	<circle class="st0" cx="98.6" cy="98.6" r="98.6"/>
</g>
<path class="st2" d="M935.7,260.7H-548.5c-12.7,0-23-10.3-23-23v-362.4c0-12.7,10.3-23,23-23H935.7c12.7,0,23,10.3,23,23v362.4
	C958.7,250.4,948.4,260.7,935.7,260.7z"/>
<g id="i7JYg3.tif">
	<g>
		<path d="M156.2,55.4c-3.1,6.4-6.8,8.8-12.7,8.2c-0.4,0-0.8,0-1.1-0.2c-3-1.9-4.9-0.2-6.7,2c-0.9,1.1-1.8,2-3.2,0.4
			c-2.3-2.5-2.4-2.5-0.6-4.3c0.5-0.5,0.9-1,1.4-1.4c1.4-1.1,1.6-2.2,1-4.1c-2.2-6.4,0.8-11.9,7.9-15c1.9,0,3.9,0,5.8,0
			c3.9,1.5,6.6,4.2,8.1,8.1C156.2,51.2,156.2,53.3,156.2,55.4z"/>
		<path d="M55.7,41c6.4,3.1,8.8,6.8,8.2,12.6c0,0.4,0,1-0.2,1.3c-1.7,2.8-0.3,4.7,1.8,6.4c0.6,0.5,1.7,1.2,1.3,2.1
			c-0.6,1.3-1.7,2.3-3,3c-0.4,0.2-0.9-0.1-1.2-0.4c-0.6-0.6-1.2-1.1-1.8-1.7c-1.4-1.8-2.9-2.2-5.2-1.4c-5.5,1.9-11.8-1.3-13.8-6.8
			c-2-5.5,0.6-11.8,5.9-14.3c0.7-0.3,1.4-0.6,2.1-0.9C51.8,41,53.7,41,55.7,41z"/>
		<path d="M156.2,147.9c-0.9,1.7-1.7,3.5-3.1,4.9c-3.7,3.6-9.2,4.5-13.6,2c-4.6-2.5-7.2-7.8-5.5-12.7c1.1-3.1,0.2-4.7-2-6.4
			c-1.7-1.3-1.7-2.3-0.1-3.9c1.5-1.5,2.5-1.5,3.8,0.1c0.6,0.8,1.4,1.4,2,2.1c0.6,0.6,1.3,0.8,2.2,0.5c8.1-2.4,13.1,0,16.4,7.6
			C156.2,144,156.2,145.9,156.2,147.9z"/>
		<path d="M75.3,64.3c0.4,0.3,0.9,0.6,1.3,1c1.8,1.5,3.7,3.1,5.5,4.7c0.8,0.7,1.4,0.6,2.4,0.3c3.9-1.1,6.5-3,5.9-7.6
			c0-0.1,0-0.1,0-0.2c0.7-5,0.7-5,5.8-5c2.8,0,5.5,0,8.3,0c1.3,0,1.9,0.5,2,1.8c0.2,2.3,0.5,4.6,0.7,6.9c0.1,1.2,0.8,1.7,1.8,2.3
			c3.6,2.3,6.3,1.6,9.3-1.4c3.6-3.7,3.8-3.5,7.5,0.2c2,2,4,4.1,6,6c1.1,1,1.2,1.9,0.1,3c-1.6,1.8-3.1,3.7-4.7,5.4
			c-0.8,0.8-0.6,1.6-0.4,2.6c0.9,4.7,4,5.9,8.3,5.9c5.3,0,4.3,0.5,4.4,4.7c0,2.8-0.1,5.7,0,8.5c0.1,1.8-0.4,2.8-2.4,2.8
			c-2.2,0.1-4.4,0.5-6.7,0.7c-1.1,0.1-1.6,0.7-2.1,1.6c-2.1,3.6-1.7,6.3,1.4,9.4c3.8,3.7,3.6,4-0.3,7.9c-2,2-3.9,3.9-5.9,5.9
			c-0.9,1-1.7,1-2.7,0.1c-1.8-1.6-3.7-3.1-5.4-4.7c-1-0.9-1.8-0.6-3-0.4c-4.5,0.9-5.9,3.9-5.6,8c0,0.4,0,0.9,0,1.3
			c-0.1,3.1-0.3,3.3-3.4,3.3c-3.4,0-6.7,0-10.1,0c-1.6,0-2.5-0.4-2.6-2.2c-0.1-2.3-0.5-4.6-0.7-6.9c-0.1-1.1-0.8-1.5-1.7-2.1
			c-3.7-2.2-6.5-1.6-9.5,1.5c-3.5,3.6-3.8,3.3-7.4-0.3c-2.1-2.1-4.1-4.1-6.2-6.2c-0.9-0.9-1-1.7-0.1-2.7c1.5-1.7,2.9-3.5,4.4-5.1
			c1-1.1,1-2,0.7-3.4c-1-4.1-3.5-5.4-7.6-5.6c-5.6-0.3-4.9,0.7-5-5.3c0-2.6,0.1-5.2,0-7.8c-0.2-2.3,0.9-3,3-3c1.9,0,3.9-0.3,5.8-0.4
			c1.1-0.1,1.7-0.6,2.1-1.6c2.2-5.2,2.2-5.2-1.5-9.4c-3.3-3.8-3.3-3.8,0.3-7.4c2-2,4-4,6-6C74,65,74.4,64.4,75.3,64.3z M98.8,121.3
			c12.8,0,22.8-10,22.8-22.7c0-12.8-10.1-23-22.9-23c-12.8,0-22.9,10.2-22.8,23C75.9,111.4,86,121.3,98.8,121.3z"/>
		<path d="M52.4,156.1c-4.9,0-8.3-2.4-10.2-6.7c-1.9-4.2-1.4-8.4,1.6-12c3.1-3.7,7.2-5.1,11.7-3.7c2.8,0.9,4.3,0.2,6.1-1.8
			c2.1-2.3,2.1-2.2,4.3-0.1c1.3,1.2,1.3,2.2-0.1,3.3c-0.2,0.2-0.4,0.4-0.6,0.6c-1.9,1.6-2.6,3.1-1.7,5.9
			C65.5,149,60,156.1,52.4,156.1z"/>
		<path d="M96.6,88.7c0,1.9,0,3.7,0,5.6c0.1,1.5-0.6,2.1-2.1,2.1c-4.5,0.2-4.7,0.1-3.9-4.3c0.6-3.6,1.7-6.9,4.1-9.8
			c0.4-0.5,0.7-1.1,1.4-0.9c0.8,0.2,0.5,1,0.5,1.5C96.6,84.8,96.6,86.7,96.6,88.7z"/>
		<path d="M100.9,88.6c0-2,0-4,0-6c0-0.4-0.1-1,0.4-1.2c0.6-0.3,1,0.2,1.3,0.6c3.2,3.8,4.2,8.3,4.7,13c0.1,0.8-0.4,1.3-1.2,1.3
			c-1.3,0-2.5,0-3.8,0c-1.2,0-1.4-0.9-1.4-1.9C100.9,92.5,100.9,90.5,100.9,88.6z"/>
		<path d="M96.6,108.3c0,2,0,4,0,6c0,0.4,0.1,1-0.4,1.2c-0.6,0.3-1-0.2-1.3-0.6c-3.2-3.8-4.2-8.3-4.7-13c-0.1-0.8,0.4-1.3,1.2-1.3
			c1.3,0,2.5,0,3.8,0c1.2,0,1.4,0.9,1.4,1.9C96.6,104.5,96.6,106.4,96.6,108.3z"/>
		<path d="M104.1,100.6c3.4,0,3.4,0,2.9,3.4c-0.6,3.8-1.6,7.4-4.1,10.5c-0.4,0.5-0.8,1.3-1.5,1c-0.8-0.3-0.5-1.2-0.5-1.8
			c0-3.3,0-6.6,0-9.9C100.9,100.6,100.9,100.6,104.1,100.6z"/>
		<path d="M108.8,113.7c1.3-3.9,2.1-7.8,2.8-11.8c0.2-1.3,2.7-1.9,4.6-1.3c1.6,0.5,0.9,1.6,0.6,2.6
			C115.6,107.8,113,111.3,108.8,113.7z"/>
		<path d="M89.1,114c-2.6-0.9-3.8-2.6-5.1-4.1c-1.8-2.1-2.8-4.5-3.5-7.1c-0.4-1.4,0-2.1,1.6-2.1c3.4-0.2,3.7-0.1,4.1,3.2
			C86.5,107.2,87.5,110.4,89.1,114z"/>
		<path d="M108.9,83.3c4.5,2.6,7,6.6,8.2,11.5c0.1,0.4,0.2,1-0.3,1.2c-1.3,0.7-2.8,0.4-4.2,0.3c-1.1-0.1-1-1.1-1.1-1.9
			C111.1,90.6,110.2,86.9,108.9,83.3z"/>
		<path d="M89,83.2c-1.9,4-2.4,8.1-3.3,12.1c-0.4,2-2.8,1-4.3,0.9c-1.5-0.1-1-1.4-0.7-2.3c1.1-3.9,3.2-7.2,6.3-9.9
			c0.3-0.3,0.7-0.5,1.1-0.8C88.2,83.3,88.4,83.3,89,83.2z"/>
	</g>
</g>
</svg>
