<?xml version="1.0" encoding="utf-8"?>
<!-- Generator: Adobe Illustrator 27.8.0, SVG Export Plug-In . SVG Version: 6.00 Build 0)  -->
<svg version="1.1" id="Layer_1" xmlns="http://www.w3.org/2000/svg" xmlns:xlink="http://www.w3.org/1999/xlink" x="0px" y="0px"
	 viewBox="0 0 80 80" style="enable-background:new 0 0 80 80;" xml:space="preserve">
<style type="text/css">
	.st0{fill:url(#SVGID_1_);}
	.st1{fill:url(#SVGID_00000027569436377793837500000007474881840137001125_);}
	.st2{fill:url(#SVGID_00000044885896042651756250000013861145599300718479_);}
	.st3{fill:url(#SVGID_00000083791896111481128650000002672375453411788434_);}
	.st4{fill:url(#SVGID_00000036950056024351850690000011105608682961204877_);}
	.st5{fill:url(#SVGID_00000053536990246423577750000015301083435498759079_);}
	.st6{fill:url(#SVGID_00000183212709148613677870000012556144640686876046_);}
	.st7{fill:url(#SVGID_00000120545408974975332360000015184598425564211856_);}
	.st8{fill:url(#SVGID_00000152984165151508770450000015163060563455131777_);}
	.st9{fill:url(#SVGID_00000083790712160920869570000006482030548216552085_);}
	.st10{fill:url(#SVGID_00000180357751323068543760000013435049229262906262_);}
	.st11{fill:url(#SVGID_00000023248507810814059660000004120680160869489829_);}
</style>
<g id="vrXtt6.tif">
	<g>
		<linearGradient id="SVGID_1_" gradientUnits="userSpaceOnUse" x1="14.7182" y1="12.7085" x2="66.5462" y2="68.5514">
			<stop  offset="0" style="stop-color:#a801bd"/>
			<stop  offset="1" style="stop-color:#453E1B"/>
		</linearGradient>
		<path class="st0" d="M65.1,40.2c-2.4,0-4.8,0-7.2,0c-1.9,0-2.5-0.6-2.8-2.4c-1.1-6.9-6.9-12.3-13.4-12.9
			c-9.2-0.8-14.9,5.5-16.4,11C23,44.4,28.3,53.2,37,55c3,0.6,3.3,1,3.3,4c0,4.2,0,8.4,0,12.6c0,2.6-0.9,3.4-3.6,3.2
			C20.6,73.4,7.4,60.5,5.4,44.5C3.1,25.1,16.2,7.9,35.8,5.4C54.2,3,71.5,15.7,74.5,34.5c0.2,0.9,0.3,1.9,0.3,2.9
			c0.1,2.3-0.5,2.8-2.7,2.8C69.8,40.2,67.5,40.2,65.1,40.2z"/>
		
			<linearGradient id="SVGID_00000127757825960790829860000017643584138396724379_" gradientUnits="userSpaceOnUse" x1="23.1709" y1="4.8636" x2="74.9989" y2="60.7064">
			<stop  offset="0" style="stop-color:#a801bd"/>
			<stop  offset="1" style="stop-color:#453E1B"/>
		</linearGradient>
		<path style="fill:url(#SVGID_00000127757825960790829860000017643584138396724379_);" d="M57.8,44.3c4.6,0.2,9,0.4,13.4,0.6
			c2.5,0.1,3.2,1.1,2.6,3.6c-1.1,4.6-3.1,8.7-5.9,12.4c-1.3,1.8-2.6,2-4.2,0.4c-3.4-3.4-6.8-6.8-10.2-10.2c-1.1-1.1-1.2-2.2-0.4-3.4
			c0.2-0.3,0.3-0.5,0.4-0.8C54.3,44.7,55.7,43.8,57.8,44.3z"/>
		
			<linearGradient id="SVGID_00000097461433060199109730000016042260567498261149_" gradientUnits="userSpaceOnUse" x1="9.8207" y1="17.254" x2="61.6487" y2="73.0968">
			<stop  offset="0" style="stop-color:#a801bd"/>
			<stop  offset="1" style="stop-color:#453E1B"/>
		</linearGradient>
		<path style="fill:url(#SVGID_00000097461433060199109730000016042260567498261149_);" d="M53.4,72.2c-1.1-0.1-1.8-0.7-2.1-1.6
			c-1.6-4.8-3.1-9.6-4.6-14.5c-0.4-1.3,0-2.3,1.2-2.9c1.1-0.6,2.1-0.5,3,0.4c3.6,3.5,7.1,7.1,10.6,10.7c1.1,1.1,1.2,2.3,0.1,3.2
			c-2.3,2-4.8,3.5-7.6,4.7C53.9,72.1,53.6,72.1,53.4,72.2z"/>
	</g>
</g>
</svg>
