<?xml version="1.0" encoding="UTF-8"?>
<svg id="Layer_1" data-name="Layer 1" xmlns="http://www.w3.org/2000/svg" viewBox="0 0 80 80">
  <defs>
    <style>
      .cls-1 {
        fill: #a801bd;
        stroke-width: 0px;
      }
    </style>
  </defs>
  <g id="b10Qff.tif">
    <g>
      <path class="cls-1" d="M1.65,34.84c0-6.63,0-13.25,0-19.88,0-1.84.06-3.67.45-5.47.76-3.48,2.89-5.47,6.42-6,1.6-.24,3.21-.34,4.83-.34,7.15,0,14.3.03,21.44-.01,2.46-.01,4.56.76,6.34,2.44,1.9,1.78,3.73,3.63,5.52,5.52.84.88,1.22,2.13,2.05,2.94.82.81,2.07,1.2,2.94,2.05,2.07,1.99,4.17,3.96,6.04,6.15,1.29,1.52,1.92,3.3,1.92,5.29,0,13.01,0,26.02-.02,39.02,0,1.83-.19,3.66-.83,5.41-1.02,2.76-3.16,4.09-5.94,4.56-1.57.27-3.15.36-4.74.36-8.08,0-16.16,0-24.24,0-1.78,0-3.56-.07-5.31-.45-3.5-.76-5.47-2.89-6-6.42-.14-.92-.26-1.84-.3-2.77-.02-.65-.21-.89-.9-.93-1.14-.06-2.29-.15-3.42-.41-3.4-.78-5.4-2.95-5.91-6.42-.25-1.71-.34-3.43-.34-5.16,0-6.49,0-12.98,0-19.47ZM17.53,45.18c0,5.86-.02,11.72.01,17.57.01,2.02.04,4.05.3,6.06.22,1.74.64,2.15,2.35,2.38,1.96.26,3.93.28,5.9.29,6.6.05,13.19.04,19.79,0,1.91-.01,3.83-.05,5.73-.3,1.67-.22,2.06-.64,2.31-2.33.27-1.85.27-3.72.28-5.57.06-10.07.02-20.15.04-30.22,0-.67-.19-.91-.88-.9-3.09.03-6.19.01-9.28.01-1.98,0-2.99-1-3-2.97,0-3.01,0-6.02,0-9.03,0-1.14,0-1.14-1.1-1.14-4.68,0-9.36-.04-14.04.02-1.94.02-3.88.04-5.81.3-1.62.22-2.06.65-2.27,2.27-.26,2.04-.3,4.09-.31,6.14-.03,5.8,0,11.61,0,17.41ZM7.02,34.74c0,.58,0,1.15,0,1.73.05,6.82-.2,13.64.18,20.45.2,3.55.36,3.53,3.71,3.89,1.24.14,1.25.07,1.25-1.22,0-11.42,0-22.84,0-34.26,0-1.59.1-3.17.33-4.74.54-3.59,2.51-5.71,6.03-6.49,1.26-.28,2.54-.39,3.83-.41,2.41-.04,4.82-.05,7.23-.02.73,0,1.04-.16.99-.96-.07-1.06-.06-2.14,0-3.2.05-.8-.23-1.02-1.02-1.02-4.71.03-9.42-.02-14.13.03-1.91.02-3.83.04-5.74.29-1.73.23-2.15.63-2.37,2.36-.26,2.04-.29,4.1-.3,6.15-.03,5.81-.01,11.61-.01,17.42ZM50.28,26.8c.93,0,1.86,0,2.79,0,.29,0,.68.15.84-.12.18-.32-.16-.59-.33-.86-.09-.14-.2-.26-.31-.38-1.63-1.84-3.4-3.55-5.18-5.24-.28-.26-.59-.49-.9-.71-.45-.31-.73-.32-.73.37.02,2.08.02,4.15,0,6.23,0,.53.18.73.72.72,1.04-.03,2.08,0,3.11,0ZM41.57,13.65c-1.68-1.67-3.12-3.3-4.84-4.63-.09-.07-.19-.11-.28-.16-.34-.17-.51-.08-.51.32,0,1.31,0,2.62,0,3.93,0,.37.16.55.54.55,1.63,0,3.25,0,5.09,0Z"/>
      <path class="cls-1" d="M35.87,39.95c3.53,0,7.06-.01,10.59,0,1.38,0,2.44.97,2.61,2.27.18,1.4-.58,2.62-1.87,2.99-.31.09-.65.11-.97.11-6.89,0-13.79.01-20.68,0-1.75,0-2.87-1.07-2.87-2.68,0-1.62,1.12-2.69,2.85-2.7,3.45,0,6.89,0,10.34,0Z"/>
      <path class="cls-1" d="M35.85,55.84c-3.5,0-7,.02-10.5,0-1.93-.02-3.16-1.8-2.53-3.59.37-1.06,1.27-1.77,2.42-1.77,7.08-.01,14.17-.02,21.25,0,1.53,0,2.6,1.18,2.59,2.7-.01,1.51-1.09,2.64-2.64,2.65-3.53.02-7.06,0-10.58,0Z"/>
      <path class="cls-1" d="M35.86,66.36c-3.5,0-7,.02-10.5,0-1.54,0-2.63-1.07-2.68-2.53-.06-1.64,1.05-2.83,2.71-2.83,6.97-.01,13.95,0,20.92,0,1.63,0,2.74,1.08,2.77,2.62.02,1.6-1.06,2.74-2.71,2.75-3.5.02-7,0-10.5,0Z"/>
    </g>
  </g>
</svg>