<?xml version="1.0" encoding="UTF-8"?>
<svg id="Layer_1" data-name="Layer 1" xmlns="http://www.w3.org/2000/svg" viewBox="0 0 197.19 197.19">
  <defs>
    <style>
      .cls-1 {
        fill: #fff;
      }

      .cls-1, .cls-2 {
        stroke-width: 0px;
      }

      .cls-2 {
        fill: #b00bc5;
      }
    </style>
  </defs>
  <circle class="cls-2" cx="98.6" cy="98.6" r="98.6"/>
  <g id="QyC2Jb.tif">
    <g>
      <path class="cls-1" d="M98.55,155.63c-15.71,0-31.43,0-47.14,0-7.3,0-13.02-4.71-14.38-11.83-.15-.77-.17-1.57-.17-2.36,0-19.07-.03-38.15,0-57.22.01-7.93,6.29-14.18,14.26-14.18,31.72-.02,63.45-.02,95.17,0,7.76,0,14.09,6.3,14.11,14.03.03,19.17.03,38.34,0,57.52-.01,7.75-6.33,14.02-14.11,14.03-15.91.03-31.82,0-47.73.01ZM93.78,103.37c0-2.69,1.93-4.76,4.55-4.87,2.76-.11,4.86,1.71,5.14,4.44.05.54.12,1.08.27,1.6.58,2.1,2.81,3.65,4.81,3.36,2.42-.35,4.31-2.46,4.16-4.81-.37-5.62-2.96-9.85-8.06-12.38-.87-.43-1.34-.87-1.47-1.93-.29-2.5-2.29-4.28-4.53-4.29-2.24-.02-4.27,1.75-4.56,4.24-.13,1.12-.65,1.58-1.57,2.02-7.03,3.41-9.95,11.78-6.51,18.73,2.63,5.32,7.14,7.66,12.9,7.99,2.77.16,4.62,2.26,4.55,5.01-.06,2.57-2.06,4.58-4.62,4.66-2.75.08-4.8-1.75-5.07-4.52-.05-.49-.12-.98-.24-1.46-.58-2.19-2.84-3.76-4.9-3.43-2.38.38-4.23,2.42-4.09,4.71.33,5.62,2.9,9.87,7.99,12.42.92.46,1.42.92,1.55,2.03.29,2.46,2.37,4.26,4.58,4.23,2.2-.03,4.18-1.75,4.48-4.16.15-1.16.67-1.65,1.65-2.13,7.94-3.87,10.34-13.99,5.02-21.05-2.85-3.79-6.8-5.37-11.42-5.64-2.73-.16-4.62-2.17-4.62-4.81ZM127.03,108.23c-2.38,0-4.52,2.14-4.55,4.57-.03,2.4,2.26,4.68,4.65,4.64,2.36-.04,4.54-2.22,4.57-4.58.02-2.4-2.22-4.63-4.66-4.63ZM74.73,112.94c.1-2.35-1.97-4.57-4.39-4.72-2.36-.15-4.69,2.03-4.8,4.48-.1,2.32,1.98,4.54,4.41,4.7,2.42.15,4.67-1.95,4.77-4.45Z"/>
      <path class="cls-1" d="M98.55,65.49c-14.08,0-28.17,0-42.25,0-3.39,0-5.47-2.19-5.21-5.4.18-2.21,2.01-4.07,4.23-4.27.34-.03.69-.02,1.04-.02,28.17,0,56.33,0,84.5,0,3.05,0,5.14,1.77,5.3,4.43.18,3.02-1.86,5.24-4.91,5.25-8.5.03-17,.01-25.5.01-5.73,0-11.46,0-17.2,0Z"/>
      <path class="cls-1" d="M98.59,51.26c-10.97,0-21.94,0-32.91,0-3.51,0-5.81-2.84-4.99-6.1.56-2.24,2.4-3.59,4.98-3.59,8.99-.01,17.98,0,26.98,0,12.99,0,25.99,0,38.98,0,2.93,0,4.99,1.95,5.05,4.69.06,2.92-1.98,4.99-5.03,5-8.55.02-17.1,0-25.64,0-2.47,0-4.94,0-7.41,0Z"/>
    </g>
  </g>
</svg>