<?xml version="1.0" encoding="UTF-8"?>
<svg id="Layer_1" data-name="Layer 1" xmlns="http://www.w3.org/2000/svg" viewBox="0 0 197.19 197.19">
  <defs>
    <style>
      .cls-1 {
        fill: #fff;
      }

      .cls-1, .cls-2 {
        stroke-width: 0px;
      }

      .cls-2 {
        fill: #a801bd;
      }
    </style>
  </defs>
  <circle class="cls-2" cx="98.6" cy="98.6" r="98.6"/>
  <g id="EGWdOB">
    <path class="cls-1" d="M99.27,145.43c-12.3.06-24.61-.08-36.89-.82-5.08-.31-10.2-.5-15.16-1.71-6.64-1.61-10.92-5.84-12.65-12.46-1.51-5.8-1.83-11.77-2.21-17.72-.68-10.64-.54-21.28.26-31.91.34-4.58.79-9.16,1.87-13.64,1.75-7.28,7.5-12.31,14.96-13.27,12.81-1.65,25.69-1.76,38.57-2.04,14.21-.31,28.42,0,42.62.62,6.61.29,13.26.52,19.76,1.94,6.91,1.51,11.29,5.82,12.96,12.7,1.94,7.98,2.21,16.14,2.52,24.29.38,10.08-.04,20.13-1.05,30.16-.31,3.09-.79,6.16-1.55,9.17-1.75,6.91-7.25,11.68-14.62,12.66-12.1,1.62-24.28,1.78-36.45,2.02-4.31.08-8.62.01-12.92.01ZM85.62,118.73c11.65-6.69,23.15-13.31,34.84-20.03-11.7-6.75-23.2-13.39-34.84-20.11v40.14Z"/>
  </g>
</svg>