<?xml version="1.0" encoding="UTF-8"?>
<svg id="Layer_1" data-name="Layer 1" xmlns="http://www.w3.org/2000/svg" viewBox="0 0 197.19 197.19">
  <defs>
    <style>
      .cls-1 {
        fill: #fff;
      }

      .cls-1, .cls-2 {
        stroke-width: 0px;
      }

      .cls-2 {
        fill: #a801bd;
      }
    </style>
  </defs>
  <circle class="cls-2" cx="98.6" cy="98.6" r="98.6"/>
  <g id="OI2Q5T">
    <g>
      <path class="cls-1" d="M98.44,165.81c-10.8.25-21.53-.63-32.24-1.92-1.33-.16-2.68-.2-3.97-.6-3.16-.97-4.57-3.35-4.11-6.58,1.3-9.1,2.58-18.21,3.8-27.33.55-4.08,2.94-6.4,6.44-6.05,1.66.17,3.31.36,4.96.56,14.57,1.77,29.15,2.14,43.77.71,3.82-.37,7.63-.81,11.45-1.26,3.2-.37,5.79,1.49,6.24,4.69,1.37,9.89,2.74,19.77,4.32,29.63.45,2.78-1.94,5.43-5.25,5.86-8.31,1.08-16.64,1.91-25.01,2.25-3.46.14-6.94.02-10.4.02ZM86.75,159.23c.05,3.02,2.75,4.58,5.49,3.29,1.88-.89,3.72-1.87,5.52-2.91,1.06-.61,1.94-.52,2.98.05,1.82,1,3.66,1.99,5.57,2.8,3.09,1.3,5.56-.61,5.12-3.93-.27-2.06-.71-4.09-1.09-6.14-.2-1.06-.07-1.94.82-2.73,1.55-1.39,3.04-2.85,4.44-4.38,2.29-2.49,1.28-5.58-2.04-6.22-2.22-.43-4.47-.72-6.71-.99-.9-.11-1.39-.56-1.77-1.33-.93-1.91-1.92-3.79-2.84-5.71-.68-1.41-1.69-2.3-3.31-2.32-1.62-.02-2.68.85-3.36,2.24-.93,1.91-1.87,3.82-2.78,5.74-.38.82-.92,1.3-1.86,1.42-2.01.26-4.01.63-6.03.92-1.67.24-3.02.87-3.58,2.6-.59,1.81.3,3.13,1.51,4.31,1.36,1.32,2.72,2.64,4.13,3.91.76.69,1.05,1.42.87,2.45-.42,2.36-.74,4.74-1.08,6.94Z"/>
      <path class="cls-1" d="M98.7,85.9c7.46,0,14.91,0,22.37,0,11.32,0,20.72,8.39,21.97,19.63.09.82-.19.98-.92,1.12-6.4,1.26-12.88,2-19.36,2.68-5.2.54-8.17,3.84-8.03,9.06,0,.28.02.56.04.83.15,2.67.15,2.69-2.58,2.88-9.67.68-19.33.65-28.99-.17-.84-.07-.95-.38-.86-1.11.2-1.7.35-3.42-.03-5.11-.83-3.71-3.36-5.94-7.11-6.35-6.62-.73-13.23-1.48-19.79-2.71-1.12-.21-1.25-.55-1.09-1.59,1.42-8.84,6.2-14.94,14.63-18.09,2.23-.83,4.58-1.08,6.95-1.08,7.59,0,15.19,0,22.78,0Z"/>
      <path class="cls-1" d="M74.09,55.88c-.05-13.38,10.89-24.47,24.21-24.54,13.66-.08,24.75,10.83,24.79,24.4.05,13.62-10.91,24.66-24.5,24.69-13.5.03-24.45-10.95-24.5-24.56Z"/>
      <path class="cls-1" d="M117.76,118.64c-.25-4.03,1.41-5.87,5.41-6.29,9.05-.96,18.07-2.16,26.93-4.31,3.76-.91,6.46,1.1,7.07,3.76.36,1.59-.25,2.93-.91,4.23-1.57,3.09-3.23,6.13-4.85,9.19-1.07,2.02-.59,4.62,1.22,6.01,3,2.31,6.04,4.56,9.1,6.79,1.64,1.2,2.82,2.64,2.4,4.77-.44,2.21-1.82,3.76-4.03,4.31-5.97,1.49-12.01,2.59-18.08,3.59-.88.15-1.11-.18-1.22-.99-.97-7.14-2-14.27-2.98-21.4-.77-5.6-4.79-8.52-10.4-7.66-2.78.43-5.6.62-8.4.94-.89.1-1.3-.23-1.27-1.14.03-.6,0-1.2,0-1.8Z"/>
      <path class="cls-1" d="M79.55,118.77c-.05,2.84-.05,2.86-2.81,2.59-2.44-.24-4.87-.51-7.3-.81-5.59-.71-9.61,2.56-10.29,8.13-.75,6.19-1.7,12.36-2.61,18.53-.17,1.17.28,2.72-.7,3.4-.89.61-2.22-.19-3.35-.36-4.98-.75-9.92-1.74-14.81-2.95-1.73-.43-3.1-1.37-3.95-3.01-1.19-2.31-.84-4.18,1.24-5.75,3.16-2.4,6.37-4.75,9.55-7.14,2.11-1.58,2.66-4.09,1.34-6.4-1.9-3.33-3.65-6.74-5.29-10.21-.83-1.76-.73-3.47.46-4.96,1.26-1.57,3.01-2.35,5.04-1.95,6.03,1.19,12.04,2.47,18.14,3.27,3.39.44,6.79.83,10.19,1.22,3.64.42,5.16,2.08,5.17,5.72,0,.23,0,.46,0,.69Z"/>
    </g>
  </g>
</svg>