<?xml version="1.0" encoding="UTF-8"?>
<svg id="Layer_1" data-name="Layer 1" xmlns="http://www.w3.org/2000/svg" viewBox="0 0 197.19 197.19">
  <defs>
    <style>
      .cls-1 {
        fill: #fff;
      }

      .cls-1, .cls-2 {
        stroke-width: 0px;
      }

      .cls-2 {
        fill: #a801bd;
      }
    </style>
  </defs>
  <circle class="cls-2" cx="98.6" cy="98.6" r="98.6"/>
  <g>
    <path class="cls-1" d="M101.78,40.89c-.08.37-.4.37-.67.45-16.08,4.99-25.62,16.04-29.65,32.14-.78,3.11-1.04,6.3-1.04,9.51.01,22.45,0,44.9,0,67.35,0,.7.35,1.68-.29,2.05-.75.44-1.37-.46-1.98-.86-14.32-9.38-28.62-18.77-42.92-28.17-2.35-1.54-2.62-2.7-1.15-5.05,12.49-19.98,24.91-40,37.51-59.91,6.56-10.35,16.03-16.52,28.23-18.3,3.76-.55,7.54-.41,11.27.41.26.06.6-.01.7.37Z"/>
    <g>
      <path class="cls-1" d="M116.8,115.35c-2.02-1.17-4.16-2.15-6.21-3.27-1.51-.82-2.05-2.28-1.47-3.76.31-.77,1.43-1.57,2.28-1.71,1.75-.29,2.34,1.07,2.75,2.55.13.49.72,1.18,1.15,1.22,1.58.15,3.19.06,4.75.06.5-3.17-.67-6.15-3.5-7.38-2.38-1.03-4.02-2.08-3.18-5.05h-2.91c-.07,1.24-.14,2.37-.21,3.54-.93.3-1.83.54-2.7.87-2.71,1.04-4.48,2.9-4.79,5.88-.32,3.05.57,5.59,3.33,7.19,1.5.87,3.1,1.57,4.65,2.37.77.4,1.83.65,2.21,1.3.59,1,1.03,2.32.91,3.43-.07.64-1.27,1.45-2.09,1.67-1.4.38-2.68-.22-3.33-1.61-.33-.7-.41-1.52-.6-2.3h-5.95c-.08,3.93,1.33,6.59,4.7,7.76,2.33.81,4.27,1.44,3.4,4.48h3.03v-3.35c.82-.24,1.54-.42,2.23-.65,3.33-1.1,5.04-3.61,5.05-7.12,0-2.76-1.18-4.79-3.5-6.13Z"/>
      <path class="cls-1" d="M147.28,82.52c-.02-6.37-1.73-12.34-4.58-18.01-.47-.93-.85-1.14-1.65-.28-1.42,1.53-3.05,2.84-4.65,4.18-6.82,5.7-14.69,8.22-23.52,7.94-4.29-.14-8.23-3.28-9.23-7.38-1.07-4.4.77-8.77,4.61-10.97,3.88-2.22,8.78-1.61,11.89,1.65.86.89,1.47.9,2.48.39,3.46-1.77,6.35-4.25,8.99-7.06.73-.77.47-1.19-.27-1.7-2.16-1.48-4.38-2.88-6.83-3.84-.93-.36-1.01-.71-.23-1.36,2.31-1.93,4.72-3.73,7.45-5.03,2.07-.98,4.2-1.79,6.54-1.75,2.53.04,3.84,1.56,3.51,4.08-.18,1.35-.5,2.66-1.03,3.92-2.17,5.18-5.72,9.31-9.98,12.85-3.35,2.78-7,5.05-11.38,5.87-1.63.31-3.14.21-4.54-.87-1.34-1.04-2.8-.83-3.73.36-.91,1.17-.73,2.63.5,3.76,1.21,1.11,2.65,1.74,4.27,2.02,3.08.54,6.01-.14,8.79-1.32,8.32-3.53,14.62-9.38,19.19-17.12,1.97-3.34,3.27-6.91,3.11-10.89-.16-4-2.82-7.06-6.75-7.8-2.78-.52-5.41.05-7.98.96-5.31,1.89-9.74,5.15-13.66,9.13-.6.61-1.13,1.01-2.13.84-7.74-1.3-15.13-.07-21.88,3.88-12.73,7.45-19.28,18.9-19.51,33.44-.38,23.8-.11,47.61-.11,71.41,0,2.57,1,3.53,3.68,3.53,21.62,0,43.25,0,64.87,0,2.87,0,3.76-.9,3.76-3.72,0-12.07,0-24.14,0-36.22,0-11.64.03-23.27-.01-34.91ZM111.1,138.74c-12.82,0-23.38-10.44-23.44-23.19-.07-13.07,10.33-23.51,23.42-23.55,12.96-.03,23.47,10.41,23.46,23.32,0,12.87-10.55,23.41-23.44,23.41Z"/>
    </g>
  </g>
</svg>