<?xml version="1.0" encoding="UTF-8"?>
<svg id="Layer_1" data-name="Layer 1" xmlns="http://www.w3.org/2000/svg" viewBox="0 0 197.19 197.19">
  <defs>
    <style>
      .cls-1 {
        fill: #fff;
      }

      .cls-1, .cls-2 {
        stroke-width: 0px;
      }

      .cls-2 {
        fill: #b00bc5;
      }
    </style>
  </defs>
  <circle class="cls-2" cx="98.6" cy="98.6" r="98.6"/>
  <g id="yEBGZq">
    <g>
      <path class="cls-1" d="M110.63,124.11c-2.71,2.68-5.32,5.22-8.47,7.08-8.92,5.24-18.36,5.9-27.95,2.43-6.24-2.26-10.25-7.04-12.08-13.42-2.56-8.95-1.88-17.59,3.44-25.46,4.19-6.19,10.36-9.59,17.42-11.55,6.47-1.79,13.12-2.45,19.76-3.21,1.57-.18,3.71.31,4.56-.78.76-.98.24-2.97.25-4.52,0-1.36-.04-2.71-.26-4.05-.74-4.66-3.33-7.43-7.96-8.48-6-1.36-12.3,1.51-14.53,6.66-.38.88-.58,1.84-.85,2.77-.61,2.08-1.56,2.8-3.69,2.59-4.63-.46-9.25-.95-13.87-1.47-2.18-.24-3.12-1.69-2.63-3.93,2.18-9.94,7.97-16.94,17.49-20.47,11.84-4.4,23.8-4.67,35.5.55,7.76,3.46,11.93,9.72,12.9,18.15.48,4.15.37,8.32.37,12.48,0,8.43.01,16.86,0,25.29-.01,4.3,1.12,8.22,3.64,11.72.85,1.18,1.71,2.35,2.5,3.57,1.15,1.79.92,2.93-.69,4.27-3.75,3.14-7.48,6.3-11.23,9.45-2.26,1.9-3.4,1.85-5.69-.08-3.18-2.69-5.62-5.99-7.93-9.59ZM107.73,98.31c0-1.69-.03-3.39.01-5.08.02-.76-.21-1.03-.99-.97-1.69.13-3.39.14-5.07.3-2.41.22-4.78.68-7.1,1.43-10.17,3.27-11.54,11.89-9.81,18.63,1.39,5.42,5.83,8.04,11.32,6.92,4.15-.85,6.87-3.57,8.85-7.14,2.44-4.39,2.79-9.2,2.79-14.08Z"/>
      <path class="cls-1" d="M99.22,160.22c-19.59-.2-36.5-5.81-51.4-17.31-1.3-1.01-2.56-2.07-3.81-3.14-.61-.52-1.49-1.13-.89-2.03.64-.96,1.49-.25,2.17.14,6.16,3.52,12.61,6.37,19.35,8.57,12.73,4.17,25.8,6.11,39.18,5.56,12.88-.53,25.3-3.33,37.23-8.24.31-.13.62-.3.95-.36.92-.18,1.78-.07,2.24.87.45.92-.05,1.61-.74,2.13-2,1.53-4.14,2.86-6.35,4.06-10.38,5.62-21.51,8.61-33.24,9.49-1.83.14-3.67.21-4.69.26Z"/>
      <path class="cls-1" d="M142.39,139.48c-2.47.05-4.93.31-7.38.6-.55.06-1.26.29-1.52-.43-.24-.68.39-1.06.86-1.36,3.97-2.59,8.42-3.32,13.05-3.18,1.54.05,3.09.18,4.59.63,1.9.57,2.33.96,2.28,2.96-.13,4.66-1.56,8.93-4.09,12.84-.85,1.31-1.86,2.48-3.03,3.51-.45.4-.97.79-1.56.44-.7-.42-.26-1.05-.06-1.55,1.19-3.02,2.36-6.04,3.08-9.22.91-4,.14-5.05-3.9-5.23-.77-.03-1.55,0-2.32,0Z"/>
    </g>
  </g>
</svg>