<?xml version="1.0" encoding="UTF-8"?>
<svg id="Layer_1" data-name="Layer 1" xmlns="http://www.w3.org/2000/svg" viewBox="0 0 197.19 197.19">
  <defs>
    <style>
      .cls-1 {
        fill: #fff;
      }

      .cls-1, .cls-2 {
        stroke-width: 0px;
      }

      .cls-2 {
        fill: #a801bd;
      }
    </style>
  </defs>
  <circle class="cls-2" cx="98.6" cy="98.6" r="98.6"/>
  <g id="YPoHW8.tif">
    <g>
      <path class="cls-1" d="M98.65,121.5c-20.77,0-41.54,0-62.32,0q-2.1,0-2.11-2.05c0-2.74.04-5.47-.02-8.21-.03-1.27.43-1.66,1.71-1.66,11.22.04,22.44.03,33.66.02q1.83,0,1.83-1.84c0-17.39,0-34.78,0-52.16q0-2.18,2.21-2.19c16.83,0,33.66,0,50.49,0,1.99,0,2,0,2,1.99,0,17.43,0,34.87,0,52.3q0,1.9,1.91,1.9c11.13,0,22.26,0,33.38,0,1.84,0,1.88.03,1.88,1.85.01,2.64,0,5.29,0,7.93q0,2.1-2.06,2.11c-20.87,0-41.73,0-62.6,0ZM101.58,82.06s.01,0,.02,0c0,3.75-.04,7.51.01,11.26.03,2.28,1,3.21,3.26,3.23,2.09.03,4.17.08,6.26-.01,3.77-.17,6.71-1.83,8.33-5.3,2.69-5.77,2.67-11.68.36-17.54-1.45-3.67-4.31-5.59-8.3-5.66-2.18-.04-4.36-.03-6.53-.02-2.76,0-3.4.66-3.4,3.48-.01,3.52,0,7.04,0,10.57ZM97.58,94.2c.07-.58-.11-1.3-.35-2-2.29-6.9-4.58-13.79-6.88-20.68-.32-.97-.66-1.93-1.26-2.77-1.22-1.68-3.33-1.7-4.56-.03-.64.87-.99,1.88-1.32,2.89-2.1,6.47-4.2,12.94-6.28,19.42-.34,1.05-.64,2.13-.81,3.23-.18,1.16.65,2.4,1.62,2.6,1.26.27,1.92-.44,2.29-1.51.51-1.49,1.01-2.98,1.44-4.49.26-.89.72-1.28,1.68-1.26,2.41.05,4.82.06,7.22,0,1.03-.03,1.5.4,1.77,1.34.42,1.47.89,2.92,1.43,4.35.4,1.07,1.11,1.89,2.42,1.54,1.22-.32,1.62-1.27,1.59-2.63Z"/>
      <path class="cls-1" d="M98.76,29.24c11.77,0,23.55,0,35.32,0,6.1,0,10.07,3.99,10.08,10.12,0,20.07,0,40.15,0,60.22q0,2.16-2.14,2.16c-1.76,0-3.52,0-5.28,0-2.16,0-2.17,0-2.17-2.12,0-15.44,0-30.87,0-46.31,0-1.16,0-2.32,0-3.48,0-3.64-1.21-4.87-4.8-4.87-15.67,0-31.34,0-47.01,0-5.01,0-10.01,0-15.02,0-3.52,0-4.79,1.26-4.79,4.74,0,16.64,0,33.28,0,49.93q0,2.1-2.04,2.1c-1.95,0-3.9-.07-5.84.02-1.37.07-1.74-.47-1.73-1.78.04-10.62.02-21.23.02-31.85,0-9.55,0-19.1,0-28.65,0-6.34,3.9-10.25,10.22-10.25,11.73,0,23.46,0,35.18,0Z"/>
      <path class="cls-1" d="M98.76,167.95c-11.77,0-23.55,0-35.32,0-6.1,0-10.07-3.99-10.08-10.12-.01-8.85,0-17.71,0-26.56,0-1.87.02-1.88,1.84-1.88,2.09,0,4.17.05,6.26-.02,1.17-.04,1.52.42,1.51,1.55-.04,4.13-.03,8.25-.02,12.38,0,2.92,1.32,4.28,4.24,4.28,21.05.01,42.09.01,63.14,0,2.93,0,4.23-1.35,4.24-4.27.01-4.08.04-8.16-.02-12.24-.02-1.24.34-1.75,1.65-1.69,2.18.09,4.36.05,6.54.01.99-.02,1.44.3,1.43,1.35-.02,9.32.07,18.64-.05,27.95-.07,5.39-4.22,9.27-9.62,9.28-11.91.02-23.83,0-35.74,0ZM98.82,154.57c-2.36,0-4.72-.02-7.09,0-2.05.02-3.43,1.33-3.46,3.19-.02,1.82,1.39,3.29,3.39,3.31,4.72.05,9.45.05,14.17,0,2.01-.02,3.42-1.49,3.39-3.31-.03-1.87-1.4-3.16-3.47-3.19-2.32-.03-4.63,0-6.95-.01Z"/>
      <path class="cls-1" d="M45.71,92.82c-.04,3.12-2.6,5.6-5.74,5.57-3.16-.03-5.72-2.67-5.66-5.83.06-3.11,2.66-5.7,5.71-5.67,3.25.02,5.74,2.62,5.7,5.93Z"/>
      <path class="cls-1" d="M163.21,92.59c.02,3.18-2.53,5.77-5.7,5.8-3.13.02-5.67-2.47-5.71-5.6-.04-3.3,2.5-5.91,5.72-5.91,3.05,0,5.66,2.63,5.68,5.7Z"/>
      <path class="cls-1" d="M45.71,74.81c-.02,3.11-2.57,5.68-5.65,5.69-3.13,0-5.77-2.64-5.75-5.77.02-3.19,2.58-5.73,5.76-5.71,3.2.01,5.66,2.54,5.64,5.79Z"/>
      <path class="cls-1" d="M151.81,74.68c.01-3.21,2.55-5.7,5.77-5.66,3.16.04,5.69,2.66,5.63,5.84-.05,3.07-2.69,5.66-5.74,5.64-3.15-.02-5.67-2.62-5.66-5.82Z"/>
      <path class="cls-1" d="M45.71,56.73c.03,3.25-2.42,5.75-5.64,5.78-3.18.03-5.73-2.5-5.76-5.7-.03-3.14,2.59-5.76,5.75-5.74,3.1.01,5.63,2.55,5.65,5.66Z"/>
      <path class="cls-1" d="M151.81,56.84c0-3.2,2.55-5.78,5.69-5.77,3.19.02,5.69,2.57,5.68,5.78-.01,3.14-2.51,5.65-5.63,5.66-3.24,0-5.74-2.46-5.74-5.68Z"/>
      <path class="cls-1" d="M105.95,82.19c0-2.78.03-5.56-.02-8.34-.02-1.13.37-1.61,1.53-1.53,1.57.11,3.15-.14,4.7.26,1.74.44,2.99,1.46,3.63,3.14,1.61,4.2,1.48,8.44.06,12.65-.84,2.51-2.68,3.81-5.36,3.85-1.07.01-2.13-.02-3.2.03-1.03.04-1.38-.44-1.37-1.43.03-2.87.01-5.75.01-8.62Z"/>
      <path class="cls-1" d="M86.98,73.79c.79,2.6,1.58,5.19,2.36,7.79.29.97.58,1.95.86,2.93.2.69-.04,1.06-.8,1.06-1.76-.01-3.52,0-5.28-.01-.49,0-1.01-.12-.82-.79,1.05-3.68,2.12-7.35,3.18-11.02.17.01.33.03.5.04Z"/>
    </g>
  </g>
</svg>