<?xml version="1.0" encoding="UTF-8"?>
<svg id="Layer_1" data-name="Layer 1" xmlns="http://www.w3.org/2000/svg" viewBox="0 0 197.19 197.19">
  <defs>
    <style>
      .cls-1 {
        fill: #fff;
      }

      .cls-1, .cls-2 {
        stroke-width: 0px;
      }

      .cls-2 {
        fill: #a801bd;
      }
    </style>
  </defs>
  <circle class="cls-2" cx="98.6" cy="98.6" r="98.6"/>
  <g>
    <g id="j2p46T">
      <path class="cls-1" d="M95.19,137.33c5.47-1.17,9.93-3.35,13.69-6.79,8.66-7.92,11.79-17.71,9.55-29.24-.09-.49.25-1.36.66-1.6,14.96-8.9,23.3-22.16,25.92-39.21.04-.27.12-.54.19-.86,14.57,15.18,23.18,48.59,3.18,76.33-21.53,29.86-58.19,31-79.09,19.2,7.26-12.59,14.53-25.17,21.95-38.03-3.97-.2-7.73-.39-11.63-.59.14-3.47.29-6.89.44-10.6-12.84,7.41-25.41,14.66-37.98,21.91-10.18-17.32-12.01-51.11,13.34-74.37,24.43-22.4,60.48-20.66,82.39-1.55-.82.15-1.45.28-2.08.38-12.11,2.05-22.75,6.99-31.08,16.2-2.53,2.8-4.63,6-6.78,9.13-.69,1.01-1.19,1.33-2.44,1.07-15.36-3.3-30.63,5.85-35.02,20.92-.19.64-.32,1.29-.45,1.85,2.79-1.22,5.42-2.67,8.22-3.51,6.72-2.02,13.2-1.12,19.36,2.23,1.03.56,1.32,1.17,1.03,2.34-.6,2.45-1.03,4.95-1.57,7.64,2.64-.53,5.12-.96,7.56-1.55,1.2-.29,1.87-.05,2.46,1.09,4.68,9.01,4.32,17.79-1.03,26.39-.17.28-.36.55-.8,1.21Z"/>
    </g>
    <circle class="cls-1" cx="124.88" cy="72.31" r="7.46"/>
  </g>
</svg>