<?xml version="1.0" encoding="UTF-8"?>
<svg id="Layer_1" data-name="Layer 1" xmlns="http://www.w3.org/2000/svg" viewBox="0 0 197.19 197.19">
  <defs>
    <style>
      .cls-1 {
        fill: #fff;
      }

      .cls-1, .cls-2 {
        stroke-width: 0px;
      }

      .cls-2 {
        fill: #a801bd;
      }
    </style>
  </defs>
  <circle class="cls-2" cx="98.6" cy="98.6" r="98.6"/>
  <g id="CK8QJA">
    <g>
      <path class="cls-1" d="M125.48,43.96c4.49-2.23,9.16-3.44,14.17-3.4,19.39.16,33.14,20.88,25.61,38.75-2.23,5.28-6.44,8.08-12.17,8.2-6.56.14-13.13.06-19.7-.01-.61,0-1.49-.48-1.79-1-1.46-2.55-2.77-5.19-4.25-8.03h10.72v-10.53h-67.02v10.42h10.89c-1.54,3-2.94,5.79-4.41,8.54-.18.34-.8.63-1.21.63-7.5,0-15.04.35-22.5-.19-8.51-.61-13.41-8.3-11.55-17.11,2.27-10.76,11.42-17.67,22.38-16.74,1.83.16,2.59-.38,3.31-2.03,9.78-22.34,39.85-27.13,56.16-8.98.43.48.87.95,1.36,1.49Z"/>
      <path class="cls-1" d="M85.02,148.68c4.2.46,8.39,1.26,12.59,1.32,7.71.11,15.44-.05,23.13-.48,2.48-.14,5.01-1.22,7.29-2.33,1.93-.94,2.84-2.91,2.29-5.14-.6-2.41-1.43-4.73-4.35-5.32-1.46-.29-2.89-.69-4.33-1.04-.05-.22-.1-.43-.14-.65,3.54-1.45,7.06-2.97,10.64-4.31,2.42-.91,4.91-1.61,7.57-.63.55.2,1.35-.31,2.04-.48,4.37-1.1,8.71-2.31,13.12-3.25,1.79-.38,3.57.25,4.09,2.3.51,2.06-.96,2.97-2.49,4.02-4.44,3.05-9.09,5.94-13.03,9.56-7.87,7.23-16.66,12.75-26.6,16.59-2.52.97-4.85,2.51-7.19,3.92-5.4,3.25-11.05,4.08-16.95,1.7-7.01-2.83-13.96-5.8-20.92-8.75-9.49-4.02-19.27-4.5-29.25-2.39-1.83.39-3.63.93-5.46,1.34-3.95.9-6.16-.77-6.3-4.8-.15-4.4-.27-8.8-.3-13.2-.03-4.21,3-7.31,7.12-7.82,8.08-1,16.13-2.13,24.2-3.23,7.52-1.02,15.05-1.92,22.48.44,2.89.92,5.43,2.26,7.13,5.14,1.35,2.29,4.1,2.87,6.61,3.19,3.99.51,8.01.96,12.02,1.05,5.37.12,10.31,1.91,15.33,3.4,1.8.53,2.83,2.16,2.6,3.82-.16,1.16-1.36,2.4-2.42,3.14-1.01.7-2.42,1.05-3.68,1.11-10.58.53-21.17.97-31.76,1.39-1.64.06-3.29-.17-4.94-.27-.04.21-.08.42-.13.63Z"/>
      <path class="cls-1" d="M104.63,71.61c13.94-.03,25.24,11.2,25.23,25.08,0,13.84-11.35,25.17-25.21,25.18-13.79,0-25.14-11.22-25.21-24.94-.07-14.05,11.11-25.29,25.19-25.32ZM103.74,81.87c-1,.32-1.97.58-2.91.94-2.91,1.12-4.81,3.11-5.16,6.33-.35,3.28.61,6.02,3.58,7.73,1.62.93,3.34,1.69,5,2.54.83.43,1.97.7,2.37,1.4.63,1.08,1.11,2.49.98,3.69-.07.69-1.36,1.56-2.25,1.8-1.51.41-2.88-.24-3.58-1.73-.35-.75-.44-1.63-.65-2.47h-6.4c-.08,4.23,1.43,7.09,5.05,8.35,2.51.87,4.6,1.55,3.66,4.81h3.26v-3.61c.88-.26,1.65-.45,2.4-.7,3.59-1.18,5.42-3.88,5.43-7.66.01-2.97-1.27-5.15-3.76-6.59-2.18-1.26-4.47-2.31-6.68-3.51-1.63-.88-2.21-2.45-1.58-4.04.33-.83,1.53-1.69,2.46-1.84,1.88-.31,2.52,1.15,2.95,2.74.14.53.78,1.27,1.24,1.31,1.7.16,3.43.06,5.11.06.54-3.41-.73-6.62-3.77-7.94-2.56-1.11-4.33-2.24-3.42-5.43h-3.13c-.08,1.34-.15,2.55-.22,3.8Z"/>
    </g>
  </g>
</svg>