<?xml version="1.0" encoding="UTF-8"?>
<svg id="Layer_1" data-name="Layer 1" xmlns="http://www.w3.org/2000/svg" viewBox="0 0 80 80">
  <defs>
    <style>
      .cls-1 {
        fill: #000;
        stroke-width: 0px;
      }

      .cls-2 {
        fill: none;
        stroke: #000;
        stroke-miterlimit: 10;
        stroke-width: 6px;
      }
    </style>
  </defs>
  <g id="GVSkmR.tif">
    <g>
      <path class="cls-2" d="M65.45,74.98H14.6c-.28-.09-.56-.18-.83-.28-2.52-.91-4.19-3.21-4.19-5.85,0-12.55,0-20.13,0-32.68,0-1.67.62-3.08,1.76-4.28,1.41-1.48,3.19-1.97,5.17-1.97,20.45,0,26.82,0,47.27,0,.61,0,1.22.06,1.81.2,2.63.65,4.16,2.38,4.85,4.94v34.95c-.7,2.61-2.36,4.27-4.97,4.97Z"/>
      <path class="cls-1" d="M41.58,23.85c-9.31,0-13.21,0-22.51,0-2.2,0-3.69-1.9-3.16-3.99.36-1.45,1.63-2.39,3.28-2.39,4.26-.01,8.53,0,12.79,0,14.23,0,14.39,0,28.62,0,.99,0,1.89.18,2.63.87.97.89,1.3,2.26.83,3.48-.48,1.25-1.58,2.05-2.92,2.05-4.85.01-1.04,0-5.89,0-4.56,0-9.11,0-13.67,0Z"/>
      <path class="cls-1" d="M41.65,5.02c7.29,0,5.91,0,13.19,0,1.35,0,2.34.65,2.89,1.87.56,1.22.35,2.39-.51,3.41-.69.82-1.62,1.11-2.67,1.11-4.12,0,.43,0-3.69,0-10.21,0-15,0-25.21,0-1.16,0-2.18-.29-2.91-1.23-.8-1.03-.97-2.18-.39-3.36.56-1.14,1.49-1.79,2.79-1.8,2.27-.01,4.53,0,6.8,0,5.04,0,4.67,0,9.72,0Z"/>
    </g>
  </g>
</svg>