<?xml version="1.0" encoding="UTF-8"?>
<svg id="Layer_1" data-name="Layer 1" xmlns="http://www.w3.org/2000/svg" viewBox="0 0 80 80">
  <defs>
    <style>
      .cls-1 {
        fill: #b00bc5;
        stroke-width: 0px;
      }
    </style>
  </defs>
  <path class="cls-1" d="M40,53.27c0-8.39-3.96-13.04-13.74-16.08l-4.94-1.62c-6.41-2.07-9.03-4.7-9.03-9.12,0-5.71,4.25-9.64,10.37-9.64,5.41,0,9.22,2.97,10.42,7.96.31,1.27,1.52,2.17,2.92,2.17,1.85,0,3.29-1.54,2.97-3.23-1.32-7.07-6.34-12.1-13.18-13.22,0-.61,0-1.23,0-2.33,0-1.3-.66-2.23-1.8-2.79-1.18-.58-2.33-.41-3.36.39-.94.73-1.23,1.75-1.23,2.91v1.88c-7.93,1.41-13.23,7.69-13.23,16.23,0,7.94,3.86,12.68,12.57,15.44l6.05,1.94c6.35,2.03,9.13,5.06,9.13,10.01,0,5.75-4.65,9.93-11.03,9.93-5.96,0-10.44-3.27-11.78-8.39-.32-1.24-1.53-2.1-2.9-2.1h0c-1.87,0-3.31,1.58-2.96,3.29,1.52,7.49,6.78,12.51,14.16,13.56,0,.38,0,.83,0,1.41,0,1.3.66,2.23,1.8,2.79,1.18.58,2.33.41,3.36-.39.94-.73,1.23-1.75,1.23-2.91v-.94c8.82-1.29,14.21-7.62,14.21-17.12Z"/>
</svg>