<?xml version="1.0" encoding="UTF-8"?>
<svg id="Layer_1" data-name="Layer 1" xmlns="http://www.w3.org/2000/svg" viewBox="0 0 80 80">
  <defs>
    <style>
      .cls-1 {
        fill: #b00bc5;
        stroke-width: 0px;
      }
    </style>
  </defs>
  <g id="MNebnU.tif">
    <path class="cls-1" d="M75.35,2.73c1.82.93,2.39,2.34,1.67,4.12-6.29,15.63-12.58,31.25-18.86,46.88-2.86,7.1-5.71,14.2-8.57,21.29-.71,1.77-2.04,2.55-3.58,2.15-1-.27-1.59-.96-2.04-1.87-3.57-7.36-7.15-14.71-10.73-22.06-.08-.17-.19-.32-.24-.5-.91-2.99-3.03-4.6-5.83-5.89-7.57-3.48-15.01-7.24-22.5-10.87-.87-.42-1.56-.97-1.86-1.93-.46-1.52.27-2.94,1.93-3.61,4.15-1.68,8.3-3.33,12.45-5,18.4-7.4,36.81-14.81,55.21-22.22.37-.15.73-.33,1.1-.49.62,0,1.23,0,1.85,0ZM66.35,17.88s-.09-.04-.13-.07c-.09.08-.19.16-.27.24-9.54,9.54-19.07,19.08-28.63,28.61-.5.5-.48.87-.2,1.44,2.84,5.79,5.66,11.59,8.49,17.39.25.51.51,1.03.89,1.79,6.68-16.63,13.27-33.02,19.85-49.4ZM12.7,33.46c.52.27.8.43,1.1.58,5.99,2.91,11.99,5.81,17.96,8.75.72.35,1.11.25,1.65-.29,9.39-9.42,18.79-18.82,28.2-28.21.19-.19.47-.29.71-.43-.08-.09-.16-.19-.24-.28-16.38,6.59-32.75,13.18-49.39,19.88Z"/>
  </g>
</svg>