<?xml version="1.0" encoding="UTF-8"?>
<svg id="Layer_1" data-name="Layer 1" xmlns="http://www.w3.org/2000/svg" viewBox="0 0 197.19 197.19">
  <defs>
    <style>
      .cls-1 {
        fill: #fff;
      }

      .cls-1, .cls-2, .cls-3 {
        stroke-width: 0px;
      }

      .cls-2 {
        fill: #110e04;
      }

      .cls-3 {
        fill: #a801bd;
      }
    </style>
  </defs>
  <circle class="cls-3" cx="98.6" cy="98.6" r="98.6"/>
  <g id="LxMRvJ.tif">
    <g>
      <path class="cls-1" d="M92.09,36.06h1.97c.16.29.44.37.74.38,2.21.13,4,1.17,5.51,2.7.48.49.94.69,1.62.67,2.85-.07,5.31.95,7.43,2.82,2.45,2.16,3.95,4.94,4.98,7.99.31.91.67,1.03,1.53.75,1.35-.44,2.67-1.14,4.17-.89,0,.36-.02.72-.02,1.08,0,35.86,0,71.72,0,107.58-.23-.02-.46-.02-.68-.06-13.55-2.34-27.1-4.69-40.65-7.03-11.13-1.92-22.26-3.84-33.4-5.75-.65-.11-1-.23-.89-1.09,1.83-13.8,3.61-27.6,5.4-41.41,1.32-10.2,2.67-20.39,3.96-30.6.24-1.88,1.04-3.02,2.92-3.56,3.84-1.1,7.62-2.39,11.46-3.5,1-.29,1.35-.79,1.56-1.77,1.71-8.14,5.11-15.47,10.75-21.64,2.97-3.25,6.46-5.74,11.01-6.34.21-.03.55,0,.65-.34ZM94.13,74.46c-1.99.07-3.92.18-5.83.53-7.17,1.32-13.07,4.6-16.81,11.08-2.72,4.72-3.52,9.83-2.55,15.18.74,4.09,3.15,7.12,6.38,9.58,1.9,1.45,3.95,2.69,5.71,4.33.87.81,1.63,1.72,2.09,2.82.77,1.86.85,3.71-.4,5.41-1.24,1.7-3.04,2.07-4.99,1.86-3.69-.4-6.86-2.1-9.86-4.14-.74-.5-.92-.35-1.1.45-.65,2.94-1.31,5.88-2.07,8.8-.24.91-.01,1.44.68,2,4.91,3.95,10.55,5.67,16.8,5.54,3.76-.08,7.19-1.14,10.31-3.31,8.02-5.57,10.58-21.69.56-29.63-2.37-1.88-4.92-3.47-7.42-5.14-1.09-.73-2.16-1.49-3.03-2.48-1.65-1.89-1.6-4.68.1-6.52,1.07-1.16,2.42-1.77,3.93-2.07,3.64-.71,7.17-.22,10.62,1.03.6.22.85.18,1.03-.49,1.11-4.24,2.25-8.48,3.42-12.71.18-.66-.02-.94-.64-1.13-2.27-.73-4.62-.91-6.92-.98ZM96.33,41.12c-1.22-.74-2.45-.96-3.75-.84-3.09.26-5.61,1.75-7.78,3.83-5.61,5.36-8.89,12.06-10.9,19.45-.23.84.19.71.69.55,2.81-.87,5.62-1.76,8.44-2.59.72-.21,1.03-.55,1.21-1.29,1.88-7.65,5.05-14.52,12.08-19.1ZM101.01,53.81c-.13-2.82-.48-5.61-1.45-8.28-.45-1.24-.46-1.24-1.63-.56-.91.53-1.74,1.16-2.49,1.91-3.41,3.4-5.37,7.61-6.77,12.14-.27.89.24.66.7.52,3.25-1,6.5-2.01,9.75-3.01q1.98-.61,1.88-2.71ZM103.3,43.97c1.19,3.36,1.58,6.73,1.74,10.12.03.62.39.48.74.37,1.47-.45,2.93-.92,4.41-1.37.45-.14.66-.32.48-.84-.86-2.43-1.96-4.72-3.9-6.5-.94-.87-2-1.53-3.47-1.79Z"/>
      <path class="cls-2" d="M120,159.14c0-35.86,0-71.72,0-107.58,0-.36.01-.72.02-1.08.63-.04,1.01.37,1.42.76,2.32,2.26,4.65,4.52,6.96,6.79.44.43.88.69,1.54.69,2.62.01,5.23.08,7.85.15,1.19.03,1.5.31,1.67,1.46.61,4.11,1.2,8.22,1.82,12.32,1.08,7.27,2.18,14.55,3.25,21.82,1.28,8.67,2.55,17.34,3.83,26,1.18,7.96,2.35,15.92,3.55,23.87.28,1.86.4,3.74.92,5.55v1.18c-8.65,2.15-17.31,4.32-25.97,6.45-2.28.56-4.53,1.24-6.86,1.6Z"/>
    </g>
  </g>
</svg>