<?xml version="1.0" encoding="utf-8"?>
<!-- Generator: Adobe Illustrator 27.8.0, SVG Export Plug-In . SVG Version: 6.00 Build 0)  -->
<svg version="1.1" id="Layer_1" xmlns="http://www.w3.org/2000/svg" xmlns:xlink="http://www.w3.org/1999/xlink" x="0px" y="0px"
	 viewBox="0 0 80 80" style="enable-background:new 0 0 80 80;" xml:space="preserve">
<style type="text/css">
	.st0{fill:url(#SVGID_1_);}
	.st1{fill:url(#SVGID_00000111899156559554331220000001304579209315195031_);}
	.st2{fill:url(#SVGID_00000061436221245771297720000014200662055128992686_);}
	.st3{fill:url(#SVGID_00000101061560030038802460000015708291010181208733_);}
	.st4{fill:url(#SVGID_00000166664960661374741180000002173258315607037824_);}
	.st5{fill:url(#SVGID_00000102511115896789797190000007321073266774589333_);}
	.st6{fill:url(#SVGID_00000171689728607176515650000006550279353672462999_);}
	.st7{fill:url(#SVGID_00000165223166131806176000000009053369980894975115_);}
	.st8{fill:url(#SVGID_00000085221467408703835780000013194983631399518614_);}
	.st9{fill:url(#SVGID_00000127755319404082197960000016292376048460568230_);}
	.st10{fill:url(#SVGID_00000111891748010252151240000000379942687053635226_);}
	.st11{fill:url(#SVGID_00000072992527178085714590000008592043925174838417_);}
	.st12{fill:url(#SVGID_00000116209015428880821650000014373738084693502093_);}
	.st13{fill:url(#SVGID_00000177449005868700351320000012721498400498433448_);}
	.st14{fill:url(#SVGID_00000137124103422259673590000006977810079136706469_);}
	.st15{fill:url(#SVGID_00000052809372735710311670000000570095563372586429_);}
	.st16{fill:url(#SVGID_00000173131306155418174880000013508643391554724508_);}
	.st17{fill:url(#SVGID_00000138534079402329577260000008037470394121255610_);}
	.st18{fill:url(#SVGID_00000116219338227846169080000004807344111426612371_);}
	.st19{fill:url(#SVGID_00000177449276711658740290000008363187238494312838_);}
	.st20{fill:url(#SVGID_00000092438737342309940400000009172193681680800666_);}
	.st21{fill:url(#SVGID_00000088115951608114151360000017988561718107051448_);}
	.st22{fill:url(#SVGID_00000055698289859912499910000006862132805831901351_);}
	.st23{fill:url(#SVGID_00000060030723761462335000000005493404378225003396_);}
	.st24{fill:url(#SVGID_00000058573643126114444850000002416363796429658553_);}
	.st25{fill:url(#SVGID_00000042737631664974639200000007459601396745997710_);}
	.st26{fill:url(#SVGID_00000055668468316134255030000009027438933580939675_);}
	.st27{fill:url(#SVGID_00000095338832991023069090000013920638986280640920_);}
	.st28{fill:url(#SVGID_00000055695329931384379990000012168120759298634137_);}
	.st29{fill:url(#SVGID_00000170259604029916145520000011370523116920862897_);}
	.st30{fill:url(#SVGID_00000001639282088764082250000011092453394290125966_);}
	.st31{fill:url(#SVGID_00000081645268463822356860000015029728735391904652_);}
	.st32{fill:url(#SVGID_00000013169735020038154360000004520648448646937009_);}
	.st33{fill:url(#SVGID_00000058553910595778446580000010536239214807365811_);}
	.st34{fill:url(#SVGID_00000109730944692238773100000000510899474531691405_);}
	.st35{fill:url(#SVGID_00000056420493982094893870000012816764253212581769_);}
	.st36{fill:url(#SVGID_00000124849863570632820500000000870936314471814307_);}
	.st37{fill:url(#SVGID_00000045617187380380250260000016558235040554109060_);}
	.st38{fill:url(#SVGID_00000136398339472812462290000000159186498624974782_);}
	.st39{fill:url(#SVGID_00000132784014050624786310000012004165675481084837_);}
	.st40{fill:url(#SVGID_00000121961230004509949040000018209328161517774247_);}
	.st41{fill:url(#SVGID_00000087407032630356644620000000612606532238420883_);}
	.st42{fill:url(#SVGID_00000044178794565473179250000018163546064849246114_);}
	.st43{fill:url(#SVGID_00000108292459500812919100000012101023447046198680_);}
	.st44{fill:url(#SVGID_00000061459856297462519890000011865373411725659801_);}
	.st45{fill:url(#SVGID_00000081621049751330304060000016996806631844517520_);}
</style>
<g id="ZqkK43.tif_00000183235802267319475330000009495989064022401690_">
	<g>
		<linearGradient id="SVGID_1_" gradientUnits="userSpaceOnUse" x1="13.4018" y1="12.0732" x2="70.6768" y2="74.8221">
			<stop  offset="0" style="stop-color:#a801bd"/>
			<stop  offset="1" style="stop-color:#453E1B"/>
		</linearGradient>
		<path class="st0" d="M28.5,7.5c2.2,0.8,3.5,2.3,3.6,4.7c0,1,0.9,0.8,1.7,0.8c2,0.2,4,0.3,6,0c1.8-0.2,2.3,0.2,2,2.1
			c-0.2,1.4-0.2,2.8,0,4.1c0.1,1.1,0.1,1.7-0.9,2.1c-3,1.1-4.6,3.4-4.6,6.1c0,2.8,1.6,5,4.6,6.2c0.8,0.3,1.1,0.7,0.9,1.8
			c-0.3,1.6-0.3,3.2,0,4.8c0.3,1.5-0.3,1.8-1.6,1.7c-1.6-0.2-3.3-0.2-5,0c-0.9,0.1-1.3-0.2-1.6-1c-1.2-3.1-3.1-4.6-6.1-4.6
			c-3,0-5.1,1.5-6.2,4.4c-0.3,0.9-0.9,1.1-1.9,1c-1.6-0.2-3.2-0.1-4.8,0c-1.1,0.1-1.5-0.2-1.5-1.2c0-2.5,0-4.9,0-7.4
			c0-0.5-0.1-1-0.8-1.1c-2.4-0.1-3.9-1.4-4.7-3.6c0-0.8,0-1.5,0-2.3c0.8-2,2.2-3.3,4.4-3.5c1-0.1,1.2-0.5,1.2-1.4c0-2.3,0-4.6,0-7
			c0-0.8,0.6-1.4,1.4-1.4c2.4,0.1,4.7,0,7.1,0c0.6,0,1.2-0.1,1.2-0.9c0.2-2.3,1.4-3.8,3.5-4.6C27,7.5,27.8,7.5,28.5,7.5z"/>
		
			<linearGradient id="SVGID_00000119114111951893992450000006295980645138097599_" gradientUnits="userSpaceOnUse" x1="-1.8668" y1="26.0099" x2="55.4082" y2="88.7587">
			<stop  offset="0" style="stop-color:#a801bd"/>
			<stop  offset="1" style="stop-color:#453E1B"/>
		</linearGradient>
		<path style="fill:url(#SVGID_00000119114111951893992450000006295980645138097599_);" d="M7.5,56.7c0.9-2,2.4-3.3,4.8-3.4
			c0.7,0,0.7-0.6,0.7-1.1c0-2.4,0-4.7,0-7.1c0-1.1,0.3-1.5,1.4-1.5c2.3,0.1,4.6,0,6.8,0c0.9,0,1.3-0.1,1.5-1.2
			c0.3-2.7,2.2-4.4,4.7-4.4c2.5,0,4.4,1.7,4.7,4.4c0.1,1,0.5,1.2,1.3,1.2c2.3,0,4.7,0,7,0c1,0,1.5,0.3,1.4,1.4c-0.1,1.9,0,3.7,0,5.6
			c0,0.7-0.3,1-0.9,1.3c-3,1.2-4.6,3.3-4.7,6.1c0,2.8,1.7,5,4.7,6.2c0.6,0.2,0.9,0.6,0.9,1.2c0,2,0,4,0,6c0,0.7-0.3,1.1-1.1,1.1
			c-2,0-4,0-6,0c-0.9,0-1.1-0.6-1.3-1.2c-1.3-3.3-4.5-5-7.9-4c-2.1,0.6-3.6,2-4.3,4.1c-0.3,0.9-0.7,1.2-1.6,1.2
			c-1.8-0.1-3.6-0.1-5.3,0c-1.1,0-1.4-0.4-1.4-1.4c0-2.4,0-4.7,0-7.1c0-0.6,0-1.1-0.8-1.2c-2.3-0.1-3.7-1.4-4.7-3.3
			C7.5,58.6,7.5,57.6,7.5,56.7z"/>
		
			<linearGradient id="SVGID_00000159454176660947596260000014337271852981736612_" gradientUnits="userSpaceOnUse" x1="30.1283" y1="-3.1941" x2="87.4033" y2="59.5547">
			<stop  offset="0" style="stop-color:#a801bd"/>
			<stop  offset="1" style="stop-color:#453E1B"/>
		</linearGradient>
		<path style="fill:url(#SVGID_00000159454176660947596260000014337271852981736612_);" d="M59.2,7.5c2.2,0.8,3.4,2.3,3.6,4.6
			C62.9,13,63.4,13,64,13c2.4,0,4.7,0,7.1,0c1,0,1.4,0.4,1.4,1.4c-0.1,1.8,0,3.6,0,5.4c0,0.8-0.3,1.2-1,1.5c-2.8,1-4.5,3.3-4.5,6.1
			c0,2.8,1.7,5.2,4.4,6.1c0.8,0.3,1.2,0.6,1.1,1.5c-0.1,1.9,0,3.7,0,5.6c0,0.9-0.3,1.2-1.2,1.2c-1.9,0-3.9,0-5.8,0
			c-0.7,0-1-0.3-1.3-1c-1-2.9-3.4-4.6-6.2-4.6c-2.7,0-5.1,1.8-6.1,4.5c-0.3,0.7-0.6,1.1-1.5,1.1c-1.9,0-3.7-0.1-5.6,0
			c-1,0-1.3-0.4-1.2-1.3c0-2.4,0-4.7,0-7.1c0-0.9-0.2-1.3-1.2-1.4c-2.6-0.3-4.4-2.1-4.4-4.5c-0.1-2.6,1.5-4.5,4.2-4.8
			c1.1-0.1,1.4-0.6,1.4-1.6c-0.1-2.3,0-4.6,0-6.8c0-1,0.3-1.4,1.3-1.3c2.3,0,4.6,0,7,0c0.9,0,1.4-0.1,1.5-1.2
			c0.1-2.2,1.5-3.6,3.6-4.3C57.7,7.5,58.5,7.5,59.2,7.5z"/>
		
			<linearGradient id="SVGID_00000037669369049770672070000017709103764038614455_" gradientUnits="userSpaceOnUse" x1="14.8572" y1="10.7448" x2="72.1322" y2="73.4936">
			<stop  offset="0" style="stop-color:#a801bd"/>
			<stop  offset="1" style="stop-color:#453E1B"/>
		</linearGradient>
		<path style="fill:url(#SVGID_00000037669369049770672070000017709103764038614455_);" d="M48.5,43.7c1.2,0,2.5,0,3.7,0
			c0.8,0,1.1-0.2,1.2-1.1c0.3-2.7,2-4.4,4.4-4.5c2.6-0.1,4.5,1.4,4.9,4.1c0.2,1.2,0.7,1.5,1.8,1.4c2.2-0.1,4.4,0,6.6,0
			c1,0,1.5,0.3,1.4,1.3c-0.1,1.8,0,3.6,0,5.4c0,0.8-0.3,1.2-1,1.5c-2.9,1.1-4.6,3.3-4.5,6.2c0,2.8,1.7,5,4.7,6.1
			c0.6,0.2,0.9,0.5,0.9,1.2c0,2,0,4.1,0,6.1c0,0.7-0.3,1-1,1c-2,0-4.1,0-6.1,0c-0.7,0-0.9-0.3-1.2-0.9c-1.1-3-3.3-4.7-6.2-4.7
			c-2.8,0-5,1.7-6.1,4.7c-0.3,0.7-0.7,0.9-1.4,0.9c-1.8,0-3.6,0-5.4,0c-1,0-1.4-0.3-1.3-1.3c0-2.2,0-4.5,0-6.7c0-1-0.2-1.6-1.4-1.8
			c-2.7-0.4-4.2-2.2-4.2-4.7c0-2.5,1.6-4.2,4.3-4.6c0.9-0.1,1.1-0.5,1.2-1.3c0-2.3,0.1-4.6,0.1-7c0-1.1,0.3-1.5,1.4-1.5
			C46.2,43.7,47.4,43.7,48.5,43.7C48.5,43.7,48.5,43.7,48.5,43.7z"/>
	</g>
</g>
</svg>
