<?xml version="1.0" encoding="utf-8"?>
<!-- Generator: Adobe Illustrator 27.8.0, SVG Export Plug-In . SVG Version: 6.00 Build 0)  -->
<svg version="1.1" id="Layer_1" xmlns="http://www.w3.org/2000/svg" xmlns:xlink="http://www.w3.org/1999/xlink" x="0px" y="0px"
	 viewBox="0 0 80 80" style="enable-background:new 0 0 80 80;" xml:space="preserve">
<style type="text/css">
	.st0{fill:url(#SVGID_1_);}
	.st1{fill:url(#SVGID_00000182492723221258131010000011080532863317204400_);}
	.st2{fill:url(#SVGID_00000147908922768731940570000009494831392299185594_);}
	.st3{fill:url(#SVGID_00000177476084798763202670000018149587615350945413_);}
	.st4{fill:url(#SVGID_00000157292863138125832630000003629181043694649278_);}
	.st5{fill:url(#SVGID_00000024707139978185965620000018202639517632942746_);}
	.st6{fill:url(#SVGID_00000013886352473871035500000001699938331935170184_);}
	.st7{fill:url(#SVGID_00000144336339523457679050000016904086261608429467_);}
	.st8{fill:url(#SVGID_00000079480082577224125090000008124640938320219825_);}
	.st9{fill:url(#SVGID_00000103985102100976255750000005268727851006743465_);}
	.st10{fill:url(#SVGID_00000136391583244170532710000002743773515999829419_);}
	.st11{fill:url(#SVGID_00000071535496877144756810000008967363360126894467_);}
</style>
<g id="c36qia.tif">
	<g>
		<linearGradient id="SVGID_1_" gradientUnits="userSpaceOnUse" x1="15.1423" y1="10.755" x2="70.2552" y2="57.8382">
			<stop  offset="0" style="stop-color:#a801bd"/>
			<stop  offset="1" style="stop-color:#453E1B"/>
		</linearGradient>
		<path class="st0" d="M76.4,16.8c-1.3,4.3-4.1,7-8.7,7.6c-1.3,0.2-2.6-0.1-3.9-0.5c-0.8-0.3-1.4-0.2-2,0.4
			c-2.2,2.2-4.5,4.3-6.8,6.4c-0.6,0.5-0.8,1-0.5,1.7c0.5,1.6,0.6,3.2,0.4,4.9c-0.1,0.7,0.1,1.1,0.7,1.5c1.5,0.9,2.9,1.8,4.3,2.7
			c0.6,0.4,1.1,0.4,1.8,0.1c6.2-3.4,13.2,0.1,14.4,7c0.8,4.9-3,10-8.3,10.8c-5,0.8-10.2-3.1-10.8-8.1c0,0,0-0.1,0-0.1
			c0.6-2.6-1-4-3.1-4.9c-0.1,0-0.2-0.1-0.2-0.1c-1.6-1.4-3-1.7-4.9-0.2c-1.4,1.2-3.4,1.6-5.3,1.6c-0.8,0-1.3,0.3-1.6,1.1
			c-1.1,2.7-2.3,5.5-3.5,8.2c-0.3,0.8-0.2,1.3,0.4,1.8c2.6,2.8,3.5,6,2.3,9.7c-1.2,3.5-3.7,5.7-7.4,6.5c-4.9,1-9.9-2.3-11.1-7.2
			c-1.2-4.9,1.7-10.1,6.5-11.3c1.6-0.4,2.3-1.2,2.9-2.6c1-2.5,2.1-5,3.1-7.4c0.3-0.7,0.4-1.3-0.2-2c-0.7-0.7-1.2-0.8-2.1-0.5
			c-2.7,1-5.5,2-8.3,2.9c-1.2,0.4-1.7,1-2.1,2.2c-1.3,4-5.1,6.7-9.1,6.7c-4.1,0-7.9-2.8-9.2-6.8c-1.3-4.2,0.4-8.8,4.3-11.2
			c3.8-2.2,8.7-1.6,11.7,1.6c0.8,0.9,1.5,1,2.6,0.6c2.4-0.9,4.8-1.7,7.2-2.6c0.2-0.1,0.5-0.1,0.7-0.2c0.9-0.5,1.4-5,0.6-5.6
			c-2.3-1.8-4.7-3.5-7-5.3c-0.7-0.5-1.2-0.3-1.8,0c-5.7,2.2-11.7-1-13-6.9c-0.8-3.8,0.3-7,3.3-9.5c3-2.4,6.5-2.9,10-1.3
			c3.5,1.6,5.4,4.4,5.6,8.3c0,0.2,0.1,0.5,0,0.7c-0.7,2.3,0.6,3.4,2.2,4.5c1.7,1.1,3.2,2.3,4.8,3.6c0.6,0.4,1,0.6,1.8,0.2
			c3.9-2.3,7.8-2.3,11.7-0.2c0.7,0.4,1.1,0.3,1.6-0.2c2.3-2.1,4.5-4.3,6.8-6.4c0.5-0.5,0.5-0.9,0.4-1.5c-1.2-5.9,2.1-10.9,7.9-11.9
			c4.2-0.8,8.7,1.9,10.3,6c0.2,0.4,0.4,0.9,0.5,1.3C76.4,13.9,76.4,15.4,76.4,16.8z M47.7,35.8c0.1-2.7-1.8-4.7-4.5-4.8
			c-2.7-0.1-4.7,1.8-4.8,4.5c-0.1,2.7,1.8,4.7,4.5,4.8C45.6,40.3,47.6,38.4,47.7,35.8z M31.9,62.8c-1.3,0-2.4,1.2-2.4,2.5
			c0,1.3,1.2,2.5,2.6,2.4c1.3-0.1,2.3-1.2,2.3-2.5C34.3,63.9,33.2,62.8,31.9,62.8z M10.9,45.6c0,1.4,0.9,2.5,2.3,2.5
			c1.3,0,2.4-1,2.4-2.4c0-1.4-1-2.5-2.3-2.5C11.9,43.2,10.9,44.2,10.9,45.6z M66.5,47.4c-1.3,0-2.5,1.1-2.4,2.4
			c0,1.3,1.1,2.4,2.5,2.3c1.4,0,2.4-1,2.4-2.4C68.9,48.3,67.9,47.4,66.5,47.4z M66.9,17.2c1.3,0,2.3-1.2,2.3-2.5
			c0-1.4-1-2.4-2.4-2.4c-1.4,0-2.4,1.1-2.3,2.5C64.5,16.1,65.6,17.2,66.9,17.2z M21,16.9c0-1.4-1-2.4-2.4-2.3
			c-1.4,0-2.3,0.9-2.3,2.3c0,1.4,0.9,2.4,2.4,2.4C20.1,19.3,21,18.3,21,16.9z"/>
	</g>
</g>
</svg>
