<?xml version="1.0" encoding="utf-8"?>
<!-- Generator: Adobe Illustrator 27.8.0, SVG Export Plug-In . SVG Version: 6.00 Build 0)  -->
<svg version="1.1" id="Layer_1" xmlns="http://www.w3.org/2000/svg" xmlns:xlink="http://www.w3.org/1999/xlink" x="0px" y="0px"
	 viewBox="0 0 80 80" style="enable-background:new 0 0 80 80;" xml:space="preserve">
<style type="text/css">
	.st0{fill:url(#SVGID_1_);}
	.st1{fill:url(#SVGID_00000137118110958763797810000007000952431724719537_);}
	.st2{fill:url(#SVGID_00000014597517743515058940000000323854948934250166_);}
	.st3{fill:url(#SVGID_00000183240083371005795940000013004146008911023762_);}
	.st4{fill:url(#SVGID_00000020398529322701578740000003569067890492406168_);}
	.st5{fill:url(#SVGID_00000032643523137329684380000015073054091189414034_);}
	.st6{fill:url(#SVGID_00000167393933839687250730000009036092477035005854_);}
	.st7{fill:url(#SVGID_00000120529503880193864170000014432541875287730101_);}
	.st8{fill:url(#SVGID_00000069374351804629496090000015019994071138720942_);}
	.st9{fill:url(#SVGID_00000118395653522291924460000001676107781200767123_);}
	.st10{fill:url(#SVGID_00000065772371363599864550000003890666071662110373_);}
	.st11{fill:url(#SVGID_00000080911420042366073060000005014991926831706035_);}
	.st12{fill:url(#SVGID_00000120520958326024428710000011214842877513655987_);}
	.st13{fill:url(#SVGID_00000124135163550549753950000009246662332547166379_);}
</style>
<g>
	<linearGradient id="SVGID_1_" gradientUnits="userSpaceOnUse" x1="0.6241" y1="14.9366" x2="58.4706" y2="79.3142">
		<stop  offset="0" style="stop-color:#a801bd"/>
		<stop  offset="1" style="stop-color:#453E1B"/>
	</linearGradient>
	<path class="st0" d="M41.7,73.7c-0.5,0-1.1,0-1.6,0c-6.7-1.3-13.4-2.6-20.1-3.9c-5.6-1.1-11.2-2.2-16.7-3.2c0-0.4,0-0.7,0-1.1
		c0.8-5.7,1.5-11.4,2.3-17c1-7.2,1.9-14.4,2.8-21.6c0.2-1.3,0.8-2,2-2.3c1.6-0.4,3.1-1,4.6-1.4c1.1-0.3,1.7-0.9,2.1-2.1
		c1.1-3.9,2.7-7.6,5.4-10.7c2.2-2.5,4.9-4.7,8.3-4c3.3,0.7,6.8,1.7,9.2,4.6c0.7,0.8,1.2,1.9,1.6,2.9c0.2,0.5,0.4,0.9,1.1,0.7
		c1.5-0.6,1.6,0.3,1.5,1.4c-0.2,3.8-0.4,7.5-0.5,11.3c-0.2,5.1-0.4,10.2-0.6,15.4C42.6,53,42.2,63.3,41.7,73.7z M22.5,63.4
		c2.9,0.1,5.5-0.9,7.4-3.4c2.6-3.4,3.7-10.2-1.5-14.3c-1.3-1-2.6-2-3.9-3.1c-1.1-0.9-1.8-2.1-1.3-3.6c0.5-1.5,1.8-2.1,3.3-2.2
		c1.6-0.2,3.2,0.1,4.8,0.7c0.7,0.3,1.1,0.2,1.4-0.6c0.6-1.7,1.2-3.5,1.8-5.2c0.3-0.8,0.1-1.4-0.8-1.6c-5.1-1.1-9.8-0.6-13.7,3.1
		c-4.9,4.6-4.6,11.7,0.5,16c0.8,0.7,1.6,1.3,2.3,2.1c1.2,1.4,1.4,3,0.6,4.2c-0.8,1.2-2.2,1.6-4,1c-1.3-0.4-2.5-1-3.6-1.8
		c-0.8-0.6-1.2-0.6-1.5,0.5c-0.3,1.1-0.6,2.2-1,3.3c-0.3,0.8-0.1,1.4,0.6,1.9C16.2,62.4,19.1,63.4,22.5,63.4z M31.1,9.1
		c-0.4-0.4-0.7-0.2-1.1-0.1c-2.1,0.3-3.7,1.4-5.1,2.9c-2.3,2.5-3.6,5.6-4.7,8.7c-0.3,0.9,0.1,1,0.8,0.7c0.7-0.2,1.4-0.5,2.1-0.6
		c1.2-0.3,1.7-0.9,2-2.1c0.9-3.7,2.5-7,5.8-9.2C31,9.3,31,9.2,31.1,9.1z M34.1,15.7c-0.1-0.7-0.2-1.4-0.3-2.1c0-0.3-0.1-0.6-0.2-0.9
		c-0.3-1.3-0.6-1.4-1.7-0.6c-1.9,1.5-3,3.5-3.8,5.7c-0.1,0.3-0.3,0.6-0.1,0.9c0.3,0.3,0.7,0.1,1,0c1.2-0.4,2.4-0.8,3.6-1.1
		C33.8,17.4,34.2,16.8,34.1,15.7z M36.5,11.1c-0.6,0.1-0.4,0.4-0.3,0.7c0.2,1.1,0.4,2.2,0.4,3.4c0,0.4-0.2,0.9,0.4,1
		c0.7,0.1,1.4-0.3,2.1-0.6c0.4-0.2,0.3-0.6,0.1-0.9c-0.5-1.1-1-2.2-2-3.1C37,11.4,36.7,11.3,36.5,11.1z"/>
	
		<linearGradient id="SVGID_00000030448363180240999540000010091069544285809077_" gradientUnits="userSpaceOnUse" x1="10.0926" y1="6.4287" x2="67.9391" y2="70.8063">
		<stop  offset="0" style="stop-color:#a801bd"/>
		<stop  offset="1" style="stop-color:#453E1B"/>
	</linearGradient>
	<path style="fill:url(#SVGID_00000030448363180240999540000010091069544285809077_);" d="M62.2,65.6c-0.6-0.4-1.1-1-1.5-1.6
		c-0.7,0.7-1.7,1.3-3,1.3c-1.2,0-2.3-0.5-2.9-0.9c-0.5-0.3-1-0.7-1.5-1c-1.5-1-2.2-2.7-1.9-4.5c0-0.2,0.1-0.4,0.1-0.6
		c-0.2,0-0.4,0-0.6-0.1c-1.7-0.3-3-1.4-3.5-3c-0.3-1.1-0.6-2.1-0.7-3.3c-0.1-1.8,0.8-3.4,2.3-4.2c-1.5-1.5-1.7-3.6-0.6-5.5l0.1-0.2
		c0.3-0.5,0.6-1,0.9-1.5c1.2-1.9,2.8-2.3,3.8-2.3c0.5,0,0.9,0.1,1.4,0.2c0-0.2,0-0.3,0.1-0.5c0.1-0.7,0.4-1.4,0.7-2
		c-0.2,0-0.3-0.1-0.5-0.1c-0.4-0.2-0.8-0.3-1.2-0.5l-0.2-0.1c-1.2-0.5-2-1.2-2.5-2.2c-0.2-0.4-0.3-0.8-0.3-1.3
		c-1.5-0.1-2.8-0.9-3.5-2.4c-0.3-0.6-0.5-1.1-0.7-1.7c-0.5-1.4-0.3-2.9,0.6-3.9c-1-1.1-1.3-2.5-0.9-4c0.2-0.6,0.4-1.1,0.6-1.6
		l0.1-0.1c0.2-0.4,0.5-0.8,0.8-1.2c0,0,0,0,0-0.1c-0.6-0.7-1.3-1.3-2-1.9c-0.6-0.6-0.9-0.5-1,0.4c-0.3,2-0.2,4-0.3,6
		c-0.4,9.7-0.9,19.3-1.3,29c-0.2,4.9-0.5,9.8-0.7,14.7c-0.1,2.9-0.2,5.8-0.3,8.7c0.4,0,0.7,0,1.1,0c0.5-0.1,1.1-0.3,1.6-0.4
		c5.5-1.2,11-2.4,16.5-3.6c1-0.2,1.3-0.6,1.1-1.6C62.5,67.3,62.4,66.4,62.2,65.6z"/>
	
		<linearGradient id="SVGID_00000014603082572765266800000014200585969144321711_" gradientUnits="userSpaceOnUse" x1="17.6994" y1="-0.4064" x2="75.5459" y2="63.9712">
		<stop  offset="0" style="stop-color:#a801bd"/>
		<stop  offset="1" style="stop-color:#453E1B"/>
	</linearGradient>
	<path style="fill:url(#SVGID_00000014603082572765266800000014200585969144321711_);" d="M54,59.2c0-0.5,0.4-0.9,0.6-1.4
		c0.4-0.7,0.4-1.3,0-1.9c-0.4-0.6-1.1-0.6-1.8-0.5c-0.5,0.1-0.9,0.3-1.5,0.2c-0.7-0.1-1.2-0.5-1.4-1.2c-0.3-0.9-0.5-1.8-0.6-2.7
		c-0.1-0.9,0.4-1.6,1.3-1.9c0.4-0.1,0.8-0.2,1.2-0.3c0.6-0.2,1-0.7,1-1.3c0-0.6-0.2-1.2-0.8-1.6c-0.3-0.2-0.6-0.4-0.9-0.6
		c-0.9-0.7-1-1.5-0.4-2.5c0.3-0.5,0.6-1,0.9-1.5c0.8-1.2,1.6-1.4,2.8-0.7c0.2,0.1,0.4,0.3,0.6,0.4c0.6,0.3,1.2,0.4,1.8,0
		c0.6-0.5,0.7-1.1,0.6-1.7c-0.1-0.5-0.3-0.9-0.2-1.5c0.1-0.9,0.6-1.5,1.5-1.6c0.6-0.1,1.3-0.3,1.9-0.4c1.3-0.2,2.2,0.4,2.5,1.6
		c0.1,0.3,0.1,0.5,0.2,0.8c0.2,0.6,0.6,1,1.2,1.1c0.6,0.1,1.2-0.1,1.5-0.6c0.3-0.4,0.5-0.8,0.8-1.1c0.7-0.8,1.5-0.9,2.4-0.4
		c0.6,0.3,1.2,0.7,1.7,1.1c0.9,0.6,1.2,1.5,0.7,2.5c-0.2,0.3-0.4,0.6-0.5,1c-0.3,0.6-0.5,1.2,0,1.7c0.5,0.6,1.1,0.8,1.8,0.6
		c1.1-0.3,2.2-0.4,2.8,0.7c0.6,1,0.9,2.2,0.8,3.5c-0.1,0.8-0.6,1.2-1.3,1.4c-0.3,0.1-0.6,0.1-0.9,0.2c-0.7,0.2-1.2,0.6-1.3,1.3
		C73,52.5,73.4,53,74,53.4c0.3,0.2,0.5,0.3,0.8,0.5c0.8,0.7,0.9,1.5,0.4,2.4c-0.3,0.6-0.6,1.1-1,1.7c-0.7,1.1-1.7,1.3-2.9,0.6
		c-0.2-0.1-0.5-0.3-0.7-0.4c-0.6-0.3-1.1-0.3-1.6,0.2c-0.5,0.4-0.7,0.9-0.6,1.6c0.1,0.4,0.2,0.8,0.3,1.2c0.1,1-0.4,1.8-1.4,2
		c-0.7,0.2-1.4,0.3-2.1,0.5c-1.2,0.2-2-0.3-2.4-1.4c0-0.1-0.1-0.3-0.1-0.5c-0.2-0.8-0.5-1.5-1.4-1.6c-0.9-0.1-1.4,0.4-1.8,1.1
		c-1,1.5-1.8,1.7-3.4,0.8c-0.5-0.3-0.9-0.6-1.4-0.9C54.1,60.6,53.9,60,54,59.2z M63.8,44.5c-3-0.5-5.9,1.6-6.4,4.7
		c-0.5,3,1.6,5.9,4.6,6.4c2.9,0.5,6-1.7,6.4-4.6C69,47.8,67,45,63.8,44.5z"/>
	
		<linearGradient id="SVGID_00000139979599899916865050000001716109853140500101_" gradientUnits="userSpaceOnUse" x1="28.4819" y1="-10.095" x2="86.3284" y2="54.2826">
		<stop  offset="0" style="stop-color:#a801bd"/>
		<stop  offset="1" style="stop-color:#453E1B"/>
	</linearGradient>
	<path style="fill:url(#SVGID_00000139979599899916865050000001716109853140500101_);" d="M64,16c-0.1,0.2-0.2,0.6-0.3,0.9
		c-0.2,0.5,0,0.9,0.3,1.2c0.3,0.3,0.8,0.4,1.2,0.2c0.2-0.1,0.3-0.1,0.5-0.2c1.1-0.4,1.8-0.2,2.3,0.9c0.2,0.3,0.3,0.7,0.5,1
		c0.4,0.9,0.1,1.7-0.8,2.1c-0.5,0.2-1,0.3-1.2,0.9c-0.1,0.6,0,1,0.5,1.3c0.3,0.2,0.7,0.3,1,0.5c0.6,0.3,0.8,0.8,0.6,1.4
		c-0.2,0.7-0.4,1.3-0.8,2c-0.3,0.6-1,0.8-1.7,0.5c-0.3-0.1-0.5-0.2-0.8-0.3c-0.9-0.2-1.6,0.6-1.3,1.5c0,0,0,0,0,0.1
		c0.3,0.7,0.7,1.3,0.2,2c-0.6,0.8-1.6,1.1-2.5,1.3c-0.6,0.1-1.1-0.2-1.4-0.8c-0.1-0.2-0.2-0.5-0.3-0.7c-0.2-0.5-0.6-0.7-1.2-0.7
		c-0.5,0-0.8,0.3-1,0.8c-0.1,0.3-0.3,0.6-0.4,0.8c-0.3,0.6-1,0.9-1.6,0.7c-0.4-0.2-0.9-0.3-1.3-0.5c-1-0.4-1.3-1.1-0.9-2.1
		c0.2-0.5,0.4-1,0-1.5c-0.3-0.4-0.7-0.6-1.2-0.4c-0.2,0.1-0.5,0.2-0.7,0.3c-0.9,0.3-1.6,0-2-0.8c-0.2-0.5-0.5-1-0.6-1.5
		c-0.3-0.7,0-1.3,0.7-1.7c0.5-0.3,1.1-0.3,1.3-1c0.1-0.5-0.1-1.2-0.6-1.4c-0.4-0.2-0.8-0.3-1.2-0.6c-0.5-0.4-0.6-0.9-0.4-1.5
		c0.2-0.5,0.4-1,0.6-1.5c0.3-0.7,1.1-1,1.8-0.7c0.7,0.3,1.3,0.6,1.9-0.1c0.5-0.6,0.2-1.2,0-1.9c-0.4-0.9-0.2-1.5,0.7-1.9
		c0.4-0.2,0.9-0.4,1.3-0.6c0.9-0.3,1.5-0.1,2,0.8c0.2,0.3,0.3,0.7,0.6,1c0.6,0.4,1.4,0.3,1.7-0.4c0.1-0.2,0.2-0.5,0.3-0.7
		c0.4-0.8,1-1.1,1.9-0.8c0.5,0.2,1,0.4,1.4,0.6C63.9,14.7,64.2,15.1,64,16z M54.6,22.9c-0.5,2.6,1.4,4.6,3.6,4.8
		c2.1,0.3,4.3-1.1,4.6-3.6c0.3-2.2-1.2-4.3-3.5-4.6C57.1,19.1,54.9,20.7,54.6,22.9z"/>
</g>
</svg>
