<?xml version="1.0" encoding="utf-8"?>
<!-- Generator: Adobe Illustrator 27.8.0, SVG Export Plug-In . SVG Version: 6.00 Build 0)  -->
<svg version="1.1" id="Layer_1" xmlns="http://www.w3.org/2000/svg" xmlns:xlink="http://www.w3.org/1999/xlink" x="0px" y="0px"
	 viewBox="0 0 197.2 197.2" style="enable-background:new 0 0 197.2 197.2;" xml:space="preserve">
<style type="text/css">
	.st0{fill:#b00bc5;}
	.st1{fill:#fff;}
	.st2{fill:none;stroke:#b00bc5;stroke-miterlimit:10;}
</style>
<g>
	<circle class="st0" cx="98.6" cy="98.6" r="98.6"/>
</g>
<path class="st2" d="M1440.6,260.7H-43.5c-12.7,0-23-10.3-23-23v-362.4c0-12.7,10.3-23,23-23h1484.1c12.7,0,23,10.3,23,23v362.4
	C1463.6,250.4,1453.3,260.7,1440.6,260.7z"/>
<g id="ndkQNy.tif">
	<g>
		<path class="st1" d="M102.1,150c-3.8-0.2-7.8-1.7-11.2-4.8c-2.2-2.1-4.3-4.2-6.4-6.4c-0.8-0.9-1.5-1-2.6-0.5
			c-3.4,1.6-6.8,3.1-10.2,4.6c-1,0.4-1.4,1-1,2.1c0.7,2.7-0.2,4.9-2.4,6.1c-2.1,1.2-4.5,0.9-6.5-1c-4.9-4.8-9.8-9.7-14.6-14.6
			c-1.9-1.9-2.1-4.2-0.9-6.3c1.2-2.1,3.3-3.1,5.9-2.5c1.4,0.4,1.9-0.1,2.4-1.3c8.5-19.2,17-38.4,25.6-57.5c0.8-1.7,0.5-2.7-0.8-3.9
			c-2-1.8-3.5-3.9-2.2-6.8c1.3-3.1,4.8-4.3,7.7-2.4c0.9,0.6,1.7,1.4,2.4,2.1c17.9,17.8,35.7,35.7,53.5,53.5c0.7,0.7,1.3,1.3,1.9,2.1
			c1.5,2.2,1.2,4.9-0.6,6.7c-1.9,1.9-4.4,2.1-6.7,0.6c-0.7-0.5-1.4-1-1.9-1.7c-1.2-1.6-2.5-1.5-4.1-0.7c-3.2,1.6-6.5,3.1-9.8,4.4
			c-1.7,0.7-1.9,1.2-1.1,2.9C124.4,136.2,116,150,102.1,150z M109.8,132.2c0.1-1.2-0.3-2.6-1.3-3.9c-0.7-0.9-1.4-1.3-2.6-0.7
			c-3.6,1.7-7.2,3.2-10.8,4.8c-1.1,0.5-1.2,1.1-0.3,1.9c1.2,1.1,2.3,2.4,3.5,3.5c2.2,1.9,4.8,2.3,7.4,1.1
			C108.4,137.7,109.8,135.5,109.8,132.2z"/>
		<path class="st1" d="M117.2,45.4c3.5,0.1,6.1,3.3,5,6.3c-2,5.2-4.2,10.2-6.5,15.2c-1.2,2.6-4,3.4-6.4,2.3
			c-2.5-1.1-3.7-3.8-2.6-6.5c2-4.9,4.2-9.8,6.3-14.6C113.8,46.3,115.5,45.5,117.2,45.4z"/>
		<path class="st1" d="M127.8,85.9c0-2.3,1.1-3.9,3.1-4.8c4.6-2,9.2-4,13.9-5.9c2.8-1.1,5.4,0.1,6.6,2.8c1,2.4,0.1,5.1-2.5,6.3
			c-4.8,2.2-9.6,4.3-14.4,6.2C131.2,91.8,127.9,89.4,127.8,85.9z"/>
		<path class="st1" d="M123,78.8c-1.6,0-3.2-1-4.1-2.8c-0.9-1.9-0.9-3.9,0.6-5.4c3.6-3.7,7.2-7.4,11-10.9c2-1.9,4.9-1.7,6.8,0.2
			c1.9,1.9,2.2,4.8,0.3,6.8c-3.5,3.7-7.2,7.2-10.8,10.8C125.8,78.4,124.7,78.8,123,78.8z"/>
	</g>
</g>
</svg>
