<?xml version="1.0" encoding="utf-8"?>
<!-- Generator: Adobe Illustrator 27.8.0, SVG Export Plug-In . SVG Version: 6.00 Build 0)  -->
<svg version="1.1" id="Layer_1" xmlns="http://www.w3.org/2000/svg" xmlns:xlink="http://www.w3.org/1999/xlink" x="0px" y="0px"
	 viewBox="0 0 80 80" style="enable-background:new 0 0 80 80;" xml:space="preserve">
<style type="text/css">
	.st0{fill:url(#SVGID_1_);}
	.st1{fill:url(#SVGID_00000132048051987563466280000012136832545452640177_);}
	.st2{fill:url(#SVGID_00000060006564579219598560000007809984548602258569_);}
	.st3{fill:url(#SVGID_00000175307868480071501420000016695725631372746881_);}
	.st4{fill:url(#SVGID_00000080186354887604232990000010354262528933114046_);}
	.st5{fill:url(#SVGID_00000036940060770348991010000013653340568829786809_);}
	.st6{fill:url(#SVGID_00000075867124160385247080000012429649215837289899_);}
	.st7{fill:url(#SVGID_00000139280657700646254930000004235938203212319107_);}
	.st8{fill:url(#SVGID_00000168824911358559909730000007706167715210620565_);}
	.st9{fill:url(#SVGID_00000135659043365010566080000015125534556041611145_);}
	.st10{fill:url(#SVGID_00000018945683609909475450000006193710810520842668_);}
	.st11{fill:url(#SVGID_00000128462132502768216620000011511424705844496788_);}
	.st12{fill:url(#SVGID_00000171695152894824084240000001593292896413670334_);}
	.st13{fill:url(#SVGID_00000083785875403697977690000007403673146925258113_);}
	.st14{fill:url(#SVGID_00000079461093364823141240000004295420147243211920_);}
	.st15{fill:url(#SVGID_00000034778302379275986400000008590015110882350249_);}
	.st16{fill:url(#SVGID_00000131331491131954090210000005721857392270132402_);}
	.st17{fill:url(#SVGID_00000039135461902370463390000003445466460547940250_);}
	.st18{fill:url(#SVGID_00000173128367470540266230000012568731212887873162_);}
	.st19{fill:url(#SVGID_00000053539506852537949070000007873871400844133815_);}
	.st20{fill:url(#SVGID_00000067210158547505096210000005573274271275872648_);}
	.st21{fill:url(#SVGID_00000023250884183501441480000012268778130782231438_);}
	.st22{fill:url(#SVGID_00000008836344004208211420000016839500029915433644_);}
	.st23{fill:url(#SVGID_00000087405827730013078980000015252243566348089766_);}
	.st24{fill:url(#SVGID_00000110434667167414935610000005233746989842957449_);}
	.st25{fill:url(#SVGID_00000007394579052248026480000007147494423996805786_);}
	.st26{fill:url(#SVGID_00000087389573606070177430000004557066648456644509_);}
	.st27{fill:url(#SVGID_00000150079319655471988540000000093414483388405893_);}
	.st28{fill:url(#SVGID_00000026858946823778727640000006852691907147650495_);}
	.st29{fill:url(#SVGID_00000036959204246199976350000000705409671299197840_);}
	.st30{fill:url(#SVGID_00000123422415254761714850000000332707609987779768_);}
	.st31{fill:url(#SVGID_00000116216572397417163020000015404347518226803360_);}
	.st32{fill:url(#SVGID_00000133506383638772559300000004055778547986932112_);}
	.st33{fill:url(#SVGID_00000046322875140757722390000014286566398572221827_);}
	.st34{fill:url(#SVGID_00000165942394989130008200000015011303838377433734_);}
	.st35{fill:url(#SVGID_00000147194502498614775050000005023537225842270141_);}
	.st36{fill:url(#SVGID_00000121999460396837639530000009105848462555594882_);}
	.st37{fill:url(#SVGID_00000023982428295473883700000002563491346040803997_);}
	.st38{fill:url(#SVGID_00000154423583150972412140000016709036326387024558_);}
	.st39{fill:url(#SVGID_00000098210347769667598560000008387761757952521113_);}
	.st40{fill:url(#SVGID_00000072274793904559271240000002342832961678801341_);}
	.st41{fill:url(#SVGID_00000036930553295858676990000000070916406928946319_);}
	.st42{fill:url(#SVGID_00000051355875871829853800000010859224922738162084_);}
	.st43{fill:url(#SVGID_00000005961209122251947410000006695048433048972180_);}
	.st44{fill:url(#SVGID_00000183223534385832115500000003772741442260737714_);}
	.st45{fill:url(#SVGID_00000168097120556228267610000000644893793552119434_);}
</style>
<g id="Emtjox.tif_00000044897259944418660370000008612769104386025345_">
	<g>
		<linearGradient id="SVGID_1_" gradientUnits="userSpaceOnUse" x1="-0.4921" y1="24.8983" x2="46.5611" y2="80.4183">
			<stop  offset="0" style="stop-color:#b00bc5"/>
			<stop  offset="1" style="stop-color:#453E1B"/>
		</linearGradient>
		<path class="st0" d="M10,22.1c1.7,0,3.4-0.1,5.2-0.1c0.8,0,1.1,0.4,1.1,1.1c0,0.5,0,0.9,0,1.4c0,12.5,0,24.9,0,37.4
			c0,1.8,0,1.9,1.9,1.9c11.9,0,23.8,0,35.7,0c4.2,0,4.2,0,4.2,4.3c0,0.7-0.1,1.3-0.1,2c-14.4,0-28.8,0-43.1,0
			c-2.4-0.8-4-2.3-4.8-4.8C10,50.9,10,36.5,10,22.1z"/>
		
			<linearGradient id="SVGID_00000136390449591046921800000010050855485172636588_" gradientUnits="userSpaceOnUse" x1="22.0175" y1="5.8214" x2="69.0707" y2="61.3414">
			<stop  offset="0" style="stop-color:#b00bc5"/>
			<stop  offset="1" style="stop-color:#453E1B"/>
		</linearGradient>
		<path style="fill:url(#SVGID_00000136390449591046921800000010050855485172636588_);" d="M45.9,58.1c-5.9,0-11.8,0-17.6,0
			c-3.9,0-6.4-2.5-6.4-6.4c0-11.7,0-23.4,0-35.1c0-4,2.5-6.5,6.6-6.5c11.6,0,23.2,0,34.9,0c4.1,0,6.6,2.6,6.6,6.7
			c0,11.6,0,23.1,0,34.7c0,4.2-2.5,6.7-6.7,6.7C57.5,58.1,51.7,58.1,45.9,58.1z M40.1,47c0.3-0.2,0.5-0.2,0.6-0.3
			c5.3-4,10.7-8,16-12c1-0.7,0.4-1-0.2-1.5c-5.1-3.8-10.2-7.6-15.2-11.4c-0.3-0.2-0.6-0.8-1.1-0.5c-0.4,0.2-0.2,0.8-0.2,1.2
			c0,7.7,0,15.5,0,23.2C40.1,46.2,40.1,46.5,40.1,47z"/>
	</g>
</g>
</svg>
