<svg xmlns="http://www.w3.org/2000/svg" viewBox="0 0 72 72" width="72" height="72">
  <path d="M19.5 47.9C19.5 52.5 20.9 56.1 23.7 58.7 26.3 61.1 29.9 62.5 34.5 62.7 34.7 62.7 36 62.7 36.3 62.7 40.4 62.6 43.7 61.3 46.2 59 48.6 56.9 49.8 54.2 50 51 50 50.5 50 50 50 49.5 49.9 48 49.6 46.6 49.1 45.4 49 45.1 48.8 44.8 48.6 44.5 47.9 43.2 46.8 42.1 45.5 41 44.3 40.1 42.9 39.2 41.1 38.4 39.7 37.7 38.1 37.1 36.1 36.4 35.3 36.1 34.6 35.8 33.8 35.6 30.7 34.4 28.3 33.3 26.6 32.2 24.7 31 23.4 29.6 22.5 28.1 21.7 26.6 21.2 24.6 21.2 22.2 21.2 22.1 21.2 22.1 21.2 22 21.3 18.4 22.5 15.4 25 13.2 27.4 11.1 30.4 9.9 34.2 9.7 34.4 9.7 35.7 9.7 36 9.7 40.3 9.8 43.7 11.2 46.1 13.8 48.5 16.5 49.7 20 49.7 24.5M34.6 9.4L34.6 3M34.6 69L34.6 62.8" style="fill:none;stroke-linecap:round;stroke-width:6;stroke:currentColor"/>
</svg>