<?xml version="1.0" encoding="utf-8"?>
<!-- Generator: Adobe Illustrator 27.8.0, SVG Export Plug-In . SVG Version: 6.00 Build 0)  -->
<svg version="1.1" id="Layer_1" xmlns="http://www.w3.org/2000/svg" xmlns:xlink="http://www.w3.org/1999/xlink" x="0px" y="0px"
	 viewBox="0 0 80 80" style="enable-background:new 0 0 80 80;" xml:space="preserve">
<style type="text/css">
	.st0{fill:url(#SVGID_1_);}
	.st1{fill:url(#SVGID_00000165954948669811535890000001783857404625440686_);}
	.st2{fill:url(#SVGID_00000041272599430131814330000016184180772637434276_);}
	.st3{fill:url(#SVGID_00000063615517146778847510000017157136050724482204_);}
	.st4{fill:url(#SVGID_00000116194082653943088260000014927226452788357814_);}
	.st5{fill:url(#SVGID_00000011718176605547181410000014546844465621905299_);}
	.st6{fill:url(#SVGID_00000139294102792000945780000005210770436247417989_);}
	.st7{fill:url(#SVGID_00000040534298159907110080000013085774578208786345_);}
	.st8{fill:url(#SVGID_00000070104216350735540710000002897449871731552424_);}
	.st9{fill:url(#SVGID_00000145032348690384368640000006405932135174416256_);}
	.st10{fill:url(#SVGID_00000041293249413950076610000005130985640361212838_);}
	.st11{fill:url(#SVGID_00000062192470921208055640000002680993223994553509_);}
	.st12{fill:url(#SVGID_00000042730535781035921070000000508471505729382576_);}
	.st13{fill:url(#SVGID_00000040568353020735945820000013551956615032275123_);}
</style>
<g id="ny39LD.tif">
	<g>
		<linearGradient id="SVGID_1_" gradientUnits="userSpaceOnUse" x1="18.0662" y1="4.2689" x2="59.1077" y2="62.9188">
			<stop  offset="0" style="stop-color:#a801bd"/>
			<stop  offset="1" style="stop-color:#453E1B"/>
		</linearGradient>
		<path class="st0" d="M40,22.6c8.4,0,16.8,0,25.1,0c0.5,0,1.1-0.2,1.4,0.2c0.3,0.5-0.2,1-0.5,1.4c-4.9,7.8-9.9,15.6-14.8,23.3
			c-0.6,1-0.9,2-0.9,3.1c0,4.1,0,8.1,0,12.2c0,2.2-0.8,3.8-2.7,5c-3.1,2-6.1,4.1-9.2,6.1c-1.9,1.3-3.9,1.7-5.9,0.5
			c-2-1.1-2.7-2.9-2.7-5.2c0.1-6.3,0-12.6,0-19c0-1-0.2-1.8-0.8-2.7c-5-7.8-10-15.6-14.9-23.5c-0.3-0.4-0.9-0.9-0.6-1.4
			c0.3-0.5,1-0.3,1.5-0.3C23.3,22.6,31.6,22.6,40,22.6z"/>
		
			<linearGradient id="SVGID_00000101811568827047221230000012861756531090856332_" gradientUnits="userSpaceOnUse" x1="28.4654" y1="-3.0204" x2="69.5069" y2="55.6296">
			<stop  offset="0" style="stop-color:#a801bd"/>
			<stop  offset="1" style="stop-color:#453E1B"/>
		</linearGradient>
		<path style="fill:url(#SVGID_00000101811568827047221230000012861756531090856332_);" d="M39.9,17.7c-8.6,0-17.3,0-25.9,0
			c-1.5,0-2.1-0.5-2-2c0.1-1.1,0-2.3,0-3.5c0.1-4.1,3.3-7.4,7.5-7.4c13.6,0,27.3,0,40.9,0c4.2,0,7.4,3.3,7.5,7.4
			c0,1.2-0.1,2.4,0,3.6c0.1,1.4-0.4,1.8-1.8,1.8C57.4,17.7,48.7,17.7,39.9,17.7z"/>
	</g>
</g>
</svg>
