<?xml version="1.0" encoding="UTF-8"?>
<svg id="Layer_1" data-name="Layer 1" xmlns="http://www.w3.org/2000/svg" viewBox="0 0 197.2 197.2">
  <defs>
    <style>
      .cls-1 {
        fill: #fff;
      }

      .cls-1, .cls-2 {
        stroke-width: 0px;
      }

      .cls-2 {
        fill: #b00bc5;
      }
    </style>
  </defs>
  <circle class="cls-2" cx="98.6" cy="98.6" r="98.6"/>
  <g id="zMk5gW.tif">
    <g>
      <path class="cls-1" d="m77.72,114.2c.09-14.57,10.91-26.8,24.43-28.11,15.29-1.48,28.34,8.08,31.04,22.79,1.02,5.58.39,11.01-1.99,16.15-.86,1.86-.52,3.02.89,4.39,4.43,4.28,8.75,8.66,13.08,13.05,2.13,2.17,2.91,4.8,1.92,7.71-1.04,3.05-3.27,4.89-6.45,5.42-2.69.45-4.82-.77-6.65-2.59-4.25-4.23-8.53-8.43-12.7-12.74-1.35-1.4-2.46-1.69-4.36-.9-16.94,7.08-35.23-2.6-38.73-20.41-.34-1.71-.35-3.49-.47-4.76Zm27.89,17.5c10.15,0,17.92-7.75,17.93-17.88.01-10.08-7.85-17.94-17.94-17.92-10.02.02-17.88,7.97-17.85,18.05.03,9.95,7.88,17.75,17.86,17.74Z"/>
      <path class="cls-1" d="m70.37,80.96c0,11.51,0,23.03,0,34.54,0,4.2-.72,4.91-4.85,4.91-3.68,0-7.36,0-11.03,0-4.02,0-4.78-.73-4.79-4.73-.02-14.63-.01-29.26-.01-43.89,0-8.47,0-16.95,0-25.42,0-4,.82-4.84,4.73-4.85,3.84-.01,7.68-.03,11.51,0,3.51.03,4.42.92,4.43,4.42.02,11.67,0,23.34,0,35.02Z"/>
      <path class="cls-1" d="m120.91,74.12c0,2.96-.03,5.92.02,8.87.02,1.52-.23,2.32-2.03,1.53-5.13-2.26-10.49-3.29-16.11-2.59-1.63.2-2.35-.43-2.33-2.12.05-4.8-.02-22.74.04-27.54.03-2.5.89-3.37,3.31-3.39,4.64-.05,9.27,0,13.91-.02,2.2-.01,3.22,1.06,3.2,3.24-.02,2.96,0,19.07,0,22.02Z"/>
      <path class="cls-1" d="m77.59,85.27c0-3.19-.07-18,.02-21.19.08-2.71,1-3.55,3.67-3.58,2.79-.03,5.58-.04,8.37,0,2.5.04,3.29.83,3.4,3.27.01.24-.02,12.1.01,12.33.75,5.2-.17,9.25-5.82,11.54-3.27,1.33-5.53,4.48-7.68,7.39-.39.53-.62,1.57-1.47,1.26-.76-.28-.51-1.26-.51-1.95-.03-3.03-.01-6.06-.01-9.09,0,0,.01,0,.02,0Z"/>
    </g>
  </g>
</svg>