<?xml version="1.0" encoding="utf-8"?>
<!-- Generator: Adobe Illustrator 27.8.0, SVG Export Plug-In . SVG Version: 6.00 Build 0)  -->
<svg version="1.1" id="Layer_1" xmlns="http://www.w3.org/2000/svg" xmlns:xlink="http://www.w3.org/1999/xlink" x="0px" y="0px"
	 viewBox="0 0 197.2 197.2" style="enable-background:new 0 0 197.2 197.2;" xml:space="preserve">
<style type="text/css">
	.st0{fill:#b00bc5;}
	.st1{fill:#fff;}
</style>
<circle class="st0" cx="98.6" cy="98.6" r="98.6"/>
<g id="PPmVtj.tif">
	<g>
		<path class="st1" d="M131,57.9c-3.8-0.5-7.5-1-11.3-1.4c-3.4-0.4-5.5-2.6-5.1-5.4c0.4-3,2.9-4.5,6.4-4c7.8,1,15.5,1.9,23.3,3
			c3.5,0.5,4.9,2.6,4.5,6.2c-0.9,7.4-1.8,14.7-2.7,22.1c-0.1,0.9-0.2,1.8-0.4,2.6c-0.6,2.4-2.8,3.9-5.2,3.6c-2.3-0.3-4-2.2-4-4.7
			c0-3.5,0.7-6.9,1.1-10.4c0.1-0.9,0.3-1.9,0.1-2.8c-0.9-0.1-1.4,0.6-1.9,1C123.8,77,112,86.1,100.2,95.2c-3.9,3-6.7,2.5-9.2-1.8
			c-1.3-2.2-2.7-4.4-3.9-6.7c-0.8-1.6-1.6-1.6-2.9-0.5c-8.9,7-17.8,13.9-26.8,20.9c-0.9,0.7-1.7,1.4-2.6,2c-2.6,1.7-5.6,1.4-7.3-0.9
			c-1.8-2.3-1.4-5.2,1.1-7.2c4.3-3.5,8.7-6.8,13.1-10.2c7.2-5.6,14.4-11.2,21.7-16.8c4-3.1,6.7-2.5,9.4,1.9c1.4,2.3,2.8,4.7,4.2,7.1
			c0.6,1,1.1,1.2,2.1,0.4c10.5-8.2,21-16.3,31.5-24.5c0.2-0.2,0.5-0.3,0.7-0.4C131.1,58.3,131,58.1,131,57.9z"/>
		<path class="st1" d="M127.9,121.9c0-8.6,0-17.2,0-25.8c0-2.5,0.1-2.6,2.7-2.6c4.1,0,8.2,0,12.3,0c1.5,0,2.1,0.5,2.1,2
			c0,17.6,0,35.2,0,52.7c0,1.4-0.6,2-1.9,1.9c-4.4,0-8.7,0-13.1,0c-1.8,0-2-1-2-2.4C127.9,139.2,127.9,130.5,127.9,121.9z"/>
		<path class="st1" d="M119.8,127c0,6.9-0.1,13.8,0,20.6c0,1.9-0.6,2.6-2.6,2.6c-4.1-0.1-8.2-0.1-12.3,0c-1.6,0-2.1-0.6-2.1-2.2
			c0-14.1,0-28.2,0-42.3c0-1.5,0.5-2,2-2c4.2,0.1,8.5,0.1,12.7,0c1.9-0.1,2.3,0.8,2.3,2.4C119.8,113.1,119.8,120,119.8,127z"/>
		<path class="st1" d="M76.8,130.2c0-5.6,0-11.2,0-16.8c0-2.6,0.2-2.7,2.8-2.8c4,0,8,0,12.1,0c1.5,0,2.1,0.5,2.1,2
			c0,11.8,0,23.6,0,35.4c0,1.5-0.5,2.1-2,2.1c-4.2,0-8.5-0.1-12.7,0c-1.7,0-2.2-0.8-2.2-2.4C76.8,142,76.8,136.1,76.8,130.2
			C76.8,130.2,76.8,130.2,76.8,130.2z"/>
		<path class="st1" d="M69.1,134c0,4.6-0.1,9.1,0,13.7c0,1.8-0.5,2.6-2.4,2.5c-4.2-0.1-8.3-0.1-12.5,0c-1.6,0-2.2-0.6-2.1-2.2
			c0-9.3,0-18.5,0-27.8c0-1.5,0.4-2.2,2.1-2.2c4.3,0.1,8.6,0.1,12.9,0c1.5,0,2.1,0.6,2,2C69.1,124.7,69.1,129.3,69.1,134z"/>
	</g>
</g>
</svg>
