<?xml version="1.0" encoding="UTF-8"?>
<svg id="Layer_1" data-name="Layer 1" xmlns="http://www.w3.org/2000/svg" viewBox="0 0 197.2 197.2">
  <defs>
    <style>
      .cls-1 {
        fill: #fff;
      }

      .cls-1, .cls-2 {
        stroke-width: 0px;
      }

      .cls-2 {
        fill: #b00bc5;
      }
    </style>
  </defs>
  <circle class="cls-2" cx="98.6" cy="98.6" r="98.6"/>
  <g id="Sw2P7L.tif">
    <g>
      <path class="cls-1" d="m119.99,120.08c0-8.92,0-17.84,0-26.76,0-5.12,2.58-7.67,7.71-7.69,3.52,0,7.05-.01,10.57,0,4.98.03,7.73,2.73,7.76,7.77.05,7.91.02,15.83.02,23.74,0,9.86,0,19.71-.01,29.57,0,3.59-.73,4.32-4.28,4.32-5.9.01-11.8,0-17.7,0-3.44,0-4.07-.61-4.07-3.98,0-8.99,0-17.98,0-26.98Z"/>
      <path class="cls-1" d="m109.86,124.43c0,7.56,0,15.11,0,22.67,0,3.17-.77,3.92-3.97,3.93-6.12.02-12.23.02-18.35,0-2.91,0-3.76-.82-3.76-3.7-.02-15.26-.03-30.51,0-45.77,0-4.71,2.68-7.3,7.42-7.33,3.74-.02,7.48-.02,11.23,0,4.83.03,7.42,2.63,7.44,7.53.03,7.56,0,15.11,0,22.67Z"/>
      <path class="cls-1" d="m73.63,132.95c0,4.89.02,9.78,0,14.66-.01,2.56-.81,3.39-3.34,3.41-6.4.04-12.79.04-19.19,0-2.59-.02-3.5-.92-3.51-3.56-.03-9.63-.07-19.26.02-28.9.04-4.75,2.89-7.4,7.64-7.44,3.67-.03,7.33-.03,11,0,4.66.03,7.36,2.72,7.38,7.38.03,4.82,0,9.63,0,14.45Z"/>
      <path class="cls-1" d="m144.06,71.7c0,2.27-1.49,3.3-3.58,2.34-2.02-.93-3.99-1.99-5.93-3.09-1.2-.68-2.24-.66-3.43.02-1.88,1.06-3.8,2.05-5.75,2.97-2.39,1.12-4.04-.06-3.72-2.66.28-2.28.62-4.56,1.1-6.81.24-1.15-.07-1.91-.87-2.67-1.52-1.43-2.97-2.93-4.48-4.37-.93-.89-1.66-1.85-1.19-3.22.45-1.3,1.66-1.5,2.79-1.69,2.12-.35,4.25-.69,6.39-.93,1.07-.12,1.66-.63,2.1-1.56.94-2.02,1.93-4.02,2.92-6.02.5-1.01,1.19-1.88,2.43-1.86,1.22.02,1.92.84,2.42,1.87.73,1.48,1.66,2.9,2.16,4.46.79,2.43,2.46,3.27,4.8,3.42,1.64.11,3.29.33,4.91.66,2.67.55,3.32,2.59,1.46,4.56-1.53,1.62-3.14,3.16-4.77,4.69-.87.82-1.15,1.66-.88,2.88.47,2.1.73,4.25,1.07,6.37.03.21.03.43.04.65Z"/>
      <path class="cls-1" d="m96.77,85.01c-4.88-.01-8.76-3.95-8.7-8.83.06-4.7,4.08-8.66,8.77-8.63,4.78.03,8.76,4.11,8.71,8.92-.06,4.76-3.96,8.55-8.78,8.54Z"/>
      <path class="cls-1" d="m69.32,92.34c-.03,4.92-3.91,8.71-8.83,8.64-4.74-.07-8.62-4.02-8.61-8.77.02-4.6,4.16-8.73,8.74-8.71,4.89.02,8.73,3.92,8.7,8.83Z"/>
      <path class="cls-1" d="m73.46,89.13c-1.41-.45-1.2-2.05-1.87-3.05-.49-.73.03-1.19.69-1.48,3.67-1.63,7.32-3.31,11.01-4.87,1.98-.84,1.65,1.23,2.25,2.05.55.75,1.04,1.67-.31,2.26-3.68,1.61-7.35,3.23-11.03,4.84-.2.09-.41.14-.75.25Z"/>
      <path class="cls-1" d="m117.64,64.57c.88-.11,1.13.08,1.21.63.32,2.06-.99,4.44-2.99,5.32-1.77.78-3.53,1.58-5.31,2.34-.67.29-1.5.62-1.77-.39-.31-1.15-2.02-2.64-.73-3.4,3.12-1.85,6.58-3.14,9.59-4.51Z"/>
    </g>
  </g>
</svg>