<svg width="72" height="72" viewBox="0 0 72 72" fill="none" xmlns="http://www.w3.org/2000/svg">
<path d="M9.84595 24C11.6775 12.127 22.6893 3 36 3C49.3107 3 60.3225 12.127 62.1541 24M60 55.1158L57.7525 60.9403C56.6741 63.7347 53.3721 66 50.3371 66H36M60 27H64.5C66.9853 27 69 28.9951 69 31.4957V40.5043C69 42.9872 67.0026 45 64.5 45H60V27ZM12 27H7.5C5.01472 27 3 28.9951 3 31.4957V40.5043C3 42.9872 4.99739 45 7.5 45H12V27ZM33 63H39C40.6569 63 42 64.3431 42 66C42 67.6569 40.6569 69 39 69H33C31.3431 69 30 67.6569 30 66C30 64.3431 31.3431 63 33 63Z" stroke="black" stroke-width="6" stroke-linecap="round"/>
</svg>
