<?xml version="1.0" encoding="UTF-8"?>
<svg id="Layer_1" data-name="Layer 1" xmlns="http://www.w3.org/2000/svg" xmlns:xlink="http://www.w3.org/1999/xlink" viewBox="0 0 80 80">
  <defs>
    <style>
      .cls-1 {
        fill: url(#linear-gradient);
      }

      .cls-1, .cls-2 {
        stroke-width: 0px;
      }

      .cls-2 {
        fill: url(#linear-gradient-2);
      }
    </style>
    <linearGradient id="linear-gradient" x1="16.91" y1="7.39" x2="70.59" y2="58.87" gradientUnits="userSpaceOnUse">
      <stop offset="0" stop-color="#a801bd"/>
      <stop offset="1" stop-color="#453e1b"/>
    </linearGradient>
    <linearGradient id="linear-gradient-2" x1="-10.09" y1="35.55" x2="43.59" y2="87.02" xlink:href="#linear-gradient"/>
  </defs>
  <g id="xAmKYz.tif">
    <g>
      <path class="cls-1" d="m71.3,10.2v6.14c-.72,3.6-1.59,7.15-2.96,10.57-3.76,9.37-8.94,17.74-17.06,23.99-1.04.8-1.44,1.64-1.39,2.92.28,7.58-3.53,12.51-10.18,15.57-1.86.86-3.86,1.3-5.81,1.92h-2.23c-.6-.8-.64-1.67-.52-2.64.39-3.23.68-6.47,1.06-9.7.11-.93-.19-1.3-1.11-1.25-1.61.09-2.85-.6-3.91-1.77-1.03-1.14-2.13-2.22-3.25-3.25-1.07-.98-1.63-2.14-1.56-3.58.05-1.02-.27-1.4-1.38-1.25-3.32.43-6.65.75-9.97,1.12-1.79.2-2.54-.57-2.26-2.35.06-.37.14-.73.23-1.09,1.15-4.86,3.13-9.25,7.2-12.41,3.05-2.37,6.58-3.17,10.36-2.93,1.15.07,1.89-.32,2.57-1.26.9-1.24,1.9-2.41,2.97-3.51,7.94-8.1,17.62-13.08,28.51-15.88,2.67-.69,5.39-1.02,8.15-.82,1.05.08,2.21.09,2.54,1.46Zm-14.65,19.82c0-3.48-2.96-6.49-6.48-6.57-3.49-.08-6.63,3.02-6.64,6.55,0,3.48,2.96,6.49,6.48,6.57,3.5.08,6.63-3.01,6.64-6.55Z"/>
      <path class="cls-2" d="m13.24,69.16c-2.33.07-2.44.03-2.29-2.06.25-3.53.67-7.03,1.78-10.41.93-2.84,2.83-4.63,5.71-5.4.54-.14,1.13-.33,1.58.13.53.54.02,1.03-.2,1.51-.57,1.24-.99,2.5-.94,3.89.08,2.43,1.9,4.29,4.35,4.39,1.47.06,2.87-.23,4.15-.99.4-.23.8-.59,1.26-.21.48.38.37.93.24,1.43-.63,2.47-1.92,4.42-4.34,5.47-2.72,1.18-5.62,1.61-8.53,1.97-1.01.13-2.03.2-2.77.27Z"/>
    </g>
  </g>
</svg>