<?xml version="1.0" encoding="utf-8"?>
<!-- Generator: Adobe Illustrator 27.8.0, SVG Export Plug-In . SVG Version: 6.00 Build 0)  -->
<svg version="1.1" id="Layer_1" xmlns="http://www.w3.org/2000/svg" xmlns:xlink="http://www.w3.org/1999/xlink" x="0px" y="0px"
	 viewBox="0 0 197.2 197.2" style="enable-background:new 0 0 197.2 197.2;" xml:space="preserve">
<style type="text/css">
	.st0{fill:#a801bd;}
	.st1{fill:#fff;}
</style>
<circle class="st0" cx="98.6" cy="98.6" r="98.6"/>
<g id="MgEeTv.tif">
	<g>
		<path class="st1" d="M69.4,151.3c-8.2,0-16.4-0.1-24.6,0c-2.2,0-2.9-0.7-2.9-2.9c0.1-15.1,0.1-30.2,0-45.2c0-2.3,0.7-3,2.9-2.9
			c4.1,0.1,8.3,0.1,12.4,0c2.1-0.1,2.6,0.7,2.6,2.7c-0.1,6.4,0,12.8,0,19.2c0,1-0.2,2.2,1,2.8c1.2,0.7,2.1-0.1,3.1-0.7
			c1.9-1.2,3.5-3.7,5.7-3.3c1.9,0.3,3.6,2.3,5.5,3.4c0.9,0.6,1.7,1.5,2.8,0.8c1.1-0.6,1.1-1.7,1.1-2.8c0-6.5,0.1-13,0-19.5
			c0-2,0.6-2.7,2.6-2.7c4.3,0.1,8.6,0.1,12.9,0c1.8,0,2.4,0.6,2.4,2.4c0,15.4-0.1,30.8,0,46.2c0,2.1-0.9,2.4-2.7,2.4
			C85.9,151.3,77.7,151.3,69.4,151.3z"/>
		<path class="st1" d="M127.8,151.3c-8.2,0-16.4-0.1-24.6,0c-2.2,0-2.9-0.7-2.9-2.9c0.1-15.1,0.1-30.2,0-45.2c0-2.3,0.7-3,2.9-2.9
			c4.1,0.1,8.3,0.1,12.4,0c2.1-0.1,2.6,0.7,2.6,2.7c-0.1,6.4,0,12.8,0,19.2c0,1-0.2,2.2,1,2.8c1.2,0.7,2.1-0.1,3.1-0.7
			c1.9-1.2,3.5-3.7,5.7-3.3c1.9,0.3,3.6,2.3,5.5,3.4c0.9,0.6,1.7,1.5,2.8,0.8c1.1-0.6,1.1-1.7,1.1-2.8c0-6.5,0.1-13,0-19.5
			c0-2,0.6-2.7,2.6-2.7c4.3,0.1,8.6,0.1,12.9,0c1.8,0,2.4,0.6,2.4,2.4c0,15.4-0.1,30.8,0,46.2c0,2.1-0.9,2.4-2.7,2.4
			C144.3,151.3,136.1,151.3,127.8,151.3z"/>
		<path class="st1" d="M98.5,96.8c-8.2,0-16.4-0.1-24.6,0c-2.1,0-2.8-0.7-2.8-2.8c0.1-15.2,0.1-30.3,0-45.5c0-2.2,0.7-2.8,2.8-2.7
			c4.1,0.1,8.3,0.1,12.4,0c2.2-0.1,2.8,0.8,2.7,2.8c-0.1,6.2,0,12.3,0,18.5c0,1.3-0.4,2.7,1.1,3.4c1.3,0.6,2.3-0.3,3.3-1
			c6.2-4.1,3.9-4.3,10.2,0c1,0.7,1.8,1.9,3.2,1.2c1.6-0.7,1.2-2.3,1.2-3.7c0-6.2,0.1-12.3,0-18.5c0-2,0.5-2.9,2.7-2.8
			c4.3,0.2,8.6,0.1,12.9,0c1.6,0,2.3,0.5,2.3,2.2c0,15.5,0,31,0,46.5c0,1.9-0.8,2.3-2.5,2.3C115.2,96.8,106.8,96.8,98.5,96.8z"/>
		<path class="st1" d="M63.4,110.3c0-2.7,0-5.3,0-8c0-1.3,0.5-1.9,1.9-1.9c2.8,0,5.5,0,8.3,0c1.3,0,1.9,0.5,1.9,1.9
			c0,5.4,0,10.8,0,16.3c0,1.3-0.5,1.6-1.6,0.9c-0.1-0.1-0.3-0.2-0.4-0.3c-2.6-2.6-5.2-2.7-7.9,0c-1.3,1.3-2.1,0.8-2.1-1.1
			C63.4,115.5,63.4,112.9,63.4,110.3C63.4,110.3,63.4,110.3,63.4,110.3z"/>
		<path class="st1" d="M121.8,110.1c0-2.6,0-5.2,0-7.8c0-1.3,0.5-1.9,1.9-1.9c2.8,0,5.5,0,8.3,0c1.3,0,1.9,0.5,1.9,1.9
			c0,5.4,0,10.8,0,16.3c0,1.3-0.5,1.6-1.6,0.9c-0.1-0.1-0.3-0.2-0.4-0.3c-2.6-2.6-5.2-2.6-7.9,0c-1.3,1.3-2.1,0.8-2.1-1.1
			C121.8,115.4,121.8,112.7,121.8,110.1C121.8,110.1,121.8,110.1,121.8,110.1z"/>
		<path class="st1" d="M92.6,55.6c0-2.6,0-5.2,0-7.8c0-1.3,0.5-1.9,1.9-1.9c2.8,0,5.5,0,8.3,0c1.3,0,1.9,0.5,1.9,1.9
			c0,5.3,0,10.7,0,16c0,1.5-0.5,2-1.8,1c-0.2-0.1-0.4-0.3-0.6-0.4c-4.2-3.1-3.7-2.2-7.1,0c-0.6,0.4-1.3,1.3-2.1,0.8
			c-0.6-0.4-0.3-1.4-0.3-2.1C92.6,60.6,92.6,58.1,92.6,55.6C92.6,55.6,92.6,55.6,92.6,55.6z"/>
	</g>
</g>
</svg>
