<?xml version="1.0" encoding="UTF-8"?>
<svg id="Layer_1" data-name="Layer 1" xmlns="http://www.w3.org/2000/svg" viewBox="0 0 197.2 197.2">
  <defs>
    <style>
      .cls-1 {
        fill: #fff;
      }

      .cls-1, .cls-2 {
        stroke-width: 0px;
      }

      .cls-2 {
        fill: #a801bd;
      }
    </style>
  </defs>
  <circle class="cls-2" cx="98.6" cy="98.6" r="98.6"/>
  <path class="cls-1" d="m152.45,66.93c-1.24-9.63-10.96-19.34-20.61-20.28-11.06-1.07-22.15-1.8-33.28-1.34-5.35,0-10.71-.17-16.05.05-5.42.22-10.82.87-16.24,1.23-9.77.67-19.69,9.47-21.28,19.17-2.01,12.26-1.81,24.59-.83,36.93.56,6.97,2.63,13.13,7.93,18.06,5.61,5.22,12.34,7.04,19.71,7.03,2.31,0,2.95.83,2.9,3.04-.13,5.51-.08,11.04-.02,16.55.03,3.12,2.16,5.06,4.79,4.55,1.37-.26,2.3-1.21,3.26-2.12,6.89-6.61,13.81-13.2,20.69-19.83,1.05-1.01,2.11-1.65,3.65-1.72,7.89-.35,15.78-.71,23.65-1.38,10.66-.91,20.4-9.82,21.72-19.84,1.76-13.38,1.72-26.73,0-40.11Zm-34.1,35.06c0,3.42-2.77,6.19-6.19,6.19h-27.13c-3.42,0-6.19-2.77-6.19-6.19v-3.86c0-3.42,2.77-6.19,6.19-6.19h27.13c3.42,0,6.19,2.77,6.19,6.19v3.86Zm6.11-15.77h-51.73c-4.48,0-8.12-3.63-8.12-8.12s3.63-8.12,8.12-8.12h51.73c4.48,0,8.12,3.63,8.12,8.12s-3.63,8.12-8.12,8.12Z"/>
</svg>