<?xml version="1.0" encoding="utf-8"?>
<!-- Generator: Adobe Illustrator 27.8.0, SVG Export Plug-In . SVG Version: 6.00 Build 0)  -->
<svg version="1.1" id="Layer_1" xmlns="http://www.w3.org/2000/svg" xmlns:xlink="http://www.w3.org/1999/xlink" x="0px" y="0px"
	 viewBox="0 0 80 80" style="enable-background:new 0 0 80 80;" xml:space="preserve">
<style type="text/css">
	.st0{fill:url(#SVGID_1_);}
	.st1{fill:url(#SVGID_00000022519815985015003840000018312349943576956559_);}
	.st2{fill:url(#SVGID_00000132776700819207920090000007267544725146117507_);}
	.st3{fill:url(#SVGID_00000098925892986347705120000006188797087425527717_);}
	.st4{fill:url(#SVGID_00000183211971137921975120000002544388875639006620_);}
	.st5{fill:url(#SVGID_00000032646506298783342260000008509833388796236219_);}
	.st6{fill:url(#SVGID_00000145057350517644081720000017262636674168798341_);}
	.st7{fill:url(#SVGID_00000057123598244579215810000017916533051981296316_);}
	.st8{fill:url(#SVGID_00000129192078122030661390000012003032321331233185_);}
	.st9{fill:url(#SVGID_00000031906900180248032530000002488785025318645904_);}
	.st10{fill:url(#SVGID_00000085244840320768667010000015050409021722413758_);}
	.st11{fill:url(#SVGID_00000092429233764436970000000009546604525299018882_);}
	.st12{fill:url(#SVGID_00000116228652596725622720000002415178072265311379_);}
	.st13{fill:url(#SVGID_00000178167423727053923800000002267112848721846455_);}
</style>
<g id="TjrAag.tif_00000168079784485807608500000010584057583630629816_">
	<g>
		<linearGradient id="SVGID_1_" gradientUnits="userSpaceOnUse" x1="13.346" y1="4.9013" x2="66.6694" y2="75.2882">
			<stop  offset="0" style="stop-color:#b00bc5"/>
			<stop  offset="1" style="stop-color:#453E1B"/>
		</linearGradient>
		<path class="st0" d="M40,4.9c7.6,0,15.3,0,22.9,0c1.3,0,1.9,0.4,1.8,1.8c-0.1,1,0,2.1,0,3.1c0,0.9-0.4,1.3-1.3,1.3
			c-1.2,0-2.5,0-3.7,0c-0.9,0-1.3,0.4-1.2,1.3c0,1,0,2,0,3c0.1,1.1-0.3,1.6-1.4,1.5c-1.1-0.2-1.5,0.4-1.5,1.5c0,14.5,0,29,0,43.6
			c0,1.1,0.4,1.6,1.5,1.5c1.1-0.1,1.4,0.5,1.4,1.4c0,1,0,2.1,0,3.1c0,0.9,0.4,1.2,1.2,1.2c1.2,0,2.4,0,3.6,0c0.9,0,1.3,0.3,1.3,1.3
			c0,1.3,0,2.6,0,3.8c0,0.7-0.3,1.1-1,1c-0.3,0-0.7,0-1,0c-15,0-30.1,0-45.1,0c-2,0-2,0-2-2c0-4.1,0-4.1,4.1-4.1
			c1.9,0,1.9,0,1.9-1.9c0-0.4,0-0.9,0-1.3c0-2.2,0-2.2,2.1-2.6c0.5-0.1,0.8-0.3,0.8-0.8c0-0.4,0-0.8,0-1.1c0-14.2,0-28.4,0-42.6
			c0-1.3-0.2-2.2-1.7-1.9c-0.9,0.1-1.2-0.4-1.2-1.2c0-1.1,0-2.3,0-3.4c0-0.8-0.3-1.1-1.1-1.1c-1.1,0-2.3,0-3.4,0
			c-1.1,0.1-1.5-0.3-1.5-1.5c-0.1-4.7-0.1-4.7,4.5-4.7C26.5,4.9,33.3,4.9,40,4.9z M41.2,40.2c0-5.9,0-11.8,0-17.6
			c0-0.9-0.2-1.8-1.3-1.8c-1,0-1.3,0.8-1.3,1.7c0,0.2,0,0.5,0,0.7c0,11.2,0,22.5,0,33.7c0,0.5,0,1,0.1,1.4c0.2,0.7,0.7,1,1.4,1
			c0.7,0,1-0.5,1.1-1.1c0.1-0.4,0.1-0.8,0.1-1.3C41.2,51.4,41.2,45.8,41.2,40.2z M49.5,40.1c0-5.8,0-11.7,0-17.5
			c0-0.9,0-1.9-1.2-1.9c-1.2,0-1.4,0.9-1.4,1.9c0,0.2,0,0.4,0,0.6c0,11.2,0,22.5,0,33.7c0,0.5,0,1,0.1,1.4c0.2,0.7,0.7,1,1.4,1
			c0.7-0.1,1.1-0.5,1.1-1.2c0-0.4,0-0.9,0-1.3C49.5,51.2,49.5,45.7,49.5,40.1z M32.7,40.1c0-5.6,0-11.3,0-16.9c0-1,0.4-2.4-1.3-2.3
			c-1.6,0-1.2,1.4-1.2,2.4c0,11.3,0,22.6,0,33.9c0,0.5,0,1,0.1,1.4c0.1,0.6,0.6,0.8,1.2,0.8c0.6,0,1-0.3,1.1-0.9
			c0.1-0.5,0.1-0.9,0.1-1.4C32.7,51.3,32.7,45.7,32.7,40.1z"/>
	</g>
</g>
</svg>
