<?xml version="1.0" encoding="utf-8"?>
<!-- Generator: Adobe Illustrator 27.8.0, SVG Export Plug-In . SVG Version: 6.00 Build 0)  -->
<svg version="1.1" id="Layer_1" xmlns="http://www.w3.org/2000/svg" xmlns:xlink="http://www.w3.org/1999/xlink" x="0px" y="0px"
	 viewBox="0 0 197.2 197.2" style="enable-background:new 0 0 197.2 197.2;" xml:space="preserve">
<style type="text/css">
	.st0{fill:#b00bc5;}
	.st1{fill:#fff;}
</style>
<circle class="st0" cx="98.6" cy="98.6" r="98.6"/>
<g id="_x35_E3j2h.tif">
	<g>
		<path class="st1" d="M98.6,46c29.2,0,52.6,23.4,52.6,52.4c0,29.4-23.4,52.6-52.7,52.7c-28.7,0.2-52.6-24-52.4-52.7
			C46.4,69.4,69.6,46,98.6,46z M76.2,125c0.5-0.2,1.3-0.5,2.1-0.8c9.2-4.2,18.3-8.4,27.7-12.5c2.6-1.1,4.4-2.8,5.5-5.5
			c4.2-9.2,8.4-18.7,12.8-27.9c0.8-1.9,1.3-3.7-0.3-5.4c-1.6-1.6-3.2-1.1-5-0.3c-9.6,4.4-19,8.8-28.6,13c-1.9,0.8-3.2,2.1-4.2,4.1
			c-2.8,6-5.5,12-8.3,18c-1.8,3.7-3.6,7.6-5.2,11.4C71.3,122.3,73,125,76.2,125z"/>
		<path class="st1" d="M98.6,106.2c-3.9,0-7.6-3.6-7.6-7.5c0-3.9,3.4-7.6,7.5-7.6c4.1-0.2,7.8,3.6,7.8,7.6
			C106.2,102.7,102.7,106.2,98.6,106.2z"/>
	</g>
</g>
</svg>
