<?xml version="1.0" encoding="UTF-8"?>
<svg id="Layer_1" data-name="Layer 1" xmlns="http://www.w3.org/2000/svg" viewBox="0 0 197.2 197.2">
  <defs>
    <style>
      .cls-1 {
        fill: #fff;
      }

      .cls-1, .cls-2 {
        stroke-width: 0px;
      }

      .cls-2 {
        fill: #b00bc5;
      }
    </style>
  </defs>
  <circle class="cls-2" cx="98.6" cy="98.6" r="98.6"/>
  <g id="_7DgfTh.tif" data-name="7DgfTh.tif">
    <g>
      <path class="cls-1" d="m104.38,79.23c.71-.81,1.01-1.2,1.36-1.54,1.37-1.35,2.98-2.06,4.91-1.46,2.05.64,3.49,2,3.67,4.19.22,2.64.21,5.31.19,7.97,0,1.28.27,1.9,1.7,2.27,4.33,1.12,6.49,3.88,6.53,8.39.09,10.13.04,20.25.02,30.38-.01,3.55-1.45,6.43-4.21,8.73-2.27,1.89-4.9,3.62-4.08,7.34.25,1.12-.71,1.36-1.68,1.36-9.1-.01-18.2-.02-27.29,0-1.21,0-1.69-.43-1.67-1.65.06-3.49-1.49-6.01-4.52-7.79-2.56-1.51-3.73-3.9-3.72-6.9.03-6.44-.03-12.87.02-19.31.03-4.29,2.2-7.15,6.39-8.17,1.52-.37,1.86-.98,1.85-2.39-.05-7.12-.02-14.25,0-21.37,0-2.41,1.15-4.07,3.38-4.96,2-.79,3.74-.23,5.16,1.23.86.88,1.87,1.84.69,3.3-.31.38-.18,1.16-.18,1.75,0,9.1-.02,18.19.02,27.29,0,.88-.58,2.36,1.1,2.35,1.64-.01,1.12-1.47,1.12-2.37.04-9.1,0-18.19.04-27.29,0-1.94-1.43-3.48-1.11-5.59.45-2.89,2.12-5,4.79-5.13,2.59-.13,4.83,1.82,5.22,4.68.19,1.34.18,2.72.29,4.7Zm-1.18,17.07c0,4.63-.01,9.26.01,13.89,0,.78-.3,1.86,1.07,1.88,1.34.02,1.16-1,1.17-1.83.01-9.34.01-18.69,0-28.03,0-.92.16-2.12-1.24-2.06-1.24.05-1,1.2-1,2-.02,4.71-.01,9.43-.01,14.14Zm12.56,5.66c0-3.09,0-6.18,0-9.27,0-.87.05-1.83-1.25-1.76-1.18.06-.99,1.01-.99,1.73-.02,6.09-.02,12.19,0,18.28,0,.75-.1,1.61,1.09,1.62,1.16,0,1.15-.8,1.15-1.59,0-3,0-6.01,0-9.01Zm-31.21,10.13c0-2.23.02-4.45,0-6.68,0-.73.15-1.63-1.05-1.65-1.14-.02-1.17.76-1.17,1.57,0,4.45,0,8.9,0,13.35,0,.76-.08,1.6,1.08,1.64,1.2.05,1.13-.79,1.13-1.56.01-2.23,0-4.45,0-6.68Z"/>
      <path class="cls-1" d="m73.52,109.16c-6.85-6.71-13.72-13.28-20.4-20.05-2.48-2.51-2.42-5.95-2.07-9.25.28-2.59.2-4.94-2.28-6.54-1.16-.75-.66-1.46.12-2.23,6.45-6.41,12.89-12.82,19.28-19.3,1.08-1.09,1.71-.94,2.65.08,2.26,2.43,5.03,3,8.22,2.18,2.86-.73,5.46-.05,7.59,2.05,3.49,3.43,6.92,6.9,10.4,10.34.85.84,1.21,1.39-.32,1.89-.86.28-1.83.82-2.32,1.53-1.22,1.78-2.09,1.3-3.32,0-.59-.63-1.09-2.37-2.54-1.11-1.49,1.3.8,1.72.72,2.91-2.37.43-4.63,1.23-6.15,3.41-1.49,2.13-1.36,4.53-1.35,6.93.01,2.54,0,5.08,0,7.6-.87.11-1.06-.48-1.46-.76-.54-.38-.93-.19-1.35.21-.54.53-.62,1.12,0,1.52,3.25,2.07,2.9,5.29,2.81,8.45-.03,1.04.06,1.88-1.31,2.36-1.29.45-2.04.23-2.9-.71-1.33-1.45-2.78-2.8-4.17-4.2-.55-.55-1.05-.83-1.73-.13-.66.67-.48,1.18.14,1.7.13.11.26.23.36.37,1.41,1.78,4.48,2.96,4.2,5.09-.24,1.84-2.16,3.7-2.83,5.65Z"/>
      <path class="cls-1" d="m124.98,96.14c-1.56-3.76-3.7-6.22-7.12-7.29-1.06-.33-.94-1.07-.95-1.82-.02-1.97.06-3.95-.04-5.92-.23-4.56-4.11-7.7-8.61-7.04-.72.11-1.5.65-1.84-.56-1.02-3.62-3.63-5.39-6.92-5.92,3.82-4.01,7.52-8.17,11.53-12.01,2.13-2.04,5.05-2.38,7.99-2.01,2.92.37,5.85.76,7.78-2.32.65-1.03,1.36-.58,2.07.13,6.47,6.51,12.95,13.01,19.47,19.48.87.86.94,1.43.01,2.27-2.6,2.37-3.24,5.24-2.37,8.65.76,2.96-.19,5.57-2.37,7.74-4.44,4.41-8.85,8.86-13.3,13.27-1.29,1.28-2.91,2.92-4.59,2.26-1.4-.55-.3-2.76-.57-4.21-.3-1.63.49-2.74,1.63-3.78,1.46-1.33,2.8-2.78,4.2-4.17.59-.58,1.06-1.09.23-1.91-.9-.88-1.37-.15-1.86.38-1.4,1.49-2.77,3.01-4.37,4.76Z"/>
      <path class="cls-1" d="m99.08,161.39c-5.75,0-11.5-.05-17.25.03-1.56.02-2.12-.4-2.05-2.01.12-2.83.09-5.66.01-8.49-.04-1.33.39-1.78,1.75-1.77,11.84.04,23.69.04,35.53,0,1.33,0,1.82.38,1.78,1.75-.09,2.83-.11,5.67,0,8.49.06,1.57-.41,2.07-2.01,2.04-5.92-.09-11.84-.04-17.77-.04Z"/>
      <path class="cls-1" d="m160.82,66.41c-.49.52-.97,1.12-1.55,1.62-1.85,1.61-3.26,4.83-5.4,4.65-1.85-.15-3.52-2.96-5.21-4.65-6.93-6.9-13.81-13.85-20.78-20.72-1.18-1.17-1.31-1.9-.01-3.03,1.93-1.68,3.59-4.75,5.61-4.97,2.12-.23,3.76,3.05,5.56,4.83,6.84,6.75,13.61,13.57,20.4,20.37.53.53,1.26.93,1.38,1.9Z"/>
      <path class="cls-1" d="m43.46,73.26c-.68.06-7.27-6.41-7.07-6.9.18-.45.6-.81.96-1.17,8.35-8.36,16.72-16.71,25.04-25.1.92-.93,1.5-1.04,2.42-.03,1.5,1.64,3.09,3.21,4.72,4.72.93.87,1.09,1.49.08,2.49-8.45,8.38-16.85,16.81-25.27,25.23-.3.3-.63.56-.88.77Z"/>
    </g>
  </g>
</svg>