<?xml version="1.0" encoding="utf-8"?>
<!-- Generator: Adobe Illustrator 27.8.0, SVG Export Plug-In . SVG Version: 6.00 Build 0)  -->
<svg version="1.1" id="Layer_1" xmlns="http://www.w3.org/2000/svg" xmlns:xlink="http://www.w3.org/1999/xlink" x="0px" y="0px"
	 viewBox="0 0 197.2 197.2" style="enable-background:new 0 0 197.2 197.2;" xml:space="preserve">
<style type="text/css">
	.st0{fill:#b00bc5;}
	.st1{fill:#fff;}
	.st2{fill:none;stroke:#b00bc5;stroke-miterlimit:10;}
</style>
<g>
	<circle class="st0" cx="98.6" cy="98.6" r="98.6"/>
</g>
<g>
	<path class="st1" d="M91.9,66.8c-6.8,0-13.6,0-20.4,0c-3.2,0-4-0.8-4.1-4c0-2-0.1-4,0-6c0.1-2.8,1.1-3.7,3.9-3.8
		c2.7-0.1,5.4-0.1,8.1,0c2.2,0.1,3.3-0.8,3.6-3.1c0.5-5.1,4.2-8.4,9-8.4c4.6,0,8.5,3.6,9,8.5c0.2,2.2,1.2,3.1,3.3,3
		c2.8-0.1,5.6-0.1,8.4,0c2.8,0.1,3.7,1,3.9,3.8c0.1,2.1,0.1,4.2,0,6.3c-0.1,2.9-0.9,3.7-3.8,3.7C105.8,66.8,98.9,66.8,91.9,66.8z"/>
	<g>
		<path class="st1" d="M122.8,122.1c-3.3,0-5.5,2.2-5.5,5.4c0,3.2,2.3,5.4,5.4,5.5c3.2,0,5.5-2.2,5.5-5.3c0-1.7-0.5-3.1-1.5-4.1
			C125.7,122.6,124.4,122.1,122.8,122.1"/>
		<path class="st1" d="M99.4,153.8c-0.5-0.6-1.1-1.1-1.7-1.8c-0.4-0.4-0.9-0.8-1.3-1.3c-3.4-3.5-4.4-7-2.8-10.5c-2.9,0-5.7,0-8.6,0
			c-2.9,0-4.4-1.3-4.5-3.6c0-2.3,1.4-3.5,4.4-3.5c1,0,2,0,2.9,0c-0.2-0.9-0.4-1.8-0.3-2.9c0-1.8,0-3.6,0-5.4c0-3.5,1.4-5.8,2.7-7
			c0.5-0.5,1.3-1.1,2.2-1.6c-2.5,0-5.1,0-7.6,0c-2.8,0-4.2-1.2-4.2-3.5c-0.1-2.3,1.3-3.5,4.2-3.5c2.8,0,5.6,0,8.5,0
			c0.4-1.5,1.2-3.1,2.9-4.7c0.7-0.6,1.3-1.3,1.9-1.9c0.5-0.5,1.1-1.1,1.6-1.6c1.1-1.1,3.5-3.4,7.1-3.4c1.6,0,2.9,0.4,4,1
			c0.4-1.1,0.9-2.1,1.7-3c1.7-2,4.1-3.1,6.9-3.1l5.8,0l0.2-0.1l1,0.1c0,0,0.1,0,0.1,0c2.6,0,5,1.1,6.7,3c0.8,0.9,1.4,2,1.7,3.1
			c0.9-0.5,1.9-0.8,2.9-0.9c0-10.9,0-21.9,0-32.8c0-5.5-1.7-7.2-7.1-7.2c-1,0-1.9,0-2.9,0c-6.3,0-6.3,0-6.5,6.2c0,0.2,0,0.3,0,0.5
			c-0.3,4.3-2.9,7-7.2,7c-14.6,0.1-29.3,0.1-43.9,0c-4.3,0-6.8-2.6-7.1-6.8c-0.1-1.5-0.1-3,0-4.4c0.1-1.8-0.6-2.6-2.4-2.5
			c-2.4,0.1-4.9,0-7.3,0c-5,0-6.8,1.8-6.8,6.8c0,27.9,0,55.8,0,83.7c0,5.9,1.7,7.6,7.6,7.6c15.9,0,31.8,0,47.6,0
			C100.8,155.2,100.1,154.6,99.4,153.8z M85,85.1c12,0,24,0,36.1,0c3,0,4.8,1.5,4.7,3.7c0,2-1.8,3.4-4.8,3.4c-6,0-12,0-18,0
			c-6,0-12,0-18,0c-3,0-4.4-1.2-4.4-3.6C80.5,86.3,81.9,85.1,85,85.1z M59.6,88.3c0-6,0-6,6.1-6c6.7,0,6.7,0,6.7,6.7
			c0,0.4,0,0.9,0,1.3c0,4.1-0.4,4.5-4.5,4.5c-1.7,0-3.3-0.1-5,0c-2.4,0.1-3.6-1-3.4-3.5C59.7,90.4,59.6,89.4,59.6,88.3z M66.2,142.9
			c-6.6,0-6.6,0-6.6-6.5c0-6.3,0-6.3,6.3-6.3c6.5,0,6.5,0,6.5,6.5C72.5,142.9,72.5,142.9,66.2,142.9z M72.4,115c0,3.3-0.6,3.9-4,3.9
			c-0.9,0-1.7,0-2.6,0c-6.2,0-6.2,0-6.2-6.1c0-6.7,0-6.7,6.8-6.7c1,0,1.9,0,2.9,0c2,0.1,3.1,1.1,3.1,3.1
			C72.5,111.1,72.5,113.1,72.4,115z"/>
	</g>
	<path class="st1" d="M128.2,152.6c0-0.8-0.3-1.8,0.3-2.4c1.7-1.4,3.8-2,5.8-2.6c1.3-0.4,1.9,1,2.6,1.8c1.4,1.4,2.5,1.3,3.8-0.1
		c1.2-1.3,2.5-2.6,3.8-3.8c1.5-1.4,1.5-2.6,0-3.9c-0.7-0.6-1.9-1.2-1.7-2.2c0.3-2.1,1.3-4,2.3-5.7c0.7-1.1,2-0.6,3.1-0.6
		c1.8-0.1,2.7-0.9,2.7-2.8c0-1.8,0-3.6,0-5.3c0.1-2-0.8-2.9-2.8-2.8c-0.9,0-2.2,0.4-2.8-0.4c-1.3-1.7-2-3.8-2.6-5.9
		c-0.4-1.2,1.1-1.8,1.8-2.6c1.4-1.3,1.3-2.5,0-3.8c-1.4-1.3-2.7-2.7-4.1-4.1c-1-1-2.2-1.3-3,0c-1.8,2.6-3.7,2-6.1,1
		c-2.2-0.9-3.6-1.9-3.2-4.5c0.2-1.3-0.3-2.5-1.9-2.5c-0.2,0-0.3,0-0.5,0l0,0l-6.5,0c-1.8,0-2.2,1.4-2,2.8c0.4,2.5-1.1,3.4-3.1,4.1
		c-2,0.7-3.7,1.8-5.5-0.4c-1.6-1.9-2.3-1.8-4.2,0c-1.2,1.2-2.4,2.4-3.6,3.6c-1.4,1.3-1.3,2.5,0,3.8c0.7,0.7,2.2,1.3,1.8,2.6
		c-0.6,2-1.3,4.2-2.6,5.9c-0.6,0.8-1.8,0.4-2.8,0.3c-1.9,0-2.8,0.8-2.7,2.7c0,1.9,0,3.7,0,5.6c0,1.9,1,2.6,2.8,2.7
		c1.1,0,2.4-0.5,3.1,0.7c1,1.8,1.9,3.7,2.3,5.7c0.2,0.8-0.8,1.3-1.4,1.9c-2,2-2,2.4,0,4.5c1.1,1.1,2.3,2.2,3.3,3.3
		c1.4,1.6,2.7,1.5,4.1,0c0.7-0.7,1.3-2,2.5-1.6c2,0.7,4.2,1.2,5.8,2.7c0.6,0.6,0.3,1.7,0.3,2.6c0,1.7,0.5,2.8,2.4,2.8
		c0.2,0,0.3,0,0.5,0l0,0l5.3,0l0,0c0.1,0,0.2,0,0.3,0C127.8,155.7,128.2,154.4,128.2,152.6z M122.6,140c-7,0-12.3-5.4-12.3-12.5
		c0-7.1,5.4-12.5,12.6-12.4c7.2,0,12.4,5.4,12.3,12.6C135.1,134.7,129.7,140,122.6,140z"/>
</g>
<path class="st2" d="M935.7,260.7H-548.5c-12.7,0-23-10.3-23-23v-362.4c0-12.7,10.3-23,23-23H935.7c12.7,0,23,10.3,23,23v362.4
	C958.7,250.4,948.4,260.7,935.7,260.7z"/>
</svg>
