<?xml version="1.0" encoding="UTF-8"?>
<svg id="Layer_1" data-name="Layer 1" xmlns="http://www.w3.org/2000/svg" xmlns:xlink="http://www.w3.org/1999/xlink" viewBox="0 0 80 80">
  <defs>
    <style>
      .cls-1 {
        fill: url(#linear-gradient);
      }

      .cls-1, .cls-2 {
        stroke-width: 0px;
      }

      .cls-2 {
        fill: url(#linear-gradient-2);
      }
    </style>
    <linearGradient id="linear-gradient" x1="16.69" y1="1.35" x2="75.91" y2="62.34" gradientUnits="userSpaceOnUse">
      <stop offset="0" stop-color="#a801bd"/>
      <stop offset="1" stop-color="#453e1b"/>
    </linearGradient>
    <linearGradient id="linear-gradient-2" x1="1.15" y1="16.45" x2="60.37" y2="77.43" xlink:href="#linear-gradient"/>
  </defs>
  <g id="jgtZZ1.tif">
    <g>
      <path class="cls-1" d="m40.01,6.96c7.13,0,14.26,0,21.39,0,2.59,0,3.97.83,4.84,3.21,2.23,6.04,4.51,12.07,6.47,18.21.84,2.63.23,5.41-1.52,7.66-1.69,2.17-4.19,2-6.57,1.74-1.71-.19-3.29-.84-4.38-2.29-.43-.58-.66-.49-1.12,0-3.07,3.29-8.93,3.29-12.03,0-.48-.51-.66-.49-1.13,0-3.08,3.29-8.98,3.29-12.04,0-.47-.51-.65-.52-1.13-.01-3.1,3.29-8.97,3.3-12.03.02-.46-.49-.64-.56-1.13-.03-2.19,2.35-6.16,3.18-9.1,1.94-2.67-1.13-3.2-3.57-3.55-6.06-.2-1.41,0-2.79.5-4.16,1.96-5.31,3.84-10.66,5.75-15.99,1.24-3.46,2.33-4.24,5.94-4.24,6.95,0,13.9,0,20.84,0Z"/>
      <path class="cls-2" d="m49.35,73c-4.85,0-9.69-.03-14.54.02-1.19.01-1.59-.35-1.58-1.56.05-6.26,0-12.53.05-18.79.01-1.24-.31-1.68-1.61-1.65-3.34.09-6.68.07-10.01,0-1.1-.02-1.41.37-1.4,1.43.04,6.26-.02,12.53.05,18.79.02,1.39-.4,1.92-1.79,1.77-.9-.1-1.83,0-2.74-.03-2.6-.06-4.46-1.92-4.47-4.54-.02-8.37,0-16.73-.03-25.1,0-1.12.28-1.55,1.5-1.4,2.17.26,4.29-.14,6.27-1.04.77-.35,1.4-.35,2.2-.02,3.67,1.55,7.38,1.54,11.05-.01.74-.31,1.33-.33,2.07-.01,3.72,1.58,7.46,1.59,11.17-.03.69-.3,1.26-.29,1.95,0,3.71,1.59,7.46,1.6,11.17.02.74-.32,1.34-.31,2.07.02,2.08.93,4.27,1.33,6.54,1.05.99-.12,1.29.27,1.29,1.21-.02,8.5,0,17.01-.03,25.51-.01,2.52-1.92,4.32-4.52,4.33-4.89.03-9.78,0-14.68,0Zm1.46-8.97c2.47,0,4.94-.03,7.41.02.96.02,1.41-.21,1.4-1.29-.05-3.47-.04-6.95,0-10.42,0-.93-.28-1.3-1.25-1.29-4.94.03-9.88.04-14.81,0-1.04,0-1.34.36-1.33,1.36.04,3.43.04,6.86,0,10.29-.01,1,.29,1.39,1.33,1.36,2.42-.06,4.85-.02,7.27-.02Z"/>
    </g>
  </g>
</svg>