<?xml version="1.0" encoding="utf-8"?>
<!-- Generator: Adobe Illustrator 27.8.0, SVG Export Plug-In . SVG Version: 6.00 Build 0)  -->
<svg version="1.1" id="Layer_1" xmlns="http://www.w3.org/2000/svg" xmlns:xlink="http://www.w3.org/1999/xlink" x="0px" y="0px"
	 viewBox="0 0 197.2 197.2" style="enable-background:new 0 0 197.2 197.2;" xml:space="preserve">
<style type="text/css">
	.st0{fill:#a801bd;}
	.st1{fill:#fff;}
</style>
<circle class="st0" cx="98.6" cy="98.6" r="98.6"/>
<g id="_x34_XDOmI.tif">
	<g>
		<path class="st1" d="M50.9,150.8c-1.8-2.5-0.8-6.9,1.8-8.4c2.9-1.6,3.5-5.1,1.1-7.6c-1.5-1.7-1.9-4.8-0.7-6.7
			c0.6-1.1,1.6-1.1,2.7-1.1c8.3,0,16.6,0,24.9,0c5.3,0,10.6,0.1,15.9,0c2,0,3,0.8,3.3,2.8c0.3,2,0.4,3.7-1.4,5.3
			c-2.3,2.1-1.6,5.5,1,7.2c2.7,1.7,3.8,5.6,2.5,8.6C84.8,150.8,67.8,150.8,50.9,150.8z"/>
		<path class="st1" d="M105.9,150.8c0.6-3-0.1-5.9-1.1-8.8c-0.4-1.3-1.6-2.1-2.9-2.7c-0.5-0.2-1-0.5-1-1.1c0.1-0.8,0.8-0.8,1.4-0.9
			c0.4,0,0.8,0,1.2,0c13,0,26.1,0,39.1,0c1.8,0,3,0.2,3.2,2.3c0.1,1.1,0.9,2.1,1.9,2.5c2,0.7,2.7,2.3,3,4.2c0,1.5,0.6,3.6-0.2,4.3
			c-0.7,0.7-2.8,0.2-4.3,0.2C132.8,150.8,119.4,150.8,105.9,150.8z"/>
		<path class="st1" d="M78,124c-4.4,0-8.8,0-13.3,0c-1.3,0-2-0.2-2.1-1.7c-0.4-6-3.1-8.5-9.2-8.8c-1,0-1.8-0.1-1.8-1.3
			c-0.1-4.8-1.7-9.2-3.3-13.6c-2.6-7.4-3.1-14.9-0.3-22.3c3.4-8.8,10.4-13.1,19.3-14.8c2.5-0.5,5-0.5,7.5-0.5c1.8,0,2.6,0.8,2.6,2.6
			c0,0.6,0,1.2,0,1.8c-0.1,1.1,0.3,1.8,1.5,2.1c2.4,0.5,4.2,1.9,5.8,3.6c3.4,3.5,6.9,6.9,11.4,9.1c1.4,0.7,1.7,1.9,0.9,3.2
			c-1.4,2.2-2.8,4.4-4.2,6.5c-0.7,1.2-1.7,1.4-3,0.9c-4.7-1.9-9.7-2.7-14.5-3.9c-1.5-0.4-1.7,0.3-1.4,1.5c0.3,1.1,1.2,1.8,2.1,2.4
			c4.4,3.1,8.8,6.1,12.4,10.3c3.9,4.6,6.2,10.1,7.4,15.9c0.8,3.8-2,7-5.9,7C85.8,124,81.9,124,78,124z M65.6,69.1
			c-7.3,1.8-11.8,7.5-12.3,14.8c-0.4,6.9,2.1,13.3,3.5,19.8c0.5-3.9-0.4-7.6-1-11.3C54.1,82.2,55.9,73.8,65.6,69.1z"/>
		<path class="st1" d="M121.2,124c-6.4,0-12.8,0-19.2,0c-2.7,0-2.9-0.4-2.5-3c1.6-11.7,3.1-23.4,4.6-35.1c0.2-1.6,0.8-2.1,2.3-2.1
			c9.6,0,19.3,0,28.9,0c1.6,0,2.3,0.5,2.5,2.2c1.5,11.9,3.1,23.8,4.7,35.7c0.2,1.7-0.2,2.3-1.9,2.3C134.2,123.9,127.7,124,121.2,124
			z"/>
		<path class="st1" d="M120.9,68.8c-5,0-9.9,0-14.9,0c-1.2,0-2.3-0.2-3.1-1.2c-0.6-0.7-1.4-1.1-2.3-1.3c-2.2-0.5-2.7-1.8-2.6-3.9
			c0.2-4.7,0.2-9.4,0.2-14.1c0-1.6,0.6-2.3,2.3-2.2c1.7,0.1,3.4,0.1,5.1,0c1.2,0,1.7,0.5,1.7,1.7c0,1.6,0,3.3,0,4.9
			c0,1.1,0.5,1.6,1.6,1.6c1.6,0,3.1-0.1,4.7,0c1.3,0,1.7-0.6,1.6-1.7c0-1.6,0-3.1,0-4.7c0-1.2,0.4-1.8,1.7-1.8c2.8,0,5.6,0,8.4,0
			c1.2,0,1.7,0.6,1.7,1.7c0,1.4,0.1,2.9,0,4.3c-0.1,1.7,0.6,2.3,2.3,2.2c0.5-0.1,1.1,0,1.6,0c4.5-0.1,4.2,0.7,4-4.2
			c-0.1-4.3-0.5-3.9,4-3.9c4.6,0,4.7,0,5,4.4c0.3,4.3,0.2,8.7,0.3,13c0,1.3-0.6,2-1.8,2.4c-1.3,0.4-2.6,0.9-3.5,2
			c-0.7,0.8-1.7,0.8-2.7,0.8C131,68.8,125.9,68.8,120.9,68.8z"/>
		<path class="st1" d="M121.1,71.6c5,0,9.9,0,14.9,0c3.4,0,5.1,1.6,5.2,4.7c0,3-1.8,4.8-5.1,4.8c-10,0.1-20.1,0.1-30.1,0
			c-3.5,0-5.1-1.7-5-5c0.1-3,1.7-4.4,5.1-4.4C111,71.5,116,71.6,121.1,71.6z"/>
		<path class="st1" d="M125.7,134.6c-6.7,0-13.3,0-20,0c-1.4,0-2.1-0.3-2-1.9c0.1-1.3-0.2-2.6-0.4-3.8c-0.3-1.5,0.3-1.9,1.7-1.9
			c5,0,9.9,0,14.9,0c8.3,0,16.6,0,24.8,0c1.1,0,2.5-0.4,3,1c0.7,1.8,1.3,3.7,0.4,5.5c-0.5,1.1-1.8,1-2.9,1
			C138.7,134.6,132.2,134.6,125.7,134.6z"/>
	</g>
</g>
</svg>
