<?xml version="1.0" encoding="UTF-8"?>
<svg id="Layer_1" data-name="Layer 1" xmlns="http://www.w3.org/2000/svg" xmlns:xlink="http://www.w3.org/1999/xlink" version="1.1" viewBox="0 0 74 60">
  <defs>
    <style>
      .cls-1 {
        fill: #f5f5f5;
      }

      .cls-1, .cls-2, .cls-3, .cls-4, .cls-5 {
        stroke-width: 0px;
      }

      .cls-6 {
        clip-path: url(#clippath);
      }

      .cls-2 {
        fill: none;
      }

      .cls-3 {
        fill: #a801bd;
      }

      .cls-7 {
        clip-path: url(#clippath-1);
      }

      .cls-4 {
        fill: #a801bd;
      }

      .cls-5 {
        fill: #82753c;
      }
    </style>
    <clipPath id="clippath">
      <rect class="cls-2" y="0" width="74" height="60"/>
    </clipPath>
    <clipPath id="clippath-1">
      <rect class="cls-2" x="2.3" y="2.9" width="69.8" height="54.2"/>
    </clipPath>
  </defs>
  <g class="cls-6">
    <g id="Mask_Group_177" data-name="Mask Group 177">
      <g id="Group_6731" data-name="Group 6731">
        <g class="cls-7">
          <g id="Group_6730" data-name="Group 6730">
            <path id="Path_22623" data-name="Path 22623" class="cls-4" d="M37.2,7.5c9.4-7.4,22.9-5.8,30.3,3.6,7.4,9.4,5.8,22.9-3.6,30.3-7.8,6.2-18.8,6.2-26.6,0,0-.1.2-.2.3-.3,1.7-1.4,3.2-3.1,4.4-5,3-4.6,4.1-10.2,3.1-15.7-.9-4.9-3.5-9.3-7.3-12.5-.2-.2-.4-.3-.7-.3v-.2"/>
            <path id="Path_22624" data-name="Path 22624" class="cls-5" d="M37.2,7.5v.2c-.2,0-.3,0-.4.1-5.7,4.7-8.6,12-7.6,19.4.5,3.6,1.8,6.9,3.9,9.8,1.2,1.6,2.6,3,4.1,4.4-8.7,7.2-22.5,5.7-29.8-3.1C-.3,29.2.9,15.6,10,8c2.9-2.4,6.3-4,10-4.7,6.1-1.2,12.4.3,17.2,4.2"/>
            <path id="Path_22625" data-name="Path 22625" class="cls-3" d="M37.1,41.5c-1.5-1.3-2.8-2.8-4.1-4.4-2.1-2.9-3.4-6.3-3.9-9.8-1-7.3,1.9-14.7,7.6-19.4.1,0,.2-.1.4-.1.3,0,.5,0,.7.3,3.8,3.2,6.4,7.6,7.3,12.5,1,5.4,0,11-3.1,15.7-1.2,1.8-2.7,3.5-4.4,5,0,0-.2.2-.3.3,0,0-.1,0-.2,0"/>
            <path id="Path_22626" data-name="Path 22626" class="cls-3" d="M15.1,56.8c-1.2.3-1.3.3-1.3-.9s0-1.6,0-2.4c0-.9-.5-1.3-1.2-1.3-.7,0-1.3.5-1.4,1.2,0,0,0,0,0,.1,0,.8,0,1.5,0,2.3q0,1.3-1.3,1v-.2c0-1,0-2.1,0-3.1,0-.9-.5-1.3-1.2-1.3-.7,0-1.3.5-1.4,1.2,0,0,0,0,0,.1,0,.8,0,1.5,0,2.3,0,1.3,0,1.3-1.3,1v-.2c0-1.6,0-3.2,0-4.8,0-.2-.2-.6.2-.6.3,0,.9-.2.9,0,.2.7.4.2.6,0,.8-.5,1.9-.4,2.7.3.3.3.5.3.8,0,.7-.7,1.8-.8,2.7-.3.8.4,1.3,1.2,1.2,2.1,0,1.1,0,2.2,0,3.3v.2"/>
            <path id="Path_22627" data-name="Path 22627" class="cls-3" d="M67.6,48.8c.2,0,.4,0,.6,0,.5,0,.6.1.6.6,0,2.3,0,4.6,0,6.8,0,.2.2.6-.2.6-.3,0-.8.2-1-.2-.1-.2,0-.3-.4-.2-1.1.8-2.7.6-3.6-.5-.9-1.1-1-2.6-.3-3.8.7-1.2,2.2-1.6,3.5-1.1,0,0,0,0,0,0,.2.1.3.4.6.4.1-.9,0-1.9.1-2.8M65.9,55.8c1,0,1.8-.8,1.9-1.8,0-1-.8-1.8-1.8-1.9-1,0-1.8.8-1.9,1.8,0,0,0,0,0,.1,0,.9.7,1.7,1.6,1.7,0,0,.1,0,.2,0"/>
            <path id="Path_22628" data-name="Path 22628" class="cls-3" d="M57.2,54c0,.7,0,1.5,0,2.2,0,.2.1.6-.2.6-.3,0-.9.2-1,0-.2-.6-.4-.2-.7-.1-1.2.6-2.6.3-3.4-.7-.9-1.2-.9-2.8,0-4,.8-1,2.3-1.3,3.4-.7.2.1.4.5.6,0,.1-.3.7-.2,1,0s.2.4.2.7c0,.7,0,1.5,0,2.2M54.3,55.8c1,0,1.8-.9,1.7-1.9,0-.9-.8-1.6-1.7-1.7-1,0-1.8.9-1.7,1.9,0,1,.8,1.7,1.8,1.7"/>
            <path id="Path_22629" data-name="Path 22629" class="cls-3" d="M22.1,54c0,.7,0,1.5,0,2.2,0,.2.2.6-.3.7-.3,0-.8.2-1-.2s-.2-.2-.4,0c-1.2.7-2.7.5-3.6-.6-.9-1.2-.9-2.8,0-4,.9-1.1,2.4-1.3,3.6-.6.3.2.3.2.5-.1s.7-.2,1-.1c.4,0,.2.4.2.6,0,.7,0,1.5,0,2.2M19.1,52.2c-1,0-1.9.7-1.9,1.7,0,1,.7,1.9,1.7,1.9,1,0,1.9-.7,1.9-1.7,0,0,0,0,0-.1,0-.9-.7-1.7-1.6-1.8,0,0,0,0-.1,0"/>
            <path id="Path_22630" data-name="Path 22630" class="cls-3" d="M36.1,54.8c.3.9,1.3,1.4,2.2,1.1.2,0,.3-.1.5-.2.6-.3.8,0,1,.4.3.5-.2.6-.5.7-1.1.6-2.5.6-3.5-.2-1-.7-1.4-2-1.1-3.2.2-1.5,1.7-2.5,3.1-2.3,0,0,0,0,0,0,1.4.3,2.4,1.6,2.3,3,0,.5-.3.5-.6.5-1.1,0-2.2,0-3.3.1,0-.1-.2-.1-.3,0,0,0,0,.1,0,.2M38.8,53.2c0-.7-.7-1.1-1.4-1.1-.7,0-1.3.4-1.4,1.1-.1.2,0,.3.2.2h2.3c.3,0,.3,0,.2-.2"/>
            <path id="Path_22631" data-name="Path 22631" class="cls-3" d="M26,51c.5,0,1.1,0,1.6.3.2.1.8,0,.5.6-.2.3-.3.8-.9.5-.6-.3-1.2-.4-1.8-.2-.3,0-.5.3-.5.6,0,.3.2.4.5.5.6.1,1.2.2,1.7.3.7.1,1.3.7,1.3,1.5,0,.8-.4,1.5-1.2,1.7-1.1.4-2.4.4-3.5-.2-.3-.1-.5-.3-.2-.6.2-.2.2-.7.8-.4.6.4,1.4.5,2.1.3.3,0,.6-.2.6-.6,0-.4-.3-.5-.6-.6-.4,0-.8-.1-1.2-.2-1.2-.3-1.7-.9-1.7-1.8.1-1,1-1.7,1.9-1.7.2,0,.4,0,.6,0"/>
            <path id="Path_22632" data-name="Path 22632" class="cls-3" d="M31.9,51.1c.4,0,.7,0,1.1,0,.4,0,.7,0,.7.6,0,.5-.2.6-.6.6-1.4,0-1.4,0-1.4,1.5v.7c0,1.3.3,1.6,1.5,1.2.5-.1.5.1.6.4s.2.5-.2.7c-.9.6-2.2.4-2.8-.6-.3-.4-.4-.8-.3-1.3,0-.7,0-1.4,0-2,0-.4-.1-.6-.6-.6s-.6-.1-.6-.6c0-.5.1-.6.6-.6.6.1.6-.2.6-.7,0-1.2.1-1.3,1.3-.9,0,0,0,.1,0,.2,0,.4,0,.8,0,1.1,0,.2,0,.3.3.3"/>
            <path id="Path_22633" data-name="Path 22633" class="cls-3" d="M48.7,57c-1.3.1-2.5-.7-3-1.9-.5-1.2-.2-2.5.8-3.4,1-.8,2.5-1,3.6-.4.2.1.7.2.4.7-.2.3-.2.8-.9.5-.7-.4-1.5-.4-2.1.1-.6.5-.8,1.2-.5,1.9.2.9,1.1,1.5,2,1.3.2,0,.4-.1.5-.2.6-.3.8,0,1,.4.3.6-.3.6-.6.7-.4.2-.8.3-1.2.2"/>
            <path id="Path_22634" data-name="Path 22634" class="cls-3" d="M58.8,54c0-.7,0-1.5,0-2.2,0-.2-.2-.6.2-.6.3,0,.8-.2,1,.1.2.5.4.1.5,0,.3-.2.7-.4,1.1-.3.3,0,.8-.1.7.4,0,.4,0,1-.8.9-1-.2-1.4.3-1.5,1.3,0,.9,0,1.8,0,2.7,0,.5-.1.6-.6.6s-.7,0-.7-.6c0-.8,0-1.5,0-2.3"/>
            <path id="Path_22635" data-name="Path 22635" class="cls-3" d="M42.8,56.8c-1.2.3-1.3.3-1.3-.9s0-2.7,0-4c0-.2-.2-.6.2-.6.3,0,.8-.2.9,0,.2.5.4.2.6,0,.3-.2.7-.3,1-.3.3,0,.9-.2.8.4,0,.4,0,.9-.9.8-.9-.2-1.3.3-1.4,1.2,0,1.1,0,2.1,0,3.2v.2"/>
            <path id="Path_22636" data-name="Path 22636" class="cls-3" d="M31.7,49.7v-.2c.1,0,.1,0,0,.2"/>
            <path id="Path_22637" data-name="Path 22637" class="cls-3" d="M31.9,51.1c-.2,0-.3,0-.3-.3l.3.3"/>
            <path id="Path_22638" data-name="Path 22638" class="cls-1" d="M36.1,54.8c0,0,0-.2,0-.2.1,0,.2,0,.3,0h-.3"/>
            <path id="Path_22639" data-name="Path 22639" class="cls-1" d="M5.9,56.6v.2c0,0-.1-.1,0-.2"/>
            <path id="Path_22640" data-name="Path 22640" class="cls-1" d="M9.8,56.6v.2c0,0-.1-.1,0-.2"/>
            <path id="Path_22641" data-name="Path 22641" class="cls-1" d="M15.1,56.8v-.2c.1,0,.1.1,0,.2"/>
            <path id="Path_22642" data-name="Path 22642" class="cls-1" d="M36.1,53.2l.2.2c-.3,0-.3,0-.2-.2"/>
            <path id="Path_22643" data-name="Path 22643" class="cls-1" d="M38.6,53.5l.2-.2c.1.2,0,.3-.2.2"/>
          </g>
        </g>
      </g>
    </g>
  </g>
</svg>