<?xml version="1.0" encoding="utf-8"?>
<!-- Generator: Adobe Illustrator 27.8.0, SVG Export Plug-In . SVG Version: 6.00 Build 0)  -->
<svg version="1.1" id="Layer_1" xmlns="http://www.w3.org/2000/svg" xmlns:xlink="http://www.w3.org/1999/xlink" x="0px" y="0px"
	 viewBox="0 0 197.2 197.2" style="enable-background:new 0 0 197.2 197.2;" xml:space="preserve">
<style type="text/css">
	.st0{fill:#b00bc5;}
	.st1{fill:#fff;}
</style>
<circle class="st0" cx="98.6" cy="98.6" r="98.6"/>
<g id="_x35_hRi1x.tif_00000062192546528565014250000002367444933100858272_">
	<g>
		<path class="st1" d="M90.1,46.8c22.7-0.6,43.2,16.7,46.9,39.3c1.1,6.9,0.8,13.7-1,20.5c-0.5,1.9-1.4,2.4-3.3,2.1
			c-3.6-0.5-7.1-1.8-10.9-1c-6.6,1.4-10.8,7.6-9.8,14.2c0.6,3.5,1.1,7.1,1.8,10.6c0.4,2-0.3,3-2.1,4C88.1,148.8,58.9,139,47.1,115
			c-14.3-29.3,4.5-64,37-68.1C86.1,46.6,88.1,46.8,90.1,46.8z M89.1,98.3C89.1,98.3,89.1,98.3,89.1,98.3c1.2,0,2.3,0,3.5,0
			c7,0.2,6.1-1.3,6.2,6.6c0,1.7-0.6,2.4-2.3,2.4c-4.4-0.1-8.8-0.1-13.2,0c-1.4,0-2.1-0.6-2.6-1.8c-1-2-2.7-3-4.9-2.1
			c-2.2,0.9-3,2.7-2.5,5c0.8,4.2,4.2,7.1,8.9,7c2.9-0.1,4,0.7,3.8,3.7c-0.1,2.9,1.7,4.8,4,4.8c2.3,0,4.2-1.9,4-4.8
			c-0.2-3.3,1.2-3.8,4-3.8c5.4,0,8.8-3.6,9-9c0.1-2.2,0-4.5,0-6.7c-0.1-6.1-3.5-9.5-9.6-9.6c-3.3-0.1-6.6,0-10,0
			c-7.2-0.2-6.2,1.3-6.3-6.5c0-1.8,0.6-2.6,2.5-2.5c4.3,0.1,8.6,0.1,12.9,0c1.5,0,2.2,0.6,2.8,1.9c0.9,1.9,2.6,2.8,4.7,2
			c2.2-0.8,3-2.4,2.7-4.7c-0.6-4.4-4-7.4-8.8-7.4c-2.7,0-4.1-0.5-3.9-3.6c0.2-3-1.8-5-4.2-4.9c-2.3,0.1-4,2-3.9,4.9
			c0.1,2.8-0.9,3.7-3.7,3.6c-5.8-0.1-9.2,3.4-9.3,9.2c-0.1,2.3-0.1,4.7,0,7c0.1,5.4,3.4,8.9,8.9,9.2C84.2,98.4,86.7,98.3,89.1,98.3z
			"/>
		<path class="st1" d="M124.3,115.2c5.5,0.9,11,1.8,16.6,2.7c3,0.5,6,1,9,1.5c2.1,0.4,4,1.1,4.8,3.3c0.8,2.3-0.3,3.9-1.8,5.5
			c-1.5,1.5-4.1,2.7-4.1,4.7c0,2,2.7,3.1,4.1,4.7c2.6,2.8,2.6,5,0,7.7c-1.1,1.2-2.2,2.3-3.4,3.4c-2.3,2.1-4.6,2.1-6.9,0
			c-0.4-0.4-0.8-0.8-1.2-1.1c-4-4-4-4-7.9-0.1c-0.4,0.4-0.8,0.8-1.1,1.1c-3.2,2.9-7.4,1.8-8.2-2.4c-1.6-8.7-3-17.5-4.4-26.2
			C119.2,117.7,121.6,115.3,124.3,115.2z"/>
	</g>
</g>
</svg>
