<?xml version="1.0" encoding="utf-8"?>
<!-- Generator: Adobe Illustrator 27.8.0, SVG Export Plug-In . SVG Version: 6.00 Build 0)  -->
<svg version="1.1" id="Layer_1" xmlns="http://www.w3.org/2000/svg" xmlns:xlink="http://www.w3.org/1999/xlink" x="0px" y="0px"
	 viewBox="0 0 80 80" style="enable-background:new 0 0 80 80;" xml:space="preserve">
<style type="text/css">
	.st0{fill:url(#SVGID_1_);}
	.st1{fill:url(#SVGID_00000123403495066530072690000008177236584955069077_);}
	.st2{fill:url(#SVGID_00000150815922979094050890000002767783867338771375_);}
	.st3{fill:url(#SVGID_00000170255571791398958580000002904417200240712887_);}
	.st4{fill:url(#SVGID_00000118361602906393495620000014631816111740579500_);}
	.st5{fill:url(#SVGID_00000093150097039272887320000012409030832334728079_);}
	.st6{fill:url(#SVGID_00000026121849406342224210000004594199907721486014_);}
	.st7{fill:url(#SVGID_00000070805541949345711610000008977886521727339189_);}
	.st8{fill:url(#SVGID_00000053547265102011839560000003870805273111351427_);}
	.st9{fill:url(#SVGID_00000055698642344350153340000018293482007937240495_);}
	.st10{fill:url(#SVGID_00000159446068552961950260000018163169912378192021_);}
	.st11{fill:url(#SVGID_00000126285113363079447130000018156882597009903291_);}
	.st12{fill:url(#SVGID_00000092420031024316561790000010885248355288264093_);}
	.st13{fill:url(#SVGID_00000024698588186514776770000015350221531076186536_);}
	.st14{fill:url(#SVGID_00000018215927159077597710000004716103202454726542_);}
	.st15{fill:url(#SVGID_00000155839965855166339840000002040281648817097369_);}
	.st16{fill:url(#SVGID_00000168117435537936588310000014257488924368820869_);}
	.st17{fill:url(#SVGID_00000142892843033195319840000008431338834328200876_);}
	.st18{fill:url(#SVGID_00000000211986372709300150000001316423365220561312_);}
	.st19{fill:url(#SVGID_00000030472195340105343540000017213544312686373034_);}
	.st20{fill:url(#SVGID_00000115486399404002604630000011285480175769666968_);}
	.st21{fill:url(#SVGID_00000030459956439337035520000014228382792860288394_);}
	.st22{fill:url(#SVGID_00000031190749377755699330000002768605020094145704_);}
	.st23{fill:url(#SVGID_00000036971789216473128090000016471757140836584355_);}
	.st24{fill:url(#SVGID_00000164507286568239886080000014166366429684782234_);}
	.st25{fill:url(#SVGID_00000057140705382595124190000008703659581159622297_);}
	.st26{fill:url(#SVGID_00000170978361870085842480000007446749275212115080_);}
	.st27{fill:url(#SVGID_00000163756119308181972130000000710511994695031460_);}
	.st28{fill:url(#SVGID_00000145022714894517627000000007443727793765558414_);}
	.st29{fill:url(#SVGID_00000064316494570518344990000015858624341019000504_);}
	.st30{fill:url(#SVGID_00000010294994063148607270000010484219906496507803_);}
	.st31{fill:url(#SVGID_00000072958672107778324840000016116824840084041364_);}
	.st32{fill:url(#SVGID_00000166655817112522125910000002765911037068080057_);}
	.st33{fill:url(#SVGID_00000126292488739903605400000009890964371065912728_);}
	.st34{fill:url(#SVGID_00000135693220368475134260000011397732570542756794_);}
	.st35{fill:url(#SVGID_00000137850563279838258840000011361286242970089368_);}
	.st36{fill:url(#SVGID_00000069398311013922261750000007090017144796608163_);}
	.st37{fill:url(#SVGID_00000106863062612019065260000003545940357260807320_);}
	.st38{fill:url(#SVGID_00000127031341102981742190000015933398610555792789_);}
	.st39{fill:url(#SVGID_00000182504869786547984060000009225179447846382222_);}
	.st40{fill:url(#SVGID_00000089536387629708175910000001440566538301146772_);}
	.st41{fill:url(#SVGID_00000162313031065215139530000017873236948588649137_);}
	.st42{fill:url(#SVGID_00000065049485999412703530000016562148047873140355_);}
	.st43{fill:url(#SVGID_00000168076048454877731810000006521791396732857747_);}
	.st44{fill:url(#SVGID_00000052805139853415741830000016680003720026482841_);}
	.st45{fill:url(#SVGID_00000003069174224459150290000017171450531460090528_);}
</style>
<g id="NR6T2B.tif">
	<g>
		<linearGradient id="SVGID_1_" gradientUnits="userSpaceOnUse" x1="15.5911" y1="7.3248" x2="74.0225" y2="66.7695">
			<stop  offset="0" style="stop-color:#b00bc5"/>
			<stop  offset="1" style="stop-color:#453E1B"/>
		</linearGradient>
		<path class="st0" d="M59.1,36.4c1.1-0.8,1.2-1.9,1.2-3.1c0-2.7,0-5.5,0-8.2c0-1.6-0.6-2.6-2.3-2.8c-1.7-0.2-2.7-1.3-3-3.1
			c-0.2-1.5-1.1-2.2-2.6-2.2c-10,0-20.1,0-30.1,0c-1.5,0-2.4,0.6-2.6,2.1c-0.3,1.8-1.3,2.9-3.1,3.1c-1.5,0.2-2.2,1.1-2.2,2.6
			c0,3.1,0,6.1,0,9.2c0,1.4,0.7,2.3,2.1,2.5c1.8,0.2,2.9,1.3,3.1,3.1c0.2,1.6,1.2,2.2,2.8,2.2c3.9,0,7.8,0,11.7,0
			c1.4,0,1.8,0.3,1.1,1.7c-0.8,1.6-1,3.4-1,5.1c0,1-0.4,1.4-1.4,1.4c-6.6,0-13.3,0.1-19.9-0.1c-3.4-0.1-6.5-3.2-6.6-6.6
			c-0.1-9.3-0.1-18.5,0-27.8c0-3.7,3.4-6.6,7.3-6.6c11.1,0,22.3,0,33.4,0c4.6,0,9.2,0,13.8,0c4.5,0,7.5,3,7.5,7.6
			c0,6.3,0,12.5,0,18.8c0,1.4-0.3,1.8-1.8,1.7c-2.4-0.2-4.9-0.1-7.4-0.1C59.2,36.7,59.2,36.6,59.1,36.4z"/>
		
			<linearGradient id="SVGID_00000165236078830572934790000015996744072611157151_" gradientUnits="userSpaceOnUse" x1="11.8078" y1="11.0436" x2="70.2392" y2="70.4883">
			<stop  offset="0" style="stop-color:#b00bc5"/>
			<stop  offset="1" style="stop-color:#453E1B"/>
		</linearGradient>
		<path style="fill:url(#SVGID_00000165236078830572934790000015996744072611157151_);" d="M55.9,40.5c3.5,0,7,0,10.5,0
			c4.2,0,7.3,3.1,7.3,7.3c0,5.3,0,10.6,0,16c0,4.2-3.1,7.2-7.3,7.3c-7.1,0-14.1,0-21.2,0c-4.1,0-7.2-3.1-7.2-7.2
			c0-5.4,0-10.7,0-16.1c0-4.1,3.1-7.1,7.2-7.2C48.7,40.5,52.3,40.5,55.9,40.5z M48.7,55.6c0,2.3,0,4.6,0,6.9c0,2.7,1.4,3.5,3.7,2.2
			c3.9-2.3,7.7-4.6,11.5-6.9c2-1.2,2-2.7,0.1-3.9c-3.9-2.4-7.9-4.8-11.8-7.1c-2-1.2-3.4-0.4-3.4,2C48.7,51,48.7,53.3,48.7,55.6z"/>
		
			<linearGradient id="SVGID_00000014607275506061192050000003756171270673506198_" gradientUnits="userSpaceOnUse" x1="15.6035" y1="7.3126" x2="74.0349" y2="66.7573">
			<stop  offset="0" style="stop-color:#b00bc5"/>
			<stop  offset="1" style="stop-color:#453E1B"/>
		</linearGradient>
		<path style="fill:url(#SVGID_00000014607275506061192050000003756171270673506198_);" d="M37.5,20.8c4.1,0,8.2,0,12.3,0
			c1.1,0,1.9,0.2,2.3,1.3c0.6,1.5,1.8,2.5,3.2,3.2c0.9,0.4,1.2,1,1.2,1.9c-0.1,0.7-0.1,1.4,0,2.1c0.2,2.2,0.2,4.3-2.5,5.1
			c0,0-0.1,0.1-0.1,0.1c-1.5,2.7-4,2.3-6.4,2.3c-2.3-0.1-4.6,0.2-6.8,1c-0.4,0.2-1,0.3-1.4,0.3c-4.9,0-9.9,0-14.8,0
			c-0.9,0-1.5-0.3-1.9-1.2c-0.7-1.5-1.8-2.6-3.3-3.3c-0.9-0.4-1.3-1-1.2-1.9c0.1-0.7,0-1.3,0-2c-0.2-2.3-0.2-4.5,2.6-5.4
			c0.8-0.3,1.4-1.2,1.8-2.1c0.5-1.3,1.3-1.5,2.6-1.5C29.2,20.8,33.4,20.8,37.5,20.8z M37.3,23.7c-3.1,0.1-5.8,2.9-5.7,5.9
			c0.1,3,2.8,5.7,5.8,5.7c3,0,5.8-2.8,5.8-5.8C43.1,26.4,40.3,23.6,37.3,23.7z"/>
		
			<linearGradient id="SVGID_00000054239718316466269150000007898570232699877792_" gradientUnits="userSpaceOnUse" x1="10.9841" y1="11.8533" x2="69.4155" y2="71.298">
			<stop  offset="0" style="stop-color:#b00bc5"/>
			<stop  offset="1" style="stop-color:#453E1B"/>
		</linearGradient>
		<path style="fill:url(#SVGID_00000054239718316466269150000007898570232699877792_);" d="M52.4,55.8c0-1.2,0-2.3,0-3.5
			c0-0.8,0.3-1,1-0.6c1.9,1.2,3.9,2.3,5.8,3.5c0.7,0.4,0.6,0.9,0,1.2c-1.9,1.1-3.8,2.3-5.6,3.4c-0.7,0.4-1.1,0.3-1.1-0.6
			C52.4,58.1,52.4,56.9,52.4,55.8z"/>
		
			<linearGradient id="SVGID_00000037679085436959190640000017376116260421411461_" gradientUnits="userSpaceOnUse" x1="15.608" y1="7.3082" x2="74.0395" y2="66.7529">
			<stop  offset="0" style="stop-color:#b00bc5"/>
			<stop  offset="1" style="stop-color:#453E1B"/>
		</linearGradient>
		<path style="fill:url(#SVGID_00000037679085436959190640000017376116260421411461_);" d="M37.4,31.5c-1.3-0.1-2.1-0.7-2.1-2.1
			c0-1.3,0.7-2.1,2-2.1c1.3,0,2.1,0.7,2.1,2C39.4,30.7,38.7,31.4,37.4,31.5z"/>
	</g>
</g>
</svg>
