<?xml version="1.0" encoding="UTF-8"?>
<svg id="Layer_1" data-name="Layer 1" xmlns="http://www.w3.org/2000/svg" xmlns:xlink="http://www.w3.org/1999/xlink" version="1.1" viewBox="0 0 146 60">
  <defs>
    <style>
      .cls-1 {
        clip-path: url(#clippath);
      }

      .cls-2 {
        fill: none;
      }

      .cls-2, .cls-3, .cls-4 {
        stroke-width: 0px;
      }

      .cls-3 {
        fill: #b00bc5;
      }

      .cls-5 {
        clip-path: url(#clippath-1);
      }

      .cls-4 {
        fill: #b00bc5;
      }
    </style>
    <clipPath id="clippath">
      <rect class="cls-2" y="0" width="146" height="60"/>
    </clipPath>
    <clipPath id="clippath-1">
      <rect class="cls-2" x="2.6" y="7.7" width="141.3" height="42.6"/>
    </clipPath>
  </defs>
  <g class="cls-1">
    <g id="Mask_Group_185" data-name="Mask Group 185">
      <g id="Group_6745" data-name="Group 6745">
        <g class="cls-5">
          <g id="Group_6744" data-name="Group 6744">
            <path id="Path_22696" data-name="Path 22696" class="cls-4" d="M37.2,32.9c0,9.5-7.8,17.3-17.3,17.3-9.5,0-17.3-7.8-17.3-17.3,0-9.5,7.7-17.2,17.2-17.3,9.6,0,17.3,7.7,17.3,17.3,0,0,0,0,0,0"/>
            <path id="Path_22697" data-name="Path 22697" class="cls-3" d="M66.4,40.6h-2.9v-10.6h-.1c-.1.2-.2.4-.3.6-1.3,3.1-2.6,6.3-3.8,9.4,0,.4-.5.7-1,.7-1.7,0-1.7,0-2.3-1.6-1.2-2.8-2.3-5.7-3.5-8.5,0-.2-.2-.4-.4-.6v10.6h-2.9v-16.6c1.1,0,2.2,0,3.3,0,.2,0,.4.3.5.6,1.5,3.6,3,7.3,4.5,11,0,.2.2.4.3.7.1-.3.2-.5.3-.8,1.5-3.7,3-7.3,4.5-11,0-.4.4-.6.8-.6,1,0,1.9,0,3,0v16.6Z"/>
            <path id="Path_22698" data-name="Path 22698" class="cls-4" d="M35.3,13.8c0-3.4,2.7-6.2,6.1-6.2,3.4,0,6.2,2.7,6.2,6.1,0,0,0,.1,0,.2,0,3.4-2.8,6.1-6.2,6.1s-6.1-2.8-6.1-6.2"/>
            <path id="Path_22699" data-name="Path 22699" class="cls-3" d="M109.2,24.1c2.6,0,5.2-.2,7.7,0,2.9.3,4.5,2.4,4.4,5.4,0,2.7-2.3,4.8-5,4.8-1.3,0-2.6,0-4.1,0v6.3h-3.1v-16.5ZM112.3,26.7c0,1.6,0,3.1,0,4.6,0,.2.2.3.3.3,1.3,0,2.6,0,3.9-.1,1.1-.2,1.9-1.3,1.8-2.4.1-1.2-.7-2.2-1.8-2.4-1.4-.1-2.7,0-4.2,0"/>
            <path id="Path_22700" data-name="Path 22700" class="cls-3" d="M121.7,32.7c0-1.3.7-2.5,1.8-3.2,2-1.3,4.7-1.4,6.7-.1,1,.6,1.7,1.7,1.8,2.8,0,.3,0,.6,0,.9,0,2.5,0,5,0,7.5h-2.8v-1.5c-.1,0-.2,0-.2,0-1.1,1.8-4.2,2-5.8.9-1.2-.8-1.8-2.2-1.5-3.6.3-1.6,1.6-2.7,3.2-2.9,1.1-.1,2.2-.2,3.3-.1.9,0,1.2-.4,1-1.3-.1-.4-.4-.8-.8-1.1-1.4-.9-3.7-.4-4.1,1.2,0,.2-.2.3-.4.4-.7,0-1.4,0-2.2,0M129.2,35.4c-1.1,0-2.1,0-3.1,0-.9,0-1.6.8-1.6,1.7,0,0,0,0,0,0,0,.9.8,1.5,1.7,1.5,0,0,0,0,0,0,1.5.1,2.9-1,3-2.6,0-.2,0-.5,0-.7"/>
            <path id="Path_22701" data-name="Path 22701" class="cls-3" d="M87.9,40.8c-3.4,0-6.1-2.8-6.1-6.2,0-3.4,2.8-6.1,6.2-6.1,3.4,0,6.1,2.8,6.1,6.2,0,3.3-2.5,6.1-5.8,6.2-.1,0-.3,0-.4,0M91.2,34.7c.1-1.6-.8-3.1-2.3-3.6-1.7-.6-3.5.4-4.1,2.1,0,0,0,.1,0,.2-.6,2.2.4,4.3,2.2,4.8,0,0,.1,0,.2,0,2.3.4,4-1.1,4-3.6"/>
            <path id="Path_22702" data-name="Path 22702" class="cls-3" d="M74.5,40.8c-3.4,0-6.1-2.8-6.1-6.2,0-3.4,2.8-6.1,6.2-6.1,3.4,0,6.1,2.8,6.1,6.2.1,3.3-2.5,6-5.8,6.2-.2,0-.3,0-.5,0M77.8,34.6c.2-1.7-1-3.3-2.7-3.6-1.9-.3-3.6.9-3.9,2.8,0,.4,0,.8,0,1.2,0,1.5,1.1,2.9,2.6,3.2,2.3.4,4.1-1.1,4-3.6"/>
            <path id="Path_22703" data-name="Path 22703" class="cls-3" d="M98.5,40.6h-2.9v-11.9h2.9v1.7c.8-1.3,2.3-2,3.9-1.9,2.1-.1,3.9,1.5,4.1,3.6.2,2.8,0,5.7,0,8.5h-2.8v-.7c0-2.1,0-4.3,0-6.4,0-1.1-.8-2.1-1.9-2.3-1.1-.3-2.3.3-2.9,1.3-.3.5-.4,1.1-.4,1.7,0,1.9,0,3.8,0,5.6v.8"/>
            <path id="Path_22704" data-name="Path 22704" class="cls-3" d="M132.5,28.7c0,0,.2,0,.2,0,.9,0,1.9-.3,2.5.1.6.4.7,1.5.9,2.3.6,1.9,1.3,3.8,2,5.8.2-.5.3-.9.5-1.3.7-2.1,1.4-4.3,2.1-6.4.1-.4.3-.6.7-.5.8,0,1.5,0,2.4,0-.3.7-.5,1.3-.7,2-1.7,4.8-3.4,9.5-5.1,14.3-.2.4-.3.6-.8.6-.7,0-1.4,0-2.2,0,.3-1,.6-1.9,1-2.9.6-1.3.6-2.7,0-3.9-1.2-3-2.2-6.1-3.4-9.1,0-.3-.2-.5-.3-.8"/>
          </g>
        </g>
      </g>
    </g>
  </g>
</svg>