<?xml version="1.0" encoding="utf-8"?>
<!-- Generator: Adobe Illustrator 27.8.0, SVG Export Plug-In . SVG Version: 6.00 Build 0)  -->
<svg version="1.1" id="Layer_1" xmlns="http://www.w3.org/2000/svg" xmlns:xlink="http://www.w3.org/1999/xlink" x="0px" y="0px"
	 viewBox="0 0 80 80" style="enable-background:new 0 0 80 80;" xml:space="preserve">
<style type="text/css">
	.st0{fill:url(#SVGID_1_);}
	.st1{fill:url(#SVGID_00000158721527272527425390000017970187808198105530_);}
	.st2{fill:url(#SVGID_00000069375067639075246780000010095153519904409999_);}
	.st3{fill:url(#SVGID_00000064317778665518077880000001380091292125021606_);}
	.st4{fill:url(#SVGID_00000054242883009014303440000008412745924500398234_);}
	.st5{fill:url(#SVGID_00000091003892376422899720000016345794390544728453_);}
	.st6{fill:url(#SVGID_00000047051990433370785130000013923108571903414188_);}
	.st7{fill:url(#SVGID_00000142160520506041056370000007838855500840889775_);}
	.st8{fill:url(#SVGID_00000178913174260024529280000011137318287660189119_);}
	.st9{fill:url(#SVGID_00000171709004827423953870000014637418768282236836_);}
	.st10{fill:url(#SVGID_00000045589433581124632270000009653487447479896510_);}
	.st11{fill:url(#SVGID_00000163774394358417555750000013494216839150616459_);}
	.st12{fill:url(#SVGID_00000113349801738370276490000017669139829355431574_);}
	.st13{fill:url(#SVGID_00000053506165933355621200000012266515609211341451_);}
</style>
<g id="eioNDV.tif">
	<g>
		<linearGradient id="SVGID_1_" gradientUnits="userSpaceOnUse" x1="6.9534" y1="11.4839" x2="66.9836" y2="68.0374">
			<stop  offset="0" style="stop-color:#b00bc5"/>
			<stop  offset="1" style="stop-color:#453E1B"/>
		</linearGradient>
		<path class="st0" d="M6.8,36c0-7.3,0-14.6,0-22c0-5,2.4-7.5,7.4-7.5c12.5,0,24.9,0,37.4,0c5,0,7.5,2.5,7.5,7.5c0,9,0,17.9,0,26.9
			c0,1.4-0.3,2.1-1.9,2.2c-10,1.2-16.5,10.9-14,20.7c0.4,1.5,0.3,1.7-1.3,1.7c-9.2,0-18.4,0-27.6,0c-1.8,0-3.6-0.2-5.1-1.3
			c-1.9-1.5-2.5-3.4-2.5-5.7C6.8,50.9,6.8,43.5,6.8,36z M39.6,26.4C39.6,26.4,39.6,26.4,39.6,26.4c3.3,0,6.5,0,9.8,0
			c1.2,0,2.1-0.4,2-1.7c0-1.3-0.9-1.7-2.1-1.7c-6.5,0-13,0-19.5,0c-1.5,0-2.2,0.6-2.2,1.7c0.1,1.4,1.1,1.6,2.2,1.6
			C33.1,26.4,36.4,26.4,39.6,26.4z M39.6,38.2c3.2,0,6.4,0,9.7,0c1.5,0,2.3-0.6,2.2-1.7c-0.1-1.4-1.1-1.6-2.3-1.6
			c-6.4,0-12.9,0-19.3,0c-1.2,0-2.2,0.3-2.2,1.7c0,1.4,1.1,1.7,2.2,1.7C33.1,38.2,36.4,38.2,39.6,38.2z M35.6,47.3c-2,0-3.9,0-5.9,0
			c-1.1,0-1.9,0.3-2,1.6c0,1.3,0.8,1.7,1.9,1.7c3.9,0,7.9,0,11.8,0c1.1,0,1.9-0.6,1.9-1.7c0-1.2-0.9-1.6-2-1.6
			C39.4,47.3,37.5,47.3,35.6,47.3z M18.3,38.5c0.8,0,1.5-0.4,2-1c1.4-1.5,2.9-3,4.2-4.5c0.7-0.8,0.9-1.6,0.1-2.4
			c-0.9-0.8-1.7-0.6-2.5,0.2c-0.7,0.7-1.4,1.5-2.2,2.3c-1.3,1.3-1.3,1.3-2.5,0c-0.7-0.7-1.4-1-2.3-0.5c-0.9,0.6-1,1.4-0.5,2.3
			c0.5,0.9,1.1,1.8,1.8,2.6C16.9,38.1,17.6,38.4,18.3,38.5z M18.4,50.7c0.8,0,1.4-0.3,1.9-0.8c1.4-1.5,2.9-3,4.3-4.5
			c0.7-0.8,0.8-1.7,0-2.4c-0.8-0.8-1.7-0.6-2.4,0.1c-0.8,0.8-1.6,1.6-2.3,2.4c-1.2,1.3-1.2,1.3-2.5,0c-0.7-0.8-1.5-0.9-2.3-0.4
			c-0.9,0.6-0.9,1.4-0.4,2.3c0.5,0.9,1.1,1.7,1.7,2.5C16.9,50.5,17.6,50.8,18.4,50.7z M18.4,26.7c0.6,0,1.2-0.2,1.6-0.6
			c1.6-1.6,3.2-3.2,4.7-4.9c0.7-0.7,0.7-1.6,0-2.3c-0.8-0.8-1.7-0.6-2.4,0.1c-0.8,0.8-1.7,1.6-2.4,2.5c-0.9,1.1-1.6,1.4-2.4-0.1
			c-0.5-0.9-1.5-1.1-2.4-0.5c-0.8,0.6-0.9,1.5-0.4,2.3c0.5,0.9,1.1,1.7,1.7,2.5C16.9,26.4,17.6,26.7,18.4,26.7z"/>
		
			<linearGradient id="SVGID_00000075164539545848449290000017930151862469212325_" gradientUnits="userSpaceOnUse" x1="7.5993" y1="10.7983" x2="67.6295" y2="67.3518">
			<stop  offset="0" style="stop-color:#b00bc5"/>
			<stop  offset="1" style="stop-color:#453E1B"/>
		</linearGradient>
		<path style="fill:url(#SVGID_00000075164539545848449290000017930151862469212325_);" d="M58.6,73.4C51.4,73.3,45,66.9,45.3,59
			c0.4-8.2,7.1-13.8,14.4-13.4c8.9,0.5,13.9,7.7,13.4,14.6C72.6,68.2,66,74.1,58.6,73.4z M56.9,66c0.9,0.1,1.6-0.3,2.2-0.9
			c0.9-0.9,1.8-1.9,2.7-2.8c1.8-1.9,3.7-3.8,5.5-5.8c1-1.1,1.1-2.4,0.3-3.2c-0.8-0.9-2.2-0.7-3.3,0.4c-0.4,0.4-0.9,0.9-1.3,1.4
			c-1.6,1.7-3.3,3.4-4.9,5.1c-0.8,1-1.4,0.9-2.1-0.1c-0.5-0.7-1.2-1.4-1.8-2c-1-1-2.1-1.1-2.9-0.3c-0.9,0.8-0.9,2,0,3.1
			c1.2,1.4,2.4,2.8,3.6,4.1C55.3,65.5,55.9,66,56.9,66z"/>
	</g>
</g>
</svg>
