<?xml version="1.0" encoding="utf-8"?>
<!-- Generator: Adobe Illustrator 27.8.0, SVG Export Plug-In . SVG Version: 6.00 Build 0)  -->
<svg version="1.1" id="Layer_1" xmlns="http://www.w3.org/2000/svg" xmlns:xlink="http://www.w3.org/1999/xlink" x="0px" y="0px"
	 viewBox="0 0 197.2 197.2" style="enable-background:new 0 0 197.2 197.2;" xml:space="preserve">
<style type="text/css">
	.st0{fill:#a801bd;}
	.st1{fill:#fff;}
</style>
<circle class="st0" cx="98.6" cy="98.6" r="98.6"/>
<g id="HKsurk.tif">
	<g>
		<path class="st1" d="M157.8,106.1c-1.7,7.9-6.4,13.5-13.1,17.7c-1.2,0.7-1.4,1.5-1.3,2.8c0.7,6.7,2.8,12.9,6.1,18.7
			c0.4,0.6,1.2,1.4,0.6,2.1c-0.7,0.8-1.6,0.1-2.3-0.2c-7.6-3.3-14-8.1-18.9-14.7c-1.3-1.8-2.6-2.3-4.8-2.1c-9.5,1-18.7-0.5-27.4-4.8
			c-0.5-0.3-1.2-0.4-1.3-1.4c2.5-0.4,5.1-0.7,7.6-1.2c11.7-2.3,22.4-6.8,30.9-15.5c6.2-6.4,9.8-13.9,9.9-22.9c0-0.6-0.3-1.3,0.5-1.6
			c0.7-0.2,1.1,0.3,1.6,0.7c6.1,4.1,10.3,9.6,11.9,16.9C157.8,102.4,157.8,104.3,157.8,106.1z"/>
		<path class="st1" d="M89.2,120.5c-2.3,0.2-4.9-0.1-7.5-0.5c-2-0.3-3,0.4-4.2,2c-6.6,8.9-15,15.6-25.2,20c-1,0.4-2.3,1.6-3.1,0.6
			c-0.9-1,0.5-2.1,1-3c4.4-7.5,6.9-15.6,8-24.2c0.2-1.7-0.1-2.8-1.7-3.8c-4.4-2.7-8.2-5.9-11.3-10.1c-8.1-11-7.6-24.2,1.3-34.6
			c7.7-8.9,17.7-13.7,29-15.9c15.7-3.1,30.9-1.6,45.2,6.1c5,2.7,9.3,6.2,12.9,10.7c8.8,11.1,8.3,25.5-1.3,36.1
			c-8.5,9.3-19.4,13.8-31.6,15.9C97,120.3,93.3,120.6,89.2,120.5z M108.2,79.3c-3.2,0-5.8,2.6-5.7,5.7c0.1,3.1,2.8,5.7,5.9,5.7
			c3.1,0,5.7-2.7,5.7-5.8C114,81.7,111.5,79.3,108.2,79.3z M76.8,85c0-3.2-2.4-5.6-5.7-5.6c-3.3,0-5.7,2.3-5.6,5.6
			c0,3.2,2.5,5.8,5.7,5.7C74.3,90.6,76.8,88.1,76.8,85z M95.3,85.1c0-3.4-2.2-5.7-5.5-5.8c-3.2-0.1-5.8,2.4-5.8,5.5
			c0,3.2,2.4,5.8,5.6,5.9C92.7,90.8,95.3,88.3,95.3,85.1z"/>
	</g>
</g>
</svg>
