<?xml version="1.0" encoding="utf-8"?>
<!-- Generator: Adobe Illustrator 27.8.0, SVG Export Plug-In . SVG Version: 6.00 Build 0)  -->
<svg version="1.1" id="Layer_1" xmlns="http://www.w3.org/2000/svg" xmlns:xlink="http://www.w3.org/1999/xlink" x="0px" y="0px"
	 viewBox="0 0 197.2 197.2" style="enable-background:new 0 0 197.2 197.2;" xml:space="preserve">
<style type="text/css">
	.st0{fill:#b00bc5;}
	.st1{fill:#fff;}
	.st2{fill:none;stroke:#b00bc5;stroke-miterlimit:10;}
</style>
<g>
	<circle class="st0" cx="98.6" cy="98.6" r="98.6"/>
</g>
<path class="st2" d="M935.7,260.7H-548.5c-12.7,0-23-10.3-23-23v-362.4c0-12.7,10.3-23,23-23H935.7c12.7,0,23,10.3,23,23v362.4
	C958.7,250.4,948.4,260.7,935.7,260.7z"/>
<g id="UsBK7Z.tif_00000120552638352379894600000008163563796232822674_">
	<g>
		<path class="st1" d="M106.3,45.1c1.9,0.8,3.3,2.4,4.3,4.1c1.7,2.9,4.1,4.8,7.4,5.5c0.6,0.1,1.2,0.4,1.8,0.6
			c3.3,1.2,4.5,2.8,4.5,6.3c0,1.2,0,2.4,0,3.7c-0.1,2,0.6,3.8,1.8,5.4c0.7,1,1.5,2,2.2,3c1.8,2.5,1.8,5,0,7.4
			c-0.8,1.1-1.6,2.2-2.4,3.3c-1.1,1.5-1.7,3.2-1.6,5.2c0,1.8,0.1,3.6-0.2,5.4c-0.3,1.9-1.2,3.2-3.1,3.8c-2.2,0.7-4.4,1.2-6.4,2.6
			c-1.2,0.8-2.2,1.8-3.1,2.9c-0.5,0.8-1.2,1.5-1.6,2.3c-1.6,2.7-4,3-6.8,2.7c-1.7-0.2-3.1-1-4.6-1.6c-1.6-0.5-3.2-0.6-4.8-0.1
			c-1.8,0.6-3.6,1.3-5.5,1.6c-2.5,0.4-4.6,0-6-2.4c-0.1-0.2-0.3-0.3-0.4-0.5c-2.1-4-5.7-5.9-9.8-7.1c-3.1-0.9-4.3-2.5-4.4-5.8
			c0-1.2-0.1-2.4,0-3.7c0.1-2.2-0.6-4.2-1.9-5.9c-1-1.3-2-2.6-2.8-4c-0.9-1.7-0.8-3.4,0-5.1c0.7-1.4,1.7-2.7,2.7-4
			c1.4-1.8,2.1-3.9,2-6.2c-0.1-1.5-0.1-3.1,0.1-4.6c0.3-2.3,1.6-3.8,3.7-4.6c1.3-0.5,2.6-0.9,4-1.3c2.1-0.6,3.7-1.8,4.9-3.6
			c0.6-0.8,1.2-1.6,1.8-2.5c0.9-1.3,2.1-2.4,3.5-3c1,0,1.9,0,2.9,0c1.7,0.5,3.3,1.1,5,1.6c1.6,0.5,3.2,0.5,4.8,0
			c1.7-0.5,3.4-1.1,5.1-1.6C104.4,45.1,105.4,45.1,106.3,45.1z M96,96.7c10.6,0,19.2-8.5,19.3-19.1c0-10.6-8.6-19.2-19.3-19.2
			c-10.6,0-19.2,8.6-19.2,19.1C76.7,88.1,85.3,96.7,96,96.7z"/>
		<path class="st1" d="M98.8,114.1c-1.7,3.8-3.4,7.3-5,10.9c-3.8,8.2-7.6,16.5-11.4,24.7c-0.3,0.6-0.6,1.1-1,1.6c-0.9,1-2,1-2.8,0
			c-0.4-0.5-0.7-1.1-0.9-1.7c-1.1-2.9-2.2-5.8-3.3-8.7c-1.2-3-4-4.3-7.1-3c-3.3,1.3-6.6,2.7-9.8,4.1c-0.6,0.3-1.2,0.5-1.9,0.6
			c-1.5,0.3-2.4-0.5-2.1-2c0.1-0.5,0.3-1,0.5-1.5c5.4-11.4,10.7-22.8,16.1-34.2c0.3-0.6,0.3-1.6,1.1-1.6c1,0.1,2.1,0.3,2.8,1.3
			c1.1,1.6,2.2,3.3,3.7,4.7c2.9,2.7,6.2,4.4,10.3,4.2c1.6-0.1,3.2-0.6,4.6-1.2c2.2-1,4.4-0.9,6.7,0c1.7,0.7,3.5,1.2,5.5,1.3
			c3,0.1,5.2-1.6,7.4-3.1c1.9-1.3,3.2-3.1,4.4-5c0.6-0.9,1.3-1.5,2.4-1.7c1.9-0.5,3.8-1.3,5.4-2.4c0.8-0.5,1.2-0.4,1.6,0.5
			c5.7,12.4,11.4,24.8,17.2,37.1c0.2,0.5,0.5,1.1,0.5,1.7c0.2,1.4-0.6,2.2-2,1.9c-0.7-0.1-1.3-0.4-2-0.7c-3-1.3-6.1-2.6-9.1-3.9
			c-3.5-1.5-6.3-0.3-7.6,3.2c-1.1,2.8-2.1,5.7-3.2,8.5c-0.4,1-0.8,2.2-2.1,2.3c-1.4,0.1-1.9-1.1-2.4-2.1
			c-5.4-11.7-10.7-23.3-16.1-35C99.1,114.7,99,114.5,98.8,114.1z"/>
		<path class="st1" d="M96.1,61.9c8.7,0,15.6,7,15.5,15.7c0,8.4-7.1,15.5-15.6,15.4c-9.2-0.1-15.8-7.5-15.7-15.9
			C80.5,68.8,87.5,61.9,96.1,61.9z M90.7,83.6c0,0.7,0.5,0.8,1.1,0.5c1.1-0.6,2.2-1.1,3.3-1.7c0.6-0.4,1.1-0.3,1.7,0
			c1,0.6,2,1.1,3,1.6c0.3,0.2,0.7,0.4,1.1,0.2c0.4-0.3,0.2-0.7,0.2-1c-0.2-1.2-0.4-2.3-0.6-3.5c-0.1-0.7,0-1.1,0.5-1.6
			c0.9-0.8,1.8-1.7,2.6-2.5c0.2-0.2,0.6-0.5,0.4-0.9c-0.1-0.4-0.5-0.4-0.9-0.5c-1.2-0.2-2.4-0.4-3.6-0.5c-0.6-0.1-1.1-0.4-1.3-1
			c-0.5-1.1-1.1-2.2-1.6-3.3c-0.1-0.3-0.3-0.6-0.6-0.6c-0.4,0-0.6,0.3-0.7,0.6c-0.5,1.1-1.1,2.2-1.6,3.3c-0.3,0.6-0.6,0.9-1.3,0.9
			c-1.2,0.2-2.4,0.4-3.6,0.5c-0.4,0.1-0.8,0.1-1,0.5c-0.1,0.4,0.2,0.6,0.5,0.9c0.9,0.8,1.7,1.7,2.6,2.5c0.4,0.4,0.6,0.8,0.5,1.5
			C91.2,80.9,91,82.2,90.7,83.6z"/>
	</g>
</g>
</svg>
