<?xml version="1.0" encoding="UTF-8"?>
<svg id="Layer_1" data-name="Layer 1" xmlns="http://www.w3.org/2000/svg" viewBox="0 0 197.2 197.2">
  <defs>
    <style>
      .cls-1 {
        fill: #fff;
      }

      .cls-1, .cls-2 {
        stroke-width: 0px;
      }

      .cls-2 {
        fill: #b00bc5;
      }
    </style>
  </defs>
  <circle class="cls-2" cx="98.6" cy="98.6" r="98.6"/>
  <g id="l5MiLc.tif">
    <g>
      <path class="cls-1" d="m65.89,67.58c4.17.54,56.67.44,59.64-.13-3.79-5.27-7.47-10.39-11.15-15.52-2.32-3.22-1.46-5.59,2.35-6.81,1.65-.53,2.1.77,2.74,1.64,4.52,6.17,9.05,12.34,13.43,18.61,1.33,1.9,2.83,2.63,5.12,2.58,5.39-.13,10.78,0,16.16-.05,1.99-.02,3.42.39,3.25,2.83-.14,2.04.7,4.67-2.83,4.53-1.77-.07-2.45.96-2.87,2.45-1.52,5.39-3,10.79-4.65,16.14-.68,2.19.45,3,2.05,4.03,10.38,6.71,15.2,16.36,13.79,28.58-1.43,12.41-9.99,21.81-21.95,24.76-11.53,2.84-21.3-.6-29.18-9.26-1.72-1.9-3.36-2.59-5.8-2.58-14.44.08-28.88.05-43.32.04-5.21,0-5.32-.09-6.71-4.98-5.29-18.54-10.6-37.07-15.83-55.62-.61-2.15-1.22-3.64-3.95-3.69-3.12-.06-1.87-2.77-2.07-4.48-.23-1.89.72-2.75,2.63-2.74,5.5.03,10.99-.11,16.49.04,2.53.07,4.16-.73,5.63-2.85,4.29-6.2,8.92-12.17,13.17-18.39,1.81-2.65,3.1-1.46,4.93-.24,2,1.33,2.59,2.42.94,4.59-4.04,5.3-7.85,10.77-12.01,16.52Zm46.07,55.18c-.04,12.37,9.47,22.08,21.68,22.12,12.56.05,22.1-9.38,22.2-21.93.1-12.12-9.77-22.27-21.68-22.3-12.31-.02-22.17,9.79-22.2,22.1Zm-13.22-18.25c0-4.09-.08-8.18.03-12.27.06-2.24-1.03-2.71-2.98-2.7-1.86.02-3.09.3-3.06,2.61.08,7.96.08,15.93,0,23.89-.03,2.37,1.09,2.89,3.18,2.89,2.05,0,2.93-.67,2.87-2.8-.11-3.87-.03-7.75-.04-11.62Zm-31.95-12c1.21,7.95,2.45,15.89,3.62,23.84.28,1.93,1.01,2.89,3.17,2.48,2.14-.41,2.84-1.49,2.5-3.6-1.27-7.83-2.55-15.66-3.63-23.52-.28-2.04-1.01-2.43-2.88-2.21-1.96.23-3.06.87-2.78,3.01Zm51.86,1.99c-.31,2.33.12,3.39,2.32,2.14.83-.47,1.78-.77,2.55-1.32,1.55-1.1,1.39-2.89,1.2-4.39-.22-1.77-1.98-1.35-3.14-1.34-3.91.03-1.85,3.59-2.93,4.92Z"/>
      <path class="cls-1" d="m130.79,133.5c-1.28.04-2.27-.57-3.13-1.42-1.38-1.35-2.75-2.72-4.12-4.09-2.93-2.94-2.57-5.04,1.07-7.08,1.7-.95,2.48.38,3.16,1.28,2.02,2.65,3.64,2.54,5.77,0,2.2-2.62,4.86-4.86,7.23-7.35,1.28-1.34,2.44-1.35,3.43.1.95,1.38,4.04,2.26,1.88,4.58-4.17,4.48-8.61,8.7-12.97,13-.61.6-1.43.95-2.33.97Z"/>
    </g>
  </g>
</svg>