<?xml version="1.0" encoding="UTF-8"?>
<svg id="Layer_1" data-name="Layer 1" xmlns="http://www.w3.org/2000/svg" xmlns:xlink="http://www.w3.org/1999/xlink" version="1.1" viewBox="0 0 139 60">
  <defs>
    <style>
      .cls-1 {
        clip-path: url(#clippath);
      }

      .cls-2 {
        fill: none;
      }

      .cls-2, .cls-3, .cls-4, .cls-5, .cls-6 {
        stroke-width: 0px;
      }

      .cls-3 {
        fill: #b00bc5;
      }

      .cls-7 {
        clip-path: url(#clippath-1);
      }

      .cls-4 {
        fill: #b00bc5;
      }

      .cls-5 {
        fill: #82753c;
      }

      .cls-6 {
        fill: #fefefe;
      }
    </style>
    <clipPath id="clippath">
      <rect class="cls-2" y="0" width="139" height="60"/>
    </clipPath>
    <clipPath id="clippath-1">
      <rect class="cls-2" x="2" y="13.6" width="135.3" height="32.9"/>
    </clipPath>
  </defs>
  <g class="cls-1">
    <g id="Mask_Group_180" data-name="Mask Group 180">
      <g id="Group_6728" data-name="Group 6728">
        <g class="cls-7">
          <g id="Group_6728-2" data-name="Group 6728-2">
            <path id="Path_22606" data-name="Path 22606" class="cls-4" d="M8.9,42.5c-.4.3-.9.2-1.4.2-1.3,0-2.7,0-4.1,0s-1.6-.3-1.4-1.7c.3-1.9.6-3.9.9-5.8,1-6.6,2.1-13.2,3.1-19.8.2-1.3.7-1.8,2-1.8,4.1,0,8.2-.2,12.3.2,2.6.2,4.8,1.2,6,3.8.5,1.4.6,3,.4,4.5,0,0,0,0-.1,0-1.2-.6-2.5-.9-3.8-.8-2.9,0-5.8,0-8.7,0-1.4,0-2,.5-2.2,2-.1,1.1-.4,2.1-.5,3.2-.3,2-.7,4-.9,6-.2.9-.4,1.8-.5,2.7-.3,2.4-.7,4.7-1.1,7.1l-.2.2h0Z"/>
            <path id="Path_22607" data-name="Path 22607" class="cls-3" d="M97.3,41.5h-.7c-1.8,0-1.9,0-1.6-1.8.9-5.8,1.8-11.5,2.7-17.3.2-1.4.4-1.5,1.8-1.5,2.4,0,4.9,0,7.3,0,1.4,0,2.8.3,3.9,1.1.9.5,1.5,1.4,1.7,2.4.6,3.3-.1,6.4-2.7,8.7-1,.9-2.3,1.4-3.6,1.4-1.3,0-2.7,0-4,0-.7-.1-1.3.3-1.4,1,0,0,0,.1,0,.2-.2,1.4-.4,2.8-.7,4.2-.2,1.5-.4,1.5-1.9,1.5h-.9M103.2,30.7c3,0,4.4-1.3,4.1-3.9,0-.8-.7-1.6-1.5-1.7-1-.2-2-.2-2.9-.1-.4,0-.5.2-.5.6-.2,1.2-.4,2.4-.6,3.6-.2,1.6-.2,1.6,1.4,1.6"/>
            <path id="Path_22608" data-name="Path 22608" class="cls-3" d="M50.3,20.9c1.4,0,2.9,0,4.3,0,3.3.2,5.1,2.2,5,5.5,0,2.5-1,4.9-2.9,6.6-1,.9-2.3,1.4-3.7,1.5-1.3,0-2.6,0-4,0-.7-.1-1.4.4-1.5,1.1,0,0,0,.1,0,.2-.2,1.4-.4,2.8-.6,4.2-.2,1.2-.4,1.4-1.7,1.4-.8,0-1.5,0-2.3,0-1.2,0-1.3-.2-1.2-1.3.3-1.8.5-3.5.8-5.3.6-4.1,1.3-8.1,1.9-12.2.3-1.7.4-1.8,2.1-1.8h3.7M50,30.7c.4,0,.7,0,1.1,0,1.8,0,3.2-1.6,3.1-3.4,0-.2,0-.5-.1-.7-.1-.8-.7-1.4-1.5-1.5-.9-.1-1.8-.2-2.7-.2-.6,0-.8.3-.9.8-.1,1.1-.3,2.2-.5,3.3-.3,1.7-.3,1.7,1.4,1.7"/>
            <path id="Path_22609" data-name="Path 22609" class="cls-4" d="M9.1,42.3c.4-2.4.7-4.7,1.1-7.1.1-.9.3-1.8.5-2.7.5-.5,1.2-.8,1.9-.7,1.4,0,2.8,0,4.1,0,5.7,0,9.4-4.3,10-9.7,0,0,0,0,.1,0,1.5.6,2.5,2,2.6,3.7.3,3.7-.6,7-3.6,9.5-1.3,1-2.8,1.6-4.4,1.7-.7,0-1.4,0-2.2,0-2.1,0-2.3.2-2.6,2.3-.3,2-.6,3.9-.8,5.9-.1.9-.5,1.3-1.5,1.3-1.5,0-3,0-4.4,0-1.2,0-1.3-.2-1.2-1.4.2-.8.3-1.7.2-2.5h0c.2,0,.1-.1.2-.2"/>
            <path id="Path_22610" data-name="Path 22610" class="cls-3" d="M124.2,29.5c.3-1.8,1.5-1.7,2.8-1.7,2.2,0,2.1,0,1.8,2.2-.6,3.4-1.1,6.9-1.6,10.3-.1.9-.5,1.3-1.4,1.2-.7,0-1.3,0-2,0-.9,0-1.3-.3-1-1.2,0-.1,0-.3,0-.4-.5,0-.8.4-1.1.6-2,1.5-4.6,1.8-6.9.7-2.2-1.2-3.4-3.7-2.9-6.1.6-5,4.1-8,9-7.8,1.4,0,2.8.8,3.4,2.1M123.8,34.1c0-1.7-1.3-3-3-3,0,0-.1,0-.2,0-2.3,0-4.2,1.9-4.2,4.2,0,1.7,1.4,3,3.1,3,0,0,0,0,.1,0,2.3,0,4.1-1.9,4.2-4.2"/>
            <path id="Path_22611" data-name="Path 22611" class="cls-3" d="M71,29.5q.7-1.7,2.4-1.7c2.9,0,2.5-.2,2.1,2.5-.5,3.2-1,6.3-1.5,9.5-.3,1.7-.3,1.7-2,1.7h-.7q-1.7,0-1.9-1.7c-.4.2-.9.5-1.2.8-2.5,2-7.7,1.9-9.3-2.5-.6-1.8-.5-3.8.3-5.5,1.4-3.9,5.5-6.1,9.5-5.1,1,.3,1.8,1,2.3,1.9M66.4,38.3c2.3,0,4.1-1.9,4.2-4.2,0-1.7-1.4-3.1-3.1-3.1,0,0,0,0,0,0-2.3,0-4.1,1.8-4.3,4.1,0,1.7,1.4,3.1,3.1,3.1,0,0,.1,0,.2,0"/>
            <path id="Path_22612" data-name="Path 22612" class="cls-3" d="M85,35.7c1.6-2.3,3.1-4.4,4.5-6.6.5-.9,1.4-1.4,2.4-1.3.7,0,1.5,0,2.3,0,.7,0,.9.4.5,1-.1.2-.3.5-.4.7-3.7,5.2-7.3,10.5-10.9,15.7-.4.8-1.3,1.3-2.3,1.2-.8,0-1.6,0-2.4,0-.9,0-1.1-.4-.6-1.1,1-1.4,2-2.9,3-4.3.4-.5.5-1.3.2-1.9-1.1-3.2-2.2-6.5-3.3-9.7-.5-1.3-.3-1.6,1.1-1.6s1.5,0,2.3,0c.7,0,1.3.4,1.4,1.1.6,2.2,1.3,4.4,2.1,6.8"/>
            <path id="Path_22613" data-name="Path 22613" class="cls-3" d="M131.9,41.6c-2.5,0-2.3.3-1.9-2.3.9-5.7,1.8-11.3,2.7-17,.2-1.3.3-1.4,1.6-1.4.8,0,1.5,0,2.3,0,.6,0,.9.3.8.9-.8,5.1-1.6,10.2-2.4,15.3-.2,1-.3,2-.5,3-.2,1.3-.2,1.4-1.6,1.4h-.9"/>
            <path id="Path_22614" data-name="Path 22614" class="cls-5" d="M26.7,22.1c-.6,5.4-4.3,9.6-10,9.7-1.4,0-2.8,0-4.1,0-.7,0-1.4.2-1.9.7.1-2,.6-4,.9-6,.1-1.1.4-2.1.5-3.2.2-1.4.7-2,2.2-2,2.9,0,5.8,0,8.7,0,1.3,0,2.6.2,3.8.8"/>
            <path id="Path_22615" data-name="Path 22615" class="cls-6" d="M9.1,42.3c0,0,0,.2-.2.2l.2-.2"/>
          </g>
        </g>
      </g>
    </g>
  </g>
</svg>