<?xml version="1.0" encoding="utf-8"?>
<!-- Generator: Adobe Illustrator 27.8.0, SVG Export Plug-In . SVG Version: 6.00 Build 0)  -->
<svg version="1.1" id="Layer_1" xmlns="http://www.w3.org/2000/svg" xmlns:xlink="http://www.w3.org/1999/xlink" x="0px" y="0px"
	 viewBox="0 0 197.2 197.2" style="enable-background:new 0 0 197.2 197.2;" xml:space="preserve">
<style type="text/css">
	.st0{fill:#b00bc5;}
	.st1{fill:#fff;}
	.st2{fill:none;stroke:#b00bc5;stroke-miterlimit:10;}
</style>
<g>
	<circle class="st0" cx="98.6" cy="98.6" r="98.6"/>
</g>
<path class="st2" d="M223.9,260.7h-1484.1c-12.7,0-23-10.3-23-23v-362.4c0-12.7,10.3-23,23-23H223.9c12.7,0,23,10.3,23,23v362.4
	C246.9,250.4,236.6,260.7,223.9,260.7z"/>
<g id="B1lj4r.tif_00000155862522455849219860000000612176734892598919_">
	<g>
		<path d="M67.7,48.3c1,3,2,5.9,3,8.9c0.5,1.6,1.7,1.4,2.8,1.4c14.6,0,29.1,0,43.7,0c4.9,0,9.7,0,14.6,0c3,0,3,0,3,3
			c0,3,0,3.1-3,3.1c-26.6,0-53.3,0-79.9,0c-3.6,0-3.6,0-3.6,3.5c0,10.5,0.1,20.9,0,31.4c0,4.5-1.6,8.7-3,12.8c0-20.7,0-41.4,0-62.1
			c0-1.6,0.2-2.1,2-2.1C54,48.4,60.9,48.3,67.7,48.3z"/>
		<path d="M103,79.1c13.9,0,27.9,0,41.8,0c2.9,0,2.9,0,2.1,2.8c-1.5,5.3-3,10.7-4.6,16c-1,3.5-4.3,4.9-6.8,7c-1,0.8-2.8-0.6-3-2
			c-0.2-1.7-0.4-3.3-0.4-5c0-1.3-0.6-1.7-1.8-1.7c-3.8,0-7.6,0-11.4,0c-1.4,0-1.9,0.7-2,2.1c0,1.5-0.2,2.9-0.4,4.3
			c-0.3,2.3-2.2,3-4,1.6c-1.4-1.1-2.7-2.2-3.9-3.4c-0.7-0.7-1.3-0.6-1.9,0.1c-2.9,3-5.9,5.9-8.8,8.8c-0.6,0.6-0.6,1.1,0,1.8
			c1.2,1.4,2.4,2.9,3.6,4.3c1.2,1.6,0.4,3.6-1.5,3.9c-1.4,0.2-2.9,0.4-4.3,0.4c-2-0.1-2.6,0.8-2.5,2.6c0.1,1.4-0.1,2.8,0,4.2
			c0.2,2.1-0.8,2.7-2.8,2.7c-9.1-0.1-18.2,0-27.3,0c-5,0-10,0-15,0c-2.3,0-2.4-0.2-1.8-2.4c3.9-15.2,7.7-30.4,11.5-45.6
			c0.5-1.8,1.3-2.4,3.2-2.4C74.9,79.1,88.9,79.1,103,79.1z M74.5,107.7c4.4,0,8.7,0,13.1,0c1.4,0,2-0.5,2.3-1.8
			c1.3-5.2,2.6-10.5,4-15.7c0.4-1.5-0.1-1.9-1.5-1.9c-8.7,0-17.5,0-26.2,0c-1.2,0-1.9,0.4-2.2,1.6c-1.3,5.3-2.7,10.6-4.1,15.9
			c-0.4,1.4,0,1.8,1.5,1.8C65.8,107.6,70.1,107.7,74.5,107.7z"/>
		<path d="M107.3,116.5c-0.1-1-0.9-1.6-1.4-2.2c-3-3.6-3-3.5,0.3-6.9c1.3-1.4,2.3-1.5,3.5,0c2,2.6,4.2,3.3,7,1.3
			c0.5-0.3,1.1-0.5,1.7-0.7c1.6-0.3,2-1.3,2.1-2.8c0.2-5.1,1-5.6,6.2-4.9c1,0.1,1.5,0.7,1.5,1.6c-0.1,3.7,1,6.1,5.1,7.3
			c2.3,0.6,3.6,0.7,5.4-0.9c3.5-3.2,2.6-2.7,5.6,0.2c2.6,2.5,2.5,2.3,0.3,4.5c-2.1,2.1-2.4,3.9-1.2,6.9c1.3,3.1,2.9,4.4,6,4.2
			c1.8-0.1,2.6,0.5,2.6,2.5c-0.1,4.7,0,4.8-4.6,5c-2,0.1-2.6,0.9-3.3,2.6c-1.5,3.4-1.6,6.2,1.6,8.7c1.4,1.1,1,2.1-0.2,3.2
			c-4.2,3.9-2.7,3.9-7.1,0.2c-1.4-1.1-2.5-1.5-4-0.5c-0.3,0.2-0.7,0.5-1.1,0.5c-3.9,0.4-4.7,3.2-4.6,6.4c0.1,1.8-0.8,2.2-2.4,2.2
			c-5.7-0.1-4.6,0.7-5.2-4.8c-0.2-1.8-0.8-2.8-2.5-3.1c-0.8-0.1-1.7-0.4-2.3-0.9c-2.1-1.7-3.6-0.8-5.4,0.7c-3.2,2.8-2.3,3.1-5.8-0.3
			c-2.1-2-2.3-2.3-0.2-4.2c2.4-2.2,2.2-4,1.2-7c-1.2-3.4-3.1-4.2-6.1-4.1c-2.2,0.1-2.8-1-2.6-2.9c0-0.1,0-0.3,0-0.4
			c0-3.8,0-3.9,3.8-4.1c2.2-0.1,3.9-0.6,4.3-3.3C105.7,119.2,106.7,117.9,107.3,116.5z M124.6,139c6.4,0,11.6-5.1,11.6-11.4
			c0-6.3-5.2-11.4-11.6-11.4c-6.3,0-11.4,5-11.5,11.3C113.2,133.8,118.2,139,124.6,139z"/>
		<path d="M52.7,81.8c0-3.9,0-7.8,0-11.7c0-0.7,0.5-1,1.1-1c0.7,0,1.4,0,2.1,0c27.5,0,55.1,0,82.6,0c1,0,2.4-0.5,2.8,0.6
			c0.6,1.5,0.4,3.1,0.1,4.7c-0.1,0.6-0.7,0.6-1.2,0.6c-0.7,0-1.4,0-2.1,0c-26.6,0-53.3,0-79.9,0c-3.2,0-3.2,0-4,3.1
			C53.9,79.4,53.7,80.7,52.7,81.8z"/>
		<path d="M75.8,103.4c-2.9,0-5.8,0-8.7,0c-1.4,0-1.9-0.5-1.5-1.9c0.7-2.4,1.3-4.8,1.9-7.2c0.3-1.2,0.9-1.6,2.1-1.6
			c5.8,0,11.5,0,17.3,0c1.3,0,1.9,0.4,1.5,1.9c-0.6,2.3-1.2,4.7-1.7,7.1c-0.3,1.4-1,1.8-2.3,1.7C81.5,103.3,78.7,103.4,75.8,103.4z"
			/>
		<path d="M124.7,134.6c-4,0-7.1-3.2-7.1-7.2c0-3.8,3.3-6.9,7.1-6.9c4,0,7.2,3.3,7.1,7.2C131.8,131.5,128.6,134.6,124.7,134.6z"/>
	</g>
</g>
</svg>
