<?xml version="1.0" encoding="utf-8"?>
<!-- Generator: Adobe Illustrator 27.8.0, SVG Export Plug-In . SVG Version: 6.00 Build 0)  -->
<svg version="1.1" id="Layer_1" xmlns="http://www.w3.org/2000/svg" xmlns:xlink="http://www.w3.org/1999/xlink" x="0px" y="0px"
	 viewBox="0 0 197.2 197.2" style="enable-background:new 0 0 197.2 197.2;" xml:space="preserve">
<style type="text/css">
	.st0{fill:#b00bc5;}
	.st1{fill:#fff;}
</style>
<circle class="st0" cx="98.6" cy="98.6" r="98.6"/>
<g id="dU10n7.tif">
	<g>
		<path class="st1" d="M121.7,155.5c-0.2-1.9-0.4-3.7-0.5-5.6c0-1.2-0.6-1.7-1.7-2c-1.1-0.3-2.3-0.5-3.1-1.1
			c-2.2-1.6-3.6-0.8-5.4,0.7c-3.2,2.8-2.3,3.1-5.8-0.3c-2.1-2.1-2.3-2.3-0.2-4.2c2.4-2.2,2.3-4,1.2-7c-1.2-3.2-2.9-4-5.9-4.2
			c-2.9-0.1-2.9-0.3-2.9-3.3c0-0.3,0-0.7,0-1c0-2.8,0.2-2.9,3-3.1c0.8,0,1.7-0.2,2.5-0.2c1.5,0,2.2-0.8,2.4-2.3
			c0.1-0.7,0.3-1.6,0.8-2.1c1.9-2.4,1.2-4.2-0.8-6c-0.6-0.5-1-1.2-1.5-1.8c-0.5-0.6-0.5-1.1,0-1.7c1.1-1.1,2.3-2.3,3.4-3.4
			c0.8-0.8,1.5-0.5,1.9,0.2c2.5,3.5,5.3,3.5,8.9,1.6c1.7-0.9,2.6-1.6,2.8-3.7c0.5-5.3-0.1-4.2,4.6-4.5c2.2-0.1,3.4,0.5,3.1,2.8
			c0,0.1,0,0.1,0,0.2c-0.1,3,1.2,4.4,4.2,5.6c3.3,1.4,5.3,0.9,7.4-1.5c1.3-1.5,2.3-1.4,3.7,0.1c3.8,4.2,3.6,2.6,0.2,6.8
			c-1.2,1.5-1.8,2.7-0.6,4.4c0.3,0.4,0.5,0.9,0.6,1.3c0.5,3.5,2.8,4.4,6,4.2c0.8-0.1,1.5,0.1,2.3,0.1c0,2.4,0,4.8,0,7.1
			c-0.3,0-0.7,0.1-1,0.1c-5.7,0.3-5.7,0.4-7.6,5.6c-0.6,1.7-0.4,2.7,0.7,4.1c3.8,4.4,3.4,3-0.2,6.9c-1.3,1.4-2.3,1.6-3.6,0.1
			c-2.3-2.6-4.8-3.5-7.9-1.2c-0.5,0.4-1.3,0.5-2,0.7c-1.1,0.2-1.4,0.9-1.5,2c-0.1,1.9-0.3,3.7-0.5,5.6
			C126.5,155.5,124.1,155.5,121.7,155.5z M125,139.5c6.4,0,11.7-5.1,11.7-11.5c0-6.4-5.2-11.5-11.6-11.5c-6.4,0-11.5,5-11.6,11.4
			C113.4,134.3,118.5,139.5,125,139.5z"/>
		<path class="st1" d="M103.3,79.1c14,0,28.1,0,42.1,0c2.8,0,2.8,0,2.1,2.7c-1.3,4.5-2.9,8.9-3.7,13.5c-0.8,4.5-3.9,6.9-7.1,9.4
			c-0.3,0.2-0.8,0.5-1.1,0.4c-1.3-0.2-2.5-0.5-2.5-2.2c-0.1-1.3-0.4-2.6-0.3-4c0.1-2.1-0.8-2.8-2.9-2.7c-3.4,0.1-6.8,0.1-10.3,0
			c-1.6,0-2.3,0.6-2.3,2.2c0,1.5-0.2,2.9-0.4,4.4c-0.3,2.1-2.2,2.9-3.9,1.5c-1.4-1.1-2.7-2.2-4-3.4c-0.8-0.7-1.4-0.7-2.1,0.1
			c-2.9,2.9-5.8,5.9-8.7,8.7c-0.7,0.7-0.7,1.2,0,1.9c1.3,1.4,2.5,2.9,3.6,4.4c1.1,1.5,0.3,3.5-1.5,3.8c-1.4,0.2-2.9,0.5-4.4,0.4
			c-2.1-0.1-2.8,0.8-2.6,2.8c0.1,1,0,2,0,2.9c0,3.8,0,3.9-3.8,3.9c-11.8,0-23.6,0-35.4,0c-2.1,0-4.2-0.1-6.3,0
			c-1.9,0.1-2.3-0.6-1.8-2.4c3.7-14.2,7.2-28.4,10.9-42.6c1.8-6.9,0.1-5.7,7.4-5.7C77.3,79.1,90.3,79.1,103.3,79.1
			C103.3,79.1,103.3,79.1,103.3,79.1z M74.4,107.9c4.4,0,8.8,0,13.2,0c1.3,0,2-0.3,2.4-1.7c1.3-5.3,2.6-10.6,4.1-15.8
			c0.4-1.6-0.1-2-1.6-2c-8.7,0-17.5,0-26.2,0c-1.3,0-2,0.4-2.3,1.8c-1.3,5.3-2.7,10.6-4.1,15.8c-0.4,1.6,0.1,1.9,1.6,1.9
			C65.7,107.9,70.1,107.9,74.4,107.9z"/>
		<path class="st1" d="M45.3,112.4c-0.6-1.2-0.5-2-0.5-2.7c0-19.6,0-39.1,0-58.7c0-2.9,0-2.9,2.9-2.9c5.9,0,11.7,0,17.6,0
			c1.6,0,2.4,0.5,2.9,2.1c0.6,2,1.5,3.9,2,6c0.5,1.9,1.4,2.5,3.4,2.5c19.2-0.1,38.4,0,57.6,0c0.6,0,1.3,0,1.9,0
			c1.4-0.1,2.1,0.5,2,1.9c0,0.2,0,0.4,0,0.6c0.1,3.5,0.1,3.5-3.4,3.5c-26.9,0-53.8,0-80.7,0c-3,0-3,0-3,2.9c0,10,0,20,0,30
			c0,1.6,0.2,3.3-0.2,4.8C47.2,105.5,46.3,108.7,45.3,112.4z"/>
		<path class="st1" d="M52.5,81.8c0-3.9,0-7.9,0-11.8c0-0.7,0.5-1,1.1-1c0.7,0,1.4,0,2.1,0c27.7,0,55.5,0,83.2,0
			c1,0,2.4-0.5,2.8,0.6c0.6,1.5,0.5,3.2,0,4.7c-0.3,1-1.4,0.7-2.2,0.7c-7.2,0-14.4,0-21.6,0c-20.1,0-40.2,0-60.4-0.1
			c-2.2,0-3.2,0.6-3.5,2.8c-0.2,1.4-0.7,2.8-1.1,4.1C52.8,81.9,52.7,81.9,52.5,81.8z"/>
		<path class="st1" d="M125,135.1c-4,0-7.2-3.3-7.1-7.3c0.1-3.8,3.3-7,7.2-6.9c4,0,7.2,3.3,7.2,7.2C132.2,132,128.9,135.1,125,135.1
			z"/>
		<path class="st1" d="M75.6,103.6c-2.9,0-5.7,0-8.6,0c-1.5,0-1.9-0.5-1.5-1.9c0.7-2.4,1.3-4.8,1.9-7.3c0.3-1.2,0.9-1.6,2.1-1.6
			c5.8,0,11.6,0,17.4,0c1.3,0,2,0.4,1.6,1.9c-0.6,2.4-1.2,4.7-1.7,7.1c-0.3,1.4-1,1.8-2.4,1.8C81.5,103.6,78.6,103.6,75.6,103.6z"/>
	</g>
</g>
</svg>
