<?xml version="1.0" encoding="utf-8"?>
<!-- Generator: Adobe Illustrator 27.8.0, SVG Export Plug-In . SVG Version: 6.00 Build 0)  -->
<svg version="1.1" id="Layer_1" xmlns="http://www.w3.org/2000/svg" xmlns:xlink="http://www.w3.org/1999/xlink" x="0px" y="0px"
	 viewBox="0 0 197.2 197.2" style="enable-background:new 0 0 197.2 197.2;" xml:space="preserve">
<style type="text/css">
	.st0{fill:#a801bd;}
	.st1{fill:#fff;}
	.st2{fill:none;stroke:#a801bd;stroke-miterlimit:10;}
</style>
<g>
	<circle class="st0" cx="98.6" cy="98.6" r="98.6"/>
	<g id="x74QSz.tif_00000124872162790856274280000012163821344418731406_">
		<g>
			<path class="st1" d="M98.7,46.2c15.6,0,31.1,0,46.7,0c2.7,0,4.9,0.9,6.4,3.3c0.6,1,0.9,2.2,0.9,3.4c0,22.5,0,45.1,0,67.6
				c0,3.5-2.4,6-5.8,6.3c-3.4,0.3-6.8,0.1-10.2,0.1c-28.1,0-56.3,0-84.4,0c-1,0-1.9,0-2.9-0.2c-2.9-0.6-4.9-3.2-4.9-6.4
				c0-8.6,0-17.2,0-25.8c0-13.8,0-27.6,0-41.3c0-2.7,1.1-4.8,3.4-6.2c1.3-0.7,2.7-0.8,4.1-0.8C67.6,46.2,83.1,46.2,98.7,46.2z
				 M98.6,109.8c14,0,28,0,42,0c1.5,0,1.5,0,1.5-1.6c0-16.7,0-33.4,0-50c0-1.4,0-1.4-1.4-1.4c-28,0-56,0-83.9,0
				c-1.6,0-1.6,0-1.6,1.6c0,16.6,0,33.2,0,49.8c0,1.6,0,1.6,1.6,1.6C70.7,109.9,84.6,109.9,98.6,109.8z M101.2,118.6
				c0-1.5-1.1-2.6-2.6-2.6c-1.5,0-2.6,1.1-2.6,2.7c0,1.6,1,2.5,2.6,2.5C100.2,121.3,101.2,120.3,101.2,118.6z"/>
			<path class="st1" d="M98.6,151c-13,0-26,0-39.1,0c-1.8,0-1.9-0.1-1.6-1.8c1.1-6.1,5.6-9.7,12.3-9.8c4.5,0,9,0,13.6,0
				c1.1,0,1.4-0.3,1.4-1.4c-0.1-1.6,0-3.2,0-4.7c0-0.9,0.3-1.2,1.2-1.2c8.2,0,16.4,0,24.5,0c0.9,0,1.2,0.4,1.2,1.2
				c0,1.6,0,3.2,0,4.7c-0.1,1.1,0.3,1.4,1.4,1.4c4.3-0.1,8.6,0,12.9,0c1.4,0,2.9,0,4.3,0.4c4.7,1.1,8.3,5.2,8.7,9.9
				c0.1,1.2,0,1.3-1.4,1.3C124.8,151,111.7,151,98.6,151z"/>
			<path class="st1" d="M120.5,83.7c0-6.1,0-12.2,0-18.3c0-1.4,0-1.5,1.4-1.5c3.4,0,6.7,0,10.1,0c1.6,0,1.6,0,1.6,1.6
				c0,10.2,0,20.4,0,30.6c0,2,0,4,0,6c0,0.9-0.3,1.4-1.3,1.3c-3.6,0-7.1,0-10.7,0c-0.9,0-1.3-0.3-1.2-1.3
				C120.5,96.1,120.5,89.9,120.5,83.7z"/>
			<path class="st1" d="M114.6,88.5c0,4.5,0,9,0,13.5c0,1.4,0,1.5-1.4,1.5c-3.5,0-7,0-10.4,0c-1,0-1.3-0.3-1.3-1.3
				c0-9.1,0-18.2,0-27.3c0-0.9,0.3-1.4,1.3-1.3c3.6,0,7.1,0,10.7,0c0.9,0,1.3,0.3,1.2,1.3C114.6,79.3,114.6,83.9,114.6,88.5z"/>
			<path class="st1" d="M82.6,93.4c0-2.9,0-5.8,0-8.7c0-0.9,0.3-1.3,1.2-1.3c3.5,0,7.1,0,10.6,0c1,0,1.3,0.4,1.3,1.3
				c0,5.8,0,11.7,0,17.5c0,0.9-0.3,1.3-1.3,1.3c-3.6,0-7.2,0-10.8,0c-0.9,0-1.2-0.3-1.2-1.2C82.6,99.3,82.6,96.3,82.6,93.4z"/>
			<path class="st1" d="M70.1,103.5c-1.8,0-3.6,0-5.4,0c-0.9,0-1.3-0.4-1.3-1.3c0-2.7,0-5.3,0-8c0-0.9,0.3-1.2,1.2-1.2
				c3.6,0,7.2,0,10.8,0c0.9,0,1.2,0.2,1.2,1.2c0,2.7,0,5.5,0,8.2c0,0.8-0.3,1.1-1.1,1.1C73.8,103.5,72,103.5,70.1,103.5
				C70.1,103.5,70.1,103.5,70.1,103.5z"/>
		</g>
	</g>
</g>
<path class="st2" d="M456.2,260.7H-1028c-12.7,0-23-10.3-23-23v-362.4c0-12.7,10.3-23,23-23H456.2c12.7,0,23,10.3,23,23v362.4
	C479.2,250.4,468.9,260.7,456.2,260.7z"/>
</svg>
