<?xml version="1.0" encoding="utf-8"?>
<!-- Generator: Adobe Illustrator 27.8.0, SVG Export Plug-In . SVG Version: 6.00 Build 0)  -->
<svg version="1.1" id="Layer_1" xmlns="http://www.w3.org/2000/svg" xmlns:xlink="http://www.w3.org/1999/xlink" x="0px" y="0px"
	 viewBox="0 0 80 80" style="enable-background:new 0 0 80 80;" xml:space="preserve">
<style type="text/css">
	.st0{fill:url(#SVGID_1_);}
	.st1{fill:url(#SVGID_00000092414967917785832070000018182130210644552620_);}
	.st2{fill:url(#SVGID_00000114783168831354264890000002493403506615039916_);}
	.st3{fill:url(#SVGID_00000080179643365794088900000016351334769433935027_);}
	.st4{fill:url(#SVGID_00000103265457576158179940000015802523692803190698_);}
	.st5{fill:url(#SVGID_00000161596738456106883490000009973902429926426286_);}
	.st6{fill:url(#SVGID_00000111167761152529513020000006430226243132281530_);}
	.st7{fill:url(#SVGID_00000182509665301771203410000017198536067427877514_);}
	.st8{fill:url(#SVGID_00000126283964151162400430000017978090465133455004_);}
	.st9{fill:url(#SVGID_00000022551628175669530000000012756615942046431151_);}
	.st10{fill:url(#SVGID_00000032617052151853348660000009509775694102886320_);}
	.st11{fill:url(#SVGID_00000053531827312274541680000003573813807820045218_);}
	.st12{fill:url(#SVGID_00000092447551571277793960000001470439993806297503_);}
	.st13{fill:url(#SVGID_00000117646092047786759080000002233650958969214850_);}
</style>
<g id="sIcPeP.tif">
	<g>
		<linearGradient id="SVGID_1_" gradientUnits="userSpaceOnUse" x1="10.6339" y1="4.0369" x2="70.774" y2="66.1929">
			<stop  offset="0" style="stop-color:#a801bd"/>
			<stop  offset="1" style="stop-color:#453E1B"/>
		</linearGradient>
		<path class="st0" d="M40,8.4c10.5,0,21.1,0,31.6,0c0.6,0,1.1,0,1.7,0.2C75,9,76,10.3,76,12.3c0,7,0,13.9,0,20.9c0,7.7,0,15.4,0,23
			c0,2.9-1.4,4.2-4.2,4.2c-8,0-15.9,0-23.9,0c-0.2,0-0.4,0-0.6,0c-0.8,0-0.9,0.2-0.5,0.9c0.6,1.2,1.3,2.4,1.9,3.6
			c0.8,1.5,1.6,3,2.4,4.5c0.6,1.3,0.1,2.1-1.3,2.1c-6.4,0-12.9,0-19.3,0c-1.5,0-2-0.8-1.3-2.2c1.3-2.6,2.7-5.1,4-7.6
			c0.7-1.3,0.7-1.4-0.8-1.4c-8.1,0-16.1,0-24.2,0c-0.8,0-1.6-0.1-2.3-0.5c-1.3-0.8-1.7-2-1.7-3.4c0-6.6,0-13.1,0-19.7
			c0-8.1,0-16.2,0-24.3c0-2.7,1.4-4.1,4.1-4.1C18.7,8.4,29.4,8.4,40,8.4z M40,50.4c10,0,19.9,0,29.9,0c1.2,0,1.2-0.1,1.2-1.2
			c0-11.9,0-23.8,0-35.7c0-1.2-0.1-1.2-1.2-1.2c-19.9,0-39.7,0-59.6,0c-1.4,0-1.4,0-1.4,1.4c0,11.8,0,23.6,0,35.4
			c0,1.3,0.1,1.4,1.4,1.4C20.2,50.4,30.1,50.4,40,50.4z M40,54.8c-1,0-1.8,0.8-1.8,1.8c0,0.9,0.8,1.8,1.8,1.8c1,0,1.9-0.8,1.9-1.8
			C41.8,55.7,41,54.8,40,54.8z"/>
		
			<linearGradient id="SVGID_00000047770259050434108550000001190339087931535799_" gradientUnits="userSpaceOnUse" x1="2.5823" y1="11.7288" x2="62.7224" y2="73.8848">
			<stop  offset="0" style="stop-color:#a801bd"/>
			<stop  offset="1" style="stop-color:#453E1B"/>
		</linearGradient>
		<path style="fill:url(#SVGID_00000047770259050434108550000001190339087931535799_);" d="M24,20.2c0,0.1,0,0.1,0,0.2
			c0.2,1.6-0.3,2.5-2,3.1c-3.8,1.5-5.5,5.3-5.2,8.5c0.4,4.7,4.2,7.5,7.5,7.9c4,0.4,7.8-1.8,9.2-5.7c0.5-1.3,0.6-1.4,2-1.4
			c0.8,0,1.6,0,2.4,0c1.1,0,1.5,0.5,1.3,1.6c-1.2,6-6.8,10.7-12.9,11.1c-7.3,0.5-13.7-4.8-15-11.8C10.2,26.4,15,19,22.2,17.5
			c1.1-0.2,1.7,0.2,1.8,1.4C24,19.3,24,19.8,24,20.2z"/>
		
			<linearGradient id="SVGID_00000026874165290772619220000003465459889717897633_" gradientUnits="userSpaceOnUse" x1="14.4943" y1="0.2031" x2="74.6344" y2="62.3591">
			<stop  offset="0" style="stop-color:#a801bd"/>
			<stop  offset="1" style="stop-color:#453E1B"/>
		</linearGradient>
		<path style="fill:url(#SVGID_00000026874165290772619220000003465459889717897633_);" d="M41.8,27.9c0-3.9,0-7.7,0-11.6
			c0-1.3,0.2-1.5,1.5-1.5c0.9,0,1.9,0,2.8,0c1.2,0,1.5,0.3,1.5,1.5c0,2.5,0,4.9,0,7.4c0,5.2,0,17.5,0,22.6c0,1.6-0.2,1.8-1.8,1.8
			c-0.9,0-1.8,0-2.7,0c-1,0-1.3-0.3-1.3-1.3C41.8,42.8,41.8,31.8,41.8,27.9z"/>
		
			<linearGradient id="SVGID_00000089564606822724173090000014806983742803591581_" gradientUnits="userSpaceOnUse" x1="17.5734" y1="-2.7762" x2="77.7135" y2="59.3798">
			<stop  offset="0" style="stop-color:#a801bd"/>
			<stop  offset="1" style="stop-color:#453E1B"/>
		</linearGradient>
		<path style="fill:url(#SVGID_00000089564606822724173090000014806983742803591581_);" d="M57.8,35.8c0,2.5,0,8.5,0,10.9
			c0,1-0.3,1.3-1.3,1.3c-1.1,0-2.2,0-3.3,0c-0.9,0-1.2-0.3-1.2-1.2c0-5,0-17.1,0-22.1c0-0.9,0.3-1.2,1.3-1.2c1,0,2,0,3,0
			c1.4,0,1.6,0.1,1.6,1.5C57.8,27.5,57.8,33.4,57.8,35.8z"/>
		
			<linearGradient id="SVGID_00000141424345777521639070000011630869959675286677_" gradientUnits="userSpaceOnUse" x1="21.8723" y1="-6.9356" x2="82.0124" y2="55.2204">
			<stop  offset="0" style="stop-color:#a801bd"/>
			<stop  offset="1" style="stop-color:#453E1B"/>
		</linearGradient>
		<path style="fill:url(#SVGID_00000141424345777521639070000011630869959675286677_);" d="M67.5,37.3c0,1.9,0,7.3,0,9.2
			c0,1.2-0.3,1.5-1.5,1.5c-1,0-2.1,0-3.1,0c-0.9,0-1.2-0.3-1.2-1.2c0-4,0-15.2,0-19.2c0-0.9,0.3-1.2,1.2-1.2c1.1,0,2.2,0,3.3,0
			c0.9,0,1.3,0.3,1.3,1.3C67.6,29.8,67.5,35.3,67.5,37.3C67.5,37.3,67.5,37.3,67.5,37.3z"/>
		
			<linearGradient id="SVGID_00000136403870779543803570000013240662847783249571_" gradientUnits="userSpaceOnUse" x1="12.3743" y1="2.2543" x2="72.5144" y2="64.4103">
			<stop  offset="0" style="stop-color:#a801bd"/>
			<stop  offset="1" style="stop-color:#453E1B"/>
		</linearGradient>
		<path style="fill:url(#SVGID_00000136403870779543803570000013240662847783249571_);" d="M27,20.1c0-0.5,0-1.1,0-1.6
			c0.1-0.9,0.6-1.3,1.5-1.2c5.1,0.9,9.8,5.6,10.8,10.7c0.2,1.1-0.2,1.7-1.3,1.7c-0.9,0-1.8,0-2.8,0c-0.8,0-1.3-0.3-1.5-1.1
			c-0.9-2.9-2.8-4.8-5.7-5.7c-0.7-0.2-1-0.7-1-1.4C26.9,21.1,27,20.6,27,20.1C27,20.1,27,20.1,27,20.1z"/>
	</g>
</g>
</svg>
