<?xml version="1.0" encoding="utf-8"?>
<!-- Generator: Adobe Illustrator 27.8.0, SVG Export Plug-In . SVG Version: 6.00 Build 0)  -->
<svg version="1.1" id="Layer_1" xmlns="http://www.w3.org/2000/svg" xmlns:xlink="http://www.w3.org/1999/xlink" x="0px" y="0px"
	 viewBox="0 0 197.2 197.2" style="enable-background:new 0 0 197.2 197.2;" xml:space="preserve">
<style type="text/css">
	.st0{fill:#a801bd;}
	.st1{fill:#fff;}
	.st2{fill:none;stroke:#a801bd;stroke-miterlimit:10;}
</style>
<g>
	<circle class="st0" cx="98.6" cy="98.6" r="98.6"/>
	<g id="nrfqhw.tif_00000170280634842828058140000013737442104511634854_">
		<g>
			<path class="st1" d="M151.9,88.1c-1.1,2.1-2.2,4.3-4.3,5.6c-1.6,1-3.2,1.7-5.1,1.7c-4.8,0-9.6,0-14.4,0c-1.5,0-2.2-0.5-2.1-2.1
				c0.3-2.2,0.5-4.5,0.1-6.7c-0.2-1.1,0.4-1.7,1.6-1.7c2.1,0,4.2,0,6.3,0c2.9-0.1,4.1-1.3,4.2-4.2c0-1.7,0.1-3.4,0-5.1
				c-0.1-2.6-1.3-3.9-3.9-3.9c-3.2-0.1-6.3-0.1-9.5,0c-1.5,0-2.4-0.5-3.1-1.9c-6.3-12.3-16.1-20.3-29.6-23.6
				c-0.4-0.1-0.8-0.2-1.2-0.4c-0.1,0-0.2-0.2-0.4-0.3c1.1-1.3,2.6-1.2,4-1.2c9.3,0,18.6,0,27.9,0c6,0,12,0,18,0
				c6.4,0,9.1,1.8,11.6,7.8C151.9,64.1,151.9,76.1,151.9,88.1z M134.9,62.9c1.6,0,3.1-1.5,3.1-3.1c0-1.6-1.5-3.1-3.1-3.2
				c-1.6,0-3.1,1.5-3.2,3.1C131.8,61.3,133.3,62.8,134.9,62.9z"/>
			<path class="st1" d="M151.9,135.1c-2.5,6-5.2,7.8-11.6,7.8c-2.8,0-5.6,0-8.5,0c-1.3,0-1.9-0.5-2-1.8c-0.1-2.7-1.2-5.2-2.6-7.5
				c-2.9-5.1-5.8-10.2-8.8-15.2c-0.8-1.3-0.9-2.3,0.1-3.6c2.4-3.4,4.2-7,5.4-11c0.4-1.4,1.2-1.9,2.6-1.8c4.6,0.1,9.2,0,13.7,0
				c6.4,0,9.2,1.8,11.6,7.8C151.9,118.1,151.9,126.6,151.9,135.1z M141.6,119.2c-1.6,0-3.1,1.6-3.1,3.2c0,1.6,1.6,3.1,3.2,3.1
				c1.6,0,3.1-1.6,3.1-3.2C144.8,120.7,143.2,119.2,141.6,119.2z"/>
			<path class="st1" d="M110.4,152.9c-3.3-1.3-5.6-3.7-7.2-6.8c-2.1-4-4.4-7.9-6.8-11.7c-0.9-1.5-0.9-2.4,1-3.1
				c5.3-1.9,10.1-4.8,14.2-8.7c1.1-1.1,1.7-0.7,2.4,0.4c2.4,4.3,4.7,8.7,7.5,12.8c4.3,6.5,2.2,14.3-5.5,17
				C114,152.9,112.2,152.9,110.4,152.9z"/>
			<path class="st1" d="M43.3,89.6c0-21.2,17-38.4,38.1-38.4c21.3,0,38.4,17.1,38.4,38.5c0,21.2-17.1,38.3-38.2,38.3
				C60.4,128,43.3,110.9,43.3,89.6z M81.6,120.6c15.1,0.3,31-11.8,31-31.1c0-18.9-15.4-30.9-30.9-31c-15.4-0.1-31.2,11.7-31.2,31.1
				C50.5,108.3,65.7,120.8,81.6,120.6z"/>
			<path class="st1" d="M81.7,111.5c-4.5,0-9.1,0-13.6,0c-3.5,0-4.3-0.9-4.4-4.3c-0.2-4.8,2-8.2,5.9-10.5c8.1-4.8,16.5-4.7,24.5,0.2
				c4.3,2.6,6.2,6.7,5.7,11.8c-0.2,2-1.4,2.9-4,2.9C91,111.5,86.4,111.5,81.7,111.5z"/>
			<path class="st1" d="M92.6,75.6c0,6.2-4.7,10.9-10.9,10.8c-6.2,0-10.9-4.7-10.8-10.9c0-6.2,4.7-10.8,10.9-10.8
				C87.9,64.7,92.6,69.4,92.6,75.6z"/>
		</g>
	</g>
</g>
<path class="st2" d="M1440.6,260.7H-43.5c-12.7,0-23-10.3-23-23v-362.4c0-12.7,10.3-23,23-23h1484.1c12.7,0,23,10.3,23,23v362.4
	C1463.6,250.4,1453.3,260.7,1440.6,260.7z"/>
</svg>
