<?xml version="1.0" encoding="utf-8"?>
<!-- Generator: Adobe Illustrator 27.8.0, SVG Export Plug-In . SVG Version: 6.00 Build 0)  -->
<svg version="1.1" id="Layer_1" xmlns="http://www.w3.org/2000/svg" xmlns:xlink="http://www.w3.org/1999/xlink" x="0px" y="0px"
	 viewBox="0 0 197.2 197.2" style="enable-background:new 0 0 197.2 197.2;" xml:space="preserve">
<style type="text/css">
	.st0{fill:#b00bc5;}
	.st1{fill:#fff;}
</style>
<circle class="st0" cx="98.6" cy="98.6" r="98.6"/>
<g id="obSV98.tif">
	<g>
		<path class="st1" d="M130.5,153.2c-14.6,0-29.3,0-43.9,0c-0.3-0.1-0.6-0.2-0.9-0.2c-13.2-2-21.8-12.1-21.9-25.4
			c0-5.7,0-11.4,0-17.1c0-13.1,5.8-21.4,18.1-25.9c0.9-0.3,1.7-0.7,1.7-1.9c-0.1-5.6,0.6-11.3-0.5-16.8c-1.2-6.5-7.5-11.5-14.2-11.4
			c-6.8,0.1-12.9,5.1-14.1,11.8c-0.2,1.2-0.3,2.4-0.5,3.7c-0.4,2.4-2.4,4.2-4.8,4.3c-2.3,0.1-4.5-1.5-5.2-3.8
			c-0.5-1.5-0.2-3.1,0-4.6C45.6,53.7,56.7,43.9,69,44c12.5,0.1,23.3,9.7,24.6,22c0.5,4.8,0.2,9.7,0.3,14.5c0.1,3,0.1,3.1,3.2,3.1
			c10.5,0,21,0,31.4,0c5.4,0,10.3,1.8,14.6,5c6,4.5,9,10.6,9.9,17.9c0,8,0,16,0,24.1c-1,6.3-3.5,11.9-8.4,16.3
			C140.7,150.5,135.8,152.3,130.5,153.2z M107.2,129.4c1.6,0.1,2.8-0.8,3.9-1.8c4.1-4,8.2-8.1,12.3-12.1c2.4-2.4,2.5-5.1,0.4-7.1
			c-2-1.9-4.7-1.8-7,0.4c-2.2,2.1-4.4,4.3-6.5,6.5c-2.9,2.9-2.9,2.9-6,0.3c-2.4-2-4.9-2-6.8-0.1c-1.7,1.8-1.6,4.8,0.4,6.8
			c1.9,1.9,3.8,3.8,5.8,5.6C104.7,128.9,105.8,129.6,107.2,129.4z"/>
	</g>
</g>
</svg>
