<?xml version="1.0" encoding="utf-8"?>
<!-- Generator: Adobe Illustrator 27.8.0, SVG Export Plug-In . SVG Version: 6.00 Build 0)  -->
<svg version="1.1" id="Layer_1" xmlns="http://www.w3.org/2000/svg" xmlns:xlink="http://www.w3.org/1999/xlink" x="0px" y="0px"
	 viewBox="0 0 197.2 197.2" style="enable-background:new 0 0 197.2 197.2;" xml:space="preserve">
<style type="text/css">
	.st0{fill:#b00bc5;}
	.st1{fill:#fff;}
</style>
<circle class="st0" cx="98.6" cy="98.6" r="98.6"/>
<g id="Cn04wU.tif">
	<g>
		<path class="st1" d="M146.2,152.9c-4.3-2.8-7.5-6.7-10.9-10.4c-2.8-3.1-4.8-3.8-9.1-2.1c-16,6.1-33.3-5-35.2-22.2
			c-1.5-13.9,8.4-27,22.1-29c14.5-2.1,27.9,7.2,30.5,21.2c1.1,6.2,0.3,12.1-2.8,17.7c-0.9,1.5-0.8,2.5,0.5,3.7
			c3.4,3.3,6.6,6.7,9.9,10.1c4.1,4.2,3.6,7.9-1.4,10.9C148.6,152.9,147.4,152.9,146.2,152.9z M117.4,102.2c-7.3,0-13.2,6-13.2,13.3
			c0,7.4,6,13.5,13.4,13.4c7.2,0,13.4-6.4,13.3-13.6C130.7,108.1,124.8,102.2,117.4,102.2z"/>
		<path class="st1" d="M43.2,61.4C45.8,56.5,49,52,52,47.3c1.2-1.8,2.9-2.9,5.1-2.9c3.9,0,7.8,0,11.6,0c1.5,0,1.9,0.5,1.3,1.9
			c-2.3,4.9-4.6,9.8-6.8,14.7c-0.4,0.9-0.9,1.6-2,1.6c-6-0.1-12-0.1-18-0.1C43.2,62,43.2,61.7,43.2,61.4z"/>
		<path class="st1" d="M76.8,66.7c2.7,0,5.3,0,8,0c1.3,0,2.5-0.4,2.6-2c0.1-1.7-1.2-2.2-2.6-2.2c-5-0.1-10.1,0-15.1,0
			c-2.6,0-2.7-0.2-1.6-2.6c2.1-4.6,4.3-9.1,6.3-13.7c0.6-1.4,1.5-1.9,3-1.9c3,0.1,5.9,0.1,8.9,0c1.4,0,2.3,0.4,3,1.6
			c3.5,5.9,7.1,11.7,10.7,17.6c0.6,0.9,0.6,1.8,0.3,2.8c-5,13.8-9.9,27.5-14.9,41.3c-0.3,1-0.8,1.9-2,1.9c-1.2,0-1.7-0.9-2-1.8
			c-4.7-13-9.4-26.1-14.1-39.1c-0.6-1.5,0.1-1.9,1.5-1.9C71.5,66.8,74.2,66.7,76.8,66.7C76.8,66.7,76.8,66.7,76.8,66.7z"/>
		<path class="st1" d="M113.8,62.5c-2.6,0-5.2,0-7.8,0c-1.3,0-2.1-0.4-2.8-1.6c-2.9-4.9-5.9-9.8-8.9-14.6c-0.9-1.5-0.6-2,1.1-2
			c4.8,0,9.6,0,14.4,0c2.1,0,3.9,1,5,2.7c2.8,4.2,5.5,8.4,8.1,12.7c1.3,2.2,1,2.7-1.6,2.7C118.8,62.5,116.3,62.5,113.8,62.5z"/>
		<path class="st1" d="M75,103.2c-3.7-4.3-7-8.1-10.2-11.9C58.5,84,52.2,76.8,46,69.5c-0.4-0.5-0.8-0.9-1.1-1.4
			c-0.6-0.8-0.4-1.3,0.6-1.3c5.3,0,10.5,0,15.8,0c0.9,0,1.3,0.6,1.6,1.4c4,11.2,8.1,22.5,12.1,33.7C75,102,75,102.3,75,103.2z"/>
		<path class="st1" d="M95.5,93.6c-0.5-0.8-0.2-1.3,0-1.8c2.7-7.6,5.5-15.2,8.2-22.8c0.6-1.8,1.6-2.5,3.5-2.4c4.5,0.1,9,0,13.5,0.1
			c0.6,0,1.5-0.3,1.8,0.5c0.3,0.6-0.4,1.1-0.8,1.5c-4.8,5.6-9.6,11.2-14.5,16.8c-0.3,0.3-0.6,0.8-1,1
			C102.3,88.3,98.6,90.5,95.5,93.6z"/>
	</g>
</g>
</svg>
