<?xml version="1.0" encoding="utf-8"?>
<!-- Generator: Adobe Illustrator 27.8.0, SVG Export Plug-In . SVG Version: 6.00 Build 0)  -->
<svg version="1.1" id="Layer_1" xmlns="http://www.w3.org/2000/svg" xmlns:xlink="http://www.w3.org/1999/xlink" x="0px" y="0px"
	 viewBox="0 0 197.2 197.2" style="enable-background:new 0 0 197.2 197.2;" xml:space="preserve">
<style type="text/css">
	.st0{fill:#a801bd;}
	.st1{fill:#fff;}
</style>
<circle class="st0" cx="98.6" cy="98.6" r="98.6"/>
<g id="gbQ34B.tif">
	<g>
		<path class="st1" d="M144.3,106.7c0,13.9,0,27.7,0,41.6c0,5.5-1.9,7.5-7.3,7.5c-25.5,0-50.9,0-76.4,0c-5.9,0-7.6-1.7-7.6-7.6
			c0-27.9,0-55.8,0-83.7c0-5,1.8-6.8,6.8-6.8c2.4,0,4.9,0.1,7.3,0c1.8-0.1,2.5,0.7,2.4,2.5c-0.1,1.5-0.1,3,0,4.4
			c0.3,4.2,2.8,6.8,7.1,6.8c14.6,0.1,29.3,0.1,43.9,0c4.3,0,6.9-2.7,7.2-7c0-0.2,0-0.3,0-0.5c0.2-6.2,0.2-6.2,6.5-6.2
			c1,0,1.9,0,2.9,0c5.4,0,7.1,1.7,7.1,7.2c0,11,0,22,0,33C144.3,100.8,144.3,103.7,144.3,106.7z M109.6,109.1
			C109.6,109.1,109.6,109.1,109.6,109.1c-6.1,0-12.2,0-18.3,0c-2.9,0-4.2,1.3-4.2,3.5c0.1,2.3,1.5,3.5,4.2,3.5c12.2,0,24.4,0,36.6,0
			c2.6,0,4.4-1.5,4.4-3.5c0-2.1-1.7-3.6-4.5-3.6C121.8,109.1,115.7,109.1,109.6,109.1z M109.6,92.2c6,0,12,0,18,0
			c2.9,0,4.7-1.3,4.8-3.4c0.1-2.3-1.7-3.7-4.7-3.7c-12,0-24,0-36.1,0c-3.1,0-4.5,1.2-4.5,3.5c0,2.4,1.5,3.6,4.4,3.6
			C97.6,92.2,103.6,92.2,109.6,92.2z M109.6,133.1c-6,0-12,0-18,0c-3.1,0-4.5,1.2-4.4,3.5c0,2.3,1.5,3.6,4.5,3.6c12,0,24,0,36.1,0
			c2.9,0,4.6-1.4,4.7-3.5c0.1-2.2-1.7-3.6-4.7-3.6C121.6,133.1,115.6,133.1,109.6,133.1z M72.4,118.9c0.9,0,1.7,0,2.6,0
			c3.4,0,4-0.6,4-3.9c0-1.9,0-3.8,0-5.7c-0.1-2-1.2-3-3.1-3.1c-1,0-1.9,0-2.9,0c-6.8,0-6.8,0-6.8,6.7
			C66.2,118.9,66.2,118.9,72.4,118.9z M66.2,136.5c0,6.5,0,6.5,6.6,6.5c6.2,0,6.2,0,6.2-6.3c0-6.5,0-6.5-6.5-6.5
			C66.2,130.1,66.2,130.1,66.2,136.5z M66.2,88.3c0,1,0.1,2.1,0,3.1c-0.2,2.5,1,3.5,3.4,3.5c1.7-0.1,3.3,0,5,0c4,0,4.4-0.4,4.5-4.5
			c0-0.4,0-0.9,0-1.3c0-6.7,0-6.7-6.7-6.7C66.2,82.3,66.2,82.3,66.2,88.3z"/>
		<path class="st1" d="M98.5,66.8c-6.8,0-13.6,0-20.4,0c-3.2,0-4-0.8-4.1-4c0-2-0.1-4,0-6c0.1-2.8,1.1-3.7,3.9-3.8
			c2.7-0.1,5.4-0.1,8.1,0c2.2,0.1,3.3-0.8,3.6-3.1c0.5-5.1,4.2-8.4,9-8.4c4.6,0,8.5,3.6,9,8.5c0.2,2.2,1.2,3.1,3.3,3
			c2.8-0.1,5.6-0.1,8.4,0c2.8,0.1,3.7,1,3.9,3.8c0.1,2.1,0.1,4.2,0,6.3c-0.1,2.9-0.9,3.7-3.8,3.7C112.4,66.8,105.5,66.8,98.5,66.8z"
			/>
	</g>
</g>
</svg>
