<?xml version="1.0" encoding="UTF-8"?>
<svg id="Layer_1" data-name="Layer 1" xmlns="http://www.w3.org/2000/svg" viewBox="0 0 197.2 197.2">
  <defs>
    <style>
      .cls-1 {
        fill: #fff;
      }

      .cls-1, .cls-2 {
        stroke-width: 0px;
      }

      .cls-2 {
        fill: #b00bc5;
      }
    </style>
  </defs>
  <circle class="cls-2" cx="98.6" cy="98.6" r="98.6"/>
  <g id="PxLfwM.tif">
    <path class="cls-1" d="m45.65,141.21V50.41c1.43-3.38,3.97-4.75,7.65-4.74,20.15.08,40.3.04,60.45.04,5.91,0,11.83,0,17.74,0,2.47,0,4.4,1.02,5.71,3.09.62.97,1.41,2.12.81,3.25-.57,1.08-1.87.56-2.84.56-26.68.03-53.36.02-80.04.03-2.64,0-2.7.06-2.7,2.63,0,8.73,0,17.47,0,26.2,0,18.5,0,37,0,55.49,0,2.61.59,4.91,2.85,6.5.85.6,1.84,1.31,2.84.91,1.13-.45.58-1.71.58-2.6.03-25.03.02-50.06.02-75.09,0-5.33,2.48-7.78,7.85-7.78,25.51,0,51.03.1,76.54-.08,5.41-.04,8.51,2.93,8.46,8.57-.18,23.17-.08,46.35-.08,69.52,0,7.82-3.04,12.05-10.48,14.6H55.97c-5.36-1.52-8.81-4.94-10.32-10.32Zm65.8-55.88c5.9,0,11.81-.03,17.71.02,1.59.01,2.32-.55,2.18-2.17-.04-.48,0-.96,0-1.44-.01-2.62-.07-2.69-2.64-2.69-10.91,0-21.83,0-32.74,0-3.96,0-3.87,0-3.95,3.89-.04,1.97.76,2.45,2.57,2.42,5.63-.09,11.26-.03,16.88-.03Zm.17,19.81c5.63,0,11.26,0,16.89,0,2.81,0,2.82-.02,2.82-2.92,0-.21,0-.41,0-.62-.02-2.7-.05-2.74-2.8-2.74-10.98,0-21.96,0-32.95,0q-3.57,0-3.55,3.65c0,.07,0,.14,0,.21-.26,1.93.65,2.49,2.5,2.46,5.7-.09,11.39-.03,17.09-.03Zm-.09,19.81c5.35,0,10.71,0,16.06,0,3.79,0,3.72,0,3.77-3.87.02-1.74-.49-2.45-2.34-2.44-11.6.06-23.2.05-34.8,0-1.56,0-2.35.49-2.2,2.13.05.54.07,1.11,0,1.65-.26,2.04.69,2.59,2.62,2.56,5.63-.1,11.26-.04,16.88-.04Zm-29.57-39.62q3.14,0,3.15-2.77,0-3.5-2.82-3.51-3.45-.01-3.46,2.88,0,3.4,3.13,3.4Zm3.15,16.67q0-3.13-3.2-3.14t-3.09,2.83q0,3.45,3.09,3.45,3.19,0,3.19-3.14Zm-3.27,22.95q3.27,0,3.27-3.27,0-3.01-2.9-3.01-3.37,0-3.38,3.17,0,3.11,3.01,3.11Z"/>
  </g>
</svg>