<?xml version="1.0" encoding="UTF-8"?>
<svg id="Layer_1" data-name="Layer 1" xmlns="http://www.w3.org/2000/svg" viewBox="0 0 197.2 197.2">
  <defs>
    <style>
      .cls-1 {
        fill: #fff;
      }

      .cls-1, .cls-2 {
        stroke-width: 0px;
      }

      .cls-2 {
        fill: #b00bc5;
      }
    </style>
  </defs>
  <circle class="cls-2" cx="98.6" cy="98.6" r="98.6"/>
  <g id="bLq1mC.tif">
    <g>
      <path class="cls-1" d="m110.3,135.24c-12.4,0-24.81,0-37.21,0-11.92-.01-19.61-7.72-19.63-19.73-.02-17.56,0-35.11,0-52.67,0-3.61-.01-3.58-3.61-3.63-5.51-.07-5.35.81-5.33-5.41.02-4.23.02-4.25,4.15-4.24,2.09,0,4.22-.12,6.27.19,5.15.78,8.14,4.48,8.14,9.91.02,18.87,0,37.73.02,56.6,0,4.33,1.97,7.4,5.4,8.77,1.82.73,2.75.47,2.84-1.76.29-6.63.35-6.62,7.08-6.62,23.41,0,46.82,0,70.22,0q4.01,0,4.02,4.1c0,3.67.01,7.34,0,11.01-.01,3.38-.09,3.46-3.58,3.46-12.93,0-25.85,0-38.78,0Z"/>
      <path class="cls-1" d="m125.86,80.32c0,8.99-.06,17.99.04,26.98.03,2.42-.62,3.46-3.24,3.37-4.97-.18-9.95-.12-14.93-.02-1.97.04-2.86-.58-2.86-2.66.04-18.51.04-37.02,0-55.53,0-2.13.82-2.95,2.96-2.91,4.8.09,9.6.02,14.4.02,3.38,0,3.61.21,3.61,3.52.02,9.08,0,18.16,0,27.24Z"/>
      <path class="cls-1" d="m98.77,95.86c0,4.1-.05,8.2.02,12.31.03,1.8-.65,2.48-2.45,2.46-7.51-.05-15.01-.06-22.52,0-1.82.02-2.5-.74-2.5-2.48.03-8.29.02-16.58,0-24.87,0-1.62.67-2.35,2.36-2.34,7.59.05,15.19.04,22.78,0,1.67,0,2.34.67,2.31,2.34-.06,4.19-.02,8.38-.02,12.57Z"/>
      <path class="cls-1" d="m131.96,91.19c0-5.41.1-10.82-.05-16.22-.06-2.34.79-3.03,3.04-2.97,4.97.13,9.94.1,14.91.01,1.99-.04,2.83.64,2.82,2.7-.06,11.08-.06,22.16,0,33.23,0,2.06-.83,2.73-2.82,2.7-5.06-.09-10.12-.09-15.18,0-2,.04-2.8-.61-2.76-2.71.11-5.58.04-11.16.04-16.75Z"/>
      <path class="cls-1" d="m94.46,148.46c-.03,4.92-4.29,9.13-9.29,9.19-4.83.06-9.24-4.34-9.24-9.23,0-5.1,4.28-9.34,9.4-9.28,4.96.06,9.17,4.35,9.13,9.31Z"/>
      <path class="cls-1" d="m129.96,139.16c5.16.07,9.26,4.32,9.15,9.49-.11,4.84-4.36,9.04-9.14,9.02-5.04-.01-9.37-4.38-9.35-9.42.02-4.91,4.39-9.15,9.35-9.09Z"/>
      <path class="cls-1" d="m89.54,63.12c2.36,0,4.71.04,7.07-.01,1.55-.03,2.21.62,2.18,2.18-.06,2.44-.05,4.89,0,7.33.03,1.5-.52,2.29-2.11,2.28-4.71-.02-9.43-.03-14.14,0-1.57.01-2.23-.77-2.24-2.23-.01-2.53,0-5.06.01-7.59,0-1.42.75-2,2.15-1.98,2.36.05,4.71.01,7.07.01Z"/>
    </g>
  </g>
</svg>