<?xml version="1.0" encoding="utf-8"?>
<!-- Generator: Adobe Illustrator 27.8.0, SVG Export Plug-In . SVG Version: 6.00 Build 0)  -->
<svg version="1.1" id="Layer_1" xmlns="http://www.w3.org/2000/svg" xmlns:xlink="http://www.w3.org/1999/xlink" x="0px" y="0px"
	 viewBox="0 0 80 80" style="enable-background:new 0 0 80 80;" xml:space="preserve">
<style type="text/css">
	.st0{fill:url(#SVGID_1_);}
	.st1{fill:url(#SVGID_00000136385120085614842110000014076498762813707411_);}
	.st2{fill:url(#SVGID_00000029017222561934413160000004657605994661568428_);}
	.st3{fill:url(#SVGID_00000072995541471310837150000013137773065535956102_);}
	.st4{fill:url(#SVGID_00000035521475054380961630000005583193414889927337_);}
	.st5{fill:url(#SVGID_00000059995725715407196680000007706573220561551778_);}
	.st6{fill:url(#SVGID_00000015342377716104194920000001265102374790806961_);}
	.st7{fill:url(#SVGID_00000105393777551388160030000011318614181687294340_);}
	.st8{fill:url(#SVGID_00000034783824612148117950000006133542821197308845_);}
	.st9{fill:url(#SVGID_00000138548292179884994640000004022958395892429745_);}
	.st10{fill:url(#SVGID_00000178181203732557001800000007842278963300584110_);}
	.st11{fill:url(#SVGID_00000007402519650386545740000014898736470756451747_);}
</style>
<g id="VYUov6.tif_00000062898749138275043330000008412982451393163145_">
	<g>
		<linearGradient id="SVGID_1_" gradientUnits="userSpaceOnUse" x1="13.9568" y1="27.2744" x2="48.4848" y2="73.6031">
			<stop  offset="0" style="stop-color:#a801bd"/>
			<stop  offset="1" style="stop-color:#453E1B"/>
		</linearGradient>
		<path class="st0" d="M49.1,62.8c0,2.9,0,5.8,0,8.6c0,2.5-1,3.5-3.5,3.5c-3.8,0-7.6,0-11.4,0c-2.3,0-3.4-1-3.4-3.3
			c0-5.4,0-10.8,0-16.2c0-3.3-1.4-4.7-4.7-4.7c-0.3,0-0.5,0-0.8,0c-2.1,0-2.4-0.3-2.3,2.1c0,1.1-0.5,1.9-1.5,2.4
			c-1,0.5-2,0.2-2.8-0.5c-4.2-3.7-8.5-7.3-12.7-11.1c-1.6-1.4-1.5-2.9,0.1-4.3c4-3.5,7.9-6.9,11.9-10.4c0.3-0.2,0.5-0.4,0.8-0.7
			c0.9-0.7,1.9-0.8,2.8-0.3c1,0.5,1.4,1.3,1.4,2.3c-0.1,2.6,0.2,2.3,2.4,2.2c6-0.3,11.3,1.3,15.9,5.2c5.1,4.4,7.6,10.1,7.8,16.8
			C49.2,57.3,49.1,60.1,49.1,62.8z"/>
		
			<linearGradient id="SVGID_00000045590563047940175050000015293217775535175577_" gradientUnits="userSpaceOnUse" x1="33.5604" y1="12.6642" x2="68.0884" y2="58.9929">
			<stop  offset="0" style="stop-color:#a801bd"/>
			<stop  offset="1" style="stop-color:#453E1B"/>
		</linearGradient>
		<path style="fill:url(#SVGID_00000045590563047940175050000015293217775535175577_);" d="M48.8,41.8c-0.6-0.1-0.7-0.6-0.9-0.9
			c-3.8-5.5-8.9-9.2-15.5-10.6c-1.2-0.3-1.7-0.9-1.6-2.1c0.1-1.3,0-2.5,0-3.8c0-1-0.4-1.4-1.4-1.3c-0.2,0-0.3,0-0.5,0
			c-1.2,0.1-2.2-0.3-2.7-1.5c-0.5-1.2-0.1-2.2,0.7-3.1c2.2-2.5,4.5-5.1,6.7-7.6c1.3-1.5,2.6-3.1,4-4.6c1.6-1.7,3.1-1.8,4.6,0
			c3.6,4,7.1,8.1,10.7,12.2c0.8,0.9,1.2,1.9,0.7,3c-0.6,1.2-1.6,1.7-2.9,1.5c-1.4-0.1-1.7,0.4-1.7,1.7c0.1,5.1,0,10.2,0,15.3
			C49.1,40.7,49.3,41.3,48.8,41.8z"/>
		
			<linearGradient id="SVGID_00000110469368158817275890000009090372495590694330_" gradientUnits="userSpaceOnUse" x1="37.1131" y1="10.0165" x2="71.641" y2="56.3451">
			<stop  offset="0" style="stop-color:#a801bd"/>
			<stop  offset="1" style="stop-color:#453E1B"/>
		</linearGradient>
		<path style="fill:url(#SVGID_00000110469368158817275890000009090372495590694330_);" d="M59.3,55.5c-1.4-0.1-2.3-1.1-2.4-2.8
			c-0.1-2-0.1-2-2.1-2c-3.1,0-2.7,0.3-2.7-2.8c0-4.5,0-9,0-13.5c0-1.3,0.3-2,1.8-1.8c0.1,0,0.3,0,0.5,0c2.5,0,2.5,0,2.7-2.4
			c0.1-1.1,0.6-1.8,1.5-2.2c1-0.4,2-0.2,2.8,0.5c2.9,2.5,5.9,5.1,8.8,7.6c1.3,1.1,2.5,2.2,3.8,3.3c1.5,1.3,1.6,2.9,0.2,4.2
			c-4.3,3.8-8.6,7.5-12.9,11.3C60.6,55.3,60,55.5,59.3,55.5z"/>
	</g>
</g>
</svg>
