<?xml version="1.0" encoding="utf-8"?>
<!-- Generator: Adobe Illustrator 27.8.0, SVG Export Plug-In . SVG Version: 6.00 Build 0)  -->
<svg version="1.1" id="Layer_1" xmlns="http://www.w3.org/2000/svg" xmlns:xlink="http://www.w3.org/1999/xlink" x="0px" y="0px"
	 viewBox="0 0 80 80" style="enable-background:new 0 0 80 80;" xml:space="preserve">
<style type="text/css">
	.st0{fill:url(#SVGID_1_);}
	.st1{fill:url(#SVGID_00000054973579647837187910000000129188453536694168_);}
	.st2{fill:url(#SVGID_00000181795595326918769670000014246527499811819964_);}
	.st3{fill:url(#SVGID_00000019664365682367174240000004577367895998940042_);}
	.st4{fill:url(#SVGID_00000052817518852529928030000005018222666468476318_);}
	.st5{fill:url(#SVGID_00000023961774725502607550000002059001231771282338_);}
	.st6{fill:url(#SVGID_00000108991854621879584740000002513035907768116882_);}
	.st7{fill:url(#SVGID_00000055696950290957074690000005610121496637863331_);}
</style>
<g id="LeoCq9.tif">
	<g>
		<linearGradient id="SVGID_1_" gradientUnits="userSpaceOnUse" x1="8.333" y1="40" x2="71.667" y2="40">
			<stop  offset="0" style="stop-color:#b00bc5"/>
			<stop  offset="1" style="stop-color:#453E1B"/>
		</linearGradient>
		<path class="st0" d="M40,9.5c8.1,0,16.2,0,24.4,0c4.4,0,7.2,2.8,7.3,7.2c0,11.8,0,23.7,0,35.5c0,4.3-2.9,7.1-7.2,7.1
			c-10.3,0-20.7,0-31,0c-1.1,0-1.8,0.3-2.6,1.1c-3,3.1-6,6-9,9.1c-0.9,0.9-1.9,1.5-3.1,0.9c-1.2-0.5-1.4-1.6-1.4-2.8
			c0-2.3,0-4.5,0-6.8c0-1.2-0.4-1.6-1.5-1.5c-2.5,0.2-4.5-0.7-6.1-2.6c-0.9-1.2-1.4-2.5-1.4-4c0-12.2,0-24.3,0-36.5
			c0-3.7,3-6.6,6.8-6.7C23.4,9.4,31.7,9.5,40,9.5z M43.8,43.3c2.2,0,4.4,0,6.6,0c1.5,0,2.4-0.6,2.8-2.1c0.7-2.5,1.4-5,2.1-7.5
			c0.7-2.6,0-3.6-2.6-3.8c-1.5-0.1-3.1-0.1-4.6,0c-1,0-1.3-0.4-1.3-1.3c0-1.6,0-3.3,0-4.9c0-1.1-0.3-2-1.4-2.5c-1.2-0.5-2,0.2-2.7,1
			c-2.1,2.3-4.2,4.7-6.3,7c-0.5,0.5-0.7,1.1-0.7,1.8c0,3.7,0,7.3,0,11c0,1.1,0.4,1.4,1.4,1.3C39.3,43.2,41.5,43.3,43.8,43.3z
			 M30.9,36.8c0-1.9,0-3.8,0-5.6c0-0.8-0.3-1.2-1.1-1.2c-1.5,0-2.9,0-4.4,0c-0.8,0-1.1,0.3-1.1,1.1c0,3.7,0,7.4,0,11.1
			c0,0.8,0.3,1.1,1.1,1.1c1.5,0,2.9,0,4.4,0c0.9,0,1.2-0.3,1.1-1.2C30.9,40.3,30.9,38.5,30.9,36.8z"/>
	</g>
</g>
</svg>
