<?xml version="1.0" encoding="utf-8"?>
<!-- Generator: Adobe Illustrator 27.8.0, SVG Export Plug-In . SVG Version: 6.00 Build 0)  -->
<svg version="1.1" id="Layer_1" xmlns="http://www.w3.org/2000/svg" xmlns:xlink="http://www.w3.org/1999/xlink" x="0px" y="0px"
	 viewBox="0 0 80 80" style="enable-background:new 0 0 80 80;" xml:space="preserve">
<style type="text/css">
	.st0{fill:url(#SVGID_1_);}
	.st1{fill:url(#SVGID_00000018933598852755619790000012688074496385706415_);}
	.st2{fill:url(#SVGID_00000140724633203157873330000011603800239792178337_);}
	.st3{fill:url(#SVGID_00000171687562532582075480000006143159837521347464_);}
	.st4{fill:url(#SVGID_00000077301444770540841480000011820439486445373074_);}
	.st5{fill:url(#SVGID_00000072243136704360252280000007653021041381053574_);}
	.st6{fill:url(#SVGID_00000102536982386419810280000010923063519286115260_);}
	.st7{fill:url(#SVGID_00000146472005925678277160000015016868088048476837_);}
	.st8{fill:url(#SVGID_00000023979882184199514630000014369682005451711113_);}
	.st9{fill:url(#SVGID_00000103255424123891310710000009025853233192497549_);}
	.st10{fill:url(#SVGID_00000110437127882769200350000003853110791515607444_);}
	.st11{fill:url(#SVGID_00000108299527044767940820000005110300234185894566_);}
</style>
<g id="_x36_PYVmH.tif_00000088128419218428195440000001579146526954760339_">
	<g>
		<linearGradient id="SVGID_1_" gradientUnits="userSpaceOnUse" x1="14.1709" y1="20.4475" x2="65.8084" y2="74.014">
			<stop  offset="0" style="stop-color:#a801bd"/>
			<stop  offset="1" style="stop-color:#453E1B"/>
		</linearGradient>
		<path class="st0" d="M18.2,73.5c-3-0.5-5.5-2-7.6-4.2c-2.9-3.1-4.4-6.7-4.4-11c0.1-7.3,0.1-14.7,0-22c0-5.3,2.1-9.6,6.2-12.9
			c5.8-4.6,11.6-9.1,17.4-13.6c6.3-4.9,13.8-4.8,20.1,0c5.8,4.5,11.6,9,17.3,13.5c4.4,3.4,6.4,8,6.3,13.6c-0.1,3.2,0,3.2-3.2,3.2
			c-14.3,0-28.7,0-43,0c-4.7,0-8.2,2.6-9.3,6.8c-0.3,1.1-0.4,2.3-0.4,3.5c0,6.5,0,12.9,0,19.4C17.7,71,17.6,72.3,18.2,73.5z M40,31
			c2.5,0,4.9,0,7.4,0c1.6,0,2.5-0.8,2.5-2c0-1.3-0.9-2-2.5-2c-4.9,0-9.9,0-14.8,0c-1.6,0-2.5,0.8-2.5,2c0,1.3,0.9,2,2.5,2
			C35.1,31,37.5,31,40,31z"/>
		
			<linearGradient id="SVGID_00000167364519560477509960000007981280213559917753_" gradientUnits="userSpaceOnUse" x1="18.0695" y1="16.6893" x2="69.707" y2="70.2558">
			<stop  offset="0" style="stop-color:#a801bd"/>
			<stop  offset="1" style="stop-color:#453E1B"/>
		</linearGradient>
		<path style="fill:url(#SVGID_00000167364519560477509960000007981280213559917753_);" d="M42.1,58.1c0-2.3,0-4.6,0-6.9
			c0-5,3.9-9,8.9-9c4.6,0,9.1,0,13.7,0c4.9,0,8.8,3.9,8.9,8.8c0,4.7,0,9.3,0,14c0,4.8-3.9,8.7-8.7,8.8c-4.7,0-9.3,0-14,0
			c-4.9,0-8.7-4-8.8-8.9C42.1,62.6,42.1,60.3,42.1,58.1z M64.4,54.6c-0.1-0.8-0.5-1.5-1.3-1.8c-0.9-0.4-1.7-0.1-2.3,0.5
			c-1.2,1.2-2.5,2.4-3.6,3.7c-0.8,0.9-1.3,0.9-2-0.1c-0.7-1.1-2-1.3-2.9-0.7c-0.9,0.6-1.2,1.8-0.5,3c0.6,1.1,1.3,2.2,2,3.2
			c1,1.5,2.3,1.6,3.6,0.3c2.1-2.1,4.1-4.2,6.2-6.2C64.1,55.8,64.4,55.3,64.4,54.6z"/>
		
			<linearGradient id="SVGID_00000153668856017313170480000001165579788477676710_" gradientUnits="userSpaceOnUse" x1="0.32" y1="33.7996" x2="51.9574" y2="87.3661">
			<stop  offset="0" style="stop-color:#a801bd"/>
			<stop  offset="1" style="stop-color:#453E1B"/>
		</linearGradient>
		<path style="fill:url(#SVGID_00000153668856017313170480000001165579788477676710_);" d="M29.9,69.8c-2.1,0-4.2,0-6.3,0
			c-1.1,0-1.6-0.3-1.6-1.5c0.1-2.6,0-5.1,0-7.7c0-1,0.3-1.3,1.3-1.3c4.4,0,8.8,0,13.3,0c1,0,1.3,0.4,1.3,1.3c0,2.6,0,5.2,0,7.8
			c0,1-0.4,1.4-1.3,1.3C34.3,69.8,32.1,69.8,29.9,69.8C29.9,69.8,29.9,69.8,29.9,69.8z"/>
		
			<linearGradient id="SVGID_00000156584540347679820740000004773513763372966322_" gradientUnits="userSpaceOnUse" x1="7.5741" y1="26.8067" x2="59.2116" y2="80.3732">
			<stop  offset="0" style="stop-color:#a801bd"/>
			<stop  offset="1" style="stop-color:#453E1B"/>
		</linearGradient>
		<path style="fill:url(#SVGID_00000156584540347679820740000004773513763372966322_);" d="M29.9,55c-2.2,0-4.4,0-6.5,0
			c-1,0-1.3-0.3-1.3-1.3c0.1-1.5,0-3,0-4.5c0-2.4,1.5-4.2,3.9-4.5c2.6-0.4,5.3-0.1,7.9-0.2c4,0,4,0,4,4c0,1.7-0.1,3.4,0,5
			c0,1.1-0.4,1.5-1.5,1.4C34.2,55,32,55,29.9,55z"/>
	</g>
</g>
</svg>
