<?xml version="1.0" encoding="utf-8"?>
<!-- Generator: Adobe Illustrator 27.8.0, SVG Export Plug-In . SVG Version: 6.00 Build 0)  -->
<svg version="1.1" id="Layer_1" xmlns="http://www.w3.org/2000/svg" xmlns:xlink="http://www.w3.org/1999/xlink" x="0px" y="0px"
	 viewBox="0 0 80 80" style="enable-background:new 0 0 80 80;" xml:space="preserve">
<style type="text/css">
	.st0{fill:url(#SVGID_1_);}
	.st1{fill:url(#SVGID_00000111191869343273800810000007737631623043365253_);}
	.st2{fill:url(#SVGID_00000105416007410849076660000010907904807047872172_);}
	.st3{fill:url(#SVGID_00000014593699207284625270000009700321759896241548_);}
	.st4{fill:url(#SVGID_00000012443143018705953200000014432560168531806354_);}
	.st5{fill:url(#SVGID_00000132061210498868779880000007463911693480015502_);}
	.st6{fill:url(#SVGID_00000130648114711924886800000018318607528501281957_);}
	.st7{fill:url(#SVGID_00000078743611722639389870000011213821005137148324_);}
	.st8{fill:url(#SVGID_00000027587344561981184410000016976717605765976457_);}
	.st9{fill:url(#SVGID_00000004526518366593108420000008325349323708182439_);}
	.st10{fill:url(#SVGID_00000174595913247542453740000006550428909103165619_);}
	.st11{fill:url(#SVGID_00000042713056286471310830000002679352197386485932_);}
</style>
<g id="W4ERf3.tif_00000173122740030875730790000001161632497005536688_">
	<g>
		<linearGradient id="SVGID_1_" gradientUnits="userSpaceOnUse" x1="26.7318" y1="12.8647" x2="72.3551" y2="70.1675">
			<stop  offset="0" style="stop-color:#b00bc5"/>
			<stop  offset="1" style="stop-color:#453E1B"/>
		</linearGradient>
		<path class="st0" d="M72.9,72.8c-0.8,1.6-2.2,2.1-3.9,2.1c-3.2,0-6.5,0-9.7,0c-3.1,0-4.1-1.2-4.1-4.2c0-7.2,0-14.4,0-21.7
			c0-2.9,1.1-4,4-4c3.3,0,6.6,0,9.9,0c1.7,0,3,0.5,3.9,1.9C72.9,55.4,72.9,64.1,72.9,72.8z"/>
		
			<linearGradient id="SVGID_00000119822214095469360890000014459692925023425668_" gradientUnits="userSpaceOnUse" x1="32.4979" y1="8.2738" x2="78.1212" y2="65.5766">
			<stop  offset="0" style="stop-color:#b00bc5"/>
			<stop  offset="1" style="stop-color:#453E1B"/>
		</linearGradient>
		<path style="fill:url(#SVGID_00000119822214095469360890000014459692925023425668_);" d="M41.4,5.2c1.1,0.8,1.5,2,1.9,3.2
			c1.2,3.8,1.2,3.8,5.2,3.8c0.6,0,1.3,0,1.9,0.1c1.1,0.2,2,0.7,2.3,1.8c0.3,1.1-0.1,2-1,2.7c-1,0.7-2,1.4-3,2.2
			c-1,0.8-1.4,1.7-1,2.9c0.4,1.1,0.7,2.1,1.1,3.2c0.4,1.2,0.3,2.3-0.8,3.2c-1.1,0.8-2.1,0.5-3.1-0.2c-0.9-0.7-1.8-1.3-2.7-2
			c-1.1-0.8-2.2-0.8-3.3,0c-1,0.7-2,1.5-3,2.2c-0.9,0.7-1.9,0.7-2.9,0c-0.9-0.7-1.2-1.6-0.9-2.7c0.3-1.2,0.7-2.4,1.1-3.5
			c0.5-1.4,0.1-2.4-1-3.2c-1-0.7-1.9-1.4-2.9-2.1c-0.9-0.7-1.4-1.5-1-2.7c0.4-1.2,1.2-1.8,2.4-1.8c1.3-0.1,2.6-0.1,3.8,0
			c1.3,0,2-0.6,2.4-1.7c0.3-1,0.7-2,1-2.9c0.3-1,0.8-1.9,1.8-2.4C40.2,5.2,40.8,5.2,41.4,5.2z"/>
		
			<linearGradient id="SVGID_00000096023074530630949320000017850355010929440910_" gradientUnits="userSpaceOnUse" x1="14.5096" y1="22.5957" x2="60.1329" y2="79.8985">
			<stop  offset="0" style="stop-color:#b00bc5"/>
			<stop  offset="1" style="stop-color:#453E1B"/>
		</linearGradient>
		<path style="fill:url(#SVGID_00000096023074530630949320000017850355010929440910_);" d="M49.1,54.7c0,5.3,0,10.6,0,15.9
			c0,3-1.1,4.1-4.1,4.2c-3.3,0-6.6,0-9.9,0c-2.8,0-4-1.2-4.1-3.9c0-10.8-0.1-21.5,0-32.3c0-2.9,1.2-4,4.1-4c3.3,0,6.7,0,10,0
			c2.7,0,3.9,1.2,3.9,3.9C49.1,43.9,49.1,49.3,49.1,54.7z"/>
		
			<linearGradient id="SVGID_00000041273361386048984660000010343553694941913227_" gradientUnits="userSpaceOnUse" x1="-2.6845" y1="36.2853" x2="42.9388" y2="93.5881">
			<stop  offset="0" style="stop-color:#b00bc5"/>
			<stop  offset="1" style="stop-color:#453E1B"/>
		</linearGradient>
		<path style="fill:url(#SVGID_00000041273361386048984660000010343553694941913227_);" d="M25.1,60c0,3.4,0,6.8,0,10.2
			c0,3.6-1.1,4.7-4.6,4.7c-3.1,0-6.2,0-9.3,0c-3,0-4.1-1.2-4.1-4.1c0-7.2,0-14.5,0-21.7c0-2.9,1.1-4,4-4c3.3,0,6.7,0,10,0
			c2.8,0,3.9,1.1,4,3.9C25.2,52.6,25.1,56.3,25.1,60C25.1,60,25.1,60,25.1,60z"/>
	</g>
</g>
</svg>
