<?xml version="1.0" encoding="utf-8"?>
<!-- Generator: Adobe Illustrator 27.8.0, SVG Export Plug-In . SVG Version: 6.00 Build 0)  -->
<svg version="1.1" id="Layer_1" xmlns="http://www.w3.org/2000/svg" xmlns:xlink="http://www.w3.org/1999/xlink" x="0px" y="0px"
	 viewBox="0 0 80 80" style="enable-background:new 0 0 80 80;" xml:space="preserve">
<style type="text/css">
	.st0{fill:url(#SVGID_1_);}
	.st1{fill:url(#SVGID_00000005983662673901560320000014258820719718288804_);}
	.st2{fill:url(#SVGID_00000008850938356175052530000014916376881326505092_);}
	.st3{fill:url(#SVGID_00000068655884568406462210000005179896594837114757_);}
	.st4{fill:url(#SVGID_00000035499810626649497330000006813377530599079847_);}
	.st5{fill:url(#SVGID_00000036972356417226546380000001109328817151408262_);}
	.st6{fill:url(#SVGID_00000093171277841281184950000000019726678939040150_);}
	.st7{fill:url(#SVGID_00000119098836980500805620000007717770972746320515_);}
	.st8{fill:url(#SVGID_00000145021854233333543660000000523394261530138030_);}
	.st9{fill:url(#SVGID_00000151516763167067976850000011793033746010420621_);}
	.st10{fill:url(#SVGID_00000083047929533562234680000017379227186960490408_);}
	.st11{fill:url(#SVGID_00000171710747759566611090000004242093714720823955_);}
	.st12{fill:url(#SVGID_00000111892689925936693840000010659938679124524969_);}
	.st13{fill:url(#SVGID_00000081612886553976722280000006034377346820130204_);}
</style>
<g id="XExoly.tif">
	<g>
		<linearGradient id="SVGID_1_" gradientUnits="userSpaceOnUse" x1="4.7805" y1="21.4697" x2="54.9751" y2="73.273">
			<stop  offset="0" style="stop-color:#b00bc5"/>
			<stop  offset="1" style="stop-color:#453E1B"/>
		</linearGradient>
		<path class="st0" d="M6.8,49c0-2.5,0-5,0-7.5c0.1-0.3,0.1-0.7,0.2-1c2.3-12,11.2-20.8,23.1-22.7c2.6-0.4,4.2,0.9,4.2,3.5
			c0,5.6,0,11.2,0,16.8c0,2.2,0.8,3.9,2.4,5.4c1.3,1.2,2.9,1.8,4.7,1.8c5.6,0,11.1,0,16.7,0c2.9,0,4.4,1.8,3.9,4.6
			c-2.2,13.3-13.8,23.2-27.3,23.2c-10,0-17.8-4.2-23.6-12.3C8.7,57.4,7.5,53.3,6.8,49z"/>
		
			<linearGradient id="SVGID_00000022533870766155243720000007571342783740580526_" gradientUnits="userSpaceOnUse" x1="26.0865" y1="0.8254" x2="76.281" y2="52.6287">
			<stop  offset="0" style="stop-color:#b00bc5"/>
			<stop  offset="1" style="stop-color:#453E1B"/>
		</linearGradient>
		<path style="fill:url(#SVGID_00000022533870766155243720000007571342783740580526_);" d="M46.7,6.8c4.8,1.3,9.4,3.2,13.4,6.3
			c7.2,5.6,11.6,12.9,13.1,21.9c0.1,0.5,0.1,1,0.1,1.5c0,2.1-1.3,3.5-3.4,3.5c-9,0-17.9,0-26.9,0c-1.9,0-3-1.1-3-3
			c0-9,0-17.9,0-26.9c0-1.5,0.8-2.5,1.9-3.3C43.4,6.8,45,6.8,46.7,6.8z"/>
	</g>
</g>
</svg>
