<?xml version="1.0" encoding="utf-8"?>
<!-- Generator: Adobe Illustrator 27.8.0, SVG Export Plug-In . SVG Version: 6.00 Build 0)  -->
<svg version="1.1" id="Layer_1" xmlns="http://www.w3.org/2000/svg" xmlns:xlink="http://www.w3.org/1999/xlink" x="0px" y="0px"
	 viewBox="0 0 197.2 197.2" style="enable-background:new 0 0 197.2 197.2;" xml:space="preserve">
<style type="text/css">
	.st0{fill:#a801bd;}
	.st1{fill:#fff;}
</style>
<circle class="st0" cx="98.6" cy="98.6" r="98.6"/>
<g id="Sw2P7L.tif">
	<g>
		<path class="st1" d="M120,122.1c0-8.9,0-17.8,0-26.8c0-5.1,2.6-7.7,7.7-7.7c3.5,0,7,0,10.6,0c5,0,7.7,2.7,7.8,7.8
			c0.1,7.9,0,15.8,0,23.7c0,9.9,0,19.7,0,29.6c0,3.6-0.7,4.3-4.3,4.3c-5.9,0-11.8,0-17.7,0c-3.4,0-4.1-0.6-4.1-4
			C120,140.1,120,131.1,120,122.1z"/>
		<path class="st1" d="M109.9,126.4c0,7.6,0,15.1,0,22.7c0,3.2-0.8,3.9-4,3.9c-6.1,0-12.2,0-18.3,0c-2.9,0-3.8-0.8-3.8-3.7
			c0-15.3,0-30.5,0-45.8c0-4.7,2.7-7.3,7.4-7.3c3.7,0,7.5,0,11.2,0c4.8,0,7.4,2.6,7.4,7.5C109.9,111.3,109.9,118.9,109.9,126.4z"/>
		<path class="st1" d="M73.6,135c0,4.9,0,9.8,0,14.7c0,2.6-0.8,3.4-3.3,3.4c-6.4,0-12.8,0-19.2,0c-2.6,0-3.5-0.9-3.5-3.6
			c0-9.6-0.1-19.3,0-28.9c0-4.7,2.9-7.4,7.6-7.4c3.7,0,7.3,0,11,0c4.7,0,7.4,2.7,7.4,7.4C73.6,125.3,73.6,130.1,73.6,135z"/>
		<path class="st1" d="M144.1,73.7c0,2.3-1.5,3.3-3.6,2.3c-2-0.9-4-2-5.9-3.1c-1.2-0.7-2.2-0.7-3.4,0c-1.9,1.1-3.8,2-5.7,3
			c-2.4,1.1-4-0.1-3.7-2.7c0.3-2.3,0.6-4.6,1.1-6.8c0.2-1.2-0.1-1.9-0.9-2.7c-1.5-1.4-3-2.9-4.5-4.4c-0.9-0.9-1.7-1.9-1.2-3.2
			c0.5-1.3,1.7-1.5,2.8-1.7c2.1-0.4,4.3-0.7,6.4-0.9c1.1-0.1,1.7-0.6,2.1-1.6c0.9-2,1.9-4,2.9-6c0.5-1,1.2-1.9,2.4-1.9
			c1.2,0,1.9,0.8,2.4,1.9c0.7,1.5,1.7,2.9,2.2,4.5c0.8,2.4,2.5,3.3,4.8,3.4c1.6,0.1,3.3,0.3,4.9,0.7c2.7,0.6,3.3,2.6,1.5,4.6
			c-1.5,1.6-3.1,3.2-4.8,4.7c-0.9,0.8-1.2,1.7-0.9,2.9c0.5,2.1,0.7,4.2,1.1,6.4C144.1,73.3,144.1,73.5,144.1,73.7z"/>
		<path class="st1" d="M96.8,87c-4.9,0-8.8-4-8.7-8.8c0.1-4.7,4.1-8.7,8.8-8.6c4.8,0,8.8,4.1,8.7,8.9C105.5,83.2,101.6,87,96.8,87z"
			/>
		<path class="st1" d="M69.3,94.3c0,4.9-3.9,8.7-8.8,8.6c-4.7-0.1-8.6-4-8.6-8.8c0-4.6,4.2-8.7,8.7-8.7
			C65.5,85.5,69.4,89.4,69.3,94.3z"/>
		<path class="st1" d="M73.5,91.1c-1.4-0.5-1.2-2-1.9-3c-0.5-0.7,0-1.2,0.7-1.5c3.7-1.6,7.3-3.3,11-4.9c2-0.8,1.6,1.2,2.2,2
			c0.5,0.7,1,1.7-0.3,2.3c-3.7,1.6-7.4,3.2-11,4.8C74,91,73.8,91,73.5,91.1z"/>
		<path class="st1" d="M117.6,66.6c0.9-0.1,1.1,0.1,1.2,0.6c0.3,2.1-1,4.4-3,5.3c-1.8,0.8-3.5,1.6-5.3,2.3c-0.7,0.3-1.5,0.6-1.8-0.4
			c-0.3-1.2-2-2.6-0.7-3.4C111.2,69.2,114.6,67.9,117.6,66.6z"/>
	</g>
</g>
</svg>
