<?xml version="1.0" encoding="UTF-8"?>
<svg id="Layer_1" data-name="Layer 1" xmlns="http://www.w3.org/2000/svg" viewBox="0 0 197.2 197.2">
  <defs>
    <style>
      .cls-1 {
        fill: #fff;
      }

      .cls-1, .cls-2 {
        stroke-width: 0px;
      }

      .cls-2 {
        fill: #a801bd;
      }
    </style>
  </defs>
  <circle class="cls-2" cx="98.6" cy="98.6" r="98.6"/>
  <g id="YvmStR.tif">
    <g>
      <path class="cls-1" d="m149.42,58.57v38.48c-.46.02-.92.06-1.38.06-5.72,0-11.44,0-17.15,0-2,0-2.55.85-1.76,2.7,1.2,2.82,1.97,5.74,2.23,8.8.37,4.35-2.02,7.28-6.29,7.61-.62.05-1.25.03-1.88.03-2.67,0-6.23-1.55-6.64-5.42-.16-1.54-.06-3.04.19-4.54.39-2.29,1.1-4.49,2-6.63.7-1.68.13-2.51-1.71-2.55-.63-.01-1.26,0-1.88,0-4.59,0-9.19,0-13.78,0-.69,0-1.22-.04-1.21-.97.03-4.43.02-8.86,0-13.29,0-.81.3-.97,1.03-.71,2.25.79,4.57,1.33,6.96,1.48,5.18.34,8.72-1.46,10.5-6.1.76-1.97.68-4.04.53-6.08-.27-3.61-2.74-8.01-8.19-8.52-3.31-.31-6.44.37-9.55,1.31-1.23.37-1.27.36-1.27-.95,0-4.73,0-9.45,0-14.18,0-1.31.02-1.33,1.33-1.33,11.87,0,23.73,0,35.6,0,2.31,0,4.44.67,6.38,1.89,3.29,2.08,5.18,5.11,5.95,8.88Z"/>
      <path class="cls-1" d="m97.05,149.41h-38.68c-.41-.12-.82-.25-1.23-.36-5.55-1.56-9.34-6.5-9.34-12.25-.01-11.77,0-23.53,0-35.3,0-1.32.02-1.34,1.32-1.34,4.26,0,8.53,0,12.79,0,1.65,0,3.31.02,4.96-.02,1.39-.03,1.95-.91,1.49-2.21-.09-.25-.2-.49-.31-.73-1.13-2.7-1.86-5.5-2.12-8.42-.4-4.44,2-7.41,6.27-7.73.62-.05,1.25-.03,1.88-.03,2.74,0,6.24,1.58,6.66,5.39.17,1.53.07,3.04-.19,4.54-.41,2.39-1.17,4.67-2.1,6.91-.56,1.35.03,2.2,1.48,2.29.36.02.73.01,1.09.01,4.99,0,9.98.02,14.97-.01.86,0,1.15.29,1.15,1.15-.03,4.33-.03,8.66,0,12.99,0,.89-.28,1.11-1.11.82-2.22-.77-4.51-1.29-6.86-1.46-5.26-.37-8.93,1.54-10.55,6.28-.89,2.62-.9,5.38-.06,8,1.57,4.93,5.33,6.85,10.6,6.49,2.39-.17,4.7-.7,6.96-1.48.72-.25,1.05-.09,1.02.72-.03,1.19,0,2.38,0,3.57-.02,4.06-.05,8.13-.07,12.19Z"/>
      <path class="cls-1" d="m149.42,100.22v38.28c-.07.25-.14.51-.21.76-1.57,6.15-6.52,10-12.86,10-11.57,0-23.13,0-34.7,0-1.48,0-1.48,0-1.49-1.49,0-5.62,0-11.24,0-16.85,0-2.05-.83-2.59-2.68-1.81-2.82,1.19-5.74,1.97-8.8,2.24-4.28.38-7.28-2.01-7.63-6.17-.06-.69-.02-1.38-.02-2.07,0-2.61,1.57-6.15,5.38-6.56,1.53-.16,3.03-.07,4.54.19,2.36.4,4.61,1.15,6.81,2.06,1.46.6,2.32.02,2.39-1.55.02-.36,0-.73,0-1.09,0-4.92.02-9.85-.02-14.77,0-.95.31-1.25,1.25-1.25,4.3.04,8.59.03,12.89,0,.89,0,1.1.27.81,1.11-.77,2.22-1.29,4.51-1.46,6.86-.38,5.4,1.72,9.24,6.94,10.78,1.45.43,2.95.31,4.43.31,2.08,0,3.97-.62,5.67-1.8,3.27-2.27,3.96-5.6,3.73-9.27-.15-2.39-.7-4.7-1.48-6.96-.25-.72-.09-1.03.72-1.02,1.88.03,3.77,0,5.65,0,3.37.02,6.74.04,10.11.07Z"/>
      <path class="cls-1" d="m47.79,77.65c0-5.72-.01-11.44,0-17.16.02-7.06,5.61-12.68,12.65-12.69,11.73-.02,23.47,0,35.2,0,1.46,0,1.46,0,1.46,1.5,0,5.69,0,11.37,0,17.06,0,2.04.82,2.6,2.66,1.82,2.79-1.18,5.67-1.98,8.7-2.23,5.16-.43,7.89,2.67,7.73,7.23-.03.86.04,1.71-.14,2.56-.68,3.18-2.93,5.02-6.3,5.09-3.37.07-6.53-.86-9.62-2.08-.34-.13-.67-.3-1.01-.4-1.08-.31-1.83.17-1.99,1.28-.06.39-.04.79-.04,1.19,0,4.99,0,9.98,0,14.97,0,1.32-.01,1.33-1.33,1.33-4.23,0-8.46,0-12.69,0-1.17,0-1.23-.08-.87-1.18.74-2.24,1.23-4.52,1.43-6.87.64-7.7-4.65-11.11-9.9-11-1.32.03-2.65-.07-3.94.31-5.21,1.53-7.33,5.32-6.95,10.77.16,2.35.69,4.64,1.46,6.86.29.82.11,1.12-.8,1.12-4.86-.03-9.72-.03-14.58,0-.96,0-1.16-.39-1.16-1.24.02-6.08.01-12.16.01-18.25Z"/>
    </g>
  </g>
</svg>