<?xml version="1.0" encoding="utf-8"?>
<!-- Generator: Adobe Illustrator 27.8.0, SVG Export Plug-In . SVG Version: 6.00 Build 0)  -->
<svg version="1.1" id="Layer_1" xmlns="http://www.w3.org/2000/svg" xmlns:xlink="http://www.w3.org/1999/xlink" x="0px" y="0px"
	 viewBox="0 0 80 80" style="enable-background:new 0 0 80 80;" xml:space="preserve">
<style type="text/css">
	.st0{fill:url(#SVGID_1_);}
	.st1{fill:url(#SVGID_00000134240141023356256480000001568870371686527626_);}
	.st2{fill:url(#SVGID_00000130606369649672364730000014126347859070595247_);}
	.st3{fill:url(#SVGID_00000047738205422116324030000015335241814717464212_);}
	.st4{fill:url(#SVGID_00000172438474027079075970000007779966511027985577_);}
	.st5{fill:url(#SVGID_00000114759675792680490730000002131151174538996372_);}
	.st6{fill:url(#SVGID_00000134936066143005424420000005525504882498044592_);}
	.st7{fill:url(#SVGID_00000121267755472498983380000005644995508974456448_);}
	.st8{fill:url(#SVGID_00000098914901283579551580000007958646994785798297_);}
	.st9{fill:url(#SVGID_00000074406090730071019350000015237610193897232550_);}
	.st10{fill:url(#SVGID_00000162328924709184169580000016861585521174882699_);}
	.st11{fill:url(#SVGID_00000036220921815216010690000006550171205720226473_);}
	.st12{fill:url(#SVGID_00000135687102410092369010000003367292973070314371_);}
	.st13{fill:url(#SVGID_00000037660406840593112010000000558998648132556981_);}
	.st14{fill:url(#SVGID_00000125577127865397454640000009522977331455373244_);}
	.st15{fill:url(#SVGID_00000004516010214882174210000017465219102512816263_);}
	.st16{fill:url(#SVGID_00000072983331218232441710000008637234013785097355_);}
	.st17{fill:url(#SVGID_00000065039880733907703020000007640761366309705109_);}
	.st18{fill:url(#SVGID_00000024702003160335054930000004434349555067024823_);}
	.st19{fill:url(#SVGID_00000029028144592683712310000017604419862611189182_);}
	.st20{fill:url(#SVGID_00000013181875048379024750000016441047372739065755_);}
	.st21{fill:url(#SVGID_00000146459758081709337000000011144940859870046142_);}
	.st22{fill:url(#SVGID_00000069373420073313520060000017139614014015036596_);}
	.st23{fill:url(#SVGID_00000123437881208278858430000005141740944975355053_);}
	.st24{fill:url(#SVGID_00000178164977685291864210000010272810814481374616_);}
	.st25{fill:url(#SVGID_00000064334311749909665630000009848719068765166990_);}
	.st26{fill:url(#SVGID_00000109008739780004403700000013397260627936826518_);}
	.st27{fill:url(#SVGID_00000083059777689032556950000009492202446172105894_);}
	.st28{fill:url(#SVGID_00000096770759642096796560000018001470369317809825_);}
	.st29{fill:url(#SVGID_00000173132082550627068430000013310436973857149100_);}
	.st30{fill:url(#SVGID_00000062896281847480862520000016781823436704539290_);}
	.st31{fill:url(#SVGID_00000093876093367793573530000014718323708779372422_);}
	.st32{fill:url(#SVGID_00000150806565770351837820000008856326955175513493_);}
	.st33{fill:url(#SVGID_00000043415331060534655830000002044284824989037465_);}
	.st34{fill:url(#SVGID_00000135673601511027840960000017154647379963740044_);}
	.st35{fill:url(#SVGID_00000015351443763225531640000016376809634783488136_);}
	.st36{fill:url(#SVGID_00000029728566313898292950000002718472766400279965_);}
	.st37{fill:url(#SVGID_00000119815627005901090060000007156172729944987545_);}
	.st38{fill:url(#SVGID_00000029006986385549291090000010836963794571671220_);}
	.st39{fill:url(#SVGID_00000096766886849809887510000017528443486471191464_);}
	.st40{fill:url(#SVGID_00000016051451181817280340000010939257935423875997_);}
	.st41{fill:url(#SVGID_00000152984960843851047590000017147229973639446429_);}
	.st42{fill:url(#SVGID_00000105411066138074565870000012767575060739616157_);}
	.st43{fill:url(#SVGID_00000091714689591585943030000005554250660647456426_);}
	.st44{fill:url(#SVGID_00000161594679232073421540000000805046283300381074_);}
	.st45{fill:url(#SVGID_00000133528092269685123170000001911783149430751410_);}
</style>
<g id="ZgiA3B.tif_00000121281284254540831420000007233919686314397094_">
	<g>
		<linearGradient id="SVGID_1_" gradientUnits="userSpaceOnUse" x1="14.9306" y1="12.8545" x2="63.7297" y2="68.8108">
			<stop  offset="0" style="stop-color:#b00bc5"/>
			<stop  offset="1" style="stop-color:#453E1B"/>
		</linearGradient>
		<path class="st0" d="M7.1,37.8c0.5-3.5,1.1-7,2.6-10.3C14.9,16.3,23.5,9.8,35.6,8.1c6.1-0.9,12,0.1,17.6,2.7
			c1.3,0.6,1.3,0.7,0.3,1.7c-0.9,0.9-1.8,1.7-2.6,2.7c-0.6,0.7-1.3,0.8-2.2,0.5c-6.4-2.3-12.8-2.2-19.1,0.4
			c-9.7,3.9-16.2,13.4-16.3,23.9c-0.1,13,8.5,23.9,21.3,26.3c15.8,3,28.8-8,30.9-21.5c0.7-4.6,0.4-9.1-1.2-13.4
			c-0.4-1-0.2-1.6,0.5-2.3c0.9-0.8,1.8-1.7,2.6-2.6c0.7-0.8,1.2-0.8,1.6,0.3c1.3,2.8,2.2,5.8,2.6,8.9c1.4,11-1.7,20.6-9.7,28.4
			c-5.3,5.2-11.8,8.1-19.3,8.8c-0.2,0-0.4,0.1-0.6,0.2c-1.6,0-3.3,0-4.9,0c-0.6-0.3-1.3-0.1-1.9-0.2c-12.4-2.1-21.1-8.8-26-20.3
			c-1.3-3-1.8-6.2-2.3-9.3C7.1,41.2,7.1,39.5,7.1,37.8z"/>
		
			<linearGradient id="SVGID_00000145048323695706812120000000589751701937075097_" gradientUnits="userSpaceOnUse" x1="15.1673" y1="12.6481" x2="63.9664" y2="68.6044">
			<stop  offset="0" style="stop-color:#b00bc5"/>
			<stop  offset="1" style="stop-color:#453E1B"/>
		</linearGradient>
		<path style="fill:url(#SVGID_00000145048323695706812120000000589751701937075097_);" d="M39.7,19.6c3.3-0.1,6.5,0.7,9.4,2.2
			c0.9,0.4,1,0.8,0.2,1.5c-0.9,0.9-1.8,1.7-2.6,2.6c-0.7,0.8-1.3,0.9-2.4,0.6c-6.8-2.3-13.7,0.4-17.3,6.5c-5.3,9,0.8,20.8,11.2,21.8
			c8.7,0.8,16.3-6,16-15.2c-0.1-1.5-0.3-2.9-0.9-4.3c-0.3-0.8-0.1-1.4,0.5-1.9c0.9-0.9,1.9-1.8,2.7-2.7c0.8-0.8,1.2-0.7,1.7,0.3
			c3.5,7.7,3,15.1-2.1,22c-5,6.7-13.6,9.5-21.7,7.4c-8.1-2.1-14-8.8-15.2-17C17.3,30.7,26.9,19.7,39.7,19.6z"/>
		
			<linearGradient id="SVGID_00000109014059761561558600000010694519392624917926_" gradientUnits="userSpaceOnUse" x1="30.5217" y1="-0.7423" x2="79.3207" y2="55.2139">
			<stop  offset="0" style="stop-color:#b00bc5"/>
			<stop  offset="1" style="stop-color:#453E1B"/>
		</linearGradient>
		<path style="fill:url(#SVGID_00000109014059761561558600000010694519392624917926_);" d="M61.8,27.5c-1.2-0.1-2.4-0.2-3.5-0.4
			c-1.1-0.2-1.9,0-2.8,0.9c-3.9,4-7.9,8-11.9,12c-0.8,0.8-1.6,1.4-2.7,1.1c-2-0.4-2.6-2.7-1.2-4.2c1.2-1.3,2.5-2.6,3.8-3.8
			c2.9-2.9,5.7-5.8,8.7-8.6c0.7-0.7,1-1.3,0.8-2.3c-0.2-1.2-0.3-2.5-0.4-3.7c-0.1-0.7,0.1-1.2,0.6-1.7c3-3,6-6,9-9
			C62.4,7.4,62.6,7,63,7.2c0.3,0.1,0.2,0.5,0.2,0.8c0.2,2.3,0.5,4.5,0.7,6.8c0.1,1,0.4,1.3,1.4,1.3c2.3,0.1,4.5,0.4,6.8,0.6
			c0.3,0,0.7,0,0.8,0.3c0.1,0.3-0.2,0.5-0.4,0.7c-3,3-6.1,6.1-9.1,9.1C62.9,27.3,62.4,27.6,61.8,27.5z"/>
		
			<linearGradient id="SVGID_00000178179278449764956470000015913401153193810861_" gradientUnits="userSpaceOnUse" x1="14.7282" y1="13.0311" x2="63.5272" y2="68.9873">
			<stop  offset="0" style="stop-color:#b00bc5"/>
			<stop  offset="1" style="stop-color:#453E1B"/>
		</linearGradient>
		<path style="fill:url(#SVGID_00000178179278449764956470000015913401153193810861_);" d="M39.5,49.3c-4.9-0.1-8.8-3.9-8.8-8.9
			c0-4.9,4-9,8.8-9.1c0.4,0,1-0.1,1.1,0.4c0.1,0.4-0.3,0.6-0.6,0.9c-0.7,0.8-1.5,1.5-2.3,2.3c-2.1,2.2-2.2,5.4-0.2,7.4
			c2,2,5.2,2,7.4-0.1c0.8-0.8,1.6-1.6,2.5-2.4c0.2-0.2,0.4-0.6,0.8-0.4c0.4,0.2,0.3,0.7,0.3,1.1C48.7,45.3,44.5,49.3,39.5,49.3z"/>
	</g>
</g>
</svg>
