<?xml version="1.0" encoding="UTF-8"?>
<svg id="Layer_1" data-name="Layer 1" xmlns="http://www.w3.org/2000/svg" xmlns:xlink="http://www.w3.org/1999/xlink" viewBox="0 0 80 80">
  <defs>
    <style>
      .cls-1 {
        fill: url(#linear-gradient);
      }

      .cls-1, .cls-2 {
        stroke-width: 0px;
      }

      .cls-2 {
        fill: url(#linear-gradient-2);
      }
    </style>
    <linearGradient id="linear-gradient" x1="1.25" y1="19.82" x2="63.76" y2="77.9" gradientUnits="userSpaceOnUse">
      <stop offset="0" stop-color="#b00bc5"/>
      <stop offset="1" stop-color="#453e1b"/>
    </linearGradient>
    <linearGradient id="linear-gradient-2" x1="12.5" y1="7.7" x2="75.01" y2="65.78" xlink:href="#linear-gradient"/>
  </defs>
  <g id="OZWyRv.tif">
    <g>
      <path class="cls-1" d="m69.63,70.28H10.23c-2.39-.85-4.02-2.46-4.86-4.86v-21.05c8.36-.23,16.71-.06,25.07-.09.82,0,.95.49.95,1.15,0,1.62-.02,3.24.02,4.85.04,1.75.85,2.59,2.57,2.61,3.96.04,7.91.04,11.87,0,1.74-.02,2.55-.85,2.6-2.58.04-1.48.08-2.97,0-4.45-.07-1.24.38-1.62,1.61-1.61,7.64.04,15.28.04,22.92,0,1.21,0,1.64.35,1.63,1.6-.06,5.61-.12,11.23.01,16.85.09,3.79-1.52,6.25-5,7.58Z"/>
      <path class="cls-2" d="m5.37,40.06v-12.41c1.33-3.49,3.8-5.15,7.59-4.99,2.74.12,5.49,0,8.23.03.98.01,1.38-.36,1.36-1.35-.04-1.71-.03-3.42,0-5.13.06-3.54,2.92-6.46,6.45-6.47,7.29-.03,14.58-.03,21.86,0,3.53.02,6.39,2.93,6.44,6.48.03,1.66.05,3.33,0,4.99-.04,1.12.4,1.51,1.5,1.49,3.06-.05,6.12-.03,9.18,0,3.7.03,6.57,2.89,6.61,6.59.03,2.92,0,5.85,0,8.77q0,2.11-2.15,2.11c-21.77,0-43.55,0-65.32,0-.58,0-1.16-.07-1.75-.1Zm34.54-17.37c2.33,0,4.67-.04,7,.02,1.16.03,1.69-.36,1.56-1.55-.03-.27,0-.54,0-.81,0-1.72-.05-1.77-1.72-1.77-4.26,0-8.52,0-12.79,0-2.63,0-2.59,0-2.59,2.67,0,1.15.47,1.47,1.54,1.45,2.33-.05,4.67-.02,7-.02Z"/>
    </g>
  </g>
</svg>