<?xml version="1.0" encoding="utf-8"?>
<!-- Generator: Adobe Illustrator 27.8.0, SVG Export Plug-In . SVG Version: 6.00 Build 0)  -->
<svg version="1.1" id="Layer_1" xmlns="http://www.w3.org/2000/svg" xmlns:xlink="http://www.w3.org/1999/xlink" x="0px" y="0px"
	 viewBox="0 0 197.2 197.2" style="enable-background:new 0 0 197.2 197.2;" xml:space="preserve">
<style type="text/css">
	.st0{fill:#b00bc5;}
	.st1{fill:#fff;}
</style>
<circle class="st0" cx="98.6" cy="98.6" r="98.6"/>
<g id="_x36_2d5FQ.tif">
	<g>
		<path class="st1" d="M96.4,161.2c-0.8-0.3-1.6-0.5-2.4-0.8c-3.2-1.4-4.3-3.4-3.9-6.9c0.6-6.3,1.1-12.5,1.7-18.8
			c0.3-3.8,0.7-7.6,1-11.4c0.1-1.6,0.9-2.7,2.4-3.5c2.1-1.1,4.3-1.1,6.5-0.3c1.9,0.7,2.8,2.1,3,4.2c0.5,6.2,1.1,12.3,1.6,18.5
			c0.4,4,0.6,7.9,1.1,11.9c0.3,2.9-1.1,4.8-3.5,6.1c-0.9,0.5-1.9,0.7-2.9,1C99.3,161.2,97.9,161.2,96.4,161.2z"/>
		<path class="st1" d="M42.8,124.7c-0.1-2.9,1.1-4.7,3.7-5.9c9-4.1,18-8.3,27-12.6c3.3-1.6,5.2-0.5,6.9,1.6c1.1,1.3,1.6,2.8,1.7,4.5
			c0,1.5-0.5,2.7-1.8,3.6c-8.6,6-17.3,12.1-25.9,18.1c-1.5,1-3,1.1-4.6,0.6C45.9,133.4,42.8,128.9,42.8,124.7z"/>
		<path class="st1" d="M154.4,124.6c-0.3,4.1-2.1,7.3-5.6,9.5c-2.2,1.3-4.3,1.3-6.5-0.2c-7.6-5.4-15.3-10.8-23-16.1
			c-0.8-0.5-1.5-1.1-2.3-1.6c-1.6-1-2.1-2.5-1.9-4.3c0.3-2.3,1.4-4.1,3.3-5.5c1.4-1,2.9-1.2,4.6-0.4c8.6,4.1,17.3,8.1,26,12.1
			c0.6,0.3,1.1,0.5,1.7,0.8C153.3,119.8,154.5,121.8,154.4,124.6z"/>
		<path class="st1" d="M82,85.2c-0.2,2.3-1.3,4.4-3.6,5.9c-1.4,0.9-2.8,0.9-4.3,0.2c-7.3-3.4-14.7-6.8-22-10.3
			c-1.8-0.8-3.5-1.7-5.3-2.5c-3.4-1.5-4.2-3-4.1-6.7c0.2-3.8,3.3-8.1,6.7-9.3c1.8-0.7,3.4-0.5,5,0.6c8.5,6,17.1,12,25.7,18
			C81.5,82.1,82.1,83.3,82,85.2z"/>
		<path class="st1" d="M98.6,36c1.7-0.1,3.2,0.2,4.7,0.9c3.2,1.5,4.2,3.4,3.9,6.9c-0.6,6.2-1.1,12.5-1.7,18.7
			c-0.3,3.8-0.7,7.7-1,11.5c-0.1,1.5-0.9,2.7-2.3,3.4c-1.9,1-3.8,1.2-5.8,0.6c-2.6-0.8-3.5-2.1-3.7-4.8c-0.4-5.1-0.9-10.3-1.4-15.4
			c-0.4-4-0.7-8.1-1.1-12.1c-0.1-0.9-0.1-1.9-0.2-2.8c-0.3-2.7,1.1-4.4,3.3-5.6C94.9,36.3,96.7,36,98.6,36z"/>
		<path class="st1" d="M154.4,72.8c0,2.7-1.1,4.5-3.6,5.7c-9.1,4.2-18.2,8.4-27.2,12.7c-2.9,1.4-4.7,0.6-6.6-1.5
			c-1-1.1-1.6-2.4-1.8-3.8c-0.3-1.9,0.1-3.5,1.9-4.7c8.3-5.8,16.7-11.6,25-17.5c2.4-1.7,4.6-2.1,7.7,0.1
			C152.7,66,154.2,69.1,154.4,72.8z"/>
	</g>
</g>
</svg>
