<?xml version="1.0" encoding="utf-8"?>
<!-- Generator: Adobe Illustrator 27.8.0, SVG Export Plug-In . SVG Version: 6.00 Build 0)  -->
<svg version="1.1" id="Layer_1" xmlns="http://www.w3.org/2000/svg" xmlns:xlink="http://www.w3.org/1999/xlink" x="0px" y="0px"
	 viewBox="0 0 80 80" style="enable-background:new 0 0 80 80;" xml:space="preserve">
<style type="text/css">
	.st0{fill:url(#SVGID_1_);}
	.st1{fill:url(#SVGID_00000126315870277759827520000008410650381248271523_);}
	.st2{fill:url(#SVGID_00000097495300542217008070000002302011328333381813_);}
	.st3{fill:url(#SVGID_00000039118691935221910110000004652451268760714666_);}
	.st4{fill:url(#SVGID_00000013170961161691523710000016794827167425876112_);}
	.st5{fill:url(#SVGID_00000098180308685136680220000005646002347662783137_);}
	.st6{fill:url(#SVGID_00000125598234276232520590000004894472405796261551_);}
	.st7{fill:url(#SVGID_00000099635596226548083690000005710767818216426153_);}
	.st8{fill:url(#SVGID_00000103225584787874309320000001560024069184099230_);}
	.st9{fill:url(#SVGID_00000074419884021539090910000004348677806431838394_);}
	.st10{fill:url(#SVGID_00000061463882989393263100000015465545914315844011_);}
	.st11{fill:url(#SVGID_00000045585104364611301670000013070361991491478408_);}
</style>
<g id="VQaaRx.tif">
	<g>
		<linearGradient id="SVGID_1_" gradientUnits="userSpaceOnUse" x1="1.9172" y1="9.4737" x2="65.5316" y2="74.6686">
			<stop  offset="0" style="stop-color:#a801bd"/>
			<stop  offset="1" style="stop-color:#453E1B"/>
		</linearGradient>
		<path class="st0" d="M27.5,65.6c-2.6-0.2-5.9-2.1-7.1-5.2c-0.5-1.3-0.8-2.7-0.7-4.1c0-0.5-0.1-0.8-0.7-1.1
			c-2.7-1.2-3.8-3.5-3.2-6.4c0.2-0.8,0.4-1.6,0.8-2.4c0.2-0.4,0.2-0.8-0.1-1.1c-1.1-1.3-1.8-2.7-1.9-4.4c-0.2-2,0.5-3.7,1.8-5.2
			c0.3-0.3,0.4-0.5,0.2-0.9c-1.9-3.5-0.6-7.1,3.1-8.9c0.2-0.1,0.5-0.2,0.7-0.3c0.3-0.1,0.4-0.3,0.4-0.7c-0.4-4.6,2.6-7.2,6.8-7.5
			c1-0.1,1.5-0.3,2-1.2c0.9-1.9,2.3-3.4,4.6-3.7c1.4-0.2,2.6,0.4,3.8,1.1c0.8,0.4,1.1,1,1.1,2c-0.1,2.7,0,5.4,0,8.2
			c0,0.7-0.3,1.1-0.9,1.3c-1.4,0.5-2.6,0.4-3.8-0.5c-0.4-0.3-0.7-0.6-1.2-0.4c-0.8,0.3-1,1.2-0.3,1.8c1.6,1.4,3.4,1.8,5.4,1.3
			c0.6-0.2,0.8,0,0.8,0.6c0,1.1,0,2.3,0,3.4c0,0.6-0.2,0.8-0.8,0.7c-1.4-0.2-2.8-0.3-4.1,0c-1.1,0.2-2,0.8-2.7,1.7
			c-0.5,0.6-0.4,1.3,0,1.6c0.5,0.4,1.1,0.3,1.6-0.3c0.7-0.8,1.6-1.1,2.6-1.2c0.9,0,1.9,0,2.8,0.2c0.5,0.1,0.7,0.3,0.7,0.8
			c0,3.6,0,7.2,0,10.8c0,0.5-0.2,0.8-0.7,0.9c-1.3,0.4-2.5,0.4-3.7-0.4c-0.4-0.3-0.8-0.4-1.3-0.1c-0.6,0.4-0.6,1.2,0.1,1.7
			c1.4,1,2.9,1.3,4.6,1c1-0.2,1-0.2,1.1,0.9c0,1.4,0,2.8,0,4.2c0,0.5-0.2,0.8-0.7,0.9c-1.5,0.4-2.9,0.6-4.4,0.3
			c-1-0.2-1.8-0.7-2.5-1.4c-0.6-0.6-1.2-0.7-1.6-0.2c-0.5,0.4-0.4,1,0.1,1.6c1.7,1.9,4,2.4,6.4,2.2c0.7-0.1,1.4-0.2,2.1-0.4
			c0.5-0.1,0.6,0.1,0.6,0.5c0,3,0,6,0,8.9c0,0.5-0.3,0.7-0.7,0.9c-1.8,0.8-3.7,0.8-5.5,0.5C30.9,67.3,29.1,66.7,27.5,65.6
			c1.2-0.3,1.3-0.5,1-1.7c-0.4-1.3-1-2.5-0.6-3.9c0.1-0.5-0.2-0.9-0.7-1c-0.5-0.2-0.9,0-1.2,0.4c-0.2,0.3-0.3,0.7-0.3,1.1
			c-0.1,1.4,0.4,2.7,0.9,4C26.7,65,27,65.4,27.5,65.6z M18.4,44.7c-0.5,0-0.9,0.2-1,0.8c-0.1,0.6,0.1,0.9,0.7,1.1
			c1.9,0.7,3.9,0.8,5.8,0.4c0.5-0.1,0.7,0,0.8,0.5c0.1,0.7,0.4,1.4,0.7,2.1c0.3,0.6,0.8,0.8,1.3,0.5c0.6-0.2,0.8-0.7,0.6-1.3
			c-0.2-0.6-0.5-1.3-0.6-1.9c-0.5-1.8,0-3.3,1.5-4.5c0.8-0.6,1.8-1.1,2.8-1.4c0.7-0.2,1.5-0.4,2.3-0.5c0.5-0.1,1-0.5,0.8-1.1
			c-0.1-0.6-0.5-0.9-1.2-0.9c-0.2,0-0.3,0-0.5,0c-1.6,0.3-3.1,0.8-4.5,1.6c-1.5,0.9-2.8,2.1-3.2,3.9c-0.1,0.4-0.3,0.6-0.7,0.7
			c-1,0.3-2.1,0.4-3.1,0.3C20.1,44.9,19.3,44.8,18.4,44.7z M27.6,30.7c1.2,0.1,1.7-0.2,1.8-0.9c0.1-0.6-0.3-1-1.2-1.1
			c-0.6-0.1-1.2-0.2-1.7-0.4c-1.5-0.6-2.7-1.5-3.6-2.7c-0.4-0.5-0.9-0.6-1.4-0.3c-0.5,0.4-0.5,0.9-0.1,1.4c0.3,0.4,0.6,0.8,1,1.1
			C23.9,29.5,25.7,30.5,27.6,30.7z M22.5,38.1c1,0,1.5-0.3,1.5-0.9c0-0.6-0.3-1-1.1-1.1c-1.5-0.1-2.8-0.6-4.1-1.4
			c-0.6-0.4-1.2-0.2-1.4,0.2c-0.3,0.4-0.1,1.1,0.4,1.4C19.3,37.4,20.9,38,22.5,38.1z M30.4,21.3c0.7,0,1.1-0.6,0.9-1.3
			c-0.2-0.6-0.5-1.2-0.8-1.8c-0.3-0.6-0.8-0.7-1.3-0.5c-0.6,0.2-0.7,0.7-0.5,1.2c0.2,0.6,0.5,1.2,0.8,1.8
			C29.7,21.1,30,21.3,30.4,21.3z"/>
		
			<linearGradient id="SVGID_00000085247435708219364240000014996826589976157582_" gradientUnits="userSpaceOnUse" x1="9.2958" y1="2.2741" x2="72.9101" y2="67.469">
			<stop  offset="0" style="stop-color:#a801bd"/>
			<stop  offset="1" style="stop-color:#453E1B"/>
		</linearGradient>
		<path style="fill:url(#SVGID_00000085247435708219364240000014996826589976157582_);" d="M40.9,40.5c0-1.8,0-3.7,0-5.5
			c0-0.4,0.1-0.7,0.6-0.8c1.2-0.2,2.3-0.3,3.5-0.1c0.8,0.2,1.5,0.5,2,1.1c0.5,0.6,1.1,0.6,1.6,0.2c0.5-0.4,0.5-0.9,0-1.6
			c-1.1-1.5-2.8-1.9-4.5-2c-0.8,0-1.6,0.1-2.4,0.2c-0.5,0.1-0.7-0.1-0.7-0.6c0-1.2,0-2.3,0-3.5c0-0.7,0.2-0.8,0.8-0.6
			c1.9,0.6,3.7,0.1,5.2-1.2c0.6-0.5,0.7-1.1,0.3-1.5c-0.4-0.5-1-0.5-1.6,0c-1.3,1.1-2.7,1.2-4.1,0.5c-0.4-0.2-0.6-0.4-0.6-0.9
			c0-3.1,0-6.2,0-9.4c0-0.3,0-0.5,0.2-0.7c1.5-1.2,3.7-2.2,5.9-1.3c1.5,0.6,2.5,1.7,3.2,3.1c0.5,1,1,1.5,2.2,1.5
			c1.8,0,3.5,0.6,4.9,1.9c1.6,1.5,2,3.3,1.9,5.3c0,0.5,0.1,0.8,0.6,1c1.9,0.9,3.5,2.1,4.1,4.3c0.5,1.7,0.2,3.2-0.5,4.7
			c-0.2,0.5-0.2,0.7,0.2,1.1c1.8,2,2.3,4.3,1.4,6.8c-0.4,1-0.8,1.9-1.4,2.7c-0.3,0.5-0.3,0.9-0.1,1.4c0.7,1.5,1.1,3.1,0.8,4.8
			c-0.3,1.9-1.5,3.1-3.2,3.8c-0.6,0.2-0.7,0.6-0.7,1.2c0,4.9-2.4,8-7.2,9.2c-1.1,0.3-2,0.9-3,1.2c-2.4,0.9-4.8,1.4-7.4,0.7
			c0,0,0,0-0.1,0c-1.8-0.5-1.8-0.5-1.8-2.2c0-2.5,0-5.1,0-7.6c0-0.7,0.2-0.8,0.8-0.6c1.7,0.4,3.4,0.5,5.1,0c1.3-0.4,2.3-1,3.1-2.1
			c0.5-0.6,0.5-1,0-1.4c-0.4-0.4-1-0.4-1.5,0.1c-2,2.1-4.9,1.9-7.2,1.2c-0.3-0.1-0.4-0.3-0.4-0.6c0-1.7,0-3.3,0-5
			c0-0.5,0.2-0.5,0.6-0.4c1.4,0.3,2.7,0.3,4.1-0.3c0.3-0.1,0.5-0.3,0.8-0.5c0.6-0.4,0.7-1,0.4-1.5c-0.3-0.5-0.9-0.6-1.5-0.2
			c-1.1,0.7-2.3,0.8-3.6,0.5c-0.6-0.2-0.9-0.5-0.9-1.1C41,44.1,40.9,42.3,40.9,40.5z M47.4,38.6c-1.1-0.1-1.5,0.2-1.6,0.8
			c-0.1,0.6,0.3,1,1.1,1.2c0.1,0,0.3,0,0.4,0.1c1.5,0.3,3,0.8,4.3,1.7c1.1,0.8,1.7,1.9,1.8,3.2c0,1.1-0.3,2.1-0.8,3
			c-0.3,0.6-0.1,1.2,0.4,1.4c0.6,0.2,1.1,0,1.4-0.6c0.3-0.6,0.5-1.2,0.6-1.8c0.1-0.7,0.4-0.8,1.1-0.6c1.9,0.4,3.7,0.2,5.6-0.3
			c0.6-0.2,0.9-0.7,0.8-1.2c-0.1-0.5-0.7-0.8-1.3-0.7c-0.2,0-0.4,0.1-0.5,0.1c-1.6,0.3-3.1,0.4-4.7,0c-0.5-0.1-0.7-0.3-0.8-0.8
			c-0.2-1-0.7-1.8-1.5-2.5C51.8,39.8,49.6,39,47.4,38.6z M52.2,30.7c2.4-0.2,4.6-1.7,6.3-3.9c0.4-0.5,0.3-1-0.2-1.4
			c-0.5-0.4-1-0.4-1.4,0.1c-1.5,1.9-3.3,3.1-5.8,3.3c-0.4,0-0.6,0.3-0.7,0.6C50.1,30.1,50.7,30.7,52.2,30.7z M57.2,38.1
			c1.5-0.1,3.1-0.7,4.6-1.7c0.2-0.1,0.4-0.3,0.5-0.6c0.1-0.4,0.1-0.8-0.3-1.1c-0.4-0.3-0.9-0.3-1.3,0c-1.2,0.7-2.5,1.3-3.9,1.4
			c-0.7,0.1-1.2,0.5-1.1,1.1C55.8,37.8,56.2,38.1,57.2,38.1z M54.1,60.8c0-0.4,0-0.8-0.2-1.1c-0.2-0.7-0.8-1-1.4-0.8
			c-0.6,0.2-0.7,0.7-0.6,1.3c0.2,0.7,0.1,1.4-0.1,2c-0.2,0.7-0.5,1.3-0.7,2c-0.2,0.6-0.1,1,0.5,1.3c0.6,0.3,1,0,1.3-0.5
			C53.5,63.7,53.9,62.3,54.1,60.8z M57.2,50.1c-0.7,0-1.2,0.6-0.9,1.3c0.5,1.3,1.1,2.6,1.7,3.9c0.2,0.5,0.8,0.6,1.3,0.3
			c0.5-0.3,0.7-0.7,0.4-1.2c-0.5-1.2-1.1-2.5-1.6-3.7C57.9,50.3,57.6,50.1,57.2,50.1z M49.4,21.4c0.1,0,0.4,0,0.5-0.2
			c0.6-0.8,1.1-1.7,1.1-2.7c0-0.4-0.3-0.6-0.7-0.7c-0.4-0.1-0.8,0-1.1,0.4c-0.3,0.6-0.6,1.3-0.9,2C48.2,20.9,48.6,21.4,49.4,21.4z"
			/>
		
			<linearGradient id="SVGID_00000136394390305345299880000003183505624262760112_" gradientUnits="userSpaceOnUse" x1="33.3612" y1="-21.2079" x2="96.9755" y2="43.987">
			<stop  offset="0" style="stop-color:#a801bd"/>
			<stop  offset="1" style="stop-color:#453E1B"/>
		</linearGradient>
		<path style="fill:url(#SVGID_00000136394390305345299880000003183505624262760112_);" d="M74.2,4.6c1,0,1.6,0.7,1.4,1.7
			c-0.4,1.9-0.7,3.8-1.1,5.7c-0.4,2.1-0.8,4.2-1.2,6.3c-0.1,0.6-0.3,1-0.9,1.2c-0.6,0.2-1-0.1-1.4-0.5c-0.4-0.3-0.7-0.7-1-1.1
			c-0.4-0.4-0.6-0.4-1,0c-2,2.1-4.1,4.1-6.2,6.2c-0.2,0.2-0.4,0.6-0.8,0.3c-0.4-0.2-0.7-0.4-0.7-0.9c-0.1-2.8-1.2-5-3.5-6.6
			c-0.5-0.3-0.3-0.5,0-0.8c1.5-1.5,3.1-3.1,4.6-4.6c0.4-0.4,0.5-0.7,0-1.1C61.8,10,61.4,9.6,61,9.2c-0.8-0.9-0.6-1.9,0.7-2.1
			c3.2-0.7,6.5-1.3,9.7-2C72.4,5,73.3,4.8,74.2,4.6z"/>
		
			<linearGradient id="SVGID_00000086685730201587690240000015645327670285525392_" gradientUnits="userSpaceOnUse" x1="5.7404" y1="5.7433" x2="69.3548" y2="70.9381">
			<stop  offset="0" style="stop-color:#a801bd"/>
			<stop  offset="1" style="stop-color:#453E1B"/>
		</linearGradient>
		<path style="fill:url(#SVGID_00000086685730201587690240000015645327670285525392_);" d="M4.4,6c0-1,0.7-1.5,1.7-1.3
			c3.1,0.6,6.2,1.2,9.2,1.8c1,0.2,2,0.4,3,0.6c1.1,0.3,1.4,1.2,0.6,2.1c-0.4,0.5-0.8,0.9-1.3,1.3c-0.4,0.3-0.3,0.6,0,0.9
			c1.5,1.5,3,3.1,4.6,4.6c0.6,0.6,0.6,0.6-0.1,1.1c-2.1,1.4-3.1,3.4-3.4,5.8c-0.1,0.6,0.1,1.4-0.7,1.6c-0.7,0.2-0.9-0.5-1.3-0.9
			c-1.9-1.8-3.7-3.7-5.6-5.6c-0.4-0.4-0.6-0.4-1,0c-0.4,0.4-0.8,0.8-1.2,1.1c-0.9,0.8-1.9,0.5-2.2-0.7C6.2,15.3,5.6,12.2,5,9.1
			C4.8,8,4.6,6.9,4.4,6z"/>
		
			<linearGradient id="SVGID_00000091006852551981053350000018124565581188891828_" gradientUnits="userSpaceOnUse" x1="6.5772" y1="4.9268" x2="70.1916" y2="70.1216">
			<stop  offset="0" style="stop-color:#a801bd"/>
			<stop  offset="1" style="stop-color:#453E1B"/>
		</linearGradient>
		<path style="fill:url(#SVGID_00000091006852551981053350000018124565581188891828_);" d="M75.6,74.1c0,0.9-0.7,1.4-1.6,1.2
			c-2.6-0.5-5.2-1-7.8-1.5c-1.5-0.3-3-0.6-4.5-0.9c-1.2-0.2-1.5-1.2-0.7-2.1c0.4-0.4,0.7-0.8,1.1-1.1c0.5-0.4,0.5-0.8,0-1.2
			c-1-1-2-2-3-3c-0.3-0.3-0.4-0.5-0.1-0.8c2-2,2.9-4.4,3.1-7.2c0-0.5,0.3-0.7,0.6-0.9c0.4-0.2,0.6,0.2,0.8,0.4
			c1.7,1.7,3.4,3.4,5.1,5.1c0.4,0.4,0.7,0.5,1.1,0c0.3-0.4,0.7-0.7,1.1-1.1c0.4-0.4,0.8-0.6,1.3-0.4c0.6,0.2,0.8,0.6,0.9,1.2
			c0.5,2.3,0.9,4.6,1.4,6.9c0.3,1.6,0.6,3.3,1,4.9C75.5,73.7,75.6,74,75.6,74.1z"/>
		
			<linearGradient id="SVGID_00000159448670351231328660000014877544090353399938_" gradientUnits="userSpaceOnUse" x1="-21.5834" y1="32.4047" x2="42.031" y2="97.5996">
			<stop  offset="0" style="stop-color:#a801bd"/>
			<stop  offset="1" style="stop-color:#453E1B"/>
		</linearGradient>
		<path style="fill:url(#SVGID_00000159448670351231328660000014877544090353399938_);" d="M4.4,74c0.3-1.4,0.6-3,0.9-4.6
			c0.5-2.6,1-5.1,1.5-7.7c0.1-0.6,0.3-1.1,1-1.3c0.6-0.2,1,0.2,1.4,0.5c0,0,0,0,0,0c0.5,0.4,0.9,1.3,1.5,1.3c0.6,0,1-0.8,1.4-1.3
			c1.4-1.4,2.7-2.7,4.1-4.1c0.2-0.2,0.4-0.6,0.9-0.4c0.4,0.2,0.4,0.5,0.5,0.9c0.2,2.8,1.1,5.2,3.1,7.2c0.3,0.3,0.3,0.5,0,0.9
			c-1,1-1.9,2-2.9,2.9c-0.5,0.5-0.5,0.8,0,1.3c0.4,0.3,0.7,0.7,1.1,1.1c0.8,0.9,0.6,1.9-0.7,2.1c-2.8,0.6-5.5,1.1-8.3,1.7
			c-1.3,0.3-2.7,0.5-4,0.8C5.1,75.5,4.4,75,4.4,74z"/>
	</g>
</g>
</svg>
