<?xml version="1.0" encoding="utf-8"?>
<!-- Generator: Adobe Illustrator 27.8.0, SVG Export Plug-In . SVG Version: 6.00 Build 0)  -->
<svg version="1.1" id="Layer_1" xmlns="http://www.w3.org/2000/svg" xmlns:xlink="http://www.w3.org/1999/xlink" x="0px" y="0px"
	 viewBox="0 0 50 50" style="enable-background:new 0 0 50 50;" xml:space="preserve">
<style type="text/css">
	.st0{fill:#F29600;}
	.st1{fill:#FFB818;}
	.st2{fill:#95BF46;}
	.st3{fill:#5E8E3E;}
</style>
<g>
	<path class="st2" d="M41.5,9.7c0-0.3-0.3-0.4-0.4-0.4c-0.2,0-4-0.3-4-0.3s-2.7-2.6-3-2.9c-0.3-0.3-0.9-0.2-1.1-0.1
		c0,0-0.6,0.2-1.5,0.5c-0.9-2.6-2.5-4.9-5.2-4.9c-0.1,0-0.2,0-0.2,0c-0.8-1-1.8-1.5-2.6-1.5C17,0,13.9,8.1,13,12.2
		c-2.5,0.8-4.3,1.3-4.5,1.4C7,14,7,14,6.8,15.4C6.7,16.4,3,44.7,3,44.7L31.5,50L47,46.7C47,46.7,41.6,10,41.5,9.7z M29.9,6.9
		c-0.7,0.2-1.5,0.5-2.4,0.7c0-0.2,0-0.3,0-0.5c0-1.6-0.2-2.9-0.6-3.9C28.4,3.4,29.3,5,29.9,6.9z M25.2,3.5c0.4,1,0.7,2.4,0.7,4.3
		c0,0.1,0,0.2,0,0.3c-1.6,0.5-3.3,1-5,1.5C21.8,6,23.6,4.2,25.2,3.5z M23.3,1.7c0.3,0,0.6,0.1,0.8,0.3c-2.1,1-4.3,3.4-5.2,8.3
		c-1.4,0.4-2.7,0.8-3.9,1.2C16,7.8,18.6,1.7,23.3,1.7z M26.3,17.9l-1.9,5.7c0,0-1.7-0.9-3.7-0.9c-3,0-3.2,1.9-3.2,2.4
		c0,2.6,6.7,3.6,6.7,9.6c0,4.8-3,7.8-7.1,7.8c-4.9,0-7.4-3-7.4-3l1.3-4.3c0,0,2.6,2.2,4.7,2.2c1.4,0,2-1.1,2-1.9
		c0-3.4-5.5-3.5-5.5-9.1c0-4.7,3.4-9.2,10.1-9.2C25,17.1,26.3,17.9,26.3,17.9"/>
	<path class="st3" d="M41.1,9.3c-0.2,0-4-0.3-4-0.3s-2.7-2.6-3-2.9C34,6,33.8,5.9,33.7,5.9L31.5,50L47,46.7c0,0-5.4-36.7-5.5-36.9
		C41.5,9.5,41.3,9.3,41.1,9.3"/>
</g>
</svg>
