<?xml version="1.0" encoding="utf-8"?>
<!-- Generator: Adobe Illustrator 27.8.0, SVG Export Plug-In . SVG Version: 6.00 Build 0)  -->
<svg version="1.1" id="Layer_1" xmlns="http://www.w3.org/2000/svg" xmlns:xlink="http://www.w3.org/1999/xlink" x="0px" y="0px"
	 viewBox="0 0 197.2 197.2" style="enable-background:new 0 0 197.2 197.2;" xml:space="preserve">
<style type="text/css">
	.st0{fill:#b00bc5;}
	.st1{fill:#fff;}
	.st2{fill:none;stroke:#b00bc5;stroke-miterlimit:10;}
</style>
<g>
	<circle class="st0" cx="98.6" cy="98.6" r="98.6"/>
</g>
<path class="st2" d="M689.9,260.7H-794.2c-12.7,0-23-10.3-23-23v-362.4c0-12.7,10.3-23,23-23H689.9c12.7,0,23,10.3,23,23v362.4
	C712.9,250.4,702.6,260.7,689.9,260.7z"/>
<g id="zoPY6F.tif_00000107552978678534182370000011356163782571050625_">
	<g>
		<path class="st1" d="M98.6,43.9c4,0,7.9,0,11.9,0c5,0,8.2,3.3,8.3,8.2c0,7.9,0,15.8,0,23.7c0,5-3.3,8.3-8.4,8.3c-1.7,0-3.3,0-5,0
			c-1.1,0-1.6,0.4-1.6,1.6c0,3,0,6,0,8.9c0,0.9,0.3,1.5,1.2,2c7.7,4.4,15.4,8.9,23,13.3c0.8,0.5,1.7,0.5,2.6,0.5c3.6,0,7.2,0,10.8,0
			c4.2,0,7.2,3,7.3,7.2c0.1,6.4,0.1,12.8,0,19.1c0,4.2-3.1,7.2-7.3,7.2c-6.3,0-12.6,0-18.9,0c-4.1,0-7.1-2.5-7.4-6.7
			c-0.5-6.8-0.5-13.7,0.1-20.6c0.1-1.6-0.2-2.3-1.6-3.1c-4.5-2.5-8.9-5.1-13.3-7.8c-1.1-0.7-2.1-0.8-3.3-0.1
			c-4.6,2.7-9.2,5.4-13.8,8.1c-1,0.6-1.3,1.2-1.2,2.5c0.2,7.1,0.2,14.1,0.1,21.2c-0.1,3.4-3.2,6.3-6.6,6.3c-6.7,0.1-13.5,0.1-20.2,0
			c-3.6-0.1-6.6-3.1-6.7-6.7c-0.1-6.7-0.1-13.3,0-20c0.1-3.8,3.1-6.7,7-6.8c3.7-0.1,7.5,0,11.2,0c1.1,0,2-0.2,3-0.8
			c7.3-4.3,14.6-8.5,22-12.7c1.3-0.8,1.8-1.7,1.8-3.2c-0.1-2.6-0.1-5.3,0-7.9c0-1.3-0.4-1.9-1.8-1.8c-1.8,0.1-3.6,0-5.4,0
			c-4.3-0.1-7.7-3.4-7.7-7.6c-0.1-8.3-0.1-16.6,0-25c0-4.2,3.4-7.5,7.6-7.6C90.3,43.8,94.4,43.9,98.6,43.9
			C98.6,43.9,98.6,43.9,98.6,43.9z"/>
	</g>
</g>
</svg>
