<?xml version="1.0" encoding="UTF-8"?>
<svg id="Layer_1" data-name="Layer 1" xmlns="http://www.w3.org/2000/svg" xmlns:xlink="http://www.w3.org/1999/xlink" version="1.1" viewBox="0 0 125 60">
  <defs>
    <style>
      .cls-1 {
        clip-path: url(#clippath);
      }

      .cls-2 {
        fill: none;
      }

      .cls-2, .cls-3 {
        stroke-width: 0px;
      }

      .cls-3 {
        fill: #b00bc5;
      }

      .cls-4 {
        clip-path: url(#clippath-1);
      }
    </style>
    <clipPath id="clippath">
      <rect class="cls-2" y="0" width="125" height="60"/>
    </clipPath>
    <clipPath id="clippath-1">
      <rect class="cls-2" x="1" y="14.8" width="122.9" height="30.3"/>
    </clipPath>
  </defs>
  <g class="cls-1">
    <g id="Group_6722" data-name="Group 6722">
      <g id="Group_6750" data-name="Group 6750">
        <g class="cls-4">
          <g id="Group_6749" data-name="Group 6749">
            <path id="Path_22715" data-name="Path 22715" class="cls-3" d="M31.2,30.1c0,3.3,0,6.6,0,9.9,0,2.8-2.2,5.1-5,5.2,0,0,0,0,0,0-6.6,0-13.3,0-19.9,0-3,0-5.3-2.5-5.3-5.5,0-6.5,0-13,0-19.4,0-2.9,2.3-5.3,5.2-5.3,6.5,0,13.1,0,19.6,0,2.9,0,5.3,2.4,5.3,5.4v9.9M6.7,30.1h0v7.6c0,1.3.5,1.7,1.7,1.8,5.1,0,10.3,0,15.4,0,.9,0,1.7-.6,1.8-1.5,0-.1,0-.2,0-.3,0-5.1,0-10.2,0-15.3,0-1.2-.5-1.7-1.7-1.7-5.1,0-10.2,0-15.2,0-1.3,0-1.9.6-1.9,1.9v7.6"/>
            <path id="Path_22716" data-name="Path 22716" class="cls-3" d="M68,45s0,0-.1,0c-1.7.2-1.8.2-1.8-1.5s0-3.4,0-5.1,0-.4,0-.9c-1.9,2.2-5,2.9-7.7,1.9-3.8-1.3-5.8-5.3-4.5-9.1.3-1,.8-1.8,1.5-2.6,1.4-1.5,3.3-2.3,5.4-2.3,2.1,0,4.1.9,5.4,2.6v-2.1c.1,0,.3,0,.4,0,1.4-.1,1.5,0,1.5,1.4,0,5.7,0,11.3,0,17,0,.2,0,.5,0,.7M60.6,38.1c3,0,5.4-2.3,5.5-5.2,0,0,0-.1,0-.2.1-2.9-2.1-5.3-4.9-5.5-.1,0-.2,0-.4,0-3,0-5.4,2.3-5.5,5.3,0,0,0,.1,0,.2-.1,2.9,2.1,5.3,5,5.4.1,0,.2,0,.4,0"/>
            <path id="Path_22717" data-name="Path 22717" class="cls-3" d="M38.6,33.8c.5,0,1,0,1.5,0,.2,0,.4.2.5.5.2,1.7,1.5,3.1,3.2,3.4,1.8.5,3.7,0,4.9-1.4,1.2-1.1,1.2-3,0-4.2-.3-.3-.6-.5-.9-.7-1.2-.5-2.3-.9-3.5-1.2-.7-.2-1.4-.4-2.1-.7-2.4-1-3.5-3.8-2.5-6.2.3-.6.6-1.1,1.1-1.6,1.6-1.7,4-2.2,6.1-1.4,2.1.6,3.6,2.3,3.9,4.4,0,.2,0,.3,0,.5-.5,0-1,0-1.5,0-.3-.1-.4-.3-.5-.6-.3-1.4-1.5-2.4-2.9-2.6-1.5-.4-3,.2-4,1.4-1,1.1-.9,2.8.2,3.8.3.2.6.4.9.5,1,.4,2,.5,3,.9,1.1.3,2.1.8,3.1,1.4,2.3,1.4,3.1,4.4,1.7,6.7-.2.3-.4.5-.6.8-1.8,2.1-4.7,2.9-7.3,2-2.4-.7-4.1-2.8-4.4-5.3,0-.1,0-.3,0-.5"/>
            <path id="Path_22718" data-name="Path 22718" class="cls-3" d="M123.9,33.3h-12.4c0,1,.4,1.9,1,2.7,1.7,2.3,4.9,2.8,7.2,1.1.5-.4,1-.9,1.4-1.5.2-.6.8-.9,1.5-.8.3,0,.6,0,.9,0-.5,2.9-4.4,5.3-7.6,4.8-4-.6-6.7-4.3-6.1-8.3,0,0,0,0,0,0,.6-3.8,4.2-6.4,8-5.9,3.6.6,6.9,4.5,6.3,7.8M121.8,31.5c-.3-2.6-2.7-4.5-5.3-4.3-2.5,0-4.9,2.2-4.9,4.3h10.2Z"/>
            <path id="Path_22719" data-name="Path 22719" class="cls-3" d="M98,27.7v-1.9h1.9v13.7s0,0,0,0c-2,0-1.8.2-1.8-1.5,0-.1,0-.3,0-.5-1.5,1.8-3.9,2.7-6.2,2.3-1.9-.3-3.7-1.3-4.9-2.8-2.2-2.8-1.9-6.8.6-9.4,2.9-2.9,7.6-2.8,10.4,0,0,0,0,0,0,0M92.8,27.2c-3,0-5.4,2.3-5.5,5.2,0,.1,0,.2,0,.4,0,2.9,2.2,5.2,5.1,5.3.1,0,.2,0,.4,0,3,0,5.4-2.4,5.4-5.4,0,0,0-.1,0-.2,0-2.9-2.3-5.3-5.2-5.3,0,0,0,0-.1,0"/>
            <path id="Path_22720" data-name="Path 22720" class="cls-3" d="M71,25.9c0,0,.1,0,.2,0,1.6-.2,1.7,0,1.7,1.5,0,2,0,4.1,0,6.1,0,.8.1,1.7.4,2.5.3,1.2,1.4,2.1,2.7,2.2,3.1.4,5.2-1.4,5.2-4.6,0-2.3,0-4.6,0-6.8v-.8c.5,0,1,0,1.5,0,.1,0,.4.3.4.5,0,.7,0,1.5,0,2.3,0,3.5,0,7,0,10.5,0,.1,0,.3,0,.4-.5,0-1,0-1.6,0-.7-.2,0-.9-.4-1.4,0,0-.1,0-.2.1-1.6,1.7-4.2,2.2-6.3,1.2-2.2-.7-3.6-2.8-3.5-5.1,0-2.8,0-5.6,0-8.5"/>
            <path id="Path_22721" data-name="Path 22721" class="cls-3" d="M105.1,39.5c0,0-.2,0-.3,0-1.7.1-1.7.1-1.7-1.5v-12.3c.5,0,1,0,1.4,0,.7,0,.3.8.7,1.2.9-1,2.3-1.6,3.6-1.5,0,.5,0,1.1,0,1.6,0,.1-.2.3-.4.4-2.4.6-3.4,1.7-3.4,4.1,0,2.1,0,4.2,0,6.4v1.5"/>
            <path id="Path_22722" data-name="Path 22722" class="cls-3" d="M16.1,25.8c1,0,2,0,2.9,0,.6,0,1.2.3,1.3,1,0,.1,0,.2,0,.3,0,2,0,4,0,6,0,.5-.3,1-.8,1.1,0,0-.2,0-.3,0-2,0-4.1,0-6.1,0-.6,0-1.2-.4-1.3-1,0,0,0-.2,0-.2,0-2,0-4.1,0-6.1,0-.5.3-1,.8-1.1,0,0,.2,0,.3,0,1,0,2.1,0,3.1,0h0Z"/>
          </g>
        </g>
      </g>
    </g>
  </g>
</svg>