<?xml version="1.0" encoding="utf-8"?>
<!-- Generator: Adobe Illustrator 27.8.0, SVG Export Plug-In . SVG Version: 6.00 Build 0)  -->
<svg version="1.1" id="Layer_1" xmlns="http://www.w3.org/2000/svg" xmlns:xlink="http://www.w3.org/1999/xlink" x="0px" y="0px"
	 viewBox="0 0 197.2 197.2" style="enable-background:new 0 0 197.2 197.2;" xml:space="preserve">
<style type="text/css">
	.st0{fill:#a801bd;}
	.st1{fill:#fff;}
</style>
<circle class="st0" cx="98.6" cy="98.6" r="98.6"/>
<g id="s03GLX.tif">
	<g>
		<path class="st1" d="M98.6,46.5c11.2,0,22.5,0,33.7,0c4.1,0,6.3,1.3,7.6,5.1c3.5,9.5,7.1,19,10.2,28.7c1.3,4.1,0.4,8.5-2.4,12.1
			c-2.7,3.4-6.6,3.2-10.4,2.7c-2.7-0.3-5.2-1.3-6.9-3.6c-0.7-0.9-1-0.8-1.8,0c-4.8,5.2-14.1,5.2-19,0c-0.8-0.8-1-0.8-1.8,0
			c-4.9,5.2-14.2,5.2-19,0c-0.7-0.8-1-0.8-1.8,0c-4.9,5.2-14.1,5.2-19,0c-0.7-0.8-1-0.9-1.8,0c-3.5,3.7-9.7,5-14.3,3.1
			c-4.2-1.8-5-5.6-5.6-9.6c-0.3-2.2,0-4.4,0.8-6.6c3.1-8.4,6-16.8,9.1-25.2c2-5.5,3.7-6.7,9.4-6.7C76.7,46.5,87.7,46.5,98.6,46.5z"
			/>
		<path class="st1" d="M113.3,150.6c-7.6,0-15.3,0-22.9,0c-1.9,0-2.5-0.5-2.5-2.5c0.1-9.9,0-19.7,0.1-29.6c0-1.9-0.5-2.7-2.5-2.6
			c-5.3,0.1-10.5,0.1-15.8,0c-1.7,0-2.2,0.6-2.2,2.3c0.1,9.9,0,19.7,0.1,29.6c0,2.2-0.6,3-2.8,2.8c-1.4-0.2-2.9,0-4.3,0
			c-4.1-0.1-7-3-7-7.2c0-13.2,0-26.4,0-39.6c0-1.8,0.4-2.4,2.4-2.2c3.4,0.4,6.8-0.2,9.9-1.6c1.2-0.5,2.2-0.6,3.5,0
			c5.8,2.4,11.6,2.4,17.4,0c1.2-0.5,2.1-0.5,3.3,0c5.9,2.5,11.8,2.5,17.6,0c1.1-0.5,2-0.5,3.1,0c5.9,2.5,11.8,2.5,17.6,0
			c1.2-0.5,2.1-0.5,3.3,0c3.3,1.5,6.7,2.1,10.3,1.7c1.6-0.2,2,0.4,2,1.9c0,13.4,0,26.8,0,40.2c0,4-3,6.8-7.1,6.8
			C128.8,150.6,121,150.6,113.3,150.6z M115.6,136.5c3.9,0,7.8,0,11.7,0c1.5,0,2.2-0.3,2.2-2c-0.1-5.5-0.1-11,0-16.4
			c0-1.5-0.4-2-2-2c-7.8,0.1-15.6,0.1-23.3,0c-1.6,0-2.1,0.6-2.1,2.1c0.1,5.4,0.1,10.8,0,16.2c0,1.6,0.5,2.2,2.1,2.1
			C108,136.4,111.8,136.5,115.6,136.5z"/>
	</g>
</g>
</svg>
