<?xml version="1.0" encoding="utf-8"?>
<!-- Generator: Adobe Illustrator 27.8.0, SVG Export Plug-In . SVG Version: 6.00 Build 0)  -->
<svg version="1.1" id="Layer_1" xmlns="http://www.w3.org/2000/svg" xmlns:xlink="http://www.w3.org/1999/xlink" x="0px" y="0px"
	 viewBox="0 0 197.2 197.2" style="enable-background:new 0 0 197.2 197.2;" xml:space="preserve">
<style type="text/css">
	.st0{fill:#b00bc5;}
	.st1{fill:#fff;}
	.st2{fill:none;stroke:#b00bc5;stroke-miterlimit:10;}
</style>
<g>
	<circle class="st0" cx="98.6" cy="98.6" r="98.6"/>
</g>
<path class="st2" d="M1192.1,260.7H-292c-12.7,0-23-10.3-23-23v-362.4c0-12.7,10.3-23,23-23h1484.1c12.7,0,23,10.3,23,23v362.4
	C1215.1,250.4,1204.8,260.7,1192.1,260.7z"/>
<g id="J0FViD.tif">
	<g>
		<path class="st1" d="M46.8,145.8c0-1.3,0-2.7,0-4c0.7-1.5,1.6-2.8,3-3.7c1.9-1.3,3.7-2.7,5.7-3.8c3-1.5,3.9-3.6,3.8-6.9
			c-0.2-11-0.1-21.9-0.1-32.9c0-1.9,0.6-2.7,2.6-2.6c2.8,0.1,5.5,0,8.3,0c2.6,0,2.7,0.1,2.7,2.7c0,10.4,0,20.7,0,31.1
			c0,5.7-0.7,4.8,5.1,5c1.8,0,2.5-0.6,2.3-2.3c-0.1-0.8,0-1.6,0-2.4c0-10.5,0-21,0-31.5c0-1.9,0.6-2.7,2.5-2.6c3,0.1,6.1,0.1,9.1,0
			c1.4,0,1.9,0.6,1.9,1.9c0,2.3,0,4.6,0,6.9c0,9.2,0,18.4,0,27.7c0,1.7,0.5,2.5,2.3,2.4c1.5-0.1,3,0,4.4,0c2.6,0,2.7-0.1,2.7-2.7
			c0-11.2,0-22.5,0-33.7c0-1.7,0.5-2.4,2.3-2.3c2.8,0.1,5.7,0.1,8.5,0c1.9-0.1,2.6,0.5,2.5,2.5c-0.1,10.4-0.1,20.9,0,31.3
			c0,5.7-0.8,5,5.1,5c2.6,0,2.7,0,2.7-2.7c0-11.2,0-22.3,0-33.5c0-1.9,0.5-2.7,2.5-2.6c2.6,0.1,5.2,0,7.9,0c2.9,0,2.9,0,2.9,2.9
			c0,11.5,0,23,0,34.5c0,1.6,0.5,2.6,1.9,3.5c2.5,1.6,5,3.2,7.4,4.9c3.2,2.2,4.4,5,3.4,8.1c-1,3.1-3.4,4.7-7.4,4.7
			c-29.5,0-59,0-88.4,0C50.7,150.4,48.2,149.1,46.8,145.8z"/>
		<path class="st1" d="M100.5,46.8c14.4,6.2,28.8,12.4,43.2,18.6c0.9,0.4,1.9,0.8,2.8,1.2c2.7,1.4,4,3.5,3.8,6.5
			c-0.2,2.9-1.8,4.8-4.4,5.7c-1.2,0.4-2,0.9-2.2,2.4c-0.4,3.1-2.3,4.5-5.7,4.5c-18.9,0-37.7,0-56.6,0c-7.5,0-15.1,0-22.6,0
			c-3.7,0-5.4-1.3-6-4.9c-0.2-1-0.5-1.6-1.5-1.9c-2.2-0.7-3.6-2.3-4.5-4.3c0-1.3,0-2.7,0-4c0.9-2.3,2.6-3.6,4.8-4.6
			c15-6.4,29.9-12.8,44.9-19.3C97.8,46.8,99.2,46.8,100.5,46.8z M104.8,66.1c-0.1-3.3-3.1-6.2-6.3-6.2c-3.4,0-6.4,3.2-6.2,6.4
			c0.2,3.3,3.2,6.2,6.4,6.1C101.9,72.3,104.8,69.3,104.8,66.1z"/>
	</g>
</g>
</svg>
