<?xml version="1.0" encoding="utf-8"?>
<!-- Generator: Adobe Illustrator 27.8.0, SVG Export Plug-In . SVG Version: 6.00 Build 0)  -->
<svg version="1.1" id="Layer_1" xmlns="http://www.w3.org/2000/svg" xmlns:xlink="http://www.w3.org/1999/xlink" x="0px" y="0px"
	 viewBox="0 0 197.2 197.2" style="enable-background:new 0 0 197.2 197.2;" xml:space="preserve">
<style type="text/css">
	.st0{fill:#b00bc5;}
	.st1{fill:#fff;}
</style>
<circle class="st0" cx="98.6" cy="98.6" r="98.6"/>
<g id="_x35_ul97R.tif">
	<g>
		<path class="st1" d="M92.3,58.7c-3.2,4.1-7.5,7.1-11.1,10.7c-2,2-4.2,3.8-6.2,5.8c-5.3,5.4-5.7,13.7-1,19.4c4.8,5.7,13,7,19.3,2.8
			c2.3-1.6,4.4-3.6,6.4-5.5c1.2-1.1,2.2-1.3,3.5-0.2c9.6,7.8,19.2,15.5,28.8,23.4c3.5,2.8,3.9,6.6,1.4,10c-3.5,4.9-6.8,6.1-11,3.7
			c-1.3-0.7-1.9-0.6-2.8,0.5c-1.5,1.9-3,3.7-4.5,5.6c-3.5,4.2-8.2,4.8-12.2,1.2c-2-1.8-3.3-2-5.6-0.3c-5.1,3.9-11.9,3.4-16.8-1
			c-5.4-4.9-10.9-9.8-16.2-14.7c-1.1-1-2.1-1.8-3.6-1.6c-1.6,0.1-2.1-0.7-2.1-2.2c0-14.3,0-28.6,0-43c0-0.9,0.3-1.7,0.9-2.3
			c3.5-3.5,7-7,10.6-10.5c0.8-0.8,2-1.3,3-1.9C79.6,58.7,85.9,58.7,92.3,58.7z"/>
		<path class="st1" d="M123.8,58.7c5.7,3.2,9.4,8.5,14,12.8c0.6,0.6,0.6,1.4,0.6,2.2c0,12.1,0,24.2,0,36.2c0,0.6,0.2,1.3-0.4,1.6
			c-0.7,0.4-1.1-0.4-1.5-0.7c-9.5-7.7-18.9-15.4-28.4-23c-1.7-1.3-1.8-2.2-0.1-3.5c1.1-0.9,2.2-2,3.2-3c1.4-1.4,1.8-3,0.4-4.6
			c-1.5-1.6-3.1-1.1-4.5,0.2c-5,4.6-10,9.1-15,13.7c-2.1,1.9-4.5,3.3-7.4,2.9c-3.5-0.4-6.2-2-7.4-5.5C76,84.6,77,81.5,79.6,79
			c3.9-3.6,7.8-7.2,11.7-10.8c2.4-2.2,4.9-4.3,7.2-6.6c1.3-1.3,2.8-2.2,4.5-2.9C110,58.7,116.9,58.7,123.8,58.7z"/>
		<path class="st1" d="M32.4,72.1c6,0,12-0.1,18-0.1c2.2,0,2.2,1.4,2.2,3c0,9.3,0,18.7,0,28c0,4.7,0,9.4,0,14.1
			c-0.1,5.4-2.9,8.2-8.3,8.2c-3.9,0-7.9-0.1-11.8-0.1C32.4,107.5,32.4,89.8,32.4,72.1z M45.2,115.1c-0.1-1.7-1-2.9-2.8-2.9
			c-1.8,0-2.9,1.1-2.9,2.9c0,1.6,1,2.7,2.8,2.8C44,117.9,45.1,117,45.2,115.1z"/>
		<path class="st1" d="M164.7,98.6c0,7.8-0.1,15.6,0,23.4c0,2.4-0.6,3.4-3.2,3.3c-3.3-0.2-6.5,0-9.8-0.1c-4.4-0.1-7.4-2.8-7.4-7.2
			c-0.1-14.6,0-29.2-0.1-43.7c0-1.6,0.6-2.3,2.3-2.3c5.2,0,10.3,0.1,15.5,0c2.1,0,2.6,0.8,2.6,2.8C164.7,82.7,164.7,90.6,164.7,98.6
			z M154.7,117.9c1.8-0.1,2.9-1.1,2.9-2.9c-0.1-1.8-1.3-2.8-3.1-2.8c-1.7,0-2.7,1.1-2.7,2.8C151.8,116.9,152.8,117.8,154.7,117.9z"
			/>
	</g>
</g>
</svg>
