<?xml version="1.0" encoding="UTF-8"?>
<svg id="Layer_1" data-name="Layer 1" xmlns="http://www.w3.org/2000/svg" xmlns:xlink="http://www.w3.org/1999/xlink" version="1.1" viewBox="0 0 93 60">
  <defs>
    <style>
      .cls-1 {
        clip-path: url(#clippath);
      }

      .cls-2 {
        fill: none;
      }

      .cls-2, .cls-3 {
        stroke-width: 0px;
      }

      .cls-3 {
        fill: #b00bc5;
      }

      .cls-4 {
        clip-path: url(#clippath-1);
      }
    </style>
    <clipPath id="clippath">
      <rect class="cls-2" y="0" width="93" height="60"/>
    </clipPath>
    <clipPath id="clippath-1">
      <rect class="cls-2" x="2" y="11.4" width="89.4" height="37.2"/>
    </clipPath>
  </defs>
  <g class="cls-1">
    <g id="Mask_Group_175" data-name="Mask Group 175">
      <g id="Group_6729" data-name="Group 6729">
        <g class="cls-4">
          <g id="Group_6729-2" data-name="Group 6729-2">
            <path id="Path_22616" data-name="Path 22616" class="cls-3" d="M50.4,11.4v4.9c0,.2,0,.2-.2.2l-5.9,1.3c-.2,0-.2,0-.2-.2,0-1.2,0-2.3,0-3.5v-1.2q0-.2.2-.2c1.8-.4,3.6-.8,5.5-1.2.2,0,.3,0,.5-.1h0Z"/>
            <path id="Path_22617" data-name="Path 22617" class="cls-3" d="M58.5,21.2c.2-.1.3-.3.5-.4.9-.7,2-1.2,3.2-1.4,1.8-.3,3.6,0,5.1,1.1,1.4.9,2.5,2.2,3.2,3.8.5,1.1.9,2.3,1.1,3.6.2,1.2.2,2.5.2,3.8,0,1.7-.4,3.4-1,5-.5,1.3-1.3,2.4-2.2,3.3-1,.9-2.3,1.6-3.6,1.9-.8.2-1.6.2-2.3.1-1.1-.1-2.2-.5-3.1-1.2l-.5-.3v.6c0,.9,0,1.7,0,2.6,0,1.2,0,2.4,0,3.7,0,.2,0,.2-.2.2l-5.9,1.3s0,0,0,0c0,0,0-.1,0-.2h0v-28.4c0-.4,0-.4.4-.4h5c.1,0,.1,0,.2.1,0,.4.2.9.3,1.4M58.9,30.6h0v.4c0,1.3,0,2.7,0,4,0,.1,0,.3.2.4.3.3.6.5,1,.6.4.2.9.3,1.4.3.8,0,1.5-.1,2.2-.6.6-.5,1.1-1.1,1.4-1.8.5-1.1.7-2.3.7-3.5,0-.6,0-1.2-.2-1.8-.2-1-.6-1.9-1.2-2.7-.5-.6-1.1-1-1.9-1.2-.4,0-.9,0-1.3,0-.8,0-1.6.5-2.2,1.1,0,0-.1.2-.1.3v4.5"/>
            <path id="Path_22618" data-name="Path 22618" class="cls-3" d="M90.1,35.3v4.7c0,.2,0,.3-.2.4-1.2.6-2.5,1.1-3.9,1.3-.8.1-1.6.2-2.4.2-1.2,0-2.5-.1-3.7-.4-1.5-.4-2.9-1.2-4-2.3-.9-.9-1.6-2-2-3.2-.4-1-.7-2.1-.8-3.1-.1-1-.2-2-.1-3,0-1.8.5-3.5,1.2-5.1.5-1.1,1.2-2.1,2-2.9,1.1-1.2,2.6-2,4.2-2.3,1.8-.4,3.7-.3,5.4.4,1.4.6,2.7,1.6,3.5,2.8.8,1.2,1.4,2.6,1.8,4,.2.8.3,1.7.4,2.6,0,1,0,2,0,3,0,.2,0,.3,0,.5,0,0,0,.1-.1.1h-11.7c-.3,0-.3,0-.3.3,0,.9.5,1.8,1.2,2.4.5.4,1.1.8,1.8.9.7.1,1.3.2,2,.2,1.9,0,3.8-.4,5.5-1.2l.4-.2M82.4,28.3h3q.2,0,.2-.2c0-.7-.1-1.3-.4-1.9-.5-1.3-1.8-2-3.2-1.8-.7,0-1.3.4-1.8.9-.7.8-1.1,1.8-1.1,2.9,0,0,0,.1.1.1h3.1"/>
            <path id="Path_22619" data-name="Path 22619" class="cls-3" d="M2.3,34.6l.3.2c1.3.7,2.8,1.2,4.2,1.5.8.2,1.6.3,2.5.3.4,0,.8,0,1.1-.2.5-.1.9-.6,1-1.1,0-.5-.1-1-.5-1.3-.4-.3-.9-.6-1.4-.8-.8-.3-1.7-.6-2.5-.9-.9-.3-1.8-.8-2.6-1.3-.9-.6-1.6-1.4-2-2.3-.3-.7-.4-1.4-.4-2.1,0-1.1.2-2.2.7-3.3.4-.9,1.1-1.7,1.9-2.3,1-.7,2.2-1.2,3.4-1.5.9-.2,1.8-.3,2.7-.2,1.8,0,3.6.3,5.3.9.1,0,.3,0,.4.1.2,0,.2,0,.2.3,0,.8,0,1.7,0,2.5v3.1c-.1,0-.2,0-.2,0-1.2-.6-2.5-1-3.8-1.3-.9-.2-1.8-.2-2.7-.2-.3,0-.6,0-.9.2-.6.3-.8,1-.5,1.6,0,.1.1.2.2.3.3.3.7.5,1.1.7.7.3,1.5.6,2.3.8.9.3,1.8.7,2.6,1.1,1.8.9,3,2.7,3.2,4.8,0,.8,0,1.7-.2,2.5-.4,1.6-1.4,2.9-2.8,3.8-1,.6-2.2,1.1-3.4,1.2-1,.2-2.1.2-3.1.2-1.6,0-3.2-.4-4.7-.9-.4-.1-.8-.3-1.1-.4,0,0-.2,0-.2-.2,0-1.9,0-3.8,0-5.7,0,0,0,0,0,0"/>
            <path id="Path_22620" data-name="Path 22620" class="cls-3" d="M25,14.3c0,0,0,.2,0,.3,0,1.6,0,3.2,0,4.8v.2c0,0,0,.1.1.1h4.5c0,0,.1,0,.1.1v4.9h0c0,.3,0,.3-.2.3h-4.2c-.3,0-.3,0-.3.3,0,2.8,0,5.7,0,8.5,0,.4,0,.8.2,1.1.3.8,1,1.4,1.9,1.5.8,0,1.7,0,2.5-.3,0,0,.1,0,.2,0,0,0,0,.1,0,.2v4.7c0,.1,0,.2-.2.3-.6.3-1.2.4-1.8.5-.9.2-1.8.2-2.6.2-1.7,0-3.2-.7-4.4-1.9-.9-.9-1.5-2-1.7-3.2,0-.5-.1-1-.1-1.5,0-6.5,0-13,0-19.5,0,0,0,0,0,0,0-.1,0-.2.2-.2.3,0,.7-.1,1-.2l4.6-1c0,0,.2,0,.2,0"/>
            <path id="Path_22621" data-name="Path 22621" class="cls-3" d="M37.5,21.5c.2-.3.3-.5.5-.7.6-.7,1.5-1.2,2.4-1.3.7,0,1.4,0,2,.1.2,0,.2,0,.2.3v5.3c0,0,0,.1,0,.2-.3,0-.5-.1-.8-.1-1-.1-2,0-2.8.5-.4.2-.7.5-1,.9,0,0-.1.2,0,.3v14.3c0,.3,0,.3-.3.3h-5.7c-.3,0-.3,0-.3-.2v-21.2h0c0-.2,0-.3.1-.3h5.1c.1,0,.2,0,.2.2,0,.4.2.9.3,1.3,0,.1,0,.2,0,.4"/>
            <path id="Path_22622" data-name="Path 22622" class="cls-3" d="M44.2,30.5c0-3.5,0-7,0-10.6,0-.3,0-.3.3-.3h5.7c.3,0,.3,0,.3.3v21.2c0,.3,0,.3-.3.3h-5.7c-.3,0-.3,0-.3-.3v-10.6"/>
          </g>
        </g>
      </g>
    </g>
  </g>
</svg>