<?xml version="1.0" encoding="utf-8"?>
<!-- Generator: Adobe Illustrator 27.8.0, SVG Export Plug-In . SVG Version: 6.00 Build 0)  -->
<svg version="1.1" id="Layer_1" xmlns="http://www.w3.org/2000/svg" xmlns:xlink="http://www.w3.org/1999/xlink" x="0px" y="0px"
	 viewBox="0 0 80 80" style="enable-background:new 0 0 80 80;" xml:space="preserve">
<style type="text/css">
	.st0{fill:url(#SVGID_1_);}
	.st1{fill:url(#SVGID_00000016048726128406661380000009258151259480666549_);}
	.st2{fill:url(#SVGID_00000111903999290548086500000007839049430514864300_);}
	.st3{fill:url(#SVGID_00000038400981772173962520000015338518405275820460_);}
	.st4{fill:url(#SVGID_00000097460938644511865690000005791040768815438743_);}
	.st5{fill:url(#SVGID_00000069400189756835724620000014035852161890474117_);}
	.st6{fill:url(#SVGID_00000024695755835051577580000006152024510630344083_);}
	.st7{fill:url(#SVGID_00000035510805110878020760000007294671502707325071_);}
</style>
<g id="_x35_E3j2h.tif">
	<g>
		<linearGradient id="SVGID_1_" gradientUnits="userSpaceOnUse" x1="12.7827" y1="15.236" x2="70.46" y2="67.5657">
			<stop  offset="0" style="stop-color:#a801bd"/>
			<stop  offset="1" style="stop-color:#453E1B"/>
		</linearGradient>
		<path class="st0" d="M40,7.6C58,7.6,72.4,22,72.4,39.9C72.4,58,58,72.3,39.9,72.4C22.2,72.5,7.5,57.6,7.6,39.9
			C7.8,22,22.1,7.6,40,7.6z M26.2,56.3c0.3-0.1,0.8-0.3,1.3-0.5c5.7-2.6,11.3-5.2,17.1-7.7c1.6-0.7,2.7-1.7,3.4-3.4
			c2.6-5.7,5.2-11.5,7.9-17.2c0.5-1.2,0.8-2.3-0.2-3.3c-1-1-2-0.7-3.1-0.2c-5.9,2.7-11.7,5.4-17.6,8c-1.2,0.5-2,1.3-2.6,2.5
			c-1.7,3.7-3.4,7.4-5.1,11.1c-1.1,2.3-2.2,4.7-3.2,7C23.2,54.6,24.2,56.3,26.2,56.3z"/>
		
			<linearGradient id="SVGID_00000101797137494081742160000002258957769740393606_" gradientUnits="userSpaceOnUse" x1="12.7607" y1="15.2604" x2="70.4379" y2="67.5901">
			<stop  offset="0" style="stop-color:#a801bd"/>
			<stop  offset="1" style="stop-color:#453E1B"/>
		</linearGradient>
		<path style="fill:url(#SVGID_00000101797137494081742160000002258957769740393606_);" d="M40,44.7c-2.4,0-4.7-2.2-4.7-4.6
			c0-2.4,2.1-4.7,4.6-4.7c2.5-0.1,4.8,2.2,4.8,4.7C44.7,42.5,42.5,44.7,40,44.7z"/>
	</g>
</g>
</svg>
