<?xml version="1.0" encoding="utf-8"?>
<!-- Generator: Adobe Illustrator 27.8.0, SVG Export Plug-In . SVG Version: 6.00 Build 0)  -->
<svg version="1.1" id="Layer_1" xmlns="http://www.w3.org/2000/svg" xmlns:xlink="http://www.w3.org/1999/xlink" x="0px" y="0px"
	 viewBox="0 0 80 80" style="enable-background:new 0 0 80 80;" xml:space="preserve">
<style type="text/css">
	.st0{fill:url(#SVGID_1_);}
	.st1{fill:url(#SVGID_00000151507246975264337960000002331964914966711738_);}
	.st2{fill:url(#SVGID_00000049181658055241914320000012292525342363823775_);}
	.st3{fill:url(#SVGID_00000013190145048422160060000014276539034983872646_);}
	.st4{fill:url(#SVGID_00000168114413516348250960000016761142327314075055_);}
	.st5{fill:url(#SVGID_00000166660246050287470510000003939238090850899085_);}
	.st6{fill:url(#SVGID_00000166674784338802538960000014937093756556442503_);}
	.st7{fill:url(#SVGID_00000071518201409730491600000018246788765598312335_);}
	.st8{fill:url(#SVGID_00000010277961858677575690000001939567719756754092_);}
	.st9{fill:url(#SVGID_00000021092418007896828180000008142784043812249750_);}
	.st10{fill:url(#SVGID_00000012431982483410821710000009803548990816092568_);}
	.st11{fill:url(#SVGID_00000137128961214712322510000009411576698412406432_);}
	.st12{fill:url(#SVGID_00000087376823550154697730000013791158323005613243_);}
	.st13{fill:url(#SVGID_00000072973356765628124740000012066817800719424909_);}
</style>
<g id="_x37_Ml8GU.tif_00000052102097924963817260000013518602024722118582_">
	<g>
		<linearGradient id="SVGID_1_" gradientUnits="userSpaceOnUse" x1="22.6819" y1="5.9314" x2="70.4596" y2="55.8421">
			<stop  offset="0" style="stop-color:#a801bd"/>
			<stop  offset="1" style="stop-color:#453E1B"/>
		</linearGradient>
		<path class="st0" d="M39.9,43.3c-0.7-0.1-1.4-0.3-2-0.6c-10.5-5.5-21-11-31.5-16.4c-0.9-0.5-1.5-1-1.6-2.1c0-1.1,0.7-1.8,1.6-2.3
			c5.8-3,11.6-6.1,17.4-9.1c4.7-2.4,9.4-4.9,14.1-7.4c1.3-0.7,2.5-0.7,3.8,0c10.6,5.5,21.1,11,31.7,16.4c0.9,0.5,1.6,1.1,1.6,2.2
			c0,1.1-0.7,1.7-1.6,2.2c-10.5,5.4-21,10.9-31.4,16.3C41.4,42.9,40.7,43.2,39.9,43.3z"/>
		
			<linearGradient id="SVGID_00000112622041303367985990000006619680762765377719_" gradientUnits="userSpaceOnUse" x1="14.7584" y1="13.5163" x2="62.5361" y2="63.427">
			<stop  offset="0" style="stop-color:#a801bd"/>
			<stop  offset="1" style="stop-color:#453E1B"/>
		</linearGradient>
		<path style="fill:url(#SVGID_00000112622041303367985990000006619680762765377719_);" d="M40,59c-0.7,0.1-1.3-0.2-1.9-0.6
			C27.5,53,16.9,47.5,6.4,42c-0.9-0.5-1.5-1.1-1.5-2.1c0-1.1,0.6-1.7,1.5-2.2c1.7-0.8,3.3-1.7,4.9-2.6c1-0.6,1.9-0.4,2.9,0.1
			c7.2,3.8,14.3,7.5,21.5,11.3c2.9,1.5,5.6,1.6,8.5,0c7.2-3.9,14.4-7.5,21.6-11.3c1-0.5,1.8-0.6,2.8,0c1.6,0.9,3.2,1.7,4.8,2.5
			c0.9,0.5,1.6,1.1,1.7,2.2c0,1.2-0.7,1.8-1.7,2.3c-7.5,3.9-15,7.8-22.5,11.7c-2.8,1.5-5.7,3-8.5,4.4C41.6,58.7,40.9,59,40,59z"/>
		
			<linearGradient id="SVGID_00000001635797087626759810000007754709880841579915_" gradientUnits="userSpaceOnUse" x1="6.7247" y1="21.2067" x2="54.5024" y2="71.1174">
			<stop  offset="0" style="stop-color:#a801bd"/>
			<stop  offset="1" style="stop-color:#453E1B"/>
		</linearGradient>
		<path style="fill:url(#SVGID_00000001635797087626759810000007754709880841579915_);" d="M40,75.1c-0.7,0-1.3-0.3-1.8-0.6
			C27.7,69.1,17.3,63.7,6.8,58.3c-1-0.5-2-1.1-2-2.5c0-1.4,1-1.9,2-2.4c1.3-0.7,2.7-1.3,4-2.1c1.2-0.7,2.3-0.7,3.5,0
			c7.1,3.8,14.3,7.4,21.4,11.2c2.8,1.5,5.4,1.5,8.2,0c7.1-3.8,14.3-7.4,21.4-11.2c1.3-0.7,2.4-0.7,3.7,0c1.3,0.8,2.7,1.5,4.1,2.1
			c1,0.5,1.8,1.1,1.9,2.4c0,1.3-0.8,1.9-1.8,2.4c-9.4,4.9-18.8,9.8-28.2,14.7c-1,0.5-2.1,1.1-3.1,1.6C41.3,74.9,40.7,75.1,40,75.1z"
			/>
	</g>
</g>
</svg>
