<?xml version="1.0" encoding="utf-8"?>
<!-- Generator: Adobe Illustrator 27.8.0, SVG Export Plug-In . SVG Version: 6.00 Build 0)  -->
<svg version="1.1" id="Layer_1" xmlns="http://www.w3.org/2000/svg" xmlns:xlink="http://www.w3.org/1999/xlink" x="0px" y="0px"
	 viewBox="0 0 80 80" style="enable-background:new 0 0 80 80;" xml:space="preserve">
<style type="text/css">
	.st0{fill:url(#SVGID_1_);}
	.st1{fill:url(#SVGID_00000012430977979857310610000003706761470085798024_);}
	.st2{fill:url(#SVGID_00000119101460443581069630000008276346786645256331_);}
	.st3{fill:url(#SVGID_00000123439396067084319720000018158871313396853173_);}
	.st4{fill:url(#SVGID_00000008149686648675893230000010108045892243032482_);}
	.st5{fill:url(#SVGID_00000008838411409900855410000012191939406424381863_);}
	.st6{fill:url(#SVGID_00000181077784265921248790000010283253678061069708_);}
	.st7{fill:url(#SVGID_00000137124441686838037780000011744437264375557763_);}
</style>
<g id="_x36_yuKxz.tif">
	<g>
		<linearGradient id="SVGID_1_" gradientUnits="userSpaceOnUse" x1="4.376" y1="16.6867" x2="55.6184" y2="79.5912">
			<stop  offset="0" style="stop-color:#b00bc5"/>
			<stop  offset="1" style="stop-color:#453E1B"/>
		</linearGradient>
		<path class="st0" d="M40.1,72.6c-5.4,0-10.8,0-16.2,0c-3.3,0-5.3-1.9-5.7-5.1c-0.3-2.6,1.5-4.9,4.4-5.6c0,0,0.1,0,0.1,0
			c2.4-0.6,2.4-0.6,2.9-3.1c1.1-6.5,2.2-13,3.3-19.6c0.2-1.1,0.6-1.4,1.7-1.4c6.4,0,12.7,0,19.1,0c1.1,0,1.5,0.4,1.6,1.4
			c1.1,7,2.3,13.9,3.5,20.9c0.2,1,0.5,1.4,1.6,1.5c4.6,0.4,6.9,4.5,4.8,8.3c-1,1.8-2.5,2.7-4.5,2.7C51.1,72.5,45.6,72.6,40.1,72.6z"
			/>
		
			<linearGradient id="SVGID_00000076592033027893179540000007794609624628066442_" gradientUnits="userSpaceOnUse" x1="24.9313" y1="-5.788866e-02" x2="76.1738" y2="62.8466">
			<stop  offset="0" style="stop-color:#b00bc5"/>
			<stop  offset="1" style="stop-color:#453E1B"/>
		</linearGradient>
		<path style="fill:url(#SVGID_00000076592033027893179540000007794609624628066442_);" d="M40,33.6c-4.3,0-8.7,0-13,0
			c-5,0-8.7-3.8-8.7-8.7c0-4.9,0-9.7,0-14.6c0-2.1,0.7-2.8,2.8-2.8c1.2,0,2.4,0,3.6,0c1.6,0,2.4,0.8,2.4,2.4c0,1.7,0,3.3,0,5
			c0,0.9,0.3,1.2,1.2,1.2c1.4,0,2.7,0,4.1,0c0.8,0,1.1-0.3,1.1-1.1c0-1.5,0-3,0-4.5c0-1.9,0.8-2.9,2.7-3c2.6-0.1,5.2-0.1,7.8,0
			c1.8,0.1,2.6,1.1,2.6,2.9c0,1.5,0,3,0,4.5c0,0.8,0.2,1.3,1.1,1.2c1.3,0,2.7,0,4.1,0c0.9,0,1.2-0.4,1.1-1.2c0-1.6,0-3.2,0-4.9
			c0-1.8,0.8-2.5,2.6-2.6c1.3,0,2.5,0,3.8,0c1.6,0,2.4,0.8,2.5,2.4c0,5.2,0.1,10.4,0,15.5c-0.1,4.4-3.9,8.1-8.3,8.2
			C48.9,33.6,44.5,33.6,40,33.6z"/>
	</g>
</g>
</svg>
