<?xml version="1.0" encoding="utf-8"?>
<!-- Generator: Adobe Illustrator 27.8.0, SVG Export Plug-In . SVG Version: 6.00 Build 0)  -->
<svg version="1.1" id="Layer_1" xmlns="http://www.w3.org/2000/svg" xmlns:xlink="http://www.w3.org/1999/xlink" x="0px" y="0px"
	 viewBox="0 0 197.2 197.2" style="enable-background:new 0 0 197.2 197.2;" xml:space="preserve">
<style type="text/css">
	.st0{fill:#b00bc5;}
	.st1{fill:#fff;}
</style>
<circle class="st0" cx="98.6" cy="98.6" r="98.6"/>
<g id="Smjait.tif">
	<g>
		<path class="st1" d="M87.2,155.2c-1.4-14.2-7.2-26-19-34.4c-1.7-1.2-3.5-2.2-5.3-3.2c-0.5-0.3-1-0.6-1.9-0.5
			c0.2,1.4,1.2,2.3,1.8,3.4c0.6,1.2,1.4,2.2,2.1,3.4c1.7,3.2,1,6.6-1.9,8.3c-2.8,1.7-6.3,0.8-8.2-2.2c-3.4-5.4-6.6-11-10.2-16.3
			c-4.4-6.3-3.2-10.3,3.2-13.8c5.6-3.1,10.9-6.8,16.4-10.1c4-2.4,8.4-0.5,9.2,3.9c0.5,2.5-0.7,4.5-2.7,5.9c-2,1.4-4.1,2.6-6.2,3.9
			c-1.2,0.7-1.6,1.3,0,2c8.6,3.6,16.1,8.9,22.6,15.5c0.4,0.4,0.8,1,1.5,0.8c0.8-0.2,0.7-1.1,0.7-1.7c0.8-12.8,1.5-25.7,2.3-38.5
			c0.3-5.6,0.6-11.2,0.9-16.7c0-0.6,0.4-1.5-0.5-1.7c-0.6-0.2-1,0.5-1.4,0.9c-1.5,1.5-3,3-4.5,4.5c-2.6,2.4-6.2,2.4-8.5,0.1
			c-2.2-2.3-2.2-5.9,0.2-8.4c5.4-5.5,10.8-10.9,16.2-16.2c2.6-2.5,6.4-2.5,9,0c5.5,5.3,10.9,10.8,16.2,16.2c2.5,2.5,2.4,6.3,0,8.5
			c-2.4,2.3-6,2.1-8.5-0.5c-1.4-1.4-2.7-2.9-4-4.4c-0.3-0.4-0.7-0.9-1.2-0.8c-0.8,0.2-0.5,1-0.5,1.5c0.2,5.5,0.3,11,0.6,16.5
			c0.3,6.6,0.8,13.2,1.2,19.8c0,0.8-0.3,1.8,0.6,2.2c0.9,0.5,1.5-0.5,2-1c6.9-6.5,14.6-11.6,23.4-15.2c0.5-0.2,1.1-0.3,1.2-0.8
			c0.1-0.7-0.7-0.9-1.1-1.2c-1.9-1.2-3.8-2.3-5.6-3.5c-3.2-2.1-4.2-5.4-2.4-8.3c1.7-2.9,5.2-3.7,8.5-1.7c6.4,3.9,12.8,7.9,19.1,11.9
			c1.4,0.9,2.2,2.2,2.8,3.6c0,1.5,0,2.9,0,4.4c-0.8,1.2-1.6,2.3-2.3,3.5c-3.5,5.6-6.9,11.1-10.4,16.7c-1.9,3-5.4,4-8.2,2.3
			c-2.8-1.7-3.6-5.1-1.9-8.3c0.7-1.4,1.6-2.6,2.4-4c0.5-0.9,1.4-1.6,1.3-3c-2.4,0.9-4.3,2-6.2,3.3c-13.8,9.4-20.4,22.6-20.9,39
			c-0.2,4.9-0.1,9.7-0.2,14.6C101.6,155.2,94.4,155.2,87.2,155.2z"/>
	</g>
</g>
</svg>
