<?xml version="1.0" encoding="utf-8"?>
<!-- Generator: Adobe Illustrator 27.8.0, SVG Export Plug-In . SVG Version: 6.00 Build 0)  -->
<svg version="1.1" id="Layer_1" xmlns="http://www.w3.org/2000/svg" xmlns:xlink="http://www.w3.org/1999/xlink" x="0px" y="0px"
	 viewBox="0 0 80 80" style="enable-background:new 0 0 80 80;" xml:space="preserve">
<style type="text/css">
	.st0{fill:url(#SVGID_1_);}
	.st1{fill:url(#SVGID_00000171701415940752801170000013865989315710936209_);}
	.st2{fill:url(#SVGID_00000143599509685086670360000008017534168560204222_);}
	.st3{fill:url(#SVGID_00000061451842941777816930000003930372998823380127_);}
	.st4{fill:url(#SVGID_00000041295799540936380190000002281040229437176720_);}
	.st5{fill:url(#SVGID_00000167353856102975959660000010934721694210878649_);}
	.st6{fill:url(#SVGID_00000119838668293690483630000017078967937737783467_);}
	.st7{fill:url(#SVGID_00000018939067899935408500000015815837282090651265_);}
	.st8{fill:url(#SVGID_00000021799444185504657320000003811883418071129004_);}
	.st9{fill:url(#SVGID_00000025429378940536558530000001936696531049466772_);}
	.st10{fill:url(#SVGID_00000020376896919848354330000004101776219365773974_);}
	.st11{fill:url(#SVGID_00000023255988102079192170000006428636415856114850_);}
	.st12{fill:url(#SVGID_00000142138138822206325060000016096367932315321989_);}
	.st13{fill:url(#SVGID_00000119076260575196675820000001528671452516155277_);}
	.st14{fill:url(#SVGID_00000036221304965778326520000016518721048722944143_);}
	.st15{fill:url(#SVGID_00000046321519734710300690000005959722204157784754_);}
	.st16{fill:url(#SVGID_00000168828700309163766420000005689213293873793436_);}
	.st17{fill:url(#SVGID_00000023275904993652858380000011947031116634361746_);}
	.st18{fill:url(#SVGID_00000100382918912968492000000003530223659544370623_);}
	.st19{fill:url(#SVGID_00000017476312047217235080000011608847673089028230_);}
	.st20{fill:url(#SVGID_00000036217384432696095560000007741766428626103455_);}
	.st21{fill:url(#SVGID_00000058566104395191238480000007925484828293988515_);}
	.st22{fill:url(#SVGID_00000083074090590990165380000012595910190928299908_);}
	.st23{fill:url(#SVGID_00000060721908752476766660000007769001426825858978_);}
	.st24{fill:url(#SVGID_00000105424799647665605420000003755772909828811399_);}
	.st25{fill:url(#SVGID_00000089549412233431096240000010723562160257914511_);}
	.st26{fill:url(#SVGID_00000118367411768092703690000004916344092734922895_);}
	.st27{fill:url(#SVGID_00000086677965647063856140000008543784585908179105_);}
	.st28{fill:url(#SVGID_00000125563043838801055040000000585784330415628176_);}
	.st29{fill:url(#SVGID_00000018944963801723203090000004383068581248518591_);}
	.st30{fill:url(#SVGID_00000155865349098956856090000001278446955735906747_);}
	.st31{fill:url(#SVGID_00000143583608699275528330000017789382256397163435_);}
	.st32{fill:url(#SVGID_00000060745378749483331190000004851687032152939403_);}
	.st33{fill:url(#SVGID_00000087391368219272996610000000325778930912265662_);}
	.st34{fill:url(#SVGID_00000088834761656452733570000003575843992643486391_);}
	.st35{fill:url(#SVGID_00000165915127260187469520000012686787277364404114_);}
	.st36{fill:url(#SVGID_00000088131762616783176780000017936192173936269484_);}
	.st37{fill:url(#SVGID_00000047061272199788225830000001299775499680532868_);}
	.st38{fill:url(#SVGID_00000075852662020257346290000000189035782626110868_);}
	.st39{fill:url(#SVGID_00000134216869602856164220000007800292204858842272_);}
	.st40{fill:url(#SVGID_00000084511086170419256550000010332091917425920662_);}
	.st41{fill:url(#SVGID_00000131335937160060978370000006714361341890970528_);}
	.st42{fill:url(#SVGID_00000023996970238240459600000000203485608334079878_);}
	.st43{fill:url(#SVGID_00000162328651255096718040000016781886534067360899_);}
	.st44{fill:url(#SVGID_00000050655951089978834830000003254048081811444657_);}
	.st45{fill:url(#SVGID_00000105420817530740862120000007445225026358077877_);}
</style>
<g id="g8m9nZ.tif_00000147219197333777240540000008765648223237508021_">
	<g>
		<linearGradient id="SVGID_1_" gradientUnits="userSpaceOnUse" x1="18.7943" y1="4.9464" x2="79.5367" y2="71.9124">
			<stop  offset="0" style="stop-color:#b00bc5"/>
			<stop  offset="1" style="stop-color:#453E1B"/>
		</linearGradient>
		<path class="st0" d="M60.9,14.5c-2.4-0.3-4.7-0.6-7.1-0.9c-2.1-0.3-3.5-1.6-3.2-3.4c0.3-1.9,1.8-2.8,4-2.5
			c4.9,0.6,9.7,1.2,14.6,1.9c2.2,0.3,3.1,1.7,2.8,3.9c-0.6,4.6-1.1,9.2-1.7,13.9c-0.1,0.6-0.1,1.1-0.3,1.6c-0.4,1.5-1.8,2.5-3.3,2.3
			c-1.4-0.2-2.5-1.4-2.5-2.9c0-2.2,0.4-4.3,0.7-6.5c0.1-0.6,0.2-1.2,0-1.8c-0.6-0.1-0.8,0.4-1.2,0.6C56.4,26.4,49,32.2,41.5,38
			c-2.3,1.8-4.1,1.4-5.6-1.1c-0.9-1.4-1.8-2.8-2.5-4.3c-0.5-1-1-1-1.8-0.3C26,36.6,20.4,41,14.8,45.4c-0.5,0.4-1.1,0.9-1.6,1.2
			c-1.6,1.1-3.5,0.9-4.6-0.6c-1.1-1.4-0.9-3.3,0.7-4.5c2.7-2.2,5.5-4.3,8.2-6.4c4.5-3.5,9.1-7,13.6-10.5c2.5-1.9,4.2-1.6,5.9,1.2
			c0.9,1.5,1.8,2.9,2.6,4.4c0.4,0.6,0.7,0.8,1.3,0.3c6.6-5.1,13.2-10.2,19.8-15.3c0.1-0.1,0.3-0.2,0.4-0.3
			C61,14.7,61,14.6,60.9,14.5z"/>
		
			<linearGradient id="SVGID_00000075125748847416700380000017427962051567427989_" gradientUnits="userSpaceOnUse" x1="19.0785" y1="4.6885" x2="79.8209" y2="71.6546">
			<stop  offset="0" style="stop-color:#b00bc5"/>
			<stop  offset="1" style="stop-color:#453E1B"/>
		</linearGradient>
		<path style="fill:url(#SVGID_00000075125748847416700380000017427962051567427989_);" d="M59,54.6c0-5.4,0-10.8,0-16.2
			c0-1.6,0.1-1.6,1.7-1.6c2.6,0,5.1,0,7.7,0c0.9,0,1.3,0.3,1.3,1.3c0,11,0,22.1,0,33.1c0,0.9-0.4,1.2-1.2,1.2c-2.7,0-5.5,0-8.2,0
			c-1.1,0-1.2-0.6-1.2-1.5C59,65.4,59,60,59,54.6z"/>
		
			<linearGradient id="SVGID_00000097473085409071718850000000528124325025680042_" gradientUnits="userSpaceOnUse" x1="8.8567" y1="13.9604" x2="69.5991" y2="80.9264">
			<stop  offset="0" style="stop-color:#b00bc5"/>
			<stop  offset="1" style="stop-color:#453E1B"/>
		</linearGradient>
		<path style="fill:url(#SVGID_00000097473085409071718850000000528124325025680042_);" d="M53.9,57.8c0,4.3,0,8.6,0,12.9
			c0,1.2-0.4,1.7-1.6,1.6c-2.6-0.1-5.1,0-7.7,0c-1,0-1.3-0.4-1.3-1.4c0-8.8,0-17.7,0-26.5c0-0.9,0.3-1.3,1.3-1.3
			c2.6,0,5.3,0.1,7.9,0c1.2,0,1.4,0.5,1.4,1.5C53.9,49.1,53.9,53.4,53.9,57.8z"/>
		
			<linearGradient id="SVGID_00000097460767897335579990000009898837198582753971_" gradientUnits="userSpaceOnUse" x1="-1.1786" y1="23.0631" x2="59.5638" y2="90.0291">
			<stop  offset="0" style="stop-color:#b00bc5"/>
			<stop  offset="1" style="stop-color:#453E1B"/>
		</linearGradient>
		<path style="fill:url(#SVGID_00000097460767897335579990000009898837198582753971_);" d="M26.9,59.8c0-3.5,0-7,0-10.5
			c0-1.6,0.1-1.7,1.8-1.7c2.5,0,5,0,7.6,0c0.9,0,1.3,0.3,1.3,1.3c0,7.4,0,14.8,0,22.2c0,0.9-0.3,1.3-1.3,1.3c-2.7,0-5.3,0-8,0
			c-1.1,0-1.4-0.5-1.4-1.5C27,67.2,27,63.5,26.9,59.8C27,59.8,27,59.8,26.9,59.8z"/>
		
			<linearGradient id="SVGID_00000025436268508212177110000005461023551116230280_" gradientUnits="userSpaceOnUse" x1="-10.8087" y1="31.7981" x2="49.9337" y2="98.7642">
			<stop  offset="0" style="stop-color:#b00bc5"/>
			<stop  offset="1" style="stop-color:#453E1B"/>
		</linearGradient>
		<path style="fill:url(#SVGID_00000025436268508212177110000005461023551116230280_);" d="M22.1,62.2c0,2.9,0,5.7,0,8.6
			c0,1.1-0.3,1.6-1.5,1.6c-2.6-0.1-5.2,0-7.8,0c-1,0-1.4-0.4-1.3-1.4c0-5.8,0-11.6,0-17.4c0-1,0.3-1.4,1.3-1.4c2.7,0,5.4,0,8.1,0
			c0.9,0,1.3,0.4,1.3,1.3C22.1,56.4,22.1,59.3,22.1,62.2z"/>
	</g>
</g>
</svg>
