<?xml version="1.0" encoding="utf-8"?>
<!-- Generator: Adobe Illustrator 27.8.0, SVG Export Plug-In . SVG Version: 6.00 Build 0)  -->
<svg version="1.1" id="Layer_1" xmlns="http://www.w3.org/2000/svg" xmlns:xlink="http://www.w3.org/1999/xlink" x="0px" y="0px"
	 viewBox="0 0 197.2 197.2" style="enable-background:new 0 0 197.2 197.2;" xml:space="preserve">
<style type="text/css">
	.st0{fill:#a801bd;}
	.st1{fill:#fff;}
	.st2{fill:none;stroke:#a801bd;stroke-miterlimit:10;}
</style>
<g>
	<circle class="st0" cx="98.6" cy="98.6" r="98.6"/>
</g>
<path class="st2" d="M456.2,260.7H-1028c-12.7,0-23-10.3-23-23v-362.4c0-12.7,10.3-23,23-23H456.2c12.7,0,23,10.3,23,23v362.4
	C479.2,250.4,468.9,260.7,456.2,260.7z"/>
<g id="kLhsOS.tif_00000150802762227120257970000015411100954732845447_">
	<g>
		<path class="st1" d="M73.7,146.4c-10.2-3.2-13.2-11.2-12.5-18.5c0.6-6.6,2.7-12.8,6.5-18.3c3.4-4.9,7.7-8.9,13-11.7
			c1.5-0.8,1.8-1.4,0.7-2.9c-5.2-7.5-5.4-16.7-0.6-24c4.7-7.2,13.5-11.1,21.7-9.5c8.9,1.7,15.6,8.1,17.3,17
			C120.9,84,120,89.2,117,94c-1.8,2.9-1.8,2.8,1.2,4.7c11.2,7.2,17.1,17.5,17.7,30.7c0.4,8-3.8,13.7-11.4,16.5
			c-0.4,0.1-0.8,0.3-1.1,0.5C106.8,146.4,90.3,146.4,73.7,146.4z"/>
		<path class="st1" d="M157.2,111.2c-1.2,5.2-3.6,9.6-8.5,12.2c-2.7,1.5-3,1.3-3.6-1.8c-2.2-10.5-7.1-19.3-15.1-26.5
			c-1.3-1.1-1.7-2.1-1.2-3.8c4.1-14.8-2.5-29.5-16.1-36.6c-0.7-0.4-1.6-0.5-2-1.6c3.9-2.3,8.1-2.7,12.4-2
			c14.1,2.2,22.1,17.3,16,30.3c-0.9,1.9-0.7,2.6,1.3,3.4c9.4,3.9,14.8,11,16.5,21c0.1,0.5,0.2,1,0.3,1.4
			C157.2,108.5,157.2,109.8,157.2,111.2z"/>
		<path class="st1" d="M77.9,50.9c2.1-0.2,4.4,0.4,6.7,1.3c0.6,0.2,1.7,0.3,1.6,1.2c0,0.7-0.9,0.9-1.5,1.1c-6,3-10.6,7.3-13.8,13.2
			c-4.1,7.5-5,15.3-2.7,23.5c0.4,1.6,0.3,2.7-1,3.9c-8.2,7.3-13.3,16.4-15.3,27.2c-0.4,2-1.1,2.4-3,1.5c-6.9-3.4-10.3-11-8.5-19.6
			c2-9.2,7.4-15.8,16.1-19.4c2.1-0.8,2.3-1.5,1.4-3.5C51.2,66.9,61.7,50.8,77.9,50.9z"/>
	</g>
</g>
</svg>
