<?xml version="1.0" encoding="utf-8"?>
<!-- Generator: Adobe Illustrator 27.8.0, SVG Export Plug-In . SVG Version: 6.00 Build 0)  -->
<svg version="1.1" id="Layer_1" xmlns="http://www.w3.org/2000/svg" xmlns:xlink="http://www.w3.org/1999/xlink" x="0px" y="0px"
	 viewBox="0 0 80 80" style="enable-background:new 0 0 80 80;" xml:space="preserve">
<style type="text/css">
	.st0{fill:url(#SVGID_1_);}
	.st1{fill:url(#SVGID_00000150782764916392228530000008254896272296731026_);}
	.st2{fill:url(#SVGID_00000171722179034036076370000004756152978743049873_);}
	.st3{fill:url(#SVGID_00000037656867658939215810000008343287944079993240_);}
	.st4{fill:url(#SVGID_00000053529088816297482630000018438245331186300290_);}
	.st5{fill:url(#SVGID_00000129166949746653825800000012309540287151492508_);}
	.st6{fill:url(#SVGID_00000119798645018538650750000007650444814103215744_);}
	.st7{fill:url(#SVGID_00000125581068348420854610000009855633413554118325_);}
	.st8{fill:url(#SVGID_00000178927677664144407820000002291272176885870734_);}
	.st9{fill:url(#SVGID_00000137116517671152666220000000545077289675553937_);}
	.st10{fill:url(#SVGID_00000151521306381778117280000012727911568561185690_);}
	.st11{fill:url(#SVGID_00000020399941405789335120000003840656782264683420_);}
	.st12{fill:url(#SVGID_00000061466249692212656760000009700033494076012417_);}
	.st13{fill:url(#SVGID_00000080890994709921123660000000580664602181993356_);}
	.st14{fill:url(#SVGID_00000101100950047964843560000007195695068122847138_);}
	.st15{fill:url(#SVGID_00000028313455214053646580000017843012595845457068_);}
	.st16{fill:url(#SVGID_00000111902230735007322110000016513417480513570195_);}
	.st17{fill:url(#SVGID_00000138553609988599752400000002562378284537478824_);}
	.st18{fill:url(#SVGID_00000136381161303878142470000016921072769342364813_);}
	.st19{fill:url(#SVGID_00000042719821622783371890000018443639391732389022_);}
	.st20{fill:url(#SVGID_00000135680031770272713110000006877939463951040431_);}
	.st21{fill:url(#SVGID_00000085930111804164641270000018249204716769531013_);}
	.st22{fill:url(#SVGID_00000043448313500358952080000011281588067604899238_);}
	.st23{fill:url(#SVGID_00000026843195092815452530000010192578601316513409_);}
	.st24{fill:url(#SVGID_00000103251909136335804840000003419928410081079697_);}
	.st25{fill:url(#SVGID_00000176017589260694946950000002154574261198819985_);}
	.st26{fill:url(#SVGID_00000031926848158068193140000009786946283164854407_);}
	.st27{fill:url(#SVGID_00000016071894755362800690000001673940897348203703_);}
	.st28{fill:url(#SVGID_00000078725603933993407110000006860401690616070019_);}
	.st29{fill:url(#SVGID_00000127755047116157177540000010880633203494871209_);}
	.st30{fill:url(#SVGID_00000088119368138312853890000012545355360136315530_);}
	.st31{fill:url(#SVGID_00000013185224640352646420000000933924857068613276_);}
	.st32{fill:url(#SVGID_00000019668543362739907850000016375165955563204758_);}
	.st33{fill:url(#SVGID_00000076593253865700733740000013917308185355423621_);}
	.st34{fill:url(#SVGID_00000109747797239579166590000015012671744082822279_);}
	.st35{fill:url(#SVGID_00000121254579780787099190000002091862546291571373_);}
	.st36{fill:url(#SVGID_00000104667508867409510410000013695133686875151499_);}
	.st37{fill:url(#SVGID_00000141430567410155023800000010247393966444999862_);}
	.st38{fill:url(#SVGID_00000139270718308896886450000001393585181768871839_);}
	.st39{fill:url(#SVGID_00000082354101773107109480000002709012423438219662_);}
	.st40{fill:url(#SVGID_00000003821389274617184390000013125398773036367236_);}
	.st41{fill:url(#SVGID_00000143592778781474781430000000049802640205478790_);}
	.st42{fill:url(#SVGID_00000014600078342112857720000003412789440971328144_);}
	.st43{fill:url(#SVGID_00000121247407961587345950000001372389106320910488_);}
	.st44{fill:url(#SVGID_00000137125205197830927450000010960140419760996775_);}
	.st45{fill:url(#SVGID_00000042013874380051868900000014825112554435309196_);}
</style>
<g id="O0E5Cw.tif_00000036952730569268372860000018179758283741558938_">
	<g>
		<linearGradient id="SVGID_1_" gradientUnits="userSpaceOnUse" x1="16.3554" y1="25.131" x2="69.1253" y2="58.5431">
			<stop  offset="0" style="stop-color:#a801bd"/>
			<stop  offset="1" style="stop-color:#453E1B"/>
		</linearGradient>
		<path class="st0" d="M39.9,18.6C54,19,65.4,24.6,73.7,36c2.1,2.9,2.1,5.3,0,8.2C64.5,56.5,52.2,62.3,37,61.3
			c-12.7-0.8-23.1-6.7-30.6-17.1c-2.2-3-2.2-5.3,0-8.3C14.7,24.5,26,19,39.9,18.6z M47.5,45.4c0-3.2-1.8-6-4.7-7.1
			c-1-0.4-2.1-0.5-3.2-0.7c-1.4-0.2-2.4-1.4-2.5-2.8c0-1.5,1.1-2.8,2.5-3c1.4-0.2,2.7,0.6,3.1,2c0.1,0.4,0.1,0.8,0.2,1.2
			c0.3,1.3,1.2,2,2.5,1.9c1.3-0.1,2-1,2-2.3c0-2.9-1.3-5.1-3.8-6.6c-0.7-0.4-1.3-0.9-1.7-1.7c-0.9-1.6-2.9-1.6-3.8-0.1
			c-0.5,0.9-1.2,1.4-2,1.9C33.3,30,32,33,32.6,36.5c0.5,2.8,3,5.2,6.1,5.8c0.6,0.1,1.2,0.2,1.9,0.3c1.4,0.3,2.4,1.6,2.3,3
			c0,1.3-1.1,2.6-2.3,2.8c-1.4,0.3-2.7-0.5-3.2-1.9c-0.2-0.5-0.2-1-0.3-1.5c-0.4-1.1-1.2-1.9-2.4-1.8c-1.3,0.2-2,1-2,2.4
			c0,2.9,1.4,5.1,3.8,6.5c0.7,0.4,1.2,0.8,1.6,1.6c1,1.8,3.1,1.8,4.1,0c0.4-0.7,0.9-1.1,1.5-1.5C46.1,50.6,47.5,48.4,47.5,45.4z
			 M59.2,29.7c3.4,6.9,3.5,13.8,0,20.7c4.2-2.5,7.5-5.7,10.3-9.5c0.4-0.5,0.5-1,0.1-1.6C66.8,35.4,63.4,32.2,59.2,29.7z M20.6,50.3
			c-3.4-6.9-3.2-13.7,0.4-20.8c-4.3,2.7-7.6,5.8-10.3,9.6c-0.4,0.5-0.7,1-0.2,1.7C13.2,44.6,16.5,47.8,20.6,50.3z"/>
	</g>
</g>
</svg>
