<?xml version="1.0" encoding="utf-8"?>
<!-- Generator: Adobe Illustrator 27.8.0, SVG Export Plug-In . SVG Version: 6.00 Build 0)  -->
<svg version="1.1" id="Layer_1" xmlns="http://www.w3.org/2000/svg" xmlns:xlink="http://www.w3.org/1999/xlink" x="0px" y="0px"
	 viewBox="0 0 80 80" style="enable-background:new 0 0 80 80;" xml:space="preserve">
<style type="text/css">
	.st0{fill:url(#SVGID_1_);}
	.st1{fill:url(#SVGID_00000107556069921580538730000011988096662158861194_);}
	.st2{fill:url(#SVGID_00000013912448913276302570000009343690303177079444_);}
	.st3{fill:url(#SVGID_00000145024413599469265290000001452379812624922250_);}
	.st4{fill:url(#SVGID_00000011026630438216898890000012452878555910747044_);}
	.st5{fill:url(#SVGID_00000022560922478229863210000002117436453795665290_);}
	.st6{fill:url(#SVGID_00000048486729843058068850000014893669329550004622_);}
	.st7{fill:url(#SVGID_00000075876027415842466380000001349528708985130636_);}
	.st8{fill:url(#SVGID_00000033364483243372129790000017620471938337821843_);}
	.st9{fill:url(#SVGID_00000006669968016043525540000018103582799531718548_);}
	.st10{fill:url(#SVGID_00000004525978566156837500000006450792212688263097_);}
	.st11{fill:url(#SVGID_00000023261345329241869690000003727168866303640451_);}
	.st12{fill:url(#SVGID_00000169531549016750026690000001913446278065000083_);}
	.st13{fill:url(#SVGID_00000076600207122588796420000011920820667399525805_);}
	.st14{fill:url(#SVGID_00000141440169478721590940000015840376880194394765_);}
	.st15{fill:url(#SVGID_00000160180344566863393880000006293019025396677812_);}
	.st16{fill:url(#SVGID_00000109030832146132096180000016956520921697602441_);}
	.st17{fill:url(#SVGID_00000157284193572773772420000013516895554207724219_);}
</style>
<g id="qjOk3x.tif">
	<g>
		<linearGradient id="SVGID_1_" gradientUnits="userSpaceOnUse" x1="13.9468" y1="10.9754" x2="79.9417" y2="53.5773">
			<stop  offset="0" style="stop-color:#a801bd"/>
			<stop  offset="1" style="stop-color:#453E1B"/>
		</linearGradient>
		<path class="st0" d="M42.5,13.3c5,1.4,8.5,4.4,9.5,9.6c0.6,3.4,0.7,6.9-0.1,10.3c-1.4,6-7.2,9.8-13.5,9.1
			c-5.9-0.7-10.5-5.9-10.5-11.9c0-1.6,0-3.1,0-4.7c0-6,3.3-10.5,9.1-12.2c0.2-0.1,0.5-0.2,0.7-0.2C39.3,13.3,40.9,13.3,42.5,13.3z"
			/>
		
			<linearGradient id="SVGID_00000029762694505660849770000016911215817495175858_" gradientUnits="userSpaceOnUse" x1="9.0693" y1="18.5311" x2="75.0642" y2="61.133">
			<stop  offset="0" style="stop-color:#a801bd"/>
			<stop  offset="1" style="stop-color:#453E1B"/>
		</linearGradient>
		<path style="fill:url(#SVGID_00000029762694505660849770000016911215817495175858_);" d="M76.4,65.3c-0.9,1.1-2,1.4-3.3,1.3
			c-2.7-0.1-5.3,0-8,0c-0.9,0-1.2-0.3-1.1-1.2c0.5-4.1,0.4-8.2-0.1-12.3c-0.1-0.9,0-1.4,1-1.6c2.7-0.6,5.1-1.8,7.1-3.7
			c0.7-0.6,1.1-0.5,1.6,0.2c1.5,1.8,2.2,4,2.9,6.2C76.4,57.9,76.4,61.6,76.4,65.3z"/>
		
			<linearGradient id="SVGID_00000002379632543899184920000004535821333536533644_" gradientUnits="userSpaceOnUse" x1="1.1114" y1="30.8588" x2="67.1063" y2="73.4607">
			<stop  offset="0" style="stop-color:#a801bd"/>
			<stop  offset="1" style="stop-color:#453E1B"/>
		</linearGradient>
		<path style="fill:url(#SVGID_00000002379632543899184920000004535821333536533644_);" d="M39.9,66.6c-5.4,0-10.8,0-16.2,0
			c-2.3,0-3.2-0.8-3.1-3.1c0.1-3.9-0.5-7.8,0.6-11.7c1-3.6,2.9-6.7,5.6-9.3c0.7-0.7,1.2-0.6,1.9,0c6.9,6,15.7,6,22.7,0
			c0.7-0.6,1.2-0.7,1.9,0c4,3.8,6.1,8.3,6.2,13.8c0,2.4,0,4.7,0,7.1c0,2.4-0.8,3.2-3.3,3.2C50.8,66.6,45.4,66.6,39.9,66.6z"/>
		
			<linearGradient id="SVGID_00000158029791020630245360000010639222404458661304_" gradientUnits="userSpaceOnUse" x1="3.6419" y1="26.9388" x2="69.6368" y2="69.5407">
			<stop  offset="0" style="stop-color:#a801bd"/>
			<stop  offset="1" style="stop-color:#453E1B"/>
		</linearGradient>
		<path style="fill:url(#SVGID_00000158029791020630245360000010639222404458661304_);" d="M8.5,36.3c0-5.8,2.7-9.7,7.7-10.7
			c2-0.4,3.9-0.2,5.8,0.5c0.8,0.3,1.3,0.8,1.3,1.8c-0.1,3.2,0.2,6.4,1.6,9.4c0.3,0.6,0,1-0.4,1.4c-2.5,2.1-4.4,4.7-5.9,7.6
			c-0.5,1.1-1.3,1-2.3,0.8c-4.4-0.9-7.7-4.9-7.8-9.4C8.5,37.3,8.5,36.8,8.5,36.3z"/>
		
			<linearGradient id="SVGID_00000049210865158868154450000007552793321515221901_" gradientUnits="userSpaceOnUse" x1="17.0702" y1="6.137" x2="83.0651" y2="48.7389">
			<stop  offset="0" style="stop-color:#a801bd"/>
			<stop  offset="1" style="stop-color:#453E1B"/>
		</linearGradient>
		<path style="fill:url(#SVGID_00000049210865158868154450000007552793321515221901_);" d="M71.7,36.4c0.4,6.2-3.7,9.7-7.3,10.7
			c-1.4,0.4-2.3,0.3-3-1.2c-1.3-2.7-3.2-5-5.5-7c-0.6-0.5-0.8-1-0.5-1.8c1.3-2.8,1.6-5.7,1.5-8.7c-0.1-1.4,0.5-2.1,1.8-2.5
			c6.3-2.2,12.9,2.4,13,9C71.7,35.4,71.7,35.9,71.7,36.4z"/>
		
			<linearGradient id="SVGID_00000069361142232751980340000009685996670649208749_" gradientUnits="userSpaceOnUse" x1="-8.976" y1="46.4852" x2="57.019" y2="89.0871">
			<stop  offset="0" style="stop-color:#a801bd"/>
			<stop  offset="1" style="stop-color:#453E1B"/>
		</linearGradient>
		<path style="fill:url(#SVGID_00000069361142232751980340000009685996670649208749_);" d="M10.6,66.6c-1.5,0-2.9,0-4.4,0
			c-1.3,0-2.4-0.7-2.4-2C3.7,60.8,3.3,57,4.1,53.2c0.4-1.9,1.3-3.6,2.5-5.1c0.5-0.7,1-1,1.8-0.2c2,1.9,4.3,3.2,7,3.7
			c1,0.2,1.1,0.6,1,1.6c-0.5,4.1-0.6,8.2-0.1,12.3c0.1,1-0.2,1.3-1.1,1.2C13.6,66.6,12.1,66.6,10.6,66.6
			C10.6,66.6,10.6,66.6,10.6,66.6z"/>
	</g>
</g>
</svg>
