<?xml version="1.0" encoding="utf-8"?>
<!-- Generator: Adobe Illustrator 27.8.0, SVG Export Plug-In . SVG Version: 6.00 Build 0)  -->
<svg version="1.1" id="Layer_1" xmlns="http://www.w3.org/2000/svg" xmlns:xlink="http://www.w3.org/1999/xlink" x="0px" y="0px"
	 viewBox="0 0 80 80" style="enable-background:new 0 0 80 80;" xml:space="preserve">
<style type="text/css">
	.st0{fill:url(#SVGID_1_);}
	.st1{fill:url(#SVGID_00000179616609944615762490000017620505410960625028_);}
	.st2{fill:url(#SVGID_00000152245552465614005390000000879691818654875838_);}
	.st3{fill:url(#SVGID_00000113343110473427422120000005474696896384951974_);}
	.st4{fill:url(#SVGID_00000101801866304582642020000012482911687249713064_);}
	.st5{fill:url(#SVGID_00000016779257266526669780000011408586009441304998_);}
	.st6{fill:url(#SVGID_00000052081452103919253460000009102954533784836543_);}
	.st7{fill:url(#SVGID_00000153684305437202174260000008721994588577829038_);}
	.st8{fill:url(#SVGID_00000009576691278788917310000017669061644849306034_);}
	.st9{fill:url(#SVGID_00000154397767269878778700000003850281352628992658_);}
	.st10{fill:url(#SVGID_00000128445593450335223630000006167068831051154343_);}
	.st11{fill:url(#SVGID_00000117678194280563760030000002769160400427269045_);}
	.st12{fill:url(#SVGID_00000111876651052062794560000000893248055868619669_);}
	.st13{fill:url(#SVGID_00000037693615701051371560000006311008072618343831_);}
	.st14{fill:url(#SVGID_00000183945051670453634050000012604101738404452226_);}
	.st15{fill:url(#SVGID_00000124142891669921226430000002831556086431403143_);}
	.st16{fill:url(#SVGID_00000082346752002171484280000015954793720944833684_);}
	.st17{fill:url(#SVGID_00000057846260927988794730000016919104168546960783_);}
</style>
<g id="SbK6Sp.tif">
	<g>
		<linearGradient id="SVGID_1_" gradientUnits="userSpaceOnUse" x1="16.921" y1="-0.6708" x2="72.4468" y2="60.3731">
			<stop  offset="0" style="stop-color:#a801bd"/>
			<stop  offset="1" style="stop-color:#453E1B"/>
		</linearGradient>
		<path class="st0" d="M64.7,5.9c0.9,0.2,1.8,0.5,2.7,0.7c2.9,0.7,4.7,2.5,5.7,5.2c1.7,4.9,1.3,9.9-0.2,14.8
			c-2.3,7.7-7.2,13.5-13.2,18.5c-6.3,5.2-13.2,9.6-20.3,13.5c-1.1,0.6-2.1,1.3-3.2,1.9c-3.4,1.7-7.2,1.2-10-1.4
			c-1.8-1.7-3.5-3.4-5.2-5.2c-3.2-3.4-3.6-7.2-1.2-11.2c3.6-6.2,7-12.7,11.4-18.4c3.4-4.4,6.8-8.9,11.3-12.3c4.4-3.3,9.3-5.3,14.7-6
			c0.2,0,0.4-0.1,0.6-0.2C60,5.9,62.3,5.9,64.7,5.9z M54.9,16.8c-4.8,0-8.5,3.7-8.5,8.4c0.1,4.5,3.9,8.3,8.4,8.3
			c4.5,0,8.3-3.8,8.4-8.3C63.3,20.6,59.5,16.8,54.9,16.8z"/>
		
			<linearGradient id="SVGID_00000039105225387419603010000000276500472461616533_" gradientUnits="userSpaceOnUse" x1="-17.023" y1="30.2049" x2="38.5028" y2="91.2488">
			<stop  offset="0" style="stop-color:#a801bd"/>
			<stop  offset="1" style="stop-color:#453E1B"/>
		</linearGradient>
		<path style="fill:url(#SVGID_00000039105225387419603010000000276500472461616533_);" d="M5.9,65.7c0.4-3.1,0.6-6.1,1.3-9.2
			c0.8-3.5,2.8-5.9,5.8-7.7c0.9-0.6,1.3-0.3,1.5,0.7c0.3,2.8,1.6,5.1,3.6,7.1c1.7,1.7,3.4,3.4,5.1,5.1c2,2,4.4,3.3,7.2,3.6
			c1.2,0.1,1.1,0.6,0.7,1.5c-2.3,4.1-6,5.8-10.4,6.4c-4,0.5-7.9,0.9-11.9,0.9c-1.2,0-2.1-0.3-2.8-1.2C5.9,70.5,5.9,68.1,5.9,65.7z"
			/>
		
			<linearGradient id="SVGID_00000122701367119270554960000004455128666580573607_" gradientUnits="userSpaceOnUse" x1="1.739" y1="13.1388" x2="57.2649" y2="74.1827">
			<stop  offset="0" style="stop-color:#a801bd"/>
			<stop  offset="1" style="stop-color:#453E1B"/>
		</linearGradient>
		<path style="fill:url(#SVGID_00000122701367119270554960000004455128666580573607_);" d="M5.9,40.7c1.3-4.4,3.1-8.5,6-12.1
			c3.7-4.6,8-8.4,14-9.7c1.1-0.2,2.2-0.5,3.3-0.4c0.3,0,0.7-0.1,0.8,0.2c0.1,0.3-0.2,0.6-0.4,0.8c-2.4,3.3-4.8,6.6-6.9,10.1
			c-1.9,3.1-3.7,6.2-5.5,9.4c-0.4,0.7-0.9,1.1-1.7,1.3c-2,0.6-3.7,1.6-5.4,2.8c-1.9,1.5-2.5,1.4-4.3-0.1C5.9,42.3,5.9,41.5,5.9,40.7
			z"/>
		
			<linearGradient id="SVGID_00000147941278950196661410000008670809452335497365_" gradientUnits="userSpaceOnUse" x1="3.337" y1="11.6853" x2="58.8628" y2="72.7292">
			<stop  offset="0" style="stop-color:#a801bd"/>
			<stop  offset="1" style="stop-color:#453E1B"/>
		</linearGradient>
		<path style="fill:url(#SVGID_00000147941278950196661410000008670809452335497365_);" d="M61.3,51c-0.3,3.8-1.4,7.5-3.8,10.6
			C52.8,67.8,46.7,72,39,73.9c-0.3,0.1-0.6,0.1-0.9,0.2c-1,0.1-1.8-0.2-2.2-1.1c-0.5-0.9-0.4-1.8,0.3-2.6c1.7-2,2.9-4.2,3.6-6.7
			c0.2-0.7,0.7-1,1.2-1.3c6.7-3.7,13.2-7.7,19.3-12.4c0.2-0.2,0.5-0.5,0.8-0.3C61.5,49.9,61.2,50.4,61.3,51z"/>
	</g>
</g>
</svg>
