<?xml version="1.0" encoding="utf-8"?>
<!-- Generator: Adobe Illustrator 27.8.0, SVG Export Plug-In . SVG Version: 6.00 Build 0)  -->
<svg version="1.1" id="Layer_1" xmlns="http://www.w3.org/2000/svg" xmlns:xlink="http://www.w3.org/1999/xlink" x="0px" y="0px"
	 viewBox="0 0 80 80" style="enable-background:new 0 0 80 80;" xml:space="preserve">
<style type="text/css">
	.st0{fill:url(#SVGID_1_);}
	.st1{fill:url(#SVGID_00000165220383596017217680000007162799540578445461_);}
	.st2{fill:url(#SVGID_00000112633120364467706820000003256191883053889176_);}
	.st3{fill:url(#SVGID_00000078742382171146443700000005189005537801786507_);}
	.st4{fill:url(#SVGID_00000145740966353668879430000005296924099575833997_);}
	.st5{fill:url(#SVGID_00000049936879300581979630000000547218834392937110_);}
	.st6{fill:url(#SVGID_00000133496296005389411200000006654953757853787035_);}
	.st7{fill:url(#SVGID_00000031912585990761212930000013755498340757419697_);}
	.st8{fill:url(#SVGID_00000067205317606430445140000014151720397331291777_);}
	.st9{fill:url(#SVGID_00000032642929695830053320000004176430285811950742_);}
	.st10{fill:url(#SVGID_00000110447673217722244380000008202142346016876988_);}
	.st11{fill:url(#SVGID_00000003819566609644266340000000576465378393958026_);}
	.st12{fill:url(#SVGID_00000052790783169656158330000009159880891415665809_);}
	.st13{fill:url(#SVGID_00000104691355361319766140000011383709128684226475_);}
	.st14{fill:url(#SVGID_00000011026323255749229990000012647574431652716161_);}
	.st15{fill:url(#SVGID_00000121980920231212185360000008359187744089484173_);}
	.st16{fill:url(#SVGID_00000045604523248918445880000011242569529133331874_);}
	.st17{fill:url(#SVGID_00000016795348623005404700000013542242196318696070_);}
</style>
<g id="Txd3mv.tif">
	<g>
		<linearGradient id="SVGID_1_" gradientUnits="userSpaceOnUse" x1="13.8896" y1="11.1785" x2="68.6396" y2="71.6785">
			<stop  offset="0" style="stop-color:#b00bc5"/>
			<stop  offset="1" style="stop-color:#453E1B"/>
		</linearGradient>
		<path class="st0" d="M4.4,35.9c0.7-4.3,1.8-8.4,3.9-12.2C14.1,12.8,23.1,6.3,35.3,4.7C54.6,2.2,72,15.1,75.1,34.4
			c1.7,10.1-0.7,19.4-7.1,27.6c-1.3,1.7-3.1,2-4.6,0.9c-1.4-1.1-1.6-3-0.3-4.6c4.3-5.7,6.5-12,6.2-19.1c-0.6-11.9-6.3-20.7-17-25.7
			C34.7,5.2,14.7,15.5,11,34.5c-1.6,8.2,0.1,15.9,5,22.8c0.2,0.3,0.5,0.7,0.7,1c1.1,1.6,0.9,3.5-0.4,4.5c-1.4,1.1-3.3,0.8-4.5-0.8
			c-3.6-4.5-5.9-9.6-7-15.2c-0.2-0.9-0.3-1.7-0.5-2.6C4.4,41.4,4.4,38.7,4.4,35.9z"/>
		
			<linearGradient id="SVGID_00000168797832088098215980000016244952808586658226_" gradientUnits="userSpaceOnUse" x1="-1.9805" y1="25.5403" x2="52.7695" y2="86.0403">
			<stop  offset="0" style="stop-color:#b00bc5"/>
			<stop  offset="1" style="stop-color:#453E1B"/>
		</linearGradient>
		<path style="fill:url(#SVGID_00000168797832088098215980000016244952808586658226_);" d="M19.1,75.6c-0.8-6.2,1.7-11,7-14.1
			c9.3-5.3,18.7-5.3,27.9,0.1c5.2,3.1,7.5,7.8,6.8,14C46.9,75.6,33,75.6,19.1,75.6z"/>
		
			<linearGradient id="SVGID_00000103244256007154114750000009050489748645062274_" gradientUnits="userSpaceOnUse" x1="13.8808" y1="11.1865" x2="68.6309" y2="71.6865">
			<stop  offset="0" style="stop-color:#b00bc5"/>
			<stop  offset="1" style="stop-color:#453E1B"/>
		</linearGradient>
		<path style="fill:url(#SVGID_00000103244256007154114750000009050489748645062274_);" d="M63.8,39.4c-0.1,5.9-1.7,10.7-4.9,15
			c-1.2,1.6-3,2-4.5,0.9c-1.4-1-1.7-2.8-0.6-4.4c2-2.8,3.3-5.8,3.6-9.3c0.7-8.2-4.3-15.1-10.6-17.7c-10.4-4.4-22.1,1.9-24.2,13
			c-0.9,4.6,0,8.9,2.6,12.9c0.3,0.4,0.6,0.8,0.9,1.3c1,1.6,0.7,3.3-0.7,4.3c-1.5,1-3.2,0.7-4.4-0.8c-2.6-3.3-4.2-7-4.7-11.1
			c-1.1-10.4,2.8-18.6,11.8-24c13.9-8.3,32.3,0.3,35.2,16.1C63.6,37,63.7,38.5,63.8,39.4z"/>
		
			<linearGradient id="SVGID_00000087391368006606492140000017092957636839009924_" gradientUnits="userSpaceOnUse" x1="13.8333" y1="11.2295" x2="68.5833" y2="71.7295">
			<stop  offset="0" style="stop-color:#b00bc5"/>
			<stop  offset="1" style="stop-color:#453E1B"/>
		</linearGradient>
		<path style="fill:url(#SVGID_00000087391368006606492140000017092957636839009924_);" d="M40,31.1c5.1,0,8.9,4,8.9,9.2
			c0,5-4,8.8-9.1,8.8c-5,0-8.9-4-8.8-9.1C30.9,34.9,34.9,31,40,31.1z"/>
	</g>
</g>
</svg>
