<?xml version="1.0" encoding="utf-8"?>
<!-- Generator: Adobe Illustrator 27.8.0, SVG Export Plug-In . SVG Version: 6.00 Build 0)  -->
<svg version="1.1" id="Layer_1" xmlns="http://www.w3.org/2000/svg" xmlns:xlink="http://www.w3.org/1999/xlink" x="0px" y="0px"
	 viewBox="0 0 80 80" style="enable-background:new 0 0 80 80;" xml:space="preserve">
<style type="text/css">
	.st0{fill:url(#SVGID_1_);}
	.st1{fill:url(#SVGID_00000165195635456930542510000006276590547487592885_);}
	.st2{fill:url(#SVGID_00000147194340459109259850000006586603423659345585_);}
	.st3{fill:url(#SVGID_00000049906314719004526350000016995340509932279441_);}
	.st4{fill:url(#SVGID_00000140695203370552580840000016559928830496607128_);}
	.st5{fill:url(#SVGID_00000102512683605119636860000017130582777388115843_);}
	.st6{fill:url(#SVGID_00000100365239232781816310000003001311100534589368_);}
	.st7{fill:url(#SVGID_00000103234664204067416270000012081532830916459926_);}
	.st8{fill:url(#SVGID_00000038390860751192524030000009102844303315398029_);}
	.st9{fill:url(#SVGID_00000155115082998281685370000012001516849957329337_);}
	.st10{fill:url(#SVGID_00000051374744841456706800000007870539767894339763_);}
	.st11{fill:url(#SVGID_00000055688871895696900660000009619962584278418077_);}
	.st12{fill:url(#SVGID_00000000942923144244873930000001019145381407320210_);}
	.st13{fill:url(#SVGID_00000099658058867243361470000015612182133761560249_);}
	.st14{fill:url(#SVGID_00000076593368169204798720000008347676354607204273_);}
	.st15{fill:url(#SVGID_00000041286167856508001690000014243765773839582143_);}
	.st16{fill:url(#SVGID_00000105405121550808416530000004892891490173839805_);}
	.st17{fill:url(#SVGID_00000042699039799823766420000015410209839612827555_);}
</style>
<g id="tAGeqG.tif">
	<g>
		<linearGradient id="SVGID_1_" gradientUnits="userSpaceOnUse" x1="5.9789" y1="15.7895" x2="65.5728" y2="71.4433">
			<stop  offset="0" style="stop-color:#a801bd"/>
			<stop  offset="1" style="stop-color:#453E1B"/>
		</linearGradient>
		<path class="st0" d="M74.4,30.7c0,9.3,0,18.6,0,28c0,0.2-0.1,0.4-0.1,0.6c-0.8,7.5-7.2,15.3-18.4,15.2c-10.6-0.1-21.2,0-31.9,0
			c-1.5,0-3-0.1-4.5-0.4c-8.4-1.8-13.8-8.7-13.9-17.4c0-7.9,0-15.7,0-23.6c0-2.4,0-2.4,2.4-2.4c21.4,0,42.9,0,64.3,0
			C73,30.5,73.7,30.6,74.4,30.7z M29.3,47.8c0,3.4,0,6.9,0,10.3c0,1.3,0.3,2.4,1.6,3c1.2,0.6,2.4,0.3,3.4-0.4
			c4.9-3.4,9.8-6.8,14.7-10.3c2.3-1.7,2.3-3.8,0-5.4c-4.9-3.4-9.8-6.8-14.7-10.3c-1.1-0.7-2.2-1.1-3.4-0.5c-1.3,0.7-1.6,1.8-1.6,3.2
			C29.4,40.9,29.3,44.3,29.3,47.8z"/>
		
			<linearGradient id="SVGID_00000054252643224151813560000010193876563595010702_" gradientUnits="userSpaceOnUse" x1="31.2126" y1="-11.2306" x2="90.8065" y2="44.4232">
			<stop  offset="0" style="stop-color:#a801bd"/>
			<stop  offset="1" style="stop-color:#453E1B"/>
		</linearGradient>
		<path style="fill:url(#SVGID_00000054252643224151813560000010193876563595010702_);" d="M74.4,24.5c-6.3,0-12.5,0-18.8,0.1
			c-0.7,0-1.1-0.3-1.3-0.9c-1.9-5.8-3.9-11.7-5.8-17.5c-0.1-0.2,0-0.4,0-0.6c3.4,0,6.8,0,10.2,0c3.7,0.6,7.2,1.9,10,4.5
			c3.3,3,5.1,6.9,5.7,11.2C74.4,22.4,74.4,23.5,74.4,24.5z"/>
		
			<linearGradient id="SVGID_00000057834688647455418460000000764768718197550227_" gradientUnits="userSpaceOnUse" x1="10.4431" y1="10.993" x2="70.037" y2="66.6468">
			<stop  offset="0" style="stop-color:#a801bd"/>
			<stop  offset="1" style="stop-color:#453E1B"/>
		</linearGradient>
		<path style="fill:url(#SVGID_00000057834688647455418460000000764768718197550227_);" d="M23.4,5.6c1.9,5.7,3.8,11.4,5.7,17.1
			c0.6,1.8,0.5,1.9-1.3,1.9c-6.7,0-13.4,0-20,0c-2,0-2.2-0.2-2.1-2.3c0.6-8.8,6.4-15.2,15.2-16.5c0.2,0,0.4-0.1,0.6-0.2
			C22.1,5.6,22.8,5.6,23.4,5.6z"/>
		
			<linearGradient id="SVGID_00000129926666657957750070000006356735869203284367_" gradientUnits="userSpaceOnUse" x1="21.8033" y1="-1.1552" x2="81.3972" y2="54.4986">
			<stop  offset="0" style="stop-color:#a801bd"/>
			<stop  offset="1" style="stop-color:#453E1B"/>
		</linearGradient>
		<path style="fill:url(#SVGID_00000129926666657957750070000006356735869203284367_);" d="M42.1,5.6c1.9,5.7,3.8,11.4,5.7,17.1
			c0.6,1.8,0.5,1.9-1.3,1.9c-3,0-6,0-9,0c-0.8,0-1.5-0.1-1.8-1.1c-1.9-5.7-3.8-11.4-5.7-17.1c-0.1-0.3-0.1-0.6-0.1-0.9
			C33.9,5.6,38,5.6,42.1,5.6z"/>
	</g>
</g>
</svg>
