<?xml version="1.0" encoding="UTF-8"?>
<svg id="Layer_1" data-name="Layer 1" xmlns="http://www.w3.org/2000/svg" viewBox="0 0 197.2 197.2">
  <defs>
    <style>
      .cls-1 {
        fill: #fff;
      }

      .cls-1, .cls-2 {
        stroke-width: 0px;
      }

      .cls-2 {
        fill: #a801bd;
      }
    </style>
  </defs>
  <circle class="cls-2" cx="98.6" cy="98.6" r="98.6"/>
  <g id="khCWUL.tif">
    <g>
      <path class="cls-1" d="m67.35,75.25c.65,4.74-.24,9.45-.27,14.18-.02,2.99-.29,5.98-.29,8.98.02,7.3,5.53,13.32,12.66,13.94,7.19.63,13.63-4.22,15.12-11.38.56-2.71.39-5.47.52-8.21.08-1.65.74-2.31,2.38-2.48,11.92-1.19,23.83-2.49,35.75-3.68,4.13-.41,7.06,1.88,7.72,5.74.99,5.8-.46,9-4.84,10.21-1.44.39-1.9.94-1.68,2.4.33,2.22.49,4.46.69,6.7.49,5.29-2.39,8.9-7.73,9.32-2.33.18-3.42.73-3.74,3.38-.78,6.32-5.87,10.71-12.26,11.08-6.97.4-13.95.76-20.93,1.08-1.46.07-2.79.18-3.82,1.41-1.01,1.21-1.96.82-2.93-.15-9.74-9.76-19.48-19.52-29.25-29.26-.93-.92-1.06-1.98-.98-3.19.61-9.49,3.68-18.03,9.71-25.46.26-.32.42-.71.63-1.07,1.18-1.18,2.36-2.36,3.53-3.53Z"/>
      <path class="cls-1" d="m80.43,62.17c5.96-4.25,12.39-7.33,19.64-8.8,5.04-1.02,8.83-.36,12.55,3.81,6.63,7.42,13.98,14.2,21.01,21.26.5.5,1.45.94,1.15,1.74-.31.83-1.32.45-2.02.53-11.41,1.21-22.84,2.33-34.24,3.67-2.64.31-3.24-.55-2.89-2.89.17-1.15.11-2.32.13-3.49.04-2.01-.74-3.53-2.91-3.58-2.1-.05-2.82,1.49-2.9,3.34-.3,6.48-.61,12.96-.84,19.44-.11,3.08-1.05,5.68-3.65,7.54-2.67,1.9-5.45,2.31-8.44.82-2.99-1.49-4.53-4.03-4.43-7.23.28-9.06.76-18.11,1.25-27.16.06-1.13.62-2.23.95-3.34,1.88-1.88,3.77-3.77,5.65-5.65Z"/>
      <path class="cls-1" d="m35.53,125.4c4.08-4.14,8.19-8.26,12.24-12.43,1.49-1.53,2.47-.52,3.51.53,6.27,6.28,12.55,12.55,18.82,18.82,3.34,3.34,6.72,6.65,10.01,10.04,3.67,3.76,3.62,7.57-.1,11.32-2.69,2.71-5.45,5.36-8.18,8.03-12.1-12.1-24.2-24.2-36.31-36.31Zm38.1,20.6c-1.35-1.13-2.76-1.19-3.94.13-1.13,1.27-1.15,2.83.14,3.99,1.18,1.06,2.59,1.02,3.77-.18,1.26-1.28,1.25-2.61.02-3.95Z"/>
      <path class="cls-1" d="m144.33,53.02c5.34,5.34,10.62,10.74,16.06,15.99,1.76,1.7,1.7,2.85-.06,4.42-2.11,1.88-4.02,3.98-6.03,5.97-3.88,3.84-7.56,3.87-11.48,0-5.49-5.42-10.93-10.91-16.39-16.37-4.11-4.11-8.17-8.26-12.35-12.3-1.53-1.48-1.64-2.57-.03-4.1,3.44-3.27,6.78-6.63,10.06-10.06,1.44-1.51,2.46-1.39,3.87.05,5.4,5.52,10.89,10.94,16.35,16.4Zm6.34,19.9c1.05-1.24,1.14-2.7-.14-3.87-1.25-1.13-2.86-1.1-4.02.16-1.07,1.16-1.08,2.59.11,3.8,1.28,1.31,2.62,1.18,4.05-.09Z"/>
    </g>
  </g>
</svg>