<?xml version="1.0" encoding="utf-8"?>
<!-- Generator: Adobe Illustrator 27.8.0, SVG Export Plug-In . SVG Version: 6.00 Build 0)  -->
<svg version="1.1" id="Layer_1" xmlns="http://www.w3.org/2000/svg" xmlns:xlink="http://www.w3.org/1999/xlink" x="0px" y="0px"
	 viewBox="0 0 197.2 197.2" style="enable-background:new 0 0 197.2 197.2;" xml:space="preserve">
<style type="text/css">
	.st0{fill:#b00bc5;}
	.st1{fill:#fff;}
	.st2{fill:none;stroke:#b00bc5;stroke-miterlimit:10;}
</style>
<g>
	<circle class="st0" cx="98.6" cy="98.6" r="98.6"/>
</g>
<path class="st2" d="M456.2,260.7H-1028c-12.7,0-23-10.3-23-23v-362.4c0-12.7,10.3-23,23-23H456.2c12.7,0,23,10.3,23,23v362.4
	C479.2,250.4,468.9,260.7,456.2,260.7z"/>
<g id="jfYzXx.tif">
	<g>
		<path class="st1" d="M49.5,95.2c0-16.8,0-33.7,0-50.5c0-1.7,0.3-2,2-2c30.8,0.1,61.5,0,92.3,0c2.8,1.6,4,4,4,7.1
			c0,14.3,0,28.6,0,42.9c0,5.2-2.4,7.5-7.6,7.5c-27.7,0-55.3,0-83,0C53.4,100.3,50.7,98.9,49.5,95.2z M117.4,51.3
			c-2.7,0-5.4,0-8.1,0c-2.1,0-3.8,0.6-3.9,3c-0.1,2.6,1.8,3.2,3.9,3.3c2,0.1,4.1,0,6.1,0c0.7,0,1.7-0.3,2,0.6
			c0.3,0.8-0.6,1.3-1.1,1.8c-5.3,5.3-10.7,10.6-16,16c-1.3,1.3-2.3,1.2-3.5,0c-2-2.1-4-4.2-6.1-6.1c-2.2-2.1-3.6-2.1-5.8,0
			c-2.6,2.5-5.2,5.1-7.7,7.7c-2.8,2.8-5.7,5.7-8.4,8.5c-1,1-1.4,2.2-0.9,3.6c0.5,1.1,1.4,1.8,2.5,1.9c1.4,0.1,2.4-0.8,3.3-1.8
			c3.8-3.8,7.7-7.5,11.4-11.5c1.9-2,3.2-2.4,5.1-0.1c1.5,1.8,3.2,3.3,4.9,5c2.6,2.6,4,2.6,6.6,0.1c2.7-2.6,5.3-5.3,7.9-7.9
			c3.7-3.7,7.4-7.4,11.1-11c0.5-0.5,1-1.3,1.9-0.8c0.6,0.4,0.5,1.2,0.5,1.8c0,2.1,0,4.3,0,6.4c0,2.1,0.6,3.8,3,3.9
			c2.4,0.1,3.2-1.7,3.2-3.7c0.1-5.5,0.1-11,0-16.5c-0.1-2.8-1.3-3.9-4.3-3.9C122.6,51.2,120,51.3,117.4,51.3z"/>
		<path class="st1" d="M132.2,154.5c-4,0-8-0.1-12,0c-2.2,0.1-3.3-0.7-3.2-3c0.1-3.2-0.2-6.3,0.3-9.5c0.8-5.1,4.7-8.8,9.8-9
			c3.3-0.2,6.7-0.2,10,0c5.4,0.3,9.6,4.4,10,9.8c0.2,3.1,0,6.1,0.1,9.2c0,1.8-0.8,2.6-2.5,2.5c-0.2,0-0.4,0-0.6,0
			C140.2,154.5,136.2,154.5,132.2,154.5z"/>
		<path class="st1" d="M65,154.5c-4,0-8-0.1-12,0c-2.2,0.1-3.3-0.7-3.2-3c0.1-2.7-0.1-5.4,0.1-8.1c0.3-5.9,4.7-10.3,10.6-10.4
			c3-0.1,5.9-0.1,8.9,0c5.6,0.2,9.6,3.8,10.5,9.3c0.5,3.2,0.2,6.5,0.3,9.7c0,1.7-0.8,2.6-2.6,2.5c-0.2,0-0.4,0-0.6,0
			C73,154.5,69,154.5,65,154.5z"/>
		<path class="st1" d="M98.3,154.5c-3.9,0-7.8-0.1-11.7,0c-2.2,0.1-3.3-0.7-3.2-3c0.1-2.6-0.1-5.2,0.1-7.8
			c0.3-6.4,4.8-10.6,11.2-10.8c2.6,0,5.2,0,7.8,0c6.2,0.1,10.7,4.1,11.2,10.2c0.2,3,0.1,5.9,0.1,8.9c0,1.8-0.9,2.5-2.6,2.4
			c-0.2,0-0.4,0-0.6,0C106.5,154.5,102.4,154.5,98.3,154.5z"/>
		<path class="st1" d="M75.4,120.5c0,5.8-4.6,10.5-10.4,10.5c-5.6,0-10.5-4.9-10.5-10.5c0-5.7,4.8-10.4,10.5-10.4
			C70.8,110.1,75.4,114.7,75.4,120.5z"/>
		<path class="st1" d="M108.9,120.4c0,5.8-4.6,10.6-10.3,10.6c-5.7,0-10.4-4.7-10.4-10.5c0-5.7,4.6-10.3,10.2-10.4
			C104.2,110,108.9,114.6,108.9,120.4z"/>
		<path class="st1" d="M121.8,120.5c0-5.8,4.6-10.5,10.3-10.5c5.7,0,10.5,4.8,10.5,10.4c0,5.6-4.8,10.5-10.5,10.5
			C126.5,131,121.8,126.4,121.8,120.5z"/>
	</g>
</g>
</svg>
