<?xml version="1.0" encoding="utf-8"?>
<!-- Generator: Adobe Illustrator 27.8.0, SVG Export Plug-In . SVG Version: 6.00 Build 0)  -->
<svg version="1.1" id="Layer_1" xmlns="http://www.w3.org/2000/svg" xmlns:xlink="http://www.w3.org/1999/xlink" x="0px" y="0px"
	 viewBox="0 0 80 80" style="enable-background:new 0 0 80 80;" xml:space="preserve">
<style type="text/css">
	.st0{fill:url(#SVGID_1_);}
	.st1{fill:url(#SVGID_00000170263096707489332550000015273580158647068598_);}
	.st2{fill:url(#SVGID_00000161624229006869747470000000109146726754232231_);}
	.st3{fill:url(#SVGID_00000026127737498727399120000011625744618778881965_);}
	.st4{fill:url(#SVGID_00000139259843024395575080000002667305664227062440_);}
	.st5{fill:url(#SVGID_00000055686098960522440260000015779561184887161762_);}
	.st6{fill:url(#SVGID_00000078036854816471903960000010163563757701502098_);}
	.st7{fill:url(#SVGID_00000026153566926814045990000001326680198259418501_);}
	.st8{fill:url(#SVGID_00000007410199601941814360000003832810738961905829_);}
	.st9{fill:url(#SVGID_00000057859803675701740210000016733413522934580372_);}
	.st10{fill:url(#SVGID_00000134969574447643861550000001259664851837247644_);}
	.st11{fill:url(#SVGID_00000089537383649317054980000013046160402692263866_);}
	.st12{fill:url(#SVGID_00000036973296685710500130000013968426755060566678_);}
	.st13{fill:url(#SVGID_00000005248847011903898110000009579703898360237717_);}
</style>
<g id="oofDjR.tif">
	<g>
		<linearGradient id="SVGID_1_" gradientUnits="userSpaceOnUse" x1="15.3503" y1="14.1249" x2="66.809" y2="72.016">
			<stop  offset="0" style="stop-color:#b00bc5"/>
			<stop  offset="1" style="stop-color:#453E1B"/>
		</linearGradient>
		<path class="st0" d="M61.1,31.4c0,7.8,0,15.6,0,23.4c0,2.4,0,2.4,2.3,2.4c1.9,0,3.8,0,5.7,0c1.8,0,2.4,0.7,2.5,2.5
			c0.2,8.4-5.4,14.2-14.3,15C50,75.4,42.6,75,35.3,75.1c-4.8,0-9.7,0.4-14.5-0.6c-3.9-0.8-7.4-2.4-9.8-5.7c-1.9-2.6-2.6-5.6-2.6-8.8
			c0-2,0.6-2.7,2.6-2.7c6.9,0,13.8,0,20.6,0c7.9,0,15.8,0,23.7,0c1.7,0,2-0.3,1.8-2c-0.1-0.8-0.4-1.1-1.1-1.1c-0.5,0-1.1,0-1.6,0
			c-10.8,0-21.5,0-32.3,0c-0.5,0-1,0-1.5,0c-1-0.1-1.6-0.6-1.8-1.6c-0.2-1,0.2-1.7,1.2-2.1c5.9-2.2,10.8-6,15.2-10.4
			C44.8,30.6,52.2,19.8,57,7.4c0.1-0.3,0.2-0.6,0.3-0.9c0.4-1,1-1.7,2.2-1.5c1.2,0.2,1.6,1.1,1.6,2.3C61.1,15.3,61.1,23.3,61.1,31.4
			z"/>
	</g>
</g>
</svg>
