<?xml version="1.0" encoding="utf-8"?>
<!-- Generator: Adobe Illustrator 27.8.0, SVG Export Plug-In . SVG Version: 6.00 Build 0)  -->
<svg version="1.1" id="katman_1" xmlns="http://www.w3.org/2000/svg" xmlns:xlink="http://www.w3.org/1999/xlink" x="0px" y="0px"
	 viewBox="0 0 153.6 9.6" style="enable-background:new 0 0 153.6 9.6;" xml:space="preserve">
<style type="text/css">
	.st0{fill:#191919;}
	.st1{fill:#00B67A;}
	.st2{fill:#005128;}
	.st3{fill:#DCDCE6;}
	.st4{fill:#FFFFFF;}
</style>
<g>
	<g>
		<g>
			<path id="Shape" class="st0" d="M116,1h5.2v1h-2v5.4H118V2h-2V1L116,1z M120.9,2.7h1v0.9l0,0c0-0.1,0.1-0.2,0.2-0.4
				s0.2-0.2,0.3-0.3s0.3-0.2,0.4-0.2c0.1-0.1,0.3-0.1,0.5-0.1c0.1,0,0.2,0,0.2,0h0.1v1c-0.1,0-0.1,0-0.2,0s-0.1,0-0.2,0
				c-0.2,0-0.3,0-0.5,0.1c-0.2,0.1-0.3,0.2-0.4,0.3s-0.2,0.3-0.3,0.5s-0.1,0.4-0.1,0.7v2.2h-1V2.7L120.9,2.7z M128.3,7.4h-1V6.8l0,0
				c-0.1,0.2-0.3,0.4-0.6,0.6c-0.2,0.1-0.5,0.2-0.8,0.2c-0.6,0-1-0.1-1.3-0.5s-0.4-0.8-0.4-1.4V2.8h1v2.8c0,0.4,0.1,0.7,0.2,0.9
				c0.2,0.2,0.4,0.3,0.7,0.3c0.2,0,0.4,0,0.5-0.1s0.3-0.2,0.3-0.3c0.1-0.1,0.2-0.2,0.2-0.4s0.1-0.3,0.1-0.5V2.8h1L128.3,7.4
				L128.3,7.4z M130,5.9c0,0.3,0.1,0.5,0.3,0.6s0.4,0.2,0.7,0.2c0.1,0,0.2,0,0.3,0s0.2,0,0.3-0.1c0.1,0,0.2-0.1,0.3-0.2
				s0.1-0.2,0.1-0.3c0-0.1-0.1-0.2-0.1-0.3c-0.1-0.1-0.2-0.1-0.3-0.2c-0.1,0-0.3-0.1-0.5-0.1s-0.4-0.1-0.5-0.1
				c-0.2,0-0.4-0.1-0.5-0.2c-0.1-0.1-0.3-0.1-0.5-0.2c-0.1-0.1-0.3-0.2-0.3-0.4c-0.1-0.2-0.1-0.4-0.1-0.6c0-0.3,0.1-0.5,0.2-0.6
				c0.1-0.1,0.3-0.3,0.5-0.4c0.2-0.1,0.4-0.2,0.6-0.2s0.5-0.1,0.7-0.1s0.5,0,0.7,0.1c0.2,0,0.4,0.1,0.6,0.2s0.3,0.3,0.4,0.4
				c0.1,0.2,0.2,0.4,0.2,0.7H132c0-0.2-0.2-0.4-0.3-0.5c-0.3-0.1-0.5-0.2-0.7-0.2c-0.1,0-0.2,0-0.3,0s-0.2,0-0.3,0.1
				c-0.1,0-0.2,0.1-0.2,0.1c-0.1,0.1-0.1,0.1-0.1,0.2s0,0.2,0.1,0.3c0.1,0.1,0.2,0.1,0.3,0.2c0.1,0,0.3,0.1,0.5,0.1s0.4,0.1,0.6,0.1
				s0.4,0.1,0.5,0.2c0.2,0.1,0.3,0.1,0.5,0.2s0.3,0.2,0.3,0.4c0.1,0.2,0.1,0.3,0.1,0.6c0,0.3-0.1,0.5-0.2,0.7
				c-0.1,0.2-0.3,0.3-0.5,0.5c-0.1,0.2-0.3,0.3-0.5,0.3s-0.5,0.1-0.7,0.1c-0.3,0-0.6,0-0.8-0.1c-0.2-0.1-0.5-0.2-0.6-0.3
				c-0.2-0.1-0.3-0.3-0.4-0.5c-0.2-0.2-0.3-0.4-0.3-0.7H130L130,5.9z M133.4,2.7h0.8V1.4h1v1.4h0.9v0.8h-0.9v2.5c0,0.1,0,0.2,0,0.3
				c0,0.1,0,0.1,0.1,0.2c0.1,0.1,0.1,0.1,0.1,0.1c0.1,0,0.2,0,0.3,0s0.1,0,0.2,0c0.1,0,0.1,0,0.2,0v0.7c-0.1,0-0.2,0-0.3,0
				s-0.2,0-0.3,0c-0.3,0-0.5,0-0.6-0.1c-0.2,0-0.3-0.1-0.4-0.2c-0.1-0.1-0.2-0.2-0.2-0.4c0-0.1-0.1-0.3-0.1-0.5V3.5h-0.8V2.7
				L133.4,2.7z M136.8,2.7h1v0.7l0,0c0.1-0.3,0.3-0.5,0.6-0.6s0.5-0.2,0.8-0.2c0.4,0,0.7,0.1,1,0.2c0.3,0.1,0.5,0.3,0.7,0.5
				s0.3,0.5,0.4,0.8c0.1,0.3,0.1,0.6,0.1,1c0,0.3,0,0.6-0.1,0.9c-0.1,0.3-0.2,0.5-0.4,0.8c-0.2,0.2-0.4,0.4-0.6,0.5
				c-0.3,0.1-0.5,0.2-0.9,0.2c-0.1,0-0.3,0-0.4,0c-0.1,0-0.3-0.1-0.4-0.1c-0.1-0.1-0.3-0.1-0.4-0.2c-0.1-0.1-0.2-0.2-0.3-0.3l0,0
				v2.3h-1L136.8,2.7L136.8,2.7z M140.4,5.1c0-0.2,0-0.4-0.1-0.6c-0.1-0.2-0.1-0.4-0.2-0.5s-0.2-0.3-0.4-0.4
				c-0.2-0.1-0.3-0.1-0.6-0.1c-0.4,0-0.8,0.1-1,0.4s-0.3,0.7-0.3,1.2c0,0.2,0,0.5,0.1,0.6c0.1,0.2,0.1,0.4,0.3,0.5
				c0.1,0.1,0.2,0.3,0.4,0.3c0.2,0.1,0.3,0.1,0.5,0.1s0.4,0,0.6-0.1s0.3-0.2,0.4-0.4c0.1-0.2,0.2-0.3,0.2-0.5
				C140.3,5.5,140.4,5.3,140.4,5.1z M142.2,1h1v1h-1V1z M142.2,2.7h1v4.7h-1V2.7z M144.1,1h1v6.4h-1V1z M148.2,7.5
				c-0.4,0-0.7-0.1-1-0.2s-0.5-0.3-0.7-0.5S146.1,6.3,146,6c-0.1-0.3-0.2-0.6-0.2-1s0.1-0.7,0.2-1c0.1-0.3,0.3-0.6,0.5-0.8
				s0.4-0.4,0.7-0.5s0.6-0.2,1-0.2c0.4,0,0.7,0.1,1,0.2c0.3,0.1,0.5,0.3,0.7,0.5s0.4,0.5,0.5,0.8c0.1,0.3,0.2,0.6,0.2,1
				s-0.1,0.7-0.2,1c-0.1,0.3-0.3,0.6-0.5,0.8c-0.2,0.2-0.4,0.4-0.7,0.5C148.9,7.4,148.6,7.5,148.2,7.5z M148.2,6.7
				c0.2,0,0.4,0,0.6-0.1s0.3-0.2,0.4-0.4c0.1-0.2,0.2-0.3,0.2-0.5s0.1-0.4,0.1-0.6s0-0.4-0.1-0.6c0-0.2-0.1-0.4-0.2-0.5
				c-0.1-0.1-0.2-0.3-0.4-0.4c-0.2-0.1-0.4-0.1-0.6-0.1s-0.4,0-0.6,0.1s-0.3,0.2-0.4,0.4c-0.1,0.2-0.2,0.3-0.2,0.5s-0.1,0.4-0.1,0.6
				s0,0.4,0.1,0.6c0,0.2,0.1,0.4,0.2,0.5c0.1,0.2,0.2,0.3,0.4,0.4C147.8,6.6,148,6.7,148.2,6.7z M150.9,2.7h0.8V1.4h1v1.4h0.9v0.8
				h-0.9v2.5c0,0.1,0,0.2,0,0.3c0,0.1,0,0.1,0.1,0.2c0.1,0.1,0.1,0.1,0.1,0.1c0.1,0,0.2,0,0.3,0s0.1,0,0.2,0c0.1,0,0.1,0,0.2,0v0.7
				c-0.1,0-0.2,0-0.3,0s-0.2,0-0.3,0c-0.3,0-0.5,0-0.6-0.1c-0.2,0-0.3-0.1-0.4-0.2c-0.1-0.1-0.2-0.2-0.2-0.4c0-0.1-0.1-0.3-0.1-0.5
				V3.5h-0.8L150.9,2.7L150.9,2.7z"/>
			<g id="Star">
				<polygon id="Path" class="st1" points="110.7,3.4 107.6,3.4 106.6,0.4 105.6,3.4 102.6,3.4 105,5.2 104.1,8.2 106.6,6.3 
					109.1,8.2 108.2,5.2 				"/>
				<polygon id="Path_00000139974370896774244940000013599419466242447510_" class="st2" points="108.4,5.9 108.2,5.2 106.6,6.3 
									"/>
			</g>
		</g>
		<rect id="Rectangle" x="47.4" class="st1" width="9.6" height="9.6"/>
		<rect id="Rectangle_00000119823381696065812290000006309620969489227403_" x="57.7" class="st1" width="9.6" height="9.6"/>
		<rect id="Rectangle_00000111193577153650357570000000971353195221845171_" x="68.1" class="st1" width="9.6" height="9.6"/>
		<rect id="Rectangle_00000008833768892528033700000000322006702697863864_" x="78.4" class="st1" width="9.6" height="9.6"/>
		<rect id="Rectangle_00000134962926880305233990000003318531366453452990_" x="88.8" class="st3" width="9.6" height="9.6"/>
		<polygon id="Rectangle_00000044876543712720924350000008132246518786235026_" class="st1" points="88.8,0 93.6,0 93.6,9.5 
			88.8,9.5 		"/>
		<path id="Shape_00000004503963772281965500000004689748023012954798_" class="st4" d="M52.1,6.4L53.6,6l0.6,1.9L52.1,6.4z M55.5,4
			h-2.6l-0.8-2.4L51.3,4h-2.5l2.1,1.5l-0.8,2.4l2.1-1.5l1.3-0.9L55.5,4L55.5,4L55.5,4L55.5,4z"/>
		<path id="Shape_00000062892359206520126170000006215398374882685355_" class="st4" d="M62.5,6.4L64,6l0.6,1.9L62.5,6.4z M65.8,4
			h-2.6l-0.8-2.4L61.6,4H59l2.1,1.5l-0.8,2.4l2.1-1.5l1.3-0.9L65.8,4L65.8,4L65.8,4L65.8,4z"/>
		<path id="Shape_00000041986034659674372480000017210300048664811149_" class="st4" d="M72.9,6.4L74.4,6L75,7.9L72.9,6.4z M76.2,4
			h-2.6l-0.8-2.4L72,4h-2.6l2.1,1.5l-0.7,2.4l2.1-1.5l1.3-0.9L76.2,4L76.2,4L76.2,4L76.2,4z"/>
		<path id="Shape_00000155124147350657945740000004241176506388462744_" class="st4" d="M83.2,6.4L84.7,6l0.6,1.9L83.2,6.4z M86.6,4
			H84l-0.8-2.4L82.4,4h-2.6l2.1,1.5l-0.8,2.4l2.1-1.5l1.3-0.9L86.6,4L86.6,4L86.6,4L86.6,4z"/>
		<path id="Shape_00000131362776327819300620000011855054010791946398_" class="st4" d="M93.6,6.4L95.1,6l0.6,1.9L93.6,6.4z M96.9,4
			h-2.6l-0.8-2.4L92.8,4h-2.6l2.1,1.5l-0.8,2.4l2.1-1.5l1.3-0.9L96.9,4L96.9,4L96.9,4L96.9,4z"/>
	</g>
	<g>
		<path d="M0,1.4h4v0.9H1v1.8h2.8V5H1v1.9H4v0.9H0V1.4z"/>
		<path d="M6.4,5.5L4.8,3.3h1.1L7,4.9h0.1l1.2-1.6h1.1L7.8,5.5l1.7,2.3H8.4L7.2,6.1H7L5.8,7.8H4.7L6.4,5.5z"/>
		<path d="M10,5.6V5.5c0-1.4,1-2.3,2.3-2.3c1.3,0,2,0.8,2.2,1.7l-0.9,0.2C13.5,4.5,13.1,4,12.3,4c-0.8,0-1.4,0.5-1.4,1.5v0.1
			c0,0.9,0.6,1.5,1.4,1.5c0.8,0,1.2-0.5,1.3-1.1l0.9,0.2c-0.2,0.9-0.9,1.7-2.2,1.7C11,7.9,10,7.1,10,5.6z"/>
		<path d="M15.3,5.6V5.5c0-1.4,0.9-2.3,2.2-2.3c1.3,0,2.2,0.9,2.2,2.3v0.4h-3.4c0,0.8,0.6,1.3,1.3,1.3c0.7,0,1-0.4,1.2-0.8l0.8,0.4
			c-0.3,0.5-0.8,1.2-2,1.2C16.3,7.9,15.3,7,15.3,5.6z M18.8,5.1C18.7,4.4,18.3,4,17.6,4c-0.7,0-1.2,0.4-1.3,1.1H18.8z"/>
		<path d="M20.9,1.4h0.9v6.3h-0.9V1.4z"/>
		<path d="M23.2,1.4h0.9v6.3h-0.9V1.4z"/>
		<path d="M25.3,5.6V5.5c0-1.4,0.9-2.3,2.2-2.3c1.3,0,2.2,0.9,2.2,2.3v0.4h-3.4c0,0.8,0.6,1.3,1.3,1.3c0.7,0,1-0.4,1.2-0.8l0.8,0.4
			c-0.3,0.5-0.8,1.2-2,1.2C26.2,7.9,25.3,7,25.3,5.6z M28.7,5.1C28.7,4.4,28.2,4,27.5,4c-0.7,0-1.2,0.4-1.3,1.1H28.7z"/>
		<path d="M30.8,3.3h0.9V4h0.1c0.2-0.4,0.6-0.7,1.4-0.7c1,0,1.8,0.7,1.8,1.9v2.7h-0.9V5.2C34.1,4.4,33.7,4,33,4
			c-0.8,0-1.3,0.5-1.3,1.5v2.3h-0.9V3.3z"/>
		<path d="M37.1,6.9V4.1h-1.2V3.3h1.2V1.8H38v1.5h1.3v0.8H38v2.6C38,6.9,38.1,7,38.2,7h0.9v0.8h-1.2C37.4,7.8,37.1,7.4,37.1,6.9z"/>
	</g>
</g>
</svg>
