<?xml version="1.0" encoding="utf-8"?>
<!-- Generator: Adobe Illustrator 27.8.0, SVG Export Plug-In . SVG Version: 6.00 Build 0)  -->
<svg version="1.1" id="Layer_1" xmlns="http://www.w3.org/2000/svg" xmlns:xlink="http://www.w3.org/1999/xlink" x="0px" y="0px"
	 viewBox="0 0 80 80" style="enable-background:new 0 0 80 80;" xml:space="preserve">
<style type="text/css">
	.st0{fill:url(#SVGID_1_);}
	.st1{fill:url(#SVGID_00000057132773709016910730000018409793678568677043_);}
	.st2{fill:url(#SVGID_00000050659616262215804680000003278773055976646829_);}
	.st3{fill:url(#SVGID_00000163067645442699645490000014398823833292171445_);}
	.st4{fill:url(#SVGID_00000166665718190537588890000018231099519581494693_);}
	.st5{fill:url(#SVGID_00000163031730348033641130000013839107897061481121_);}
	.st6{fill:url(#SVGID_00000176004269330547751690000009030729277979174581_);}
	.st7{fill:url(#SVGID_00000179635122579086091210000015990603295479682968_);}
	.st8{fill:url(#SVGID_00000044180301110609944060000017342775201155370663_);}
	.st9{fill:url(#SVGID_00000121250280964188124090000013098206738686692012_);}
	.st10{fill:url(#SVGID_00000028305514291704468230000006174934621753782174_);}
	.st11{fill:url(#SVGID_00000033356505790116561550000016265736295442907287_);}
	.st12{fill:url(#SVGID_00000088092396914780957200000013228299559540907398_);}
	.st13{fill:url(#SVGID_00000101101272394476199070000009011349756472180670_);}
	.st14{fill:url(#SVGID_00000031175314086497643980000012370205886920470686_);}
	.st15{fill:url(#SVGID_00000163068184951798817700000012051459839802161546_);}
	.st16{fill:url(#SVGID_00000000914418856305784400000015978818094215417479_);}
	.st17{fill:url(#SVGID_00000158739626124369412670000016954146060030218430_);}
	.st18{fill:url(#SVGID_00000028323085712483467160000000098280764941930917_);}
	.st19{fill:url(#SVGID_00000021106359671646606800000004100422382250243770_);}
	.st20{fill:url(#SVGID_00000013183345182978860620000015195530330282673547_);}
	.st21{fill:url(#SVGID_00000175286591547270164220000017213603787426927777_);}
	.st22{fill:url(#SVGID_00000124155384402426086590000014261418793616089764_);}
	.st23{fill:url(#SVGID_00000103987731742987482520000010614867150064619190_);}
	.st24{fill:url(#SVGID_00000026154219180622961560000003225944450419756200_);}
	.st25{fill:url(#SVGID_00000058551166022720633890000003299823257152916634_);}
	.st26{fill:url(#SVGID_00000141453156313723180660000006235016143483051906_);}
	.st27{fill:url(#SVGID_00000149348259389177042630000006554026124090239369_);}
	.st28{fill:url(#SVGID_00000103950703597384826440000012797217559350543282_);}
	.st29{fill:url(#SVGID_00000075884091517650404030000008094431223343909532_);}
	.st30{fill:url(#SVGID_00000070087121845777279080000005743872171268765595_);}
	.st31{fill:url(#SVGID_00000085958149027135124510000008812294188247338417_);}
	.st32{fill:url(#SVGID_00000038413481153557684550000004806944308616761522_);}
	.st33{fill:url(#SVGID_00000039118225952352201650000013751961210698147218_);}
	.st34{fill:url(#SVGID_00000021079886600888590930000001384410922974091181_);}
	.st35{fill:url(#SVGID_00000165931147481292109960000006188796346502571957_);}
	.st36{fill:url(#SVGID_00000028302191556190536580000017538513556792003996_);}
	.st37{fill:url(#SVGID_00000006699807590980543110000014496839750422709125_);}
	.st38{fill:url(#SVGID_00000163034884669286468490000012440459068467841923_);}
	.st39{fill:url(#SVGID_00000131369853216444771020000004659461573323241107_);}
	.st40{fill:url(#SVGID_00000039120775259927922490000003836540474407884429_);}
	.st41{fill:url(#SVGID_00000069377435769861103700000014166777453655114144_);}
	.st42{fill:url(#SVGID_00000003072760650109070200000003311962749158721974_);}
	.st43{fill:url(#SVGID_00000014628401861711972240000005995554471145065621_);}
	.st44{fill:url(#SVGID_00000179611561047572290660000017083030780850626724_);}
	.st45{fill:url(#SVGID_00000179612641748191142070000005471158275286111675_);}
</style>
<g id="oDRFuk.tif_00000119094090914334647400000014411651196256768914_">
	<g>
		<linearGradient id="SVGID_1_" gradientUnits="userSpaceOnUse" x1="7.6962" y1="14.5491" x2="65.0743" y2="79.2872">
			<stop  offset="0" style="stop-color:#b00bc5"/>
			<stop  offset="1" style="stop-color:#453E1B"/>
		</linearGradient>
		<path class="st0" d="M15.9,25.4c0-0.6-0.1-1.1-0.4-1.7c-0.2-0.4-0.2-0.6,0.1-0.9c3.1-3,6.1-6.1,9.1-9.1c0.4-0.4,0.6-0.3,0.9,0
			c3.2,3.2,6.4,6.4,9.6,9.6c0.4,0.4,0.4,0.7,0,1c-0.4,0.4-0.8,0.8-1.2,1.2c-0.4,0.4-0.4,0.6,0,1c2,2,4,4,6,5.9
			c0.7,0.7,0.7,0.7,0,1.4c-1.5,1.5-3.1,3.1-4.6,4.6c-0.4,0.4-0.6,0.4-1,0c-2-2-4.1-4.1-6.1-6.1c-0.4-0.4-0.7-0.5-1.1,0
			c-0.1,0.1-0.2,0.2-0.3,0.4c-0.6,0.8-1.2,1.1-2.4,0.7c-1.5-0.6-2.9,0.1-3.9,1.2c-1.1,1.2-1.4,2.6-0.7,4.1c0.3,0.6,0.1,0.9-0.3,1.3
			c-1.3,1.2-2.6,2.5-3.8,3.8c-0.4,0.4-0.6,0.4-1,0c-3.2-3.2-6.4-6.4-9.6-9.6c-0.4-0.4-0.4-0.6,0-1c1.3-1.3,2.6-2.6,3.9-3.9
			c0.4-0.4,0.7-0.5,1.2-0.2C12.8,30.2,15.9,28.1,15.9,25.4z"/>
		
			<linearGradient id="SVGID_00000116953613176785642070000013815705881853462943_" gradientUnits="userSpaceOnUse" x1="15.405" y1="7.7166" x2="72.7832" y2="72.4548">
			<stop  offset="0" style="stop-color:#b00bc5"/>
			<stop  offset="1" style="stop-color:#453E1B"/>
		</linearGradient>
		<path style="fill:url(#SVGID_00000116953613176785642070000013815705881853462943_);" d="M75,67.8c0,2.3-1.3,4.2-3.3,5
			c-2.2,0.9-4.3,0.4-6-1.3c-3.2-3.2-6.4-6.4-9.6-9.6c-2.5-2.5-4.9-4.9-7.4-7.4c-0.6-0.6-1-1.1-0.4-1.9c0.2-0.3-0.1-0.5-0.3-0.6
			c-1.4-1.4-2.8-2.8-4.2-4.2c-0.4-0.4-0.4-0.6,0-1c1.6-1.6,3.2-3.2,4.8-4.8c0.4-0.4,0.6-0.4,0.9,0c1.4,1.4,2.8,2.8,4.2,4.2
			c0.3,0.3,0.5,0.5,1,0.2c0.6-0.3,1,0,1.5,0.4c2,2,4.1,4.1,6.1,6.1c3.6,3.6,7.1,7.1,10.7,10.7C74.3,64.8,75.1,66.1,75,67.8z"/>
		
			<linearGradient id="SVGID_00000154420690223318682390000009480254488287797656_" gradientUnits="userSpaceOnUse" x1="14.4547" y1="8.5589" x2="71.8329" y2="73.297">
			<stop  offset="0" style="stop-color:#b00bc5"/>
			<stop  offset="1" style="stop-color:#453E1B"/>
		</linearGradient>
		<path style="fill:url(#SVGID_00000154420690223318682390000009480254488287797656_);" d="M56.7,31.2c-0.1,0.2-0.3,0.4-0.4,0.6
			c-2.7,2.7-5.5,5.5-8.2,8.2c-4.6,4.6-9.3,9.2-13.9,13.9c-0.5,0.5-0.8,0.5-1.3,0c-1.4-1.5-2.9-3-4.4-4.4c-0.4-0.4-0.5-0.7,0-1.2
			c7.4-7.4,14.8-14.8,22.2-22.2c0.5-0.5,0.7-0.4,1.2,0c1.5,1.5,3,3,4.5,4.5C56.4,30.8,56.6,30.9,56.7,31.2z"/>
		
			<linearGradient id="SVGID_00000090284828228721600600000009970330629847729823_" gradientUnits="userSpaceOnUse" x1="36.234" y1="-10.7443" x2="93.6122" y2="53.9938">
			<stop  offset="0" style="stop-color:#b00bc5"/>
			<stop  offset="1" style="stop-color:#453E1B"/>
		</linearGradient>
		<path style="fill:url(#SVGID_00000090284828228721600600000009970330629847729823_);" d="M71.7,15.9c0,4-2.4,7.6-6.1,8.9
			c-2.8,1-5.1,2.4-7.1,4.6c-0.5,0.5-0.8,0.5-1.3,0c-1.5-1.6-3.1-3.1-4.7-4.7c-0.3-0.3-0.5-0.5-0.2-0.9c0.9-1.8,1-3.7,0.5-5.6
			c-1.2-5.1,1.7-10.1,6.7-11.6c0.1,0,0.1-0.1,0.2-0.1c0.3,0,0.5-0.2,0.7,0c0.2,0.2,0,0.5-0.1,0.7c-0.5,1.6-1,3.3-1.5,4.9
			c-0.6,1.9,0.2,3.9,1.9,4.8c2.3,1.3,5.1,0.2,5.9-2.4c0.6-1.7,1.1-3.4,1.6-5.1c0.1-0.2,0-0.5,0.3-0.6c0.2,0,0.4,0.2,0.5,0.4
			C70.9,11.2,71.7,13.5,71.7,15.9z"/>
		
			<linearGradient id="SVGID_00000164474930169960781160000012126765539869923508_" gradientUnits="userSpaceOnUse" x1="-7.3214" y1="27.8593" x2="50.0567" y2="92.5975">
			<stop  offset="0" style="stop-color:#b00bc5"/>
			<stop  offset="1" style="stop-color:#453E1B"/>
		</linearGradient>
		<path style="fill:url(#SVGID_00000164474930169960781160000012126765539869923508_);" d="M12.9,64.4c0-4.3,2.5-8,6.3-9.3
			c2.7-0.9,5.1-2.4,6.9-4.5c0.5-0.6,0.8-0.5,1.3,0c1.5,1.6,3,3.1,4.6,4.6c0.4,0.4,0.5,0.7,0.2,1.2c-0.8,1.6-0.9,3.3-0.5,5.1
			c0.9,3.7,0,6.9-2.7,9.6c-1.2,1.2-2.7,1.9-4.3,2.3c-0.7,0.2-0.8,0.1-0.5-0.6c0.5-1.7,1.1-3.3,1.6-5c0.6-2-0.2-3.9-1.9-4.8
			c-1.7-0.9-3.8-0.6-5.1,0.8c-0.5,0.5-0.8,1.1-1,1.7c-0.5,1.6-1,3.3-1.5,4.9c-0.2,0.7-0.3,0.7-0.8,0.2C13.7,68.8,13,66.6,12.9,64.4z
			"/>
		
			<linearGradient id="SVGID_00000031180213631260443910000016143009884180919943_" gradientUnits="userSpaceOnUse" x1="25.5645" y1="-1.2878" x2="82.9426" y2="63.4503">
			<stop  offset="0" style="stop-color:#b00bc5"/>
			<stop  offset="1" style="stop-color:#453E1B"/>
		</linearGradient>
		<path style="fill:url(#SVGID_00000031180213631260443910000016143009884180919943_);" d="M40,8.4c2.2,0.1,4.3,0.6,6.2,1.6
			c0.2,0.1,0.5,0.2,0.5,0.4c0,0.3-0.3,0.3-0.5,0.4c-4.3,2.2-7.9,5.2-11,8.9c-0.6,0.8-0.6,0.8-1.3,0.1c-1.7-1.7-3.3-3.4-5-5
			c-0.4-0.4-0.4-0.7,0-1.1c2.5-2.7,5.4-4.5,9-5C38.6,8.5,39.3,8.5,40,8.4z"/>
	</g>
</g>
</svg>
