<?xml version="1.0" encoding="utf-8"?>
<!-- Generator: Adobe Illustrator 27.8.0, SVG Export Plug-In . SVG Version: 6.00 Build 0)  -->
<svg version="1.1" id="Layer_1" xmlns="http://www.w3.org/2000/svg" xmlns:xlink="http://www.w3.org/1999/xlink" x="0px" y="0px"
	 viewBox="0 0 80 80" style="enable-background:new 0 0 80 80;" xml:space="preserve">
<style type="text/css">
	.st0{fill:url(#SVGID_1_);}
	.st1{fill:url(#SVGID_00000158731258468659791770000000809405548441406905_);}
	.st2{fill:url(#SVGID_00000178181986926696504390000005087970974022623904_);}
	.st3{fill:url(#SVGID_00000080897926168998133430000010944794965209576894_);}
	.st4{fill:url(#SVGID_00000139272548721963355260000014301702715942233513_);}
	.st5{fill:url(#SVGID_00000003095686500639764050000011485056801312785828_);}
	.st6{fill:url(#SVGID_00000148651246594703538790000008921781672635425163_);}
	.st7{fill:url(#SVGID_00000051365874631905339420000009626327912275550088_);}
	.st8{fill:url(#SVGID_00000083090423288163641210000007533711631903750804_);}
	.st9{fill:url(#SVGID_00000101812051061743705180000003556204364123239583_);}
	.st10{fill:url(#SVGID_00000158729684490540009670000014296149506635863684_);}
	.st11{fill:url(#SVGID_00000067949635168072766260000004321304502089445541_);}
	.st12{fill:url(#SVGID_00000058582552784713610480000001095909297009199003_);}
	.st13{fill:url(#SVGID_00000005951888513087779570000012948396805511921024_);}
	.st14{fill:url(#SVGID_00000058550085835367896210000013203199850535436464_);}
	.st15{fill:url(#SVGID_00000009551631201047734930000017119154559457824696_);}
	.st16{fill:url(#SVGID_00000105385525240541640280000013517326045363803031_);}
	.st17{fill:url(#SVGID_00000083065086487566429790000014656082564928553656_);}
	.st18{fill:url(#SVGID_00000170977065925461588730000014657573290957448628_);}
	.st19{fill:url(#SVGID_00000135665444969179933970000013439097924612233870_);}
	.st20{fill:url(#SVGID_00000122721691763270699030000013742048180893824926_);}
	.st21{fill:url(#SVGID_00000116211416437385980060000001400566686435688102_);}
	.st22{fill:url(#SVGID_00000129195825753407653450000000510473237204239490_);}
	.st23{fill:url(#SVGID_00000060709031158758224990000011083392465590124454_);}
	.st24{fill:url(#SVGID_00000175308072196751826500000002637471287661521314_);}
	.st25{fill:url(#SVGID_00000168096760935475514550000010939874037970470539_);}
	.st26{fill:url(#SVGID_00000121264334139199783920000012495361633270917051_);}
	.st27{fill:url(#SVGID_00000091722447468553265760000018406011285006643377_);}
	.st28{fill:url(#SVGID_00000109716484492116990970000008882343226698632085_);}
	.st29{fill:url(#SVGID_00000109719679424455106460000001685483086735023782_);}
	.st30{fill:url(#SVGID_00000028312117346392754620000011026018176494236594_);}
	.st31{fill:url(#SVGID_00000006673090556737464700000012687814681318395826_);}
	.st32{fill:url(#SVGID_00000059288464707221665870000000275614755953744257_);}
	.st33{fill:url(#SVGID_00000071529724279320473450000009238057577230179241_);}
	.st34{fill:url(#SVGID_00000114069602328296473700000017701194933547087802_);}
	.st35{fill:url(#SVGID_00000182525616113304641260000013145636350067675574_);}
	.st36{fill:url(#SVGID_00000121991709514208818140000001182659605035500686_);}
	.st37{fill:url(#SVGID_00000090294732220461946250000006195283753854958522_);}
	.st38{fill:url(#SVGID_00000054961846338186119830000003078759059601961608_);}
	.st39{fill:url(#SVGID_00000011008128471553711290000008574941184647389619_);}
	.st40{fill:url(#SVGID_00000139265356761483869470000012296565454798367402_);}
	.st41{fill:url(#SVGID_00000124869118417975701100000003747963681221199266_);}
	.st42{fill:url(#SVGID_00000050623303513485744560000015384383639428562307_);}
	.st43{fill:url(#SVGID_00000052102474682856248220000009701373218585617577_);}
	.st44{fill:url(#SVGID_00000000186867118625390200000008217390824440937897_);}
	.st45{fill:url(#SVGID_00000105406267483929637540000010624178894767349385_);}
</style>
<g id="rOvfAB.tif_00000091718036148974809510000000059744372733498015_">
	<g>
		<linearGradient id="SVGID_1_" gradientUnits="userSpaceOnUse" x1="-8.1779" y1="31.1256" x2="48.9188" y2="88.7848">
			<stop  offset="0" style="stop-color:#a801bd"/>
			<stop  offset="1" style="stop-color:#453E1B"/>
		</linearGradient>
		<path class="st0" d="M10.6,72.1c-1.1-1.5-0.5-4.3,1.1-5.2c1.8-1,2.1-3.1,0.7-4.7c-1-1-1.2-2.9-0.5-4.2c0.4-0.7,1-0.7,1.6-0.7
			c5.1,0,10.2,0,15.3,0c3.3,0,6.5,0,9.8,0c1.3,0,1.8,0.5,2,1.7c0.2,1.2,0.3,2.3-0.8,3.3c-1.4,1.3-1,3.4,0.6,4.4
			c1.7,1.1,2.4,3.4,1.5,5.3C31.5,72.1,21.1,72.1,10.6,72.1z"/>
		
			<linearGradient id="SVGID_00000111153251473919388810000016594255606783551880_" gradientUnits="userSpaceOnUse" x1="6.01" y1="17.0761" x2="63.1067" y2="74.7353">
			<stop  offset="0" style="stop-color:#a801bd"/>
			<stop  offset="1" style="stop-color:#453E1B"/>
		</linearGradient>
		<path style="fill:url(#SVGID_00000111153251473919388810000016594255606783551880_);" d="M44.5,72.1c0.4-1.9-0.1-3.6-0.7-5.4
			c-0.3-0.8-1-1.3-1.8-1.7c-0.3-0.1-0.6-0.3-0.6-0.7c0.1-0.5,0.5-0.5,0.9-0.5c0.2,0,0.5,0,0.8,0c8,0,16,0,24.1,0
			c1.1,0,1.9,0.1,2,1.4c0.1,0.7,0.6,1.3,1.2,1.5c1.3,0.5,1.6,1.4,1.8,2.6c0,0.9,0.4,2.2-0.1,2.7c-0.5,0.5-1.7,0.1-2.7,0.1
			C61.1,72.1,52.8,72.1,44.5,72.1z"/>
		
			<linearGradient id="SVGID_00000090974288255368296980000010916516724715365809_" gradientUnits="userSpaceOnUse" x1="4.7227" y1="18.3508" x2="61.8194" y2="76.01">
			<stop  offset="0" style="stop-color:#a801bd"/>
			<stop  offset="1" style="stop-color:#453E1B"/>
		</linearGradient>
		<path style="fill:url(#SVGID_00000090974288255368296980000010916516724715365809_);" d="M27.3,55.6c-2.7,0-5.4,0-8.2,0
			c-0.8,0-1.2-0.1-1.3-1.1c-0.2-3.7-1.9-5.3-5.6-5.4c-0.6,0-1.1-0.1-1.1-0.8c-0.1-2.9-1.1-5.7-2-8.4c-1.6-4.6-1.9-9.2-0.2-13.8
			c2.1-5.4,6.4-8,11.9-9.1c1.5-0.3,3.1-0.3,4.6-0.3c1.1,0,1.6,0.5,1.6,1.6c0,0.4,0,0.8,0,1.1c0,0.7,0.2,1.1,0.9,1.3
			c1.5,0.3,2.6,1.2,3.6,2.2c2.1,2.2,4.3,4.2,7,5.6c0.9,0.4,1,1.2,0.5,2c-0.8,1.3-1.7,2.7-2.6,4c-0.5,0.7-1.1,0.9-1.8,0.6
			c-2.9-1.2-6-1.6-9-2.4c-1-0.2-1,0.2-0.9,0.9c0.2,0.7,0.7,1.1,1.3,1.5c2.7,1.9,5.4,3.8,7.6,6.3c2.4,2.9,3.8,6.2,4.5,9.8
			c0.5,2.4-1.2,4.3-3.7,4.3C32.1,55.6,29.7,55.6,27.3,55.6z M19.7,21.8c-4.5,1.1-7.3,4.6-7.6,9.1c-0.3,4.3,1.3,8.2,2.2,12.2
			c0.3-2.4-0.2-4.7-0.6-7C12.6,29.9,13.7,24.7,19.7,21.8z"/>
		
			<linearGradient id="SVGID_00000060013400738520197900000017696570873410571930_" gradientUnits="userSpaceOnUse" x1="16.2531" y1="6.9329" x2="73.3498" y2="64.5921">
			<stop  offset="0" style="stop-color:#a801bd"/>
			<stop  offset="1" style="stop-color:#453E1B"/>
		</linearGradient>
		<path style="fill:url(#SVGID_00000060013400738520197900000017696570873410571930_);" d="M53.9,55.6c-3.9,0-7.9,0-11.8,0
			c-1.6,0-1.8-0.2-1.6-1.9c1-7.2,1.9-14.4,2.8-21.6c0.1-1,0.5-1.3,1.4-1.3c5.9,0,11.9,0,17.8,0c1,0,1.4,0.3,1.5,1.3
			c0.9,7.3,1.9,14.7,2.9,22c0.1,1-0.1,1.4-1.2,1.4C61.9,55.6,57.9,55.6,53.9,55.6z"/>
		
			<linearGradient id="SVGID_00000052782362715578441980000003285724694878850208_" gradientUnits="userSpaceOnUse" x1="31.687" y1="-8.3504" x2="88.7837" y2="49.3088">
			<stop  offset="0" style="stop-color:#a801bd"/>
			<stop  offset="1" style="stop-color:#453E1B"/>
		</linearGradient>
		<path style="fill:url(#SVGID_00000052782362715578441980000003285724694878850208_);" d="M53.7,21.7c-3.1,0-6.1,0-9.2,0
			c-0.7,0-1.4-0.1-1.9-0.7c-0.4-0.4-0.9-0.7-1.4-0.8c-1.3-0.3-1.7-1.1-1.6-2.4c0.1-2.9,0.1-5.8,0.1-8.7c0-1,0.4-1.4,1.4-1.4
			c1,0.1,2.1,0,3.1,0c0.7,0,1.1,0.3,1.1,1c0,1,0,2,0,3c0,0.7,0.3,1,1,1c1,0,1.9,0,2.9,0c0.8,0,1-0.3,1-1.1c0-1,0-1.9,0-2.9
			c0-0.7,0.2-1.1,1-1.1c1.7,0,3.4,0,5.1,0c0.8,0,1,0.3,1,1.1c0,0.9,0.1,1.8,0,2.6c-0.1,1.1,0.4,1.4,1.4,1.3c0.3,0,0.7,0,1,0
			c2.7,0,2.6,0.4,2.5-2.6c-0.1-2.7-0.3-2.4,2.5-2.4c2.8,0,2.9,0,3.1,2.7c0.2,2.7,0.1,5.4,0.2,8c0,0.8-0.4,1.2-1.1,1.5
			c-0.8,0.2-1.6,0.6-2.2,1.2c-0.4,0.5-1,0.5-1.6,0.5C59.9,21.7,56.8,21.7,53.7,21.7z"/>
		
			<linearGradient id="SVGID_00000040562049115898771900000009407659802683765670_" gradientUnits="userSpaceOnUse" x1="25.5304" y1="-2.2539" x2="82.6271" y2="55.4054">
			<stop  offset="0" style="stop-color:#a801bd"/>
			<stop  offset="1" style="stop-color:#453E1B"/>
		</linearGradient>
		<path style="fill:url(#SVGID_00000040562049115898771900000009407659802683765670_);" d="M53.8,23.4c3,0,6.1,0,9.1,0
			c2.1,0,3.2,1,3.2,2.9c0,1.8-1.1,2.9-3.1,3c-6.2,0-12.4,0-18.5,0c-2.1,0-3.1-1.1-3.1-3.1c0-1.8,1.1-2.7,3.1-2.7
			C47.7,23.3,50.7,23.4,53.8,23.4z"/>
		
			<linearGradient id="SVGID_00000181086387099353761020000010732658523757155510_" gradientUnits="userSpaceOnUse" x1="10.2309" y1="12.8964" x2="67.3276" y2="70.5556">
			<stop  offset="0" style="stop-color:#a801bd"/>
			<stop  offset="1" style="stop-color:#453E1B"/>
		</linearGradient>
		<path style="fill:url(#SVGID_00000181086387099353761020000010732658523757155510_);" d="M56.7,62.1c-4.1,0-8.2,0-12.3,0
			c-0.9,0-1.3-0.2-1.2-1.2c0-0.8-0.1-1.6-0.3-2.4c-0.2-0.9,0.2-1.2,1.1-1.2c3,0,6.1,0,9.2,0c5.1,0,10.2,0,15.3,0
			c0.7,0,1.5-0.2,1.9,0.6c0.4,1.1,0.8,2.3,0.2,3.4c-0.3,0.7-1.1,0.6-1.8,0.6C64.7,62.1,60.7,62.1,56.7,62.1z"/>
	</g>
</g>
</svg>
