<?xml version="1.0" encoding="UTF-8"?>
<svg id="Layer_1" data-name="Layer 1" xmlns="http://www.w3.org/2000/svg" xmlns:xlink="http://www.w3.org/1999/xlink" version="1.1" viewBox="0 0 96 60">
  <defs>
    <style>
      .cls-1 {
        clip-path: url(#clippath);
      }

      .cls-2 {
        fill: none;
      }

      .cls-2, .cls-3 {
        stroke-width: 0px;
      }

      .cls-3 {
        fill: #b00bc5;
      }
    </style>
    <clipPath id="clippath">
      <rect class="cls-2" x="1.9" y="17.6" width="92.3" height="29.4"/>
    </clipPath>
  </defs>
  <g id="Mask_Group_176" data-name="Mask Group 176">
    <g id="Group_6733" data-name="Group 6733">
      <g class="cls-1">
        <g id="Group_6732" data-name="Group 6732">
          <path id="Path_22644" data-name="Path 22644" class="cls-3" d="M94.1,46.6c-2,0-3.8,0-5.6,0-.5-.2-1-.6-1.1-1.1-1-3.3-.9-3.3-4.3-3.3s-3.2,0-4.8,0c-.9-.1-1.8.5-2,1.4-1.1,3.1-1.2,3-4.5,3h-4.3c.9-2.2,1.8-4.3,2.7-6.3,2.8-6.4,5.7-12.8,8.5-19.3.9-2,2.2-3.1,4.4-2.9.5,0,1,0,1.4,0,4,0,4,0,4.8,3.8,1.6,7.7,3.1,15.4,4.6,23.1,0,.4,0,.8.2,1.5M83.5,26.1h-.5c0,0-4,10.4-4,10.4h6.6l-2.1-10.4"/>
          <path id="Path_22645" data-name="Path 22645" class="cls-3" d="M1.9,18.2c2.2,0,4.3,0,6.5,0,2,0,4.1,0,6.1,0,2,0,2.8.8,3.2,2.7.8,4.2,1.5,8.4,2.3,12.6.2,1.2.5,2.5.8,4.2.6-1.3,1.1-2.3,1.5-3.2,2.1-5,4.1-9.9,6.1-14.9.2-1,1.2-1.6,2.1-1.4,1.9,0,3.8,0,6,0-.7,1.6-1.2,2.9-1.8,4.3-3.4,7.7-6.8,15.3-10.1,23-.2.8-1,1.4-1.9,1.2-1.7-.1-3.3-.1-5,0-1.3.1-1.6-.6-1.9-1.6-1.7-7-3.5-13.9-5.2-20.9-.2-1.7-1.4-3-3.1-3.5-2-.6-4-1.4-6-2.1v-.4"/>
          <path id="Path_22646" data-name="Path 22646" class="cls-3" d="M46.4,45.6l1.3-5.8c1.9.6,3.8,1,5.7,1.3,1.7.2,3.4,0,5-.6,2.2-.8,2.3-3,.4-4.4-.7-.5-1.5-1-2.3-1.4-1-.6-2.1-1.1-3.1-1.7-5.5-3.5-4-9.8-.3-12.6,4.1-3,10.9-3.7,16.2-1.5-.4,1.8-.8,3.6-1.3,5.5-1.5-.4-2.9-.8-4.4-1-1.5-.1-3.1,0-4.5.5-2.1.7-2.3,2.7-.4,4,1.4.9,2.9,1.7,4.3,2.5,2.7,1.6,4.9,3.5,4.8,7,0,3.4-1.9,6.4-5,7.8-5.3,2.7-10.7,2.1-16.3.4"/>
          <path id="Path_22647" data-name="Path 22647" class="cls-3" d="M47.5,18.2c-.6,2.6-1,5-1.6,7.4-1.5,6.6-3.1,13.2-4.6,19.9-.2,1-.6,1.3-1.6,1.3-1.9,0-3.7,0-5.9,0,.3-1.3.5-2.4.7-3.5,1.8-7.8,3.6-15.5,5.3-23.3,0-1,.9-1.7,1.8-1.7.1,0,.2,0,.3,0,1.7,0,3.5,0,5.4,0"/>
        </g>
      </g>
    </g>
  </g>
</svg>