<?xml version="1.0" encoding="utf-8"?>
<!-- Generator: Adobe Illustrator 27.8.0, SVG Export Plug-In . SVG Version: 6.00 Build 0)  -->
<svg version="1.1" id="Layer_1" xmlns="http://www.w3.org/2000/svg" xmlns:xlink="http://www.w3.org/1999/xlink" x="0px" y="0px"
	 viewBox="0 0 80 80" style="enable-background:new 0 0 80 80;" xml:space="preserve">
<style type="text/css">
	.st0{fill:url(#SVGID_1_);}
	.st1{fill:url(#SVGID_00000115508052284447936670000015273073507348937634_);}
	.st2{fill:url(#SVGID_00000052073981321799597130000003214413941781507727_);}
	.st3{fill:url(#SVGID_00000129201811084216736750000006456718500326157194_);}
	.st4{fill:url(#SVGID_00000170979903872254228360000004748558265019101587_);}
	.st5{fill:url(#SVGID_00000155832141756002749550000009745686378594688956_);}
	.st6{fill:url(#SVGID_00000176007697741018671250000004691062745211380634_);}
	.st7{fill:url(#SVGID_00000121264781067204222600000018138855719607486609_);}
	.st8{fill:url(#SVGID_00000147918263239781051940000003085530486005345978_);}
	.st9{fill:url(#SVGID_00000175322352053676460880000002235242277569264547_);}
	.st10{fill:url(#SVGID_00000029744384745963835770000016751286189388240528_);}
	.st11{fill:url(#SVGID_00000121991322170729210510000005987974880127858332_);}
	.st12{fill:url(#SVGID_00000161613145139543239750000018405356470946693526_);}
	.st13{fill:url(#SVGID_00000023973148147656863010000000311613286161353654_);}
	.st14{fill:url(#SVGID_00000119827688971994206250000003501507756391269028_);}
	.st15{fill:url(#SVGID_00000122709817235182854830000000149632775313639301_);}
</style>
<g id="kppuuJ.tif_00000101817658557450225920000016839800799112872835_">
	<g>
		<linearGradient id="SVGID_1_" gradientUnits="userSpaceOnUse" x1="21.4751" y1="-4.8777" x2="80.1583" y2="57.2337">
			<stop  offset="0" style="stop-color:#b00bc5"/>
			<stop  offset="1" style="stop-color:#453E1B"/>
		</linearGradient>
		<path class="st0" d="M41.3,2.7c0.5,0.2,1,0.3,1.4,0.5c1.9,0.9,2.6,2,2.4,4.1c-0.4,3.7-0.7,7.5-1,11.2c-0.2,2.3-0.4,4.5-0.6,6.8
			c-0.1,0.9-0.6,1.6-1.4,2.1c-1.1,0.6-2.3,0.7-3.5,0.3c-1.5-0.5-2.1-1.2-2.2-2.8c-0.2-3.1-0.5-6.1-0.8-9.2c-0.3-2.9-0.5-5.9-0.8-8.8
			c-0.2-1.7,0.7-2.8,2.1-3.5c0.6-0.3,1.2-0.4,1.8-0.6C39.6,2.7,40.4,2.7,41.3,2.7z"/>
		
			<linearGradient id="SVGID_00000008838209202363114740000000139271663897739446_" gradientUnits="userSpaceOnUse" x1="-8.6358" y1="23.5712" x2="50.0474" y2="85.6826">
			<stop  offset="0" style="stop-color:#b00bc5"/>
			<stop  offset="1" style="stop-color:#453E1B"/>
		</linearGradient>
		<path style="fill:url(#SVGID_00000008838209202363114740000000139271663897739446_);" d="M30.2,48.1c0,1-0.3,1.7-1.1,2.3
			c-5.1,3.6-10.3,7.2-15.4,10.8c-0.8,0.6-1.7,0.7-2.6,0.4c-2.7-0.8-4.8-4.4-4.2-7.1c0.2-1,0.8-1.8,1.8-2.2
			c5.6-2.6,11.2-5.2,16.7-7.8c1.3-0.6,2.2-0.5,3.3,0.5C29.6,45.8,30.1,46.9,30.2,48.1z"/>
		
			<linearGradient id="SVGID_00000050648576821626528800000008921373413324949434_" gradientUnits="userSpaceOnUse" x1="14.4981" y1="1.7141" x2="73.1813" y2="63.8256">
			<stop  offset="0" style="stop-color:#b00bc5"/>
			<stop  offset="1" style="stop-color:#453E1B"/>
		</linearGradient>
		<path style="fill:url(#SVGID_00000050648576821626528800000008921373413324949434_);" d="M73.3,55.4c0,2.8-2.1,5.5-4.5,6.1
			c-0.8,0.2-1.6,0.1-2.3-0.4c-5.2-3.7-10.4-7.3-15.7-11c-0.6-0.4-0.9-1.1-0.9-1.8c0-1.7,0.7-2.9,2-3.9c0.8-0.6,1.7-0.6,2.7-0.2
			c5.1,2.4,10.2,4.8,15.4,7.2c0.4,0.2,0.7,0.4,1.1,0.5C72.6,52.6,73.3,53.8,73.3,55.4z"/>
		
			<linearGradient id="SVGID_00000042006076925104622720000011693625445214279323_" gradientUnits="userSpaceOnUse" x1="3.2581" y1="12.3338" x2="61.9413" y2="74.4452">
			<stop  offset="0" style="stop-color:#b00bc5"/>
			<stop  offset="1" style="stop-color:#453E1B"/>
		</linearGradient>
		<path style="fill:url(#SVGID_00000042006076925104622720000011693625445214279323_);" d="M30.1,32c-0.1,1.3-0.8,2.6-2.1,3.5
			c-0.8,0.5-1.7,0.6-2.6,0.1c-4.4-2.1-8.9-4.1-13.3-6.2c-1-0.5-2-0.9-3-1.4c-2-0.9-2.5-1.8-2.4-4c0.1-2.3,2-4.9,4.1-5.6
			c1-0.4,2-0.3,2.9,0.4C18.8,22.4,23.9,26,29,29.6C29.8,30.1,30.2,30.8,30.1,32z"/>
		
			<linearGradient id="SVGID_00000047776885631270409150000010586117325610284694_" gradientUnits="userSpaceOnUse" x1="-3.7215" y1="18.9282" x2="54.9617" y2="81.0396">
			<stop  offset="0" style="stop-color:#b00bc5"/>
			<stop  offset="1" style="stop-color:#453E1B"/>
		</linearGradient>
		<path style="fill:url(#SVGID_00000047776885631270409150000010586117325610284694_);" d="M40,77.3c-1,0-1.9-0.1-2.8-0.5
			c-1.9-0.9-2.5-2-2.3-4.1c0.4-3.7,0.7-7.5,1-11.2c0.2-2.3,0.4-4.5,0.6-6.8c0.1-0.9,0.6-1.6,1.4-2.1c1.2-0.6,2.5-0.7,3.8-0.2
			c1.2,0.4,1.7,1.3,1.8,2.5c0.3,3.7,0.6,7.3,1,11c0.2,2.4,0.4,4.7,0.6,7.1c0.2,1.8-0.6,2.9-2.1,3.6C42.1,77.1,41.1,77.3,40,77.3z"/>
		
			<linearGradient id="SVGID_00000150093099984998575020000016619581430059610026_" gradientUnits="userSpaceOnUse" x1="26.4009" y1="-9.5317" x2="85.0841" y2="52.5797">
			<stop  offset="0" style="stop-color:#b00bc5"/>
			<stop  offset="1" style="stop-color:#453E1B"/>
		</linearGradient>
		<path style="fill:url(#SVGID_00000150093099984998575020000016619581430059610026_);" d="M73.3,24.6c0,1.6-0.7,2.7-2.2,3.4
			c-5.4,2.5-10.8,5-16.2,7.6c-1.7,0.8-2.8,0.4-3.9-0.8c-0.6-0.7-1-1.5-1.1-2.3c-0.2-1.1,0.1-2.1,1.1-2.8c5-3.5,9.9-6.9,14.9-10.4
			c1.4-1,2.7-1.3,4.5,0.1C72.3,20.5,73.2,22.3,73.3,24.6z"/>
	</g>
</g>
</svg>
