<?xml version="1.0" encoding="utf-8"?>
<!-- Generator: Adobe Illustrator 27.8.0, SVG Export Plug-In . SVG Version: 6.00 Build 0)  -->
<svg version="1.1" id="Layer_1" xmlns="http://www.w3.org/2000/svg" xmlns:xlink="http://www.w3.org/1999/xlink" x="0px" y="0px"
	 viewBox="0 0 80 80" style="enable-background:new 0 0 80 80;" xml:space="preserve">
<style type="text/css">
	.st0{fill:url(#SVGID_1_);}
	.st1{fill:url(#SVGID_00000182494264618073737750000006627360291341061514_);}
	.st2{fill:url(#SVGID_00000130642327269306867300000006870585708443947905_);}
	.st3{fill:url(#SVGID_00000063609460101656283960000006512507467946343322_);}
	.st4{fill:url(#SVGID_00000110470590566123268480000001717895268639483265_);}
	.st5{fill:url(#SVGID_00000180340660997186712160000010435861462443466884_);}
	.st6{fill:url(#SVGID_00000092413985438039981170000016903018391454810547_);}
	.st7{fill:url(#SVGID_00000020387200656623741460000010330392478186216101_);}
	.st8{fill:url(#SVGID_00000183945176584984568280000015537214405355524226_);}
	.st9{fill:url(#SVGID_00000163073752544894224840000011587886882302333887_);}
	.st10{fill:url(#SVGID_00000045613616678706311710000011475434529441751179_);}
	.st11{fill:url(#SVGID_00000134958647686611625410000002751541832677523073_);}
	.st12{fill:url(#SVGID_00000105411783263631275900000017059095300501646469_);}
	.st13{fill:url(#SVGID_00000070820783417662933180000018225835185228047546_);}
	.st14{fill:url(#SVGID_00000032621733668138571010000009949720723464325550_);}
	.st15{fill:url(#SVGID_00000111159575664933722210000001334559291300770697_);}
</style>
<g id="y3DztM.tif">
	<g>
		<linearGradient id="SVGID_1_" gradientUnits="userSpaceOnUse" x1="12.734" y1="15.1766" x2="62.3643" y2="69.2694">
			<stop  offset="0" style="stop-color:#b00bc5"/>
			<stop  offset="1" style="stop-color:#453E1B"/>
		</linearGradient>
		<path class="st0" d="M46,76.6c-4,0-8.1,0-12.1,0c-2.5-0.4-5.1-0.7-7.6-1.4c-8.4-2.4-13-8.4-13.2-17.2c-0.2-6.1,2.1-11.4,5.5-16.2
			c3.1-4.5,7-8.4,10.9-12.2c0.4-0.4,1-0.7,1.1-1.4c-0.3-0.1-0.5-0.1-0.7-0.1c-1.4-0.3-2.3-1.4-2.2-2.7c0.1-1.4,1.1-2.3,2.6-2.4
			c0.4,0,0.7,0,1.1,0c2.1,0,2.1,0,1.1-2c-1.2-2.3-2.4-4.6-3.5-6.9c-2.3-5.1,1.2-10.5,6.8-10.6c2.6,0,5.3,0,7.9,0
			c6.2,0,9.7,5.6,7,11.2c-0.9,1.8-1.8,3.6-2.8,5.4c-1.4,2.7-1.4,2.7,1.7,2.9c1.5,0.1,2.5,0.9,2.6,2.2c0.2,1.4-0.5,2.5-2,2.8
			c-1.4,0.3-0.7,0.7-0.2,1.2c1.4,1.4,2.9,2.8,4.3,4.3c6.1,6.3,11.5,13,12.6,22.1c0,0.9,0,1.8,0,2.7c-0.1,0.3-0.1,0.7-0.2,1
			c-0.9,8.6-5.1,13.5-13.3,15.8C51,75.9,48.5,76.1,46,76.6z M38.9,57.2C38.9,57.2,38.9,57.2,38.9,57.2c-1.1,0-2.1,0-3.2,0
			c-0.1,0-0.2,0-0.3,0c-1.5,0.1-2.6,1-2.6,2.2c0,1.3,1,2.2,2.6,2.4c0.2,0,0.4,0,0.6,0c1.1-0.1,1.6,0.3,1.5,1.5
			c0,0.5,0.1,1.1,0.2,1.6c0.3,1,1,1.6,2.1,1.6c1.1,0,1.8-0.6,2.1-1.7c0.1-0.4,0.2-0.9,0.2-1.3c-0.1-1.3,0.4-1.8,1.6-2
			c3.4-0.7,5.7-3.7,5.7-7c-0.1-3.4-2.5-6.2-5.9-6.9c-1.9-0.4-3.7-0.1-5.6-0.2c-1.9-0.1-3-0.9-3-2.5c0-1.6,1.1-2.6,3-2.6
			c1.8,0,3.6,0,5.5,0c0.5,0,0.9,0,1.4-0.1c1.2-0.2,2.1-0.9,2.1-2.2c0-1.4-0.9-2.1-2.2-2.3c-0.4-0.1-0.8-0.1-1.2-0.1
			c-1,0.1-1.4-0.3-1.4-1.3c0-0.7,0-1.4-0.3-2.1c-0.4-0.9-1.1-1.4-2-1.3c-0.9,0-1.7,0.5-2,1.4c-0.2,0.5-0.3,1.1-0.3,1.6
			c0.1,1.3-0.4,1.8-1.6,2c-3.4,0.7-5.7,3.7-5.7,7c0.1,3.4,2.5,6.2,5.9,6.9c1.9,0.4,3.7,0.1,5.6,0.2c1.9,0.1,3,0.9,3,2.5
			c0,1.6-1.1,2.6-3,2.6C40.9,57.2,39.9,57.2,38.9,57.2z"/>
	</g>
</g>
</svg>
