<?xml version="1.0" encoding="utf-8"?>
<!-- Generator: Adobe Illustrator 27.8.0, SVG Export Plug-In . SVG Version: 6.00 Build 0)  -->
<svg version="1.1" id="Layer_1" xmlns="http://www.w3.org/2000/svg" xmlns:xlink="http://www.w3.org/1999/xlink" x="0px" y="0px"
	 viewBox="0 0 80 80" style="enable-background:new 0 0 80 80;" xml:space="preserve">
<style type="text/css">
	.st0{fill:url(#SVGID_1_);}
	.st1{fill:url(#SVGID_00000139988879734567164250000015983880596735358634_);}
	.st2{fill:url(#SVGID_00000003067134480976843460000015888864687054182031_);}
	.st3{fill:url(#SVGID_00000071536572735333823050000005269095234074036111_);}
	.st4{fill:url(#SVGID_00000078027571022525413670000016477724188203871111_);}
	.st5{fill:url(#SVGID_00000163049776529590418920000006699890885267941286_);}
	.st6{fill:url(#SVGID_00000135671988567116617740000008000486069569753740_);}
	.st7{fill:url(#SVGID_00000008871584152983339540000014568678659785446335_);}
	.st8{fill:url(#SVGID_00000100376927009118893940000005059715673259524243_);}
	.st9{fill:url(#SVGID_00000088133129570467272500000013451334240816359306_);}
	.st10{fill:url(#SVGID_00000084487890307584063320000002342635476374029967_);}
	.st11{fill:url(#SVGID_00000132049453951038572840000006538276463419961259_);}
	.st12{fill:url(#SVGID_00000105410586454449405460000012992268910856187267_);}
	.st13{fill:url(#SVGID_00000096745021382298349320000013528961238138448285_);}
	.st14{fill:url(#SVGID_00000111161911726022425040000006829678803408773817_);}
	.st15{fill:url(#SVGID_00000140720680158201128600000004566766352927600286_);}
</style>
<g id="_x34_NQlRt.tif_00000132056881013673548860000001877736872623187851_">
	<g>
		<linearGradient id="SVGID_1_" gradientUnits="userSpaceOnUse" x1="13.9244" y1="3.2094" x2="75.7406" y2="62.7951">
			<stop  offset="0" style="stop-color:#a801bd"/>
			<stop  offset="1" style="stop-color:#453E1B"/>
		</linearGradient>
		<path class="st0" d="M39.9,4.4c6.1,0,12.2,0,18.3,0c4,0,6.2,2,5.9,5.9c-0.3,3.7,0.8,6.4,3.7,8.7c2.3,1.8,4.2,4.1,6.3,6.2
			c1.3,1.2,1.9,2.7,1.8,4.4c-0.1,1.7,0,3.4,0,5.1c-0.1,3.6-2,6.3-5.1,7.2c-3.4,1-6.6-0.3-8.6-3.4c-0.6-1-1-1-1.6,0
			c-3.2,4.9-9.4,5-12.7,0.1c-0.8-1.2-0.9-1.2-1.7,0.1c-3,4.7-9.5,4.7-12.5,0c-0.8-1.2-0.9-1.2-1.7,0c-3.1,4.8-9.6,4.7-12.6-0.1
			c-0.7-1.1-1-1-1.6,0c-1.7,2.9-4.9,4.2-8.2,3.4c-3.2-0.8-5.3-3.4-5.4-6.8c-0.1-2.1,0-4.3,0-6.4c0-1.4,0.7-2.5,1.7-3.5
			c2.9-2.8,5.7-5.7,8.6-8.5c1.1-1,1.5-2.1,1.4-3.5c-0.1-1.2,0-2.5,0-3.7c0-3.2,2.1-5.2,5.3-5.3C27.3,4.4,33.6,4.4,39.9,4.4z"/>
		
			<linearGradient id="SVGID_00000075856278561833234990000008500567362997024165_" gradientUnits="userSpaceOnUse" x1="-3.7653" y1="21.5613" x2="58.0509" y2="81.147">
			<stop  offset="0" style="stop-color:#a801bd"/>
			<stop  offset="1" style="stop-color:#453E1B"/>
		</linearGradient>
		<path style="fill:url(#SVGID_00000075856278561833234990000008500567362997024165_);" d="M40,75.6c-10.2,0-20.4,0-30.6,0
			c-2.6,0-4.2-1.2-4.4-3.3c-0.3-2.2,1.3-4.2,3.6-4.2c2.2,0,2.1,0,2.1-2.3c0-5.4,0-10.8,0-16.2c0-1.2,0.3-1.8,1.6-1.9
			c1.6-0.1,3.1-0.4,4.5-1.1c1.3-0.6,1.5-0.5,1.5,1c0,5.3,0,10.5,0,15.8c0,0.9,0.1,1.9,0,2.8c-0.1,1.4,0.5,1.8,1.8,1.7
			c4.8-0.1,9.6-0.1,14.4,0c1.3,0,1.7-0.3,1.7-1.7c-0.1-5.7,0-11.5,0-17.2c0-1.8,0-1.8,1.7-1.5c1.4,0.2,2.7,0.2,4.1,0
			c1.7-0.3,1.7-0.2,1.7,1.6c0,5.7,0,11.4,0,17.1c0,1.3,0.3,1.8,1.7,1.8c4.8-0.1,9.6-0.1,14.4,0c1.4,0,1.8-0.4,1.8-1.8
			c-0.1-6,0-12,0-18.1c0-2.2,0-2.2,1.9-1.4c1.3,0.6,2.7,0.9,4.1,0.9c1.4,0,1.6,0.6,1.6,1.8c0,5.5,0,10.9,0,16.4c0,2,0,2,2,2.1
			c2,0.1,3.5,1.4,3.7,3.3c0.2,2-1,3.6-2.9,4.1c-0.7,0.2-1.4,0.2-2.1,0.2C60,75.6,50,75.6,40,75.6z"/>
		
			<linearGradient id="SVGID_00000046298542814304636570000006300695223863565960_" gradientUnits="userSpaceOnUse" x1="4.0088" y1="13.4962" x2="65.825" y2="73.0819">
			<stop  offset="0" style="stop-color:#a801bd"/>
			<stop  offset="1" style="stop-color:#453E1B"/>
		</linearGradient>
		<path style="fill:url(#SVGID_00000046298542814304636570000006300695223863565960_);" d="M50.4,61.7c-2,0-3.4-1.4-3.4-3.4
			c0-2,1.5-3.6,3.5-3.5c1.9,0,3.5,1.6,3.5,3.5C54,60.2,52.5,61.7,50.4,61.7z"/>
	</g>
</g>
</svg>
