<?xml version="1.0" encoding="utf-8"?>
<!-- Generator: Adobe Illustrator 27.8.0, SVG Export Plug-In . SVG Version: 6.00 Build 0)  -->
<svg version="1.1" id="Layer_1" xmlns="http://www.w3.org/2000/svg" xmlns:xlink="http://www.w3.org/1999/xlink" x="0px" y="0px"
	 viewBox="0 0 80 80" style="enable-background:new 0 0 80 80;" xml:space="preserve">
<style type="text/css">
	.st0{fill:url(#SVGID_1_);}
	.st1{fill:url(#SVGID_00000076583465744355284800000014783885398789231039_);}
	.st2{fill:url(#SVGID_00000074430738553327410790000011061685647456620418_);}
	.st3{fill:url(#SVGID_00000176760375336994444300000004305507229552883090_);}
	.st4{fill:url(#SVGID_00000121985859967243923420000010148531479217926280_);}
	.st5{fill:url(#SVGID_00000091009305255033218110000006994433630350708376_);}
	.st6{fill:url(#SVGID_00000170990073528262193130000010087372723246065542_);}
	.st7{fill:url(#SVGID_00000075855375414710823060000010930009167580119180_);}
	.st8{fill:url(#SVGID_00000121247882580795157600000005308551967272859574_);}
	.st9{fill:url(#SVGID_00000051341170386811897840000011631551417075697342_);}
	.st10{fill:url(#SVGID_00000109009591367381736590000013475055466941606044_);}
	.st11{fill:url(#SVGID_00000067225280032229899100000006935602069465342880_);}
	.st12{fill:url(#SVGID_00000116938969584303682620000012611156262208539789_);}
	.st13{fill:url(#SVGID_00000068642368350893418310000003966750375236401591_);}
	.st14{fill:url(#SVGID_00000101102807014093395680000016908901156441414529_);}
	.st15{fill:url(#SVGID_00000001650877062254444180000009259464985196667567_);}
</style>
<g>
	<linearGradient id="SVGID_1_" gradientUnits="userSpaceOnUse" x1="-15.1635" y1="30.0762" x2="46.0865" y2="94.3262">
		<stop  offset="0" style="stop-color:#a801bd"/>
		<stop  offset="1" style="stop-color:#453E1B"/>
	</linearGradient>
	<path class="st0" d="M10.1,48.1c0.6-0.4,1.3-0.7,2-0.7c2.2,0,4.5-0.1,6.7,0c2.2,0.1,3.4,1.2,3.4,3.3c0.1,7.7,0,15.4,0,23.1
		c0,1.3-0.7,2.3-1.7,3.1c-3.1,0-6.3,0-9.4,0c-0.8,0-1-0.2-1-1C10.1,66.7,10.1,57.4,10.1,48.1z"/>
	
		<linearGradient id="SVGID_00000121958042167583573230000011596935817595521461_" gradientUnits="userSpaceOnUse" x1="2.1053" y1="13.6137" x2="63.3553" y2="77.8637">
		<stop  offset="0" style="stop-color:#a801bd"/>
		<stop  offset="1" style="stop-color:#453E1B"/>
	</linearGradient>
	<path style="fill:url(#SVGID_00000121958042167583573230000011596935817595521461_);" d="M38.5,72.3c-3.7,0-7.4,0-11.1,0
		c-1.4,0-2-0.3-2-1.9c0.1-5,0.1-10.1,0-15.1c0-1.1,0.3-1.8,1.4-2.1c1.1-0.3,2.1-1,2.9-1.9c2.2-2.1,4.7-3.1,7.8-3c2,0,3.9,0,5.9,0
		c3.1,0.1,5.5,2,6.3,4.7c0.3,1.1,0.1,1.8-1,2.3c-1.2,0.5-2.4,0.8-3.7,0.8c-2.5,0-4.9,0-7.4,0c-1.1,0-2.2,0.3-2.1,1.6
		c0,1.2,1,1.6,2.1,1.6c2.7,0,5.5,0.1,8.2,0c4.4-0.2,7.6-2.4,9.3-6.4c2.2-4.8,7-5.3,11.3-4.3c2.2,0.5,3.9,3,3.3,5
		c-1.9,6.1-4.2,12-10,15.6c-3.3,2-6.9,2.9-10.7,3C45.6,72.4,42,72.3,38.5,72.3z"/>
	
		<linearGradient id="SVGID_00000138553748197462278020000014604766308915744425_" gradientUnits="userSpaceOnUse" x1="-1.4143" y1="16.969" x2="59.8357" y2="81.219">
		<stop  offset="0" style="stop-color:#a801bd"/>
		<stop  offset="1" style="stop-color:#453E1B"/>
	</linearGradient>
	<path style="fill:url(#SVGID_00000138553748197462278020000014604766308915744425_);" d="M25.3,39.1c0,5.5,0-4.6,0,0.9
		c0,3.1-1,4.2-4.1,4.2c-1.8,0-3.7,0-5.5,0c-2.1,0-3.1-0.9-3.4-3.1c-0.1-0.6-0.1-1.2-0.1-1.8c0-10.4,0,8.2,0-2.2c0-4,1-4.9,5-5
		c1.5,0,2.9,0,4.4,0c2.6,0.1,3.8,1.3,3.8,3.9C25.3,41.4,25.3,33.6,25.3,39.1z"/>
	
		<linearGradient id="SVGID_00000059275986657994098320000018335214422051669936_" gradientUnits="userSpaceOnUse" x1="10.3315" y1="5.7716" x2="71.5815" y2="70.0216">
		<stop  offset="0" style="stop-color:#a801bd"/>
		<stop  offset="1" style="stop-color:#453E1B"/>
	</linearGradient>
	<path style="fill:url(#SVGID_00000059275986657994098320000018335214422051669936_);" d="M32.8,32.1c0-3.6,0,3,0-0.6
		c0-2.3,1.1-3.5,3.5-3.6c2-0.1,3.9-0.1,5.9,0c2.4,0.1,3.6,1.3,3.6,3.7c0,7.1,0,2,0,9c0,2.4-1.2,3.6-3.6,3.7c-2,0.1-3.9,0.1-5.9,0
		c-2.3-0.1-3.5-1.2-3.5-3.6C32.8,37.2,32.8,35.7,32.8,32.1z"/>
	
		<linearGradient id="SVGID_00000142896516155722129160000017017831346908864152_" gradientUnits="userSpaceOnUse" x1="22.0785" y1="-5.4269" x2="83.3285" y2="58.8231">
		<stop  offset="0" style="stop-color:#a801bd"/>
		<stop  offset="1" style="stop-color:#453E1B"/>
	</linearGradient>
	<path style="fill:url(#SVGID_00000142896516155722129160000017017831346908864152_);" d="M61.2,11.8c0,1,0,2,0,3
		c0,1.6,1,2.7,2.3,2.7c1.4,0.1,2.4-1,2.5-2.6c0.1-2.9,0.2-5.8,0.3-8.7c0-2.3-0.9-3.2-3.2-3.2c-2.9,0-5.8,0-8.7,0
		c-1.8,0-2.8,0.9-2.8,2.4c0,1.4,1.1,2.4,2.8,2.4c0.9,0,1.9,0,2.8,0.1c0.1,0,0.1,0,0.5,0.2c-3.1,2.7-5.3,6.2-9.1,8.1
		c-1.1,0.6-2.4,0.6-3.6,0.6c-3.1,0-25.6,0-28.8,0c-0.7,0-1.4,0-2.1,0.1c-1.4,0.2-2.3,1.1-2.2,2.5c0.1,1.5,1.1,2.3,2.5,2.3
		c2.8,0.1,24.9,0,27.7,0c1.4,0,2.8,0.1,4.2,0c3.1-0.3,5.9-1.4,8.1-3.7c2.1-2.1,4.2-4.4,6.3-6.5C60.9,11.6,61.1,11.7,61.2,11.8z"/>
	
		<linearGradient id="SVGID_00000157282873532174105180000013392223569130920127_" gradientUnits="userSpaceOnUse" x1="22.6247" y1="-5.9476" x2="83.8747" y2="58.3024">
		<stop  offset="0" style="stop-color:#a801bd"/>
		<stop  offset="1" style="stop-color:#453E1B"/>
	</linearGradient>
	<path style="fill:url(#SVGID_00000157282873532174105180000013392223569130920127_);" d="M53.3,34.6c0-2.1,0-7.5,0-9.6
		c0-2.2,1.1-3.3,3.3-3.3c2.1,0,4.1,0,6.2,0c2.2,0.1,3.4,1.2,3.4,3.5c0,4.1,0,11.7,0,15.8c0,2-1.1,3.3-3.2,3.4
		c-2.2,0.1-4.5,0.1-6.7,0c-1.9-0.1-3-1.4-3-3.3C53.3,38.9,53.3,36.8,53.3,34.6z"/>
</g>
</svg>
