<?xml version="1.0" encoding="utf-8"?>
<!-- Generator: Adobe Illustrator 27.8.0, SVG Export Plug-In . SVG Version: 6.00 Build 0)  -->
<svg version="1.1" id="Layer_1" xmlns="http://www.w3.org/2000/svg" xmlns:xlink="http://www.w3.org/1999/xlink" x="0px" y="0px"
	 viewBox="0 0 50 50" style="enable-background:new 0 0 50 50;" xml:space="preserve">
<style type="text/css">
	.st0{fill:#F29600;}
	.st1{fill:#FFB818;}
	.st2{fill:#95BF46;}
	.st3{fill:#5E8E3E;}
</style>
<g id="_x39_2LNaE.tif_00000165197730837455818330000014736747307346074270_">
	<g>
		<path class="st1" d="M47.3,14.6c-0.1,1.1-0.4,1.9-1.4,2.3c-3.7,1.7-7.3,3.4-11,5.1c-0.9,0.4-1.6,0.3-2.3-0.4
			c-0.5-0.5-0.9-1.2-0.9-1.9c-0.1-0.7,0.1-1.3,0.7-1.7c3.4-2.4,6.8-4.8,10.3-7.2c0.7-0.5,1.5-0.5,2.2-0.1
			C46.4,11.5,47.1,12.9,47.3,14.6z"/>
		<path class="st1" d="M47.3,35.3c-0.2,1.7-0.9,3-2.3,3.8c-0.8,0.5-1.7,0.5-2.5-0.1c-3.4-2.4-6.8-4.8-10.2-7.1
			c-0.5-0.3-0.7-0.8-0.7-1.3c0-1.2,0.5-2.1,1.5-2.7c0.5-0.3,1-0.3,1.5-0.1c3.8,1.8,7.6,3.5,11.4,5.3C47,33.6,47.2,34.4,47.3,35.3z"
			/>
		<path class="st1" d="M25,50c-0.8-0.1-1.5-0.2-2.2-0.6c-1-0.6-1.4-1.3-1.3-2.5c0.3-3.3,0.6-6.5,0.9-9.8c0.1-0.8,0.2-1.7,0.2-2.5
			c0-0.1,0-0.2,0.1-0.3c0.3-0.8,1.5-1.4,2.6-1.3c1.2,0.2,1.9,0.8,2,1.8c0.4,4.1,0.7,8.2,1.1,12.3c0.1,0.9-0.3,1.6-1.1,2.1
			C26.7,49.8,25.9,49.9,25,50z"/>
		<path class="st1" d="M2.7,35.4c0.1-1.1,0.4-1.9,1.4-2.3c3.7-1.7,7.5-3.5,11.2-5.2c0.6-0.3,1.2-0.2,1.7,0.1
			c0.9,0.6,1.4,1.4,1.4,2.5c0,0.6-0.2,1.1-0.7,1.4c-3.5,2.4-6.9,4.8-10.4,7.3c-0.7,0.5-1.5,0.4-2.2,0C3.6,38.3,2.8,37,2.7,35.4z"/>
		<path class="st1" d="M2.7,14.5c0.2-1.6,0.9-3,2.5-3.8c0.7-0.4,1.5-0.4,2.2,0.1c3.4,2.4,6.9,4.8,10.3,7.2c0.5,0.3,0.7,0.8,0.7,1.4
			c0,1.1-0.5,1.9-1.3,2.5c-0.5,0.4-1.2,0.5-1.8,0.2c-3.7-1.8-7.5-3.5-11.2-5.2C3.1,16.4,2.7,15.6,2.7,14.5z"/>
		<path class="st1" d="M24.8,0c1-0.1,1.7,0.1,2.4,0.5c1,0.6,1.3,1.3,1.2,2.4c-0.3,2.6-0.5,5.2-0.7,7.8c-0.1,1.5-0.3,3-0.4,4.5
			c0,0,0,0.1,0,0.1c-0.2,0.9-1.3,1.5-2.6,1.4c-1.1-0.1-1.9-0.7-2-1.6c-0.3-2.9-0.5-5.8-0.8-8.7c-0.1-1.1-0.2-2.2-0.3-3.2
			c-0.2-1.9,0.8-3.2,2.8-3.3C24.6,0,24.8,0,24.8,0z"/>
	</g>
</g>
</svg>
